%TF.GenerationSoftware,KiCad,Pcbnew,8.0.7*%
%TF.CreationDate,2025-01-02T14:00:55+01:00*%
%TF.ProjectId,av-to-minitel,61762d74-6f2d-46d6-996e-6974656c2e6b,v0.1*%
%TF.SameCoordinates,Original*%
%TF.FileFunction,Drillmap*%
%TF.FilePolarity,Positive*%
%FSLAX45Y45*%
G04 Gerber Fmt 4.5, Leading zero omitted, Abs format (unit mm)*
G04 Created by KiCad (PCBNEW 8.0.7) date 2025-01-02 14:00:55*
%MOMM*%
%LPD*%
G01*
G04 APERTURE LIST*
%ADD10C,0.050000*%
%ADD11C,0.200000*%
%ADD12C,0.100000*%
G04 APERTURE END LIST*
D10*
X9600000Y-7440000D02*
X13340000Y-7440000D01*
X9400000Y-9120000D02*
X9400000Y-7640000D01*
X9400000Y-7640000D02*
G75*
G02*
X9600000Y-7440000I200000J0D01*
G01*
X13340000Y-7440000D02*
G75*
G02*
X13540000Y-7640000I0J-200000D01*
G01*
X9600000Y-9320000D02*
G75*
G02*
X9400000Y-9120000I0J200000D01*
G01*
X13540000Y-7640000D02*
X13540000Y-9120000D01*
X13540000Y-9120000D02*
G75*
G02*
X13340000Y-9320000I-200000J0D01*
G01*
X13340000Y-9320000D02*
X9600000Y-9320000D01*
D11*
D12*
X9725000Y-7805000D02*
X9755000Y-7835000D01*
X9755000Y-7805000D02*
X9725000Y-7835000D01*
X9729595Y-8306175D02*
X9759595Y-8336175D01*
X9759595Y-8306175D02*
X9729595Y-8336175D01*
X9729595Y-8560175D02*
X9759595Y-8590175D01*
X9759595Y-8560175D02*
X9729595Y-8590175D01*
X9729595Y-8814175D02*
X9759595Y-8844175D01*
X9759595Y-8814175D02*
X9729595Y-8844175D01*
X9745000Y-7585000D02*
X9775000Y-7615000D01*
X9775000Y-7585000D02*
X9745000Y-7615000D01*
X10205000Y-8245000D02*
X10235000Y-8275000D01*
X10235000Y-8245000D02*
X10205000Y-8275000D01*
X10245000Y-8785000D02*
X10275000Y-8815000D01*
X10275000Y-8785000D02*
X10245000Y-8815000D01*
X10345000Y-8905000D02*
X10375000Y-8935000D01*
X10375000Y-8905000D02*
X10345000Y-8935000D01*
X10491595Y-9068175D02*
X10521595Y-9098175D01*
X10521595Y-9068175D02*
X10491595Y-9098175D01*
X10625000Y-8105000D02*
X10655000Y-8135000D01*
X10655000Y-8105000D02*
X10625000Y-8135000D01*
X10725000Y-7865000D02*
X10755000Y-7895000D01*
X10755000Y-7865000D02*
X10725000Y-7895000D01*
X10745595Y-8814175D02*
X10775595Y-8844175D01*
X10775595Y-8814175D02*
X10745595Y-8844175D01*
X10745595Y-9068175D02*
X10775595Y-9098175D01*
X10775595Y-9068175D02*
X10745595Y-9098175D01*
X10999595Y-9068175D02*
X11029595Y-9098175D01*
X11029595Y-9068175D02*
X10999595Y-9098175D01*
X11085000Y-8745000D02*
X11115000Y-8775000D01*
X11115000Y-8745000D02*
X11085000Y-8775000D01*
X11285000Y-8885000D02*
X11315000Y-8915000D01*
X11315000Y-8885000D02*
X11285000Y-8915000D01*
X11305000Y-9065000D02*
X11335000Y-9095000D01*
X11335000Y-9065000D02*
X11305000Y-9095000D01*
X11507595Y-8560175D02*
X11537595Y-8590175D01*
X11537595Y-8560175D02*
X11507595Y-8590175D01*
X11761595Y-8814175D02*
X11791595Y-8844175D01*
X11791595Y-8814175D02*
X11761595Y-8844175D01*
X12025000Y-7785000D02*
X12055000Y-7815000D01*
X12055000Y-7785000D02*
X12025000Y-7815000D01*
X12085000Y-9165000D02*
X12115000Y-9195000D01*
X12115000Y-9165000D02*
X12085000Y-9195000D01*
X12125000Y-8285000D02*
X12155000Y-8315000D01*
X12155000Y-8285000D02*
X12125000Y-8315000D01*
X12165000Y-8605000D02*
X12195000Y-8635000D01*
X12195000Y-8605000D02*
X12165000Y-8635000D01*
X12225000Y-9005000D02*
X12255000Y-9035000D01*
X12255000Y-9005000D02*
X12225000Y-9035000D01*
X12365000Y-8765000D02*
X12395000Y-8795000D01*
X12395000Y-8765000D02*
X12365000Y-8795000D01*
X12585000Y-8385000D02*
X12615000Y-8415000D01*
X12615000Y-8385000D02*
X12585000Y-8415000D01*
X12777595Y-7544175D02*
X12807595Y-7574175D01*
X12807595Y-7544175D02*
X12777595Y-7574175D01*
X12965000Y-7845000D02*
X12995000Y-7875000D01*
X12995000Y-7845000D02*
X12965000Y-7875000D01*
X13031595Y-8814175D02*
X13061595Y-8844175D01*
X13061595Y-8814175D02*
X13031595Y-8844175D01*
X13065000Y-8125000D02*
X13095000Y-8155000D01*
X13095000Y-8125000D02*
X13065000Y-8155000D01*
X9625000Y-8520000D02*
G75*
G02*
X9575000Y-8520000I-25000J0D01*
G01*
X9575000Y-8520000D02*
G75*
G02*
X9625000Y-8520000I25000J0D01*
G01*
X11305000Y-8120000D02*
G75*
G02*
X11255000Y-8120000I-25000J0D01*
G01*
X11255000Y-8120000D02*
G75*
G02*
X11305000Y-8120000I25000J0D01*
G01*
X11525000Y-8120000D02*
G75*
G02*
X11475000Y-8120000I-25000J0D01*
G01*
X11475000Y-8120000D02*
G75*
G02*
X11525000Y-8120000I25000J0D01*
G01*
X11925000Y-7600000D02*
G75*
G02*
X11875000Y-7600000I-25000J0D01*
G01*
X11875000Y-7600000D02*
G75*
G02*
X11925000Y-7600000I25000J0D01*
G01*
X12865000Y-8960000D02*
G75*
G02*
X12815000Y-8960000I-25000J0D01*
G01*
X12815000Y-8960000D02*
G75*
G02*
X12865000Y-8960000I25000J0D01*
G01*
X12925000Y-7617500D02*
G75*
G02*
X12875000Y-7617500I-25000J0D01*
G01*
X12875000Y-7617500D02*
G75*
G02*
X12925000Y-7617500I25000J0D01*
G01*
X13085000Y-8620000D02*
G75*
G02*
X13035000Y-8620000I-25000J0D01*
G01*
X13035000Y-8620000D02*
G75*
G02*
X13085000Y-8620000I25000J0D01*
G01*
X9537500Y-7683500D02*
X9537500Y-7783500D01*
X9487500Y-7733500D02*
X9587500Y-7733500D01*
X9537500Y-7937500D02*
X9537500Y-8037500D01*
X9487500Y-7987500D02*
X9587500Y-7987500D01*
X13402500Y-7567500D02*
X13402500Y-7667500D01*
X13352500Y-7617500D02*
X13452500Y-7617500D01*
X13402500Y-7821500D02*
X13402500Y-7921500D01*
X13352500Y-7871500D02*
X13452500Y-7871500D01*
X13402500Y-8075500D02*
X13402500Y-8175500D01*
X13352500Y-8125500D02*
X13452500Y-8125500D01*
X13402500Y-8329500D02*
X13402500Y-8429500D01*
X13352500Y-8379500D02*
X13452500Y-8379500D01*
X13402500Y-8583500D02*
X13402500Y-8683500D01*
X13352500Y-8633500D02*
X13452500Y-8633500D01*
X13402500Y-8837500D02*
X13402500Y-8937500D01*
X13352500Y-8887500D02*
X13452500Y-8887500D01*
X13402500Y-9091500D02*
X13402500Y-9191500D01*
X13352500Y-9141500D02*
X13452500Y-9141500D01*
D11*
X9658277Y-9633984D02*
X9658277Y-9433984D01*
X9658277Y-9433984D02*
X9705896Y-9433984D01*
X9705896Y-9433984D02*
X9734467Y-9443508D01*
X9734467Y-9443508D02*
X9753515Y-9462555D01*
X9753515Y-9462555D02*
X9763039Y-9481603D01*
X9763039Y-9481603D02*
X9772563Y-9519698D01*
X9772563Y-9519698D02*
X9772563Y-9548270D01*
X9772563Y-9548270D02*
X9763039Y-9586365D01*
X9763039Y-9586365D02*
X9753515Y-9605412D01*
X9753515Y-9605412D02*
X9734467Y-9624460D01*
X9734467Y-9624460D02*
X9705896Y-9633984D01*
X9705896Y-9633984D02*
X9658277Y-9633984D01*
X9858277Y-9633984D02*
X9858277Y-9500650D01*
X9858277Y-9538746D02*
X9867801Y-9519698D01*
X9867801Y-9519698D02*
X9877324Y-9510174D01*
X9877324Y-9510174D02*
X9896372Y-9500650D01*
X9896372Y-9500650D02*
X9915420Y-9500650D01*
X9982086Y-9633984D02*
X9982086Y-9500650D01*
X9982086Y-9433984D02*
X9972563Y-9443508D01*
X9972563Y-9443508D02*
X9982086Y-9453031D01*
X9982086Y-9453031D02*
X9991610Y-9443508D01*
X9991610Y-9443508D02*
X9982086Y-9433984D01*
X9982086Y-9433984D02*
X9982086Y-9453031D01*
X10105896Y-9633984D02*
X10086848Y-9624460D01*
X10086848Y-9624460D02*
X10077324Y-9605412D01*
X10077324Y-9605412D02*
X10077324Y-9433984D01*
X10210658Y-9633984D02*
X10191610Y-9624460D01*
X10191610Y-9624460D02*
X10182086Y-9605412D01*
X10182086Y-9605412D02*
X10182086Y-9433984D01*
X10439229Y-9633984D02*
X10439229Y-9433984D01*
X10439229Y-9433984D02*
X10505896Y-9576841D01*
X10505896Y-9576841D02*
X10572563Y-9433984D01*
X10572563Y-9433984D02*
X10572563Y-9633984D01*
X10753515Y-9633984D02*
X10753515Y-9529222D01*
X10753515Y-9529222D02*
X10743991Y-9510174D01*
X10743991Y-9510174D02*
X10724944Y-9500650D01*
X10724944Y-9500650D02*
X10686848Y-9500650D01*
X10686848Y-9500650D02*
X10667801Y-9510174D01*
X10753515Y-9624460D02*
X10734467Y-9633984D01*
X10734467Y-9633984D02*
X10686848Y-9633984D01*
X10686848Y-9633984D02*
X10667801Y-9624460D01*
X10667801Y-9624460D02*
X10658277Y-9605412D01*
X10658277Y-9605412D02*
X10658277Y-9586365D01*
X10658277Y-9586365D02*
X10667801Y-9567317D01*
X10667801Y-9567317D02*
X10686848Y-9557793D01*
X10686848Y-9557793D02*
X10734467Y-9557793D01*
X10734467Y-9557793D02*
X10753515Y-9548270D01*
X10848753Y-9500650D02*
X10848753Y-9700650D01*
X10848753Y-9510174D02*
X10867801Y-9500650D01*
X10867801Y-9500650D02*
X10905896Y-9500650D01*
X10905896Y-9500650D02*
X10924944Y-9510174D01*
X10924944Y-9510174D02*
X10934467Y-9519698D01*
X10934467Y-9519698D02*
X10943991Y-9538746D01*
X10943991Y-9538746D02*
X10943991Y-9595889D01*
X10943991Y-9595889D02*
X10934467Y-9614936D01*
X10934467Y-9614936D02*
X10924944Y-9624460D01*
X10924944Y-9624460D02*
X10905896Y-9633984D01*
X10905896Y-9633984D02*
X10867801Y-9633984D01*
X10867801Y-9633984D02*
X10848753Y-9624460D01*
X11029705Y-9614936D02*
X11039229Y-9624460D01*
X11039229Y-9624460D02*
X11029705Y-9633984D01*
X11029705Y-9633984D02*
X11020182Y-9624460D01*
X11020182Y-9624460D02*
X11029705Y-9614936D01*
X11029705Y-9614936D02*
X11029705Y-9633984D01*
X11029705Y-9510174D02*
X11039229Y-9519698D01*
X11039229Y-9519698D02*
X11029705Y-9529222D01*
X11029705Y-9529222D02*
X11020182Y-9519698D01*
X11020182Y-9519698D02*
X11029705Y-9510174D01*
X11029705Y-9510174D02*
X11029705Y-9529222D01*
D12*
X9367500Y-9947500D02*
X9397500Y-9977500D01*
X9397500Y-9947500D02*
X9367500Y-9977500D01*
D11*
X9696372Y-9853984D02*
X9715420Y-9853984D01*
X9715420Y-9853984D02*
X9734467Y-9863508D01*
X9734467Y-9863508D02*
X9743991Y-9873031D01*
X9743991Y-9873031D02*
X9753515Y-9892079D01*
X9753515Y-9892079D02*
X9763039Y-9930174D01*
X9763039Y-9930174D02*
X9763039Y-9977793D01*
X9763039Y-9977793D02*
X9753515Y-10015889D01*
X9753515Y-10015889D02*
X9743991Y-10034936D01*
X9743991Y-10034936D02*
X9734467Y-10044460D01*
X9734467Y-10044460D02*
X9715420Y-10053984D01*
X9715420Y-10053984D02*
X9696372Y-10053984D01*
X9696372Y-10053984D02*
X9677324Y-10044460D01*
X9677324Y-10044460D02*
X9667801Y-10034936D01*
X9667801Y-10034936D02*
X9658277Y-10015889D01*
X9658277Y-10015889D02*
X9648753Y-9977793D01*
X9648753Y-9977793D02*
X9648753Y-9930174D01*
X9648753Y-9930174D02*
X9658277Y-9892079D01*
X9658277Y-9892079D02*
X9667801Y-9873031D01*
X9667801Y-9873031D02*
X9677324Y-9863508D01*
X9677324Y-9863508D02*
X9696372Y-9853984D01*
X9848753Y-10034936D02*
X9858277Y-10044460D01*
X9858277Y-10044460D02*
X9848753Y-10053984D01*
X9848753Y-10053984D02*
X9839229Y-10044460D01*
X9839229Y-10044460D02*
X9848753Y-10034936D01*
X9848753Y-10034936D02*
X9848753Y-10053984D01*
X9924944Y-9853984D02*
X10048753Y-9853984D01*
X10048753Y-9853984D02*
X9982086Y-9930174D01*
X9982086Y-9930174D02*
X10010658Y-9930174D01*
X10010658Y-9930174D02*
X10029705Y-9939698D01*
X10029705Y-9939698D02*
X10039229Y-9949222D01*
X10039229Y-9949222D02*
X10048753Y-9968270D01*
X10048753Y-9968270D02*
X10048753Y-10015889D01*
X10048753Y-10015889D02*
X10039229Y-10034936D01*
X10039229Y-10034936D02*
X10029705Y-10044460D01*
X10029705Y-10044460D02*
X10010658Y-10053984D01*
X10010658Y-10053984D02*
X9953515Y-10053984D01*
X9953515Y-10053984D02*
X9934467Y-10044460D01*
X9934467Y-10044460D02*
X9924944Y-10034936D01*
X10172563Y-9853984D02*
X10191610Y-9853984D01*
X10191610Y-9853984D02*
X10210658Y-9863508D01*
X10210658Y-9863508D02*
X10220182Y-9873031D01*
X10220182Y-9873031D02*
X10229705Y-9892079D01*
X10229705Y-9892079D02*
X10239229Y-9930174D01*
X10239229Y-9930174D02*
X10239229Y-9977793D01*
X10239229Y-9977793D02*
X10229705Y-10015889D01*
X10229705Y-10015889D02*
X10220182Y-10034936D01*
X10220182Y-10034936D02*
X10210658Y-10044460D01*
X10210658Y-10044460D02*
X10191610Y-10053984D01*
X10191610Y-10053984D02*
X10172563Y-10053984D01*
X10172563Y-10053984D02*
X10153515Y-10044460D01*
X10153515Y-10044460D02*
X10143991Y-10034936D01*
X10143991Y-10034936D02*
X10134467Y-10015889D01*
X10134467Y-10015889D02*
X10124944Y-9977793D01*
X10124944Y-9977793D02*
X10124944Y-9930174D01*
X10124944Y-9930174D02*
X10134467Y-9892079D01*
X10134467Y-9892079D02*
X10143991Y-9873031D01*
X10143991Y-9873031D02*
X10153515Y-9863508D01*
X10153515Y-9863508D02*
X10172563Y-9853984D01*
X10363039Y-9853984D02*
X10382086Y-9853984D01*
X10382086Y-9853984D02*
X10401134Y-9863508D01*
X10401134Y-9863508D02*
X10410658Y-9873031D01*
X10410658Y-9873031D02*
X10420182Y-9892079D01*
X10420182Y-9892079D02*
X10429705Y-9930174D01*
X10429705Y-9930174D02*
X10429705Y-9977793D01*
X10429705Y-9977793D02*
X10420182Y-10015889D01*
X10420182Y-10015889D02*
X10410658Y-10034936D01*
X10410658Y-10034936D02*
X10401134Y-10044460D01*
X10401134Y-10044460D02*
X10382086Y-10053984D01*
X10382086Y-10053984D02*
X10363039Y-10053984D01*
X10363039Y-10053984D02*
X10343991Y-10044460D01*
X10343991Y-10044460D02*
X10334467Y-10034936D01*
X10334467Y-10034936D02*
X10324944Y-10015889D01*
X10324944Y-10015889D02*
X10315420Y-9977793D01*
X10315420Y-9977793D02*
X10315420Y-9930174D01*
X10315420Y-9930174D02*
X10324944Y-9892079D01*
X10324944Y-9892079D02*
X10334467Y-9873031D01*
X10334467Y-9873031D02*
X10343991Y-9863508D01*
X10343991Y-9863508D02*
X10363039Y-9853984D01*
X10515420Y-10053984D02*
X10515420Y-9920650D01*
X10515420Y-9939698D02*
X10524944Y-9930174D01*
X10524944Y-9930174D02*
X10543991Y-9920650D01*
X10543991Y-9920650D02*
X10572563Y-9920650D01*
X10572563Y-9920650D02*
X10591610Y-9930174D01*
X10591610Y-9930174D02*
X10601134Y-9949222D01*
X10601134Y-9949222D02*
X10601134Y-10053984D01*
X10601134Y-9949222D02*
X10610658Y-9930174D01*
X10610658Y-9930174D02*
X10629705Y-9920650D01*
X10629705Y-9920650D02*
X10658277Y-9920650D01*
X10658277Y-9920650D02*
X10677325Y-9930174D01*
X10677325Y-9930174D02*
X10686848Y-9949222D01*
X10686848Y-9949222D02*
X10686848Y-10053984D01*
X10782086Y-10053984D02*
X10782086Y-9920650D01*
X10782086Y-9939698D02*
X10791610Y-9930174D01*
X10791610Y-9930174D02*
X10810658Y-9920650D01*
X10810658Y-9920650D02*
X10839229Y-9920650D01*
X10839229Y-9920650D02*
X10858277Y-9930174D01*
X10858277Y-9930174D02*
X10867801Y-9949222D01*
X10867801Y-9949222D02*
X10867801Y-10053984D01*
X10867801Y-9949222D02*
X10877325Y-9930174D01*
X10877325Y-9930174D02*
X10896372Y-9920650D01*
X10896372Y-9920650D02*
X10924944Y-9920650D01*
X10924944Y-9920650D02*
X10943991Y-9930174D01*
X10943991Y-9930174D02*
X10953515Y-9949222D01*
X10953515Y-9949222D02*
X10953515Y-10053984D01*
X11343991Y-9844460D02*
X11172563Y-10101603D01*
X11601134Y-9853984D02*
X11620182Y-9853984D01*
X11620182Y-9853984D02*
X11639229Y-9863508D01*
X11639229Y-9863508D02*
X11648753Y-9873031D01*
X11648753Y-9873031D02*
X11658277Y-9892079D01*
X11658277Y-9892079D02*
X11667801Y-9930174D01*
X11667801Y-9930174D02*
X11667801Y-9977793D01*
X11667801Y-9977793D02*
X11658277Y-10015889D01*
X11658277Y-10015889D02*
X11648753Y-10034936D01*
X11648753Y-10034936D02*
X11639229Y-10044460D01*
X11639229Y-10044460D02*
X11620182Y-10053984D01*
X11620182Y-10053984D02*
X11601134Y-10053984D01*
X11601134Y-10053984D02*
X11582086Y-10044460D01*
X11582086Y-10044460D02*
X11572563Y-10034936D01*
X11572563Y-10034936D02*
X11563039Y-10015889D01*
X11563039Y-10015889D02*
X11553515Y-9977793D01*
X11553515Y-9977793D02*
X11553515Y-9930174D01*
X11553515Y-9930174D02*
X11563039Y-9892079D01*
X11563039Y-9892079D02*
X11572563Y-9873031D01*
X11572563Y-9873031D02*
X11582086Y-9863508D01*
X11582086Y-9863508D02*
X11601134Y-9853984D01*
X11753515Y-10034936D02*
X11763039Y-10044460D01*
X11763039Y-10044460D02*
X11753515Y-10053984D01*
X11753515Y-10053984D02*
X11743991Y-10044460D01*
X11743991Y-10044460D02*
X11753515Y-10034936D01*
X11753515Y-10034936D02*
X11753515Y-10053984D01*
X11886848Y-9853984D02*
X11905896Y-9853984D01*
X11905896Y-9853984D02*
X11924944Y-9863508D01*
X11924944Y-9863508D02*
X11934467Y-9873031D01*
X11934467Y-9873031D02*
X11943991Y-9892079D01*
X11943991Y-9892079D02*
X11953515Y-9930174D01*
X11953515Y-9930174D02*
X11953515Y-9977793D01*
X11953515Y-9977793D02*
X11943991Y-10015889D01*
X11943991Y-10015889D02*
X11934467Y-10034936D01*
X11934467Y-10034936D02*
X11924944Y-10044460D01*
X11924944Y-10044460D02*
X11905896Y-10053984D01*
X11905896Y-10053984D02*
X11886848Y-10053984D01*
X11886848Y-10053984D02*
X11867801Y-10044460D01*
X11867801Y-10044460D02*
X11858277Y-10034936D01*
X11858277Y-10034936D02*
X11848753Y-10015889D01*
X11848753Y-10015889D02*
X11839229Y-9977793D01*
X11839229Y-9977793D02*
X11839229Y-9930174D01*
X11839229Y-9930174D02*
X11848753Y-9892079D01*
X11848753Y-9892079D02*
X11858277Y-9873031D01*
X11858277Y-9873031D02*
X11867801Y-9863508D01*
X11867801Y-9863508D02*
X11886848Y-9853984D01*
X12143991Y-10053984D02*
X12029706Y-10053984D01*
X12086848Y-10053984D02*
X12086848Y-9853984D01*
X12086848Y-9853984D02*
X12067801Y-9882555D01*
X12067801Y-9882555D02*
X12048753Y-9901603D01*
X12048753Y-9901603D02*
X12029706Y-9911127D01*
X12334467Y-10053984D02*
X12220182Y-10053984D01*
X12277325Y-10053984D02*
X12277325Y-9853984D01*
X12277325Y-9853984D02*
X12258277Y-9882555D01*
X12258277Y-9882555D02*
X12239229Y-9901603D01*
X12239229Y-9901603D02*
X12220182Y-9911127D01*
X12448753Y-9939698D02*
X12429706Y-9930174D01*
X12429706Y-9930174D02*
X12420182Y-9920650D01*
X12420182Y-9920650D02*
X12410658Y-9901603D01*
X12410658Y-9901603D02*
X12410658Y-9892079D01*
X12410658Y-9892079D02*
X12420182Y-9873031D01*
X12420182Y-9873031D02*
X12429706Y-9863508D01*
X12429706Y-9863508D02*
X12448753Y-9853984D01*
X12448753Y-9853984D02*
X12486848Y-9853984D01*
X12486848Y-9853984D02*
X12505896Y-9863508D01*
X12505896Y-9863508D02*
X12515420Y-9873031D01*
X12515420Y-9873031D02*
X12524944Y-9892079D01*
X12524944Y-9892079D02*
X12524944Y-9901603D01*
X12524944Y-9901603D02*
X12515420Y-9920650D01*
X12515420Y-9920650D02*
X12505896Y-9930174D01*
X12505896Y-9930174D02*
X12486848Y-9939698D01*
X12486848Y-9939698D02*
X12448753Y-9939698D01*
X12448753Y-9939698D02*
X12429706Y-9949222D01*
X12429706Y-9949222D02*
X12420182Y-9958746D01*
X12420182Y-9958746D02*
X12410658Y-9977793D01*
X12410658Y-9977793D02*
X12410658Y-10015889D01*
X12410658Y-10015889D02*
X12420182Y-10034936D01*
X12420182Y-10034936D02*
X12429706Y-10044460D01*
X12429706Y-10044460D02*
X12448753Y-10053984D01*
X12448753Y-10053984D02*
X12486848Y-10053984D01*
X12486848Y-10053984D02*
X12505896Y-10044460D01*
X12505896Y-10044460D02*
X12515420Y-10034936D01*
X12515420Y-10034936D02*
X12524944Y-10015889D01*
X12524944Y-10015889D02*
X12524944Y-9977793D01*
X12524944Y-9977793D02*
X12515420Y-9958746D01*
X12515420Y-9958746D02*
X12505896Y-9949222D01*
X12505896Y-9949222D02*
X12486848Y-9939698D01*
X12601134Y-9853984D02*
X12601134Y-9892079D01*
X12677325Y-9853984D02*
X12677325Y-9892079D01*
X12972563Y-10130174D02*
X12963039Y-10120650D01*
X12963039Y-10120650D02*
X12943991Y-10092079D01*
X12943991Y-10092079D02*
X12934468Y-10073031D01*
X12934468Y-10073031D02*
X12924944Y-10044460D01*
X12924944Y-10044460D02*
X12915420Y-9996841D01*
X12915420Y-9996841D02*
X12915420Y-9958746D01*
X12915420Y-9958746D02*
X12924944Y-9911127D01*
X12924944Y-9911127D02*
X12934468Y-9882555D01*
X12934468Y-9882555D02*
X12943991Y-9863508D01*
X12943991Y-9863508D02*
X12963039Y-9834936D01*
X12963039Y-9834936D02*
X12972563Y-9825412D01*
X13029706Y-9853984D02*
X13153515Y-9853984D01*
X13153515Y-9853984D02*
X13086848Y-9930174D01*
X13086848Y-9930174D02*
X13115420Y-9930174D01*
X13115420Y-9930174D02*
X13134468Y-9939698D01*
X13134468Y-9939698D02*
X13143991Y-9949222D01*
X13143991Y-9949222D02*
X13153515Y-9968270D01*
X13153515Y-9968270D02*
X13153515Y-10015889D01*
X13153515Y-10015889D02*
X13143991Y-10034936D01*
X13143991Y-10034936D02*
X13134468Y-10044460D01*
X13134468Y-10044460D02*
X13115420Y-10053984D01*
X13115420Y-10053984D02*
X13058277Y-10053984D01*
X13058277Y-10053984D02*
X13039229Y-10044460D01*
X13039229Y-10044460D02*
X13029706Y-10034936D01*
X13277325Y-9853984D02*
X13296372Y-9853984D01*
X13296372Y-9853984D02*
X13315420Y-9863508D01*
X13315420Y-9863508D02*
X13324944Y-9873031D01*
X13324944Y-9873031D02*
X13334468Y-9892079D01*
X13334468Y-9892079D02*
X13343991Y-9930174D01*
X13343991Y-9930174D02*
X13343991Y-9977793D01*
X13343991Y-9977793D02*
X13334468Y-10015889D01*
X13334468Y-10015889D02*
X13324944Y-10034936D01*
X13324944Y-10034936D02*
X13315420Y-10044460D01*
X13315420Y-10044460D02*
X13296372Y-10053984D01*
X13296372Y-10053984D02*
X13277325Y-10053984D01*
X13277325Y-10053984D02*
X13258277Y-10044460D01*
X13258277Y-10044460D02*
X13248753Y-10034936D01*
X13248753Y-10034936D02*
X13239229Y-10015889D01*
X13239229Y-10015889D02*
X13229706Y-9977793D01*
X13229706Y-9977793D02*
X13229706Y-9930174D01*
X13229706Y-9930174D02*
X13239229Y-9892079D01*
X13239229Y-9892079D02*
X13248753Y-9873031D01*
X13248753Y-9873031D02*
X13258277Y-9863508D01*
X13258277Y-9863508D02*
X13277325Y-9853984D01*
X13582087Y-10053984D02*
X13582087Y-9853984D01*
X13667801Y-10053984D02*
X13667801Y-9949222D01*
X13667801Y-9949222D02*
X13658277Y-9930174D01*
X13658277Y-9930174D02*
X13639230Y-9920650D01*
X13639230Y-9920650D02*
X13610658Y-9920650D01*
X13610658Y-9920650D02*
X13591610Y-9930174D01*
X13591610Y-9930174D02*
X13582087Y-9939698D01*
X13791610Y-10053984D02*
X13772563Y-10044460D01*
X13772563Y-10044460D02*
X13763039Y-10034936D01*
X13763039Y-10034936D02*
X13753515Y-10015889D01*
X13753515Y-10015889D02*
X13753515Y-9958746D01*
X13753515Y-9958746D02*
X13763039Y-9939698D01*
X13763039Y-9939698D02*
X13772563Y-9930174D01*
X13772563Y-9930174D02*
X13791610Y-9920650D01*
X13791610Y-9920650D02*
X13820182Y-9920650D01*
X13820182Y-9920650D02*
X13839230Y-9930174D01*
X13839230Y-9930174D02*
X13848753Y-9939698D01*
X13848753Y-9939698D02*
X13858277Y-9958746D01*
X13858277Y-9958746D02*
X13858277Y-10015889D01*
X13858277Y-10015889D02*
X13848753Y-10034936D01*
X13848753Y-10034936D02*
X13839230Y-10044460D01*
X13839230Y-10044460D02*
X13820182Y-10053984D01*
X13820182Y-10053984D02*
X13791610Y-10053984D01*
X13972563Y-10053984D02*
X13953515Y-10044460D01*
X13953515Y-10044460D02*
X13943991Y-10025412D01*
X13943991Y-10025412D02*
X13943991Y-9853984D01*
X14124944Y-10044460D02*
X14105896Y-10053984D01*
X14105896Y-10053984D02*
X14067801Y-10053984D01*
X14067801Y-10053984D02*
X14048753Y-10044460D01*
X14048753Y-10044460D02*
X14039230Y-10025412D01*
X14039230Y-10025412D02*
X14039230Y-9949222D01*
X14039230Y-9949222D02*
X14048753Y-9930174D01*
X14048753Y-9930174D02*
X14067801Y-9920650D01*
X14067801Y-9920650D02*
X14105896Y-9920650D01*
X14105896Y-9920650D02*
X14124944Y-9930174D01*
X14124944Y-9930174D02*
X14134468Y-9949222D01*
X14134468Y-9949222D02*
X14134468Y-9968270D01*
X14134468Y-9968270D02*
X14039230Y-9987317D01*
X14210658Y-10044460D02*
X14229706Y-10053984D01*
X14229706Y-10053984D02*
X14267801Y-10053984D01*
X14267801Y-10053984D02*
X14286849Y-10044460D01*
X14286849Y-10044460D02*
X14296372Y-10025412D01*
X14296372Y-10025412D02*
X14296372Y-10015889D01*
X14296372Y-10015889D02*
X14286849Y-9996841D01*
X14286849Y-9996841D02*
X14267801Y-9987317D01*
X14267801Y-9987317D02*
X14239230Y-9987317D01*
X14239230Y-9987317D02*
X14220182Y-9977793D01*
X14220182Y-9977793D02*
X14210658Y-9958746D01*
X14210658Y-9958746D02*
X14210658Y-9949222D01*
X14210658Y-9949222D02*
X14220182Y-9930174D01*
X14220182Y-9930174D02*
X14239230Y-9920650D01*
X14239230Y-9920650D02*
X14267801Y-9920650D01*
X14267801Y-9920650D02*
X14286849Y-9930174D01*
X14363039Y-10130174D02*
X14372563Y-10120650D01*
X14372563Y-10120650D02*
X14391611Y-10092079D01*
X14391611Y-10092079D02*
X14401134Y-10073031D01*
X14401134Y-10073031D02*
X14410658Y-10044460D01*
X14410658Y-10044460D02*
X14420182Y-9996841D01*
X14420182Y-9996841D02*
X14420182Y-9958746D01*
X14420182Y-9958746D02*
X14410658Y-9911127D01*
X14410658Y-9911127D02*
X14401134Y-9882555D01*
X14401134Y-9882555D02*
X14391611Y-9863508D01*
X14391611Y-9863508D02*
X14372563Y-9834936D01*
X14372563Y-9834936D02*
X14363039Y-9825412D01*
D12*
X9397500Y-10226500D02*
G75*
G02*
X9347500Y-10226500I-25000J0D01*
G01*
X9347500Y-10226500D02*
G75*
G02*
X9397500Y-10226500I25000J0D01*
G01*
D11*
X9696372Y-10117984D02*
X9715420Y-10117984D01*
X9715420Y-10117984D02*
X9734467Y-10127508D01*
X9734467Y-10127508D02*
X9743991Y-10137031D01*
X9743991Y-10137031D02*
X9753515Y-10156079D01*
X9753515Y-10156079D02*
X9763039Y-10194174D01*
X9763039Y-10194174D02*
X9763039Y-10241793D01*
X9763039Y-10241793D02*
X9753515Y-10279889D01*
X9753515Y-10279889D02*
X9743991Y-10298936D01*
X9743991Y-10298936D02*
X9734467Y-10308460D01*
X9734467Y-10308460D02*
X9715420Y-10317984D01*
X9715420Y-10317984D02*
X9696372Y-10317984D01*
X9696372Y-10317984D02*
X9677324Y-10308460D01*
X9677324Y-10308460D02*
X9667801Y-10298936D01*
X9667801Y-10298936D02*
X9658277Y-10279889D01*
X9658277Y-10279889D02*
X9648753Y-10241793D01*
X9648753Y-10241793D02*
X9648753Y-10194174D01*
X9648753Y-10194174D02*
X9658277Y-10156079D01*
X9658277Y-10156079D02*
X9667801Y-10137031D01*
X9667801Y-10137031D02*
X9677324Y-10127508D01*
X9677324Y-10127508D02*
X9696372Y-10117984D01*
X9848753Y-10298936D02*
X9858277Y-10308460D01*
X9858277Y-10308460D02*
X9848753Y-10317984D01*
X9848753Y-10317984D02*
X9839229Y-10308460D01*
X9839229Y-10308460D02*
X9848753Y-10298936D01*
X9848753Y-10298936D02*
X9848753Y-10317984D01*
X10039229Y-10117984D02*
X9943991Y-10117984D01*
X9943991Y-10117984D02*
X9934467Y-10213222D01*
X9934467Y-10213222D02*
X9943991Y-10203698D01*
X9943991Y-10203698D02*
X9963039Y-10194174D01*
X9963039Y-10194174D02*
X10010658Y-10194174D01*
X10010658Y-10194174D02*
X10029705Y-10203698D01*
X10029705Y-10203698D02*
X10039229Y-10213222D01*
X10039229Y-10213222D02*
X10048753Y-10232270D01*
X10048753Y-10232270D02*
X10048753Y-10279889D01*
X10048753Y-10279889D02*
X10039229Y-10298936D01*
X10039229Y-10298936D02*
X10029705Y-10308460D01*
X10029705Y-10308460D02*
X10010658Y-10317984D01*
X10010658Y-10317984D02*
X9963039Y-10317984D01*
X9963039Y-10317984D02*
X9943991Y-10308460D01*
X9943991Y-10308460D02*
X9934467Y-10298936D01*
X10172563Y-10117984D02*
X10191610Y-10117984D01*
X10191610Y-10117984D02*
X10210658Y-10127508D01*
X10210658Y-10127508D02*
X10220182Y-10137031D01*
X10220182Y-10137031D02*
X10229705Y-10156079D01*
X10229705Y-10156079D02*
X10239229Y-10194174D01*
X10239229Y-10194174D02*
X10239229Y-10241793D01*
X10239229Y-10241793D02*
X10229705Y-10279889D01*
X10229705Y-10279889D02*
X10220182Y-10298936D01*
X10220182Y-10298936D02*
X10210658Y-10308460D01*
X10210658Y-10308460D02*
X10191610Y-10317984D01*
X10191610Y-10317984D02*
X10172563Y-10317984D01*
X10172563Y-10317984D02*
X10153515Y-10308460D01*
X10153515Y-10308460D02*
X10143991Y-10298936D01*
X10143991Y-10298936D02*
X10134467Y-10279889D01*
X10134467Y-10279889D02*
X10124944Y-10241793D01*
X10124944Y-10241793D02*
X10124944Y-10194174D01*
X10124944Y-10194174D02*
X10134467Y-10156079D01*
X10134467Y-10156079D02*
X10143991Y-10137031D01*
X10143991Y-10137031D02*
X10153515Y-10127508D01*
X10153515Y-10127508D02*
X10172563Y-10117984D01*
X10363039Y-10117984D02*
X10382086Y-10117984D01*
X10382086Y-10117984D02*
X10401134Y-10127508D01*
X10401134Y-10127508D02*
X10410658Y-10137031D01*
X10410658Y-10137031D02*
X10420182Y-10156079D01*
X10420182Y-10156079D02*
X10429705Y-10194174D01*
X10429705Y-10194174D02*
X10429705Y-10241793D01*
X10429705Y-10241793D02*
X10420182Y-10279889D01*
X10420182Y-10279889D02*
X10410658Y-10298936D01*
X10410658Y-10298936D02*
X10401134Y-10308460D01*
X10401134Y-10308460D02*
X10382086Y-10317984D01*
X10382086Y-10317984D02*
X10363039Y-10317984D01*
X10363039Y-10317984D02*
X10343991Y-10308460D01*
X10343991Y-10308460D02*
X10334467Y-10298936D01*
X10334467Y-10298936D02*
X10324944Y-10279889D01*
X10324944Y-10279889D02*
X10315420Y-10241793D01*
X10315420Y-10241793D02*
X10315420Y-10194174D01*
X10315420Y-10194174D02*
X10324944Y-10156079D01*
X10324944Y-10156079D02*
X10334467Y-10137031D01*
X10334467Y-10137031D02*
X10343991Y-10127508D01*
X10343991Y-10127508D02*
X10363039Y-10117984D01*
X10515420Y-10317984D02*
X10515420Y-10184650D01*
X10515420Y-10203698D02*
X10524944Y-10194174D01*
X10524944Y-10194174D02*
X10543991Y-10184650D01*
X10543991Y-10184650D02*
X10572563Y-10184650D01*
X10572563Y-10184650D02*
X10591610Y-10194174D01*
X10591610Y-10194174D02*
X10601134Y-10213222D01*
X10601134Y-10213222D02*
X10601134Y-10317984D01*
X10601134Y-10213222D02*
X10610658Y-10194174D01*
X10610658Y-10194174D02*
X10629705Y-10184650D01*
X10629705Y-10184650D02*
X10658277Y-10184650D01*
X10658277Y-10184650D02*
X10677325Y-10194174D01*
X10677325Y-10194174D02*
X10686848Y-10213222D01*
X10686848Y-10213222D02*
X10686848Y-10317984D01*
X10782086Y-10317984D02*
X10782086Y-10184650D01*
X10782086Y-10203698D02*
X10791610Y-10194174D01*
X10791610Y-10194174D02*
X10810658Y-10184650D01*
X10810658Y-10184650D02*
X10839229Y-10184650D01*
X10839229Y-10184650D02*
X10858277Y-10194174D01*
X10858277Y-10194174D02*
X10867801Y-10213222D01*
X10867801Y-10213222D02*
X10867801Y-10317984D01*
X10867801Y-10213222D02*
X10877325Y-10194174D01*
X10877325Y-10194174D02*
X10896372Y-10184650D01*
X10896372Y-10184650D02*
X10924944Y-10184650D01*
X10924944Y-10184650D02*
X10943991Y-10194174D01*
X10943991Y-10194174D02*
X10953515Y-10213222D01*
X10953515Y-10213222D02*
X10953515Y-10317984D01*
X11343991Y-10108460D02*
X11172563Y-10365603D01*
X11601134Y-10117984D02*
X11620182Y-10117984D01*
X11620182Y-10117984D02*
X11639229Y-10127508D01*
X11639229Y-10127508D02*
X11648753Y-10137031D01*
X11648753Y-10137031D02*
X11658277Y-10156079D01*
X11658277Y-10156079D02*
X11667801Y-10194174D01*
X11667801Y-10194174D02*
X11667801Y-10241793D01*
X11667801Y-10241793D02*
X11658277Y-10279889D01*
X11658277Y-10279889D02*
X11648753Y-10298936D01*
X11648753Y-10298936D02*
X11639229Y-10308460D01*
X11639229Y-10308460D02*
X11620182Y-10317984D01*
X11620182Y-10317984D02*
X11601134Y-10317984D01*
X11601134Y-10317984D02*
X11582086Y-10308460D01*
X11582086Y-10308460D02*
X11572563Y-10298936D01*
X11572563Y-10298936D02*
X11563039Y-10279889D01*
X11563039Y-10279889D02*
X11553515Y-10241793D01*
X11553515Y-10241793D02*
X11553515Y-10194174D01*
X11553515Y-10194174D02*
X11563039Y-10156079D01*
X11563039Y-10156079D02*
X11572563Y-10137031D01*
X11572563Y-10137031D02*
X11582086Y-10127508D01*
X11582086Y-10127508D02*
X11601134Y-10117984D01*
X11753515Y-10298936D02*
X11763039Y-10308460D01*
X11763039Y-10308460D02*
X11753515Y-10317984D01*
X11753515Y-10317984D02*
X11743991Y-10308460D01*
X11743991Y-10308460D02*
X11753515Y-10298936D01*
X11753515Y-10298936D02*
X11753515Y-10317984D01*
X11886848Y-10117984D02*
X11905896Y-10117984D01*
X11905896Y-10117984D02*
X11924944Y-10127508D01*
X11924944Y-10127508D02*
X11934467Y-10137031D01*
X11934467Y-10137031D02*
X11943991Y-10156079D01*
X11943991Y-10156079D02*
X11953515Y-10194174D01*
X11953515Y-10194174D02*
X11953515Y-10241793D01*
X11953515Y-10241793D02*
X11943991Y-10279889D01*
X11943991Y-10279889D02*
X11934467Y-10298936D01*
X11934467Y-10298936D02*
X11924944Y-10308460D01*
X11924944Y-10308460D02*
X11905896Y-10317984D01*
X11905896Y-10317984D02*
X11886848Y-10317984D01*
X11886848Y-10317984D02*
X11867801Y-10308460D01*
X11867801Y-10308460D02*
X11858277Y-10298936D01*
X11858277Y-10298936D02*
X11848753Y-10279889D01*
X11848753Y-10279889D02*
X11839229Y-10241793D01*
X11839229Y-10241793D02*
X11839229Y-10194174D01*
X11839229Y-10194174D02*
X11848753Y-10156079D01*
X11848753Y-10156079D02*
X11858277Y-10137031D01*
X11858277Y-10137031D02*
X11867801Y-10127508D01*
X11867801Y-10127508D02*
X11886848Y-10117984D01*
X12143991Y-10317984D02*
X12029706Y-10317984D01*
X12086848Y-10317984D02*
X12086848Y-10117984D01*
X12086848Y-10117984D02*
X12067801Y-10146555D01*
X12067801Y-10146555D02*
X12048753Y-10165603D01*
X12048753Y-10165603D02*
X12029706Y-10175127D01*
X12239229Y-10317984D02*
X12277325Y-10317984D01*
X12277325Y-10317984D02*
X12296372Y-10308460D01*
X12296372Y-10308460D02*
X12305896Y-10298936D01*
X12305896Y-10298936D02*
X12324944Y-10270365D01*
X12324944Y-10270365D02*
X12334467Y-10232270D01*
X12334467Y-10232270D02*
X12334467Y-10156079D01*
X12334467Y-10156079D02*
X12324944Y-10137031D01*
X12324944Y-10137031D02*
X12315420Y-10127508D01*
X12315420Y-10127508D02*
X12296372Y-10117984D01*
X12296372Y-10117984D02*
X12258277Y-10117984D01*
X12258277Y-10117984D02*
X12239229Y-10127508D01*
X12239229Y-10127508D02*
X12229706Y-10137031D01*
X12229706Y-10137031D02*
X12220182Y-10156079D01*
X12220182Y-10156079D02*
X12220182Y-10203698D01*
X12220182Y-10203698D02*
X12229706Y-10222746D01*
X12229706Y-10222746D02*
X12239229Y-10232270D01*
X12239229Y-10232270D02*
X12258277Y-10241793D01*
X12258277Y-10241793D02*
X12296372Y-10241793D01*
X12296372Y-10241793D02*
X12315420Y-10232270D01*
X12315420Y-10232270D02*
X12324944Y-10222746D01*
X12324944Y-10222746D02*
X12334467Y-10203698D01*
X12401134Y-10117984D02*
X12534467Y-10117984D01*
X12534467Y-10117984D02*
X12448753Y-10317984D01*
X12601134Y-10117984D02*
X12601134Y-10156079D01*
X12677325Y-10117984D02*
X12677325Y-10156079D01*
X12972563Y-10394174D02*
X12963039Y-10384650D01*
X12963039Y-10384650D02*
X12943991Y-10356079D01*
X12943991Y-10356079D02*
X12934468Y-10337031D01*
X12934468Y-10337031D02*
X12924944Y-10308460D01*
X12924944Y-10308460D02*
X12915420Y-10260841D01*
X12915420Y-10260841D02*
X12915420Y-10222746D01*
X12915420Y-10222746D02*
X12924944Y-10175127D01*
X12924944Y-10175127D02*
X12934468Y-10146555D01*
X12934468Y-10146555D02*
X12943991Y-10127508D01*
X12943991Y-10127508D02*
X12963039Y-10098936D01*
X12963039Y-10098936D02*
X12972563Y-10089412D01*
X13029706Y-10117984D02*
X13163039Y-10117984D01*
X13163039Y-10117984D02*
X13077325Y-10317984D01*
X13391610Y-10317984D02*
X13391610Y-10117984D01*
X13477325Y-10317984D02*
X13477325Y-10213222D01*
X13477325Y-10213222D02*
X13467801Y-10194174D01*
X13467801Y-10194174D02*
X13448753Y-10184650D01*
X13448753Y-10184650D02*
X13420182Y-10184650D01*
X13420182Y-10184650D02*
X13401134Y-10194174D01*
X13401134Y-10194174D02*
X13391610Y-10203698D01*
X13601134Y-10317984D02*
X13582087Y-10308460D01*
X13582087Y-10308460D02*
X13572563Y-10298936D01*
X13572563Y-10298936D02*
X13563039Y-10279889D01*
X13563039Y-10279889D02*
X13563039Y-10222746D01*
X13563039Y-10222746D02*
X13572563Y-10203698D01*
X13572563Y-10203698D02*
X13582087Y-10194174D01*
X13582087Y-10194174D02*
X13601134Y-10184650D01*
X13601134Y-10184650D02*
X13629706Y-10184650D01*
X13629706Y-10184650D02*
X13648753Y-10194174D01*
X13648753Y-10194174D02*
X13658277Y-10203698D01*
X13658277Y-10203698D02*
X13667801Y-10222746D01*
X13667801Y-10222746D02*
X13667801Y-10279889D01*
X13667801Y-10279889D02*
X13658277Y-10298936D01*
X13658277Y-10298936D02*
X13648753Y-10308460D01*
X13648753Y-10308460D02*
X13629706Y-10317984D01*
X13629706Y-10317984D02*
X13601134Y-10317984D01*
X13782087Y-10317984D02*
X13763039Y-10308460D01*
X13763039Y-10308460D02*
X13753515Y-10289412D01*
X13753515Y-10289412D02*
X13753515Y-10117984D01*
X13934468Y-10308460D02*
X13915420Y-10317984D01*
X13915420Y-10317984D02*
X13877325Y-10317984D01*
X13877325Y-10317984D02*
X13858277Y-10308460D01*
X13858277Y-10308460D02*
X13848753Y-10289412D01*
X13848753Y-10289412D02*
X13848753Y-10213222D01*
X13848753Y-10213222D02*
X13858277Y-10194174D01*
X13858277Y-10194174D02*
X13877325Y-10184650D01*
X13877325Y-10184650D02*
X13915420Y-10184650D01*
X13915420Y-10184650D02*
X13934468Y-10194174D01*
X13934468Y-10194174D02*
X13943991Y-10213222D01*
X13943991Y-10213222D02*
X13943991Y-10232270D01*
X13943991Y-10232270D02*
X13848753Y-10251317D01*
X14020182Y-10308460D02*
X14039230Y-10317984D01*
X14039230Y-10317984D02*
X14077325Y-10317984D01*
X14077325Y-10317984D02*
X14096372Y-10308460D01*
X14096372Y-10308460D02*
X14105896Y-10289412D01*
X14105896Y-10289412D02*
X14105896Y-10279889D01*
X14105896Y-10279889D02*
X14096372Y-10260841D01*
X14096372Y-10260841D02*
X14077325Y-10251317D01*
X14077325Y-10251317D02*
X14048753Y-10251317D01*
X14048753Y-10251317D02*
X14029706Y-10241793D01*
X14029706Y-10241793D02*
X14020182Y-10222746D01*
X14020182Y-10222746D02*
X14020182Y-10213222D01*
X14020182Y-10213222D02*
X14029706Y-10194174D01*
X14029706Y-10194174D02*
X14048753Y-10184650D01*
X14048753Y-10184650D02*
X14077325Y-10184650D01*
X14077325Y-10184650D02*
X14096372Y-10194174D01*
X14172563Y-10394174D02*
X14182087Y-10384650D01*
X14182087Y-10384650D02*
X14201134Y-10356079D01*
X14201134Y-10356079D02*
X14210658Y-10337031D01*
X14210658Y-10337031D02*
X14220182Y-10308460D01*
X14220182Y-10308460D02*
X14229706Y-10260841D01*
X14229706Y-10260841D02*
X14229706Y-10222746D01*
X14229706Y-10222746D02*
X14220182Y-10175127D01*
X14220182Y-10175127D02*
X14210658Y-10146555D01*
X14210658Y-10146555D02*
X14201134Y-10127508D01*
X14201134Y-10127508D02*
X14182087Y-10098936D01*
X14182087Y-10098936D02*
X14172563Y-10089412D01*
D12*
X9347500Y-10440500D02*
X9347500Y-10540500D01*
X9297500Y-10490500D02*
X9397500Y-10490500D01*
D11*
X9763039Y-10581984D02*
X9648753Y-10581984D01*
X9705896Y-10581984D02*
X9705896Y-10381984D01*
X9705896Y-10381984D02*
X9686848Y-10410555D01*
X9686848Y-10410555D02*
X9667801Y-10429603D01*
X9667801Y-10429603D02*
X9648753Y-10439127D01*
X9848753Y-10562936D02*
X9858277Y-10572460D01*
X9858277Y-10572460D02*
X9848753Y-10581984D01*
X9848753Y-10581984D02*
X9839229Y-10572460D01*
X9839229Y-10572460D02*
X9848753Y-10562936D01*
X9848753Y-10562936D02*
X9848753Y-10581984D01*
X9982086Y-10381984D02*
X10001134Y-10381984D01*
X10001134Y-10381984D02*
X10020182Y-10391508D01*
X10020182Y-10391508D02*
X10029705Y-10401031D01*
X10029705Y-10401031D02*
X10039229Y-10420079D01*
X10039229Y-10420079D02*
X10048753Y-10458174D01*
X10048753Y-10458174D02*
X10048753Y-10505793D01*
X10048753Y-10505793D02*
X10039229Y-10543889D01*
X10039229Y-10543889D02*
X10029705Y-10562936D01*
X10029705Y-10562936D02*
X10020182Y-10572460D01*
X10020182Y-10572460D02*
X10001134Y-10581984D01*
X10001134Y-10581984D02*
X9982086Y-10581984D01*
X9982086Y-10581984D02*
X9963039Y-10572460D01*
X9963039Y-10572460D02*
X9953515Y-10562936D01*
X9953515Y-10562936D02*
X9943991Y-10543889D01*
X9943991Y-10543889D02*
X9934467Y-10505793D01*
X9934467Y-10505793D02*
X9934467Y-10458174D01*
X9934467Y-10458174D02*
X9943991Y-10420079D01*
X9943991Y-10420079D02*
X9953515Y-10401031D01*
X9953515Y-10401031D02*
X9963039Y-10391508D01*
X9963039Y-10391508D02*
X9982086Y-10381984D01*
X10172563Y-10381984D02*
X10191610Y-10381984D01*
X10191610Y-10381984D02*
X10210658Y-10391508D01*
X10210658Y-10391508D02*
X10220182Y-10401031D01*
X10220182Y-10401031D02*
X10229705Y-10420079D01*
X10229705Y-10420079D02*
X10239229Y-10458174D01*
X10239229Y-10458174D02*
X10239229Y-10505793D01*
X10239229Y-10505793D02*
X10229705Y-10543889D01*
X10229705Y-10543889D02*
X10220182Y-10562936D01*
X10220182Y-10562936D02*
X10210658Y-10572460D01*
X10210658Y-10572460D02*
X10191610Y-10581984D01*
X10191610Y-10581984D02*
X10172563Y-10581984D01*
X10172563Y-10581984D02*
X10153515Y-10572460D01*
X10153515Y-10572460D02*
X10143991Y-10562936D01*
X10143991Y-10562936D02*
X10134467Y-10543889D01*
X10134467Y-10543889D02*
X10124944Y-10505793D01*
X10124944Y-10505793D02*
X10124944Y-10458174D01*
X10124944Y-10458174D02*
X10134467Y-10420079D01*
X10134467Y-10420079D02*
X10143991Y-10401031D01*
X10143991Y-10401031D02*
X10153515Y-10391508D01*
X10153515Y-10391508D02*
X10172563Y-10381984D01*
X10363039Y-10381984D02*
X10382086Y-10381984D01*
X10382086Y-10381984D02*
X10401134Y-10391508D01*
X10401134Y-10391508D02*
X10410658Y-10401031D01*
X10410658Y-10401031D02*
X10420182Y-10420079D01*
X10420182Y-10420079D02*
X10429705Y-10458174D01*
X10429705Y-10458174D02*
X10429705Y-10505793D01*
X10429705Y-10505793D02*
X10420182Y-10543889D01*
X10420182Y-10543889D02*
X10410658Y-10562936D01*
X10410658Y-10562936D02*
X10401134Y-10572460D01*
X10401134Y-10572460D02*
X10382086Y-10581984D01*
X10382086Y-10581984D02*
X10363039Y-10581984D01*
X10363039Y-10581984D02*
X10343991Y-10572460D01*
X10343991Y-10572460D02*
X10334467Y-10562936D01*
X10334467Y-10562936D02*
X10324944Y-10543889D01*
X10324944Y-10543889D02*
X10315420Y-10505793D01*
X10315420Y-10505793D02*
X10315420Y-10458174D01*
X10315420Y-10458174D02*
X10324944Y-10420079D01*
X10324944Y-10420079D02*
X10334467Y-10401031D01*
X10334467Y-10401031D02*
X10343991Y-10391508D01*
X10343991Y-10391508D02*
X10363039Y-10381984D01*
X10515420Y-10581984D02*
X10515420Y-10448650D01*
X10515420Y-10467698D02*
X10524944Y-10458174D01*
X10524944Y-10458174D02*
X10543991Y-10448650D01*
X10543991Y-10448650D02*
X10572563Y-10448650D01*
X10572563Y-10448650D02*
X10591610Y-10458174D01*
X10591610Y-10458174D02*
X10601134Y-10477222D01*
X10601134Y-10477222D02*
X10601134Y-10581984D01*
X10601134Y-10477222D02*
X10610658Y-10458174D01*
X10610658Y-10458174D02*
X10629705Y-10448650D01*
X10629705Y-10448650D02*
X10658277Y-10448650D01*
X10658277Y-10448650D02*
X10677325Y-10458174D01*
X10677325Y-10458174D02*
X10686848Y-10477222D01*
X10686848Y-10477222D02*
X10686848Y-10581984D01*
X10782086Y-10581984D02*
X10782086Y-10448650D01*
X10782086Y-10467698D02*
X10791610Y-10458174D01*
X10791610Y-10458174D02*
X10810658Y-10448650D01*
X10810658Y-10448650D02*
X10839229Y-10448650D01*
X10839229Y-10448650D02*
X10858277Y-10458174D01*
X10858277Y-10458174D02*
X10867801Y-10477222D01*
X10867801Y-10477222D02*
X10867801Y-10581984D01*
X10867801Y-10477222D02*
X10877325Y-10458174D01*
X10877325Y-10458174D02*
X10896372Y-10448650D01*
X10896372Y-10448650D02*
X10924944Y-10448650D01*
X10924944Y-10448650D02*
X10943991Y-10458174D01*
X10943991Y-10458174D02*
X10953515Y-10477222D01*
X10953515Y-10477222D02*
X10953515Y-10581984D01*
X11343991Y-10372460D02*
X11172563Y-10629603D01*
X11601134Y-10381984D02*
X11620182Y-10381984D01*
X11620182Y-10381984D02*
X11639229Y-10391508D01*
X11639229Y-10391508D02*
X11648753Y-10401031D01*
X11648753Y-10401031D02*
X11658277Y-10420079D01*
X11658277Y-10420079D02*
X11667801Y-10458174D01*
X11667801Y-10458174D02*
X11667801Y-10505793D01*
X11667801Y-10505793D02*
X11658277Y-10543889D01*
X11658277Y-10543889D02*
X11648753Y-10562936D01*
X11648753Y-10562936D02*
X11639229Y-10572460D01*
X11639229Y-10572460D02*
X11620182Y-10581984D01*
X11620182Y-10581984D02*
X11601134Y-10581984D01*
X11601134Y-10581984D02*
X11582086Y-10572460D01*
X11582086Y-10572460D02*
X11572563Y-10562936D01*
X11572563Y-10562936D02*
X11563039Y-10543889D01*
X11563039Y-10543889D02*
X11553515Y-10505793D01*
X11553515Y-10505793D02*
X11553515Y-10458174D01*
X11553515Y-10458174D02*
X11563039Y-10420079D01*
X11563039Y-10420079D02*
X11572563Y-10401031D01*
X11572563Y-10401031D02*
X11582086Y-10391508D01*
X11582086Y-10391508D02*
X11601134Y-10381984D01*
X11753515Y-10562936D02*
X11763039Y-10572460D01*
X11763039Y-10572460D02*
X11753515Y-10581984D01*
X11753515Y-10581984D02*
X11743991Y-10572460D01*
X11743991Y-10572460D02*
X11753515Y-10562936D01*
X11753515Y-10562936D02*
X11753515Y-10581984D01*
X11886848Y-10381984D02*
X11905896Y-10381984D01*
X11905896Y-10381984D02*
X11924944Y-10391508D01*
X11924944Y-10391508D02*
X11934467Y-10401031D01*
X11934467Y-10401031D02*
X11943991Y-10420079D01*
X11943991Y-10420079D02*
X11953515Y-10458174D01*
X11953515Y-10458174D02*
X11953515Y-10505793D01*
X11953515Y-10505793D02*
X11943991Y-10543889D01*
X11943991Y-10543889D02*
X11934467Y-10562936D01*
X11934467Y-10562936D02*
X11924944Y-10572460D01*
X11924944Y-10572460D02*
X11905896Y-10581984D01*
X11905896Y-10581984D02*
X11886848Y-10581984D01*
X11886848Y-10581984D02*
X11867801Y-10572460D01*
X11867801Y-10572460D02*
X11858277Y-10562936D01*
X11858277Y-10562936D02*
X11848753Y-10543889D01*
X11848753Y-10543889D02*
X11839229Y-10505793D01*
X11839229Y-10505793D02*
X11839229Y-10458174D01*
X11839229Y-10458174D02*
X11848753Y-10420079D01*
X11848753Y-10420079D02*
X11858277Y-10401031D01*
X11858277Y-10401031D02*
X11867801Y-10391508D01*
X11867801Y-10391508D02*
X11886848Y-10381984D01*
X12020182Y-10381984D02*
X12143991Y-10381984D01*
X12143991Y-10381984D02*
X12077325Y-10458174D01*
X12077325Y-10458174D02*
X12105896Y-10458174D01*
X12105896Y-10458174D02*
X12124944Y-10467698D01*
X12124944Y-10467698D02*
X12134467Y-10477222D01*
X12134467Y-10477222D02*
X12143991Y-10496270D01*
X12143991Y-10496270D02*
X12143991Y-10543889D01*
X12143991Y-10543889D02*
X12134467Y-10562936D01*
X12134467Y-10562936D02*
X12124944Y-10572460D01*
X12124944Y-10572460D02*
X12105896Y-10581984D01*
X12105896Y-10581984D02*
X12048753Y-10581984D01*
X12048753Y-10581984D02*
X12029706Y-10572460D01*
X12029706Y-10572460D02*
X12020182Y-10562936D01*
X12239229Y-10581984D02*
X12277325Y-10581984D01*
X12277325Y-10581984D02*
X12296372Y-10572460D01*
X12296372Y-10572460D02*
X12305896Y-10562936D01*
X12305896Y-10562936D02*
X12324944Y-10534365D01*
X12324944Y-10534365D02*
X12334467Y-10496270D01*
X12334467Y-10496270D02*
X12334467Y-10420079D01*
X12334467Y-10420079D02*
X12324944Y-10401031D01*
X12324944Y-10401031D02*
X12315420Y-10391508D01*
X12315420Y-10391508D02*
X12296372Y-10381984D01*
X12296372Y-10381984D02*
X12258277Y-10381984D01*
X12258277Y-10381984D02*
X12239229Y-10391508D01*
X12239229Y-10391508D02*
X12229706Y-10401031D01*
X12229706Y-10401031D02*
X12220182Y-10420079D01*
X12220182Y-10420079D02*
X12220182Y-10467698D01*
X12220182Y-10467698D02*
X12229706Y-10486746D01*
X12229706Y-10486746D02*
X12239229Y-10496270D01*
X12239229Y-10496270D02*
X12258277Y-10505793D01*
X12258277Y-10505793D02*
X12296372Y-10505793D01*
X12296372Y-10505793D02*
X12315420Y-10496270D01*
X12315420Y-10496270D02*
X12324944Y-10486746D01*
X12324944Y-10486746D02*
X12334467Y-10467698D01*
X12505896Y-10448650D02*
X12505896Y-10581984D01*
X12458277Y-10372460D02*
X12410658Y-10515317D01*
X12410658Y-10515317D02*
X12534467Y-10515317D01*
X12601134Y-10381984D02*
X12601134Y-10420079D01*
X12677325Y-10381984D02*
X12677325Y-10420079D01*
X12972563Y-10658174D02*
X12963039Y-10648650D01*
X12963039Y-10648650D02*
X12943991Y-10620079D01*
X12943991Y-10620079D02*
X12934468Y-10601031D01*
X12934468Y-10601031D02*
X12924944Y-10572460D01*
X12924944Y-10572460D02*
X12915420Y-10524841D01*
X12915420Y-10524841D02*
X12915420Y-10486746D01*
X12915420Y-10486746D02*
X12924944Y-10439127D01*
X12924944Y-10439127D02*
X12934468Y-10410555D01*
X12934468Y-10410555D02*
X12943991Y-10391508D01*
X12943991Y-10391508D02*
X12963039Y-10362936D01*
X12963039Y-10362936D02*
X12972563Y-10353412D01*
X13058277Y-10581984D02*
X13096372Y-10581984D01*
X13096372Y-10581984D02*
X13115420Y-10572460D01*
X13115420Y-10572460D02*
X13124944Y-10562936D01*
X13124944Y-10562936D02*
X13143991Y-10534365D01*
X13143991Y-10534365D02*
X13153515Y-10496270D01*
X13153515Y-10496270D02*
X13153515Y-10420079D01*
X13153515Y-10420079D02*
X13143991Y-10401031D01*
X13143991Y-10401031D02*
X13134468Y-10391508D01*
X13134468Y-10391508D02*
X13115420Y-10381984D01*
X13115420Y-10381984D02*
X13077325Y-10381984D01*
X13077325Y-10381984D02*
X13058277Y-10391508D01*
X13058277Y-10391508D02*
X13048753Y-10401031D01*
X13048753Y-10401031D02*
X13039229Y-10420079D01*
X13039229Y-10420079D02*
X13039229Y-10467698D01*
X13039229Y-10467698D02*
X13048753Y-10486746D01*
X13048753Y-10486746D02*
X13058277Y-10496270D01*
X13058277Y-10496270D02*
X13077325Y-10505793D01*
X13077325Y-10505793D02*
X13115420Y-10505793D01*
X13115420Y-10505793D02*
X13134468Y-10496270D01*
X13134468Y-10496270D02*
X13143991Y-10486746D01*
X13143991Y-10486746D02*
X13153515Y-10467698D01*
X13391610Y-10581984D02*
X13391610Y-10381984D01*
X13477325Y-10581984D02*
X13477325Y-10477222D01*
X13477325Y-10477222D02*
X13467801Y-10458174D01*
X13467801Y-10458174D02*
X13448753Y-10448650D01*
X13448753Y-10448650D02*
X13420182Y-10448650D01*
X13420182Y-10448650D02*
X13401134Y-10458174D01*
X13401134Y-10458174D02*
X13391610Y-10467698D01*
X13601134Y-10581984D02*
X13582087Y-10572460D01*
X13582087Y-10572460D02*
X13572563Y-10562936D01*
X13572563Y-10562936D02*
X13563039Y-10543889D01*
X13563039Y-10543889D02*
X13563039Y-10486746D01*
X13563039Y-10486746D02*
X13572563Y-10467698D01*
X13572563Y-10467698D02*
X13582087Y-10458174D01*
X13582087Y-10458174D02*
X13601134Y-10448650D01*
X13601134Y-10448650D02*
X13629706Y-10448650D01*
X13629706Y-10448650D02*
X13648753Y-10458174D01*
X13648753Y-10458174D02*
X13658277Y-10467698D01*
X13658277Y-10467698D02*
X13667801Y-10486746D01*
X13667801Y-10486746D02*
X13667801Y-10543889D01*
X13667801Y-10543889D02*
X13658277Y-10562936D01*
X13658277Y-10562936D02*
X13648753Y-10572460D01*
X13648753Y-10572460D02*
X13629706Y-10581984D01*
X13629706Y-10581984D02*
X13601134Y-10581984D01*
X13782087Y-10581984D02*
X13763039Y-10572460D01*
X13763039Y-10572460D02*
X13753515Y-10553412D01*
X13753515Y-10553412D02*
X13753515Y-10381984D01*
X13934468Y-10572460D02*
X13915420Y-10581984D01*
X13915420Y-10581984D02*
X13877325Y-10581984D01*
X13877325Y-10581984D02*
X13858277Y-10572460D01*
X13858277Y-10572460D02*
X13848753Y-10553412D01*
X13848753Y-10553412D02*
X13848753Y-10477222D01*
X13848753Y-10477222D02*
X13858277Y-10458174D01*
X13858277Y-10458174D02*
X13877325Y-10448650D01*
X13877325Y-10448650D02*
X13915420Y-10448650D01*
X13915420Y-10448650D02*
X13934468Y-10458174D01*
X13934468Y-10458174D02*
X13943991Y-10477222D01*
X13943991Y-10477222D02*
X13943991Y-10496270D01*
X13943991Y-10496270D02*
X13848753Y-10515317D01*
X14020182Y-10572460D02*
X14039230Y-10581984D01*
X14039230Y-10581984D02*
X14077325Y-10581984D01*
X14077325Y-10581984D02*
X14096372Y-10572460D01*
X14096372Y-10572460D02*
X14105896Y-10553412D01*
X14105896Y-10553412D02*
X14105896Y-10543889D01*
X14105896Y-10543889D02*
X14096372Y-10524841D01*
X14096372Y-10524841D02*
X14077325Y-10515317D01*
X14077325Y-10515317D02*
X14048753Y-10515317D01*
X14048753Y-10515317D02*
X14029706Y-10505793D01*
X14029706Y-10505793D02*
X14020182Y-10486746D01*
X14020182Y-10486746D02*
X14020182Y-10477222D01*
X14020182Y-10477222D02*
X14029706Y-10458174D01*
X14029706Y-10458174D02*
X14048753Y-10448650D01*
X14048753Y-10448650D02*
X14077325Y-10448650D01*
X14077325Y-10448650D02*
X14096372Y-10458174D01*
X14172563Y-10658174D02*
X14182087Y-10648650D01*
X14182087Y-10648650D02*
X14201134Y-10620079D01*
X14201134Y-10620079D02*
X14210658Y-10601031D01*
X14210658Y-10601031D02*
X14220182Y-10572460D01*
X14220182Y-10572460D02*
X14229706Y-10524841D01*
X14229706Y-10524841D02*
X14229706Y-10486746D01*
X14229706Y-10486746D02*
X14220182Y-10439127D01*
X14220182Y-10439127D02*
X14210658Y-10410555D01*
X14210658Y-10410555D02*
X14201134Y-10391508D01*
X14201134Y-10391508D02*
X14182087Y-10362936D01*
X14182087Y-10362936D02*
X14172563Y-10353412D01*
M02*
