%TF.GenerationSoftware,KiCad,Pcbnew,8.0.7*%
%TF.CreationDate,2025-01-02T14:00:47+01:00*%
%TF.ProjectId,av-to-minitel,61762d74-6f2d-46d6-996e-6974656c2e6b,v0.1*%
%TF.SameCoordinates,Original*%
%TF.FileFunction,Legend,Top*%
%TF.FilePolarity,Positive*%
%FSLAX46Y46*%
G04 Gerber Fmt 4.6, Leading zero omitted, Abs format (unit mm)*
G04 Created by KiCad (PCBNEW 8.0.7) date 2025-01-02 14:00:47*
%MOMM*%
%LPD*%
G01*
G04 APERTURE LIST*
%ADD10C,0.150000*%
%ADD11C,0.100000*%
%ADD12C,0.000000*%
%ADD13C,0.120000*%
%ADD14C,0.127000*%
%ADD15C,0.200000*%
G04 APERTURE END LIST*
D10*
X131555826Y-91918771D02*
X131212969Y-91918771D01*
X131384398Y-91918771D02*
X131384398Y-91318771D01*
X131384398Y-91318771D02*
X131327255Y-91404485D01*
X131327255Y-91404485D02*
X131270112Y-91461628D01*
X131270112Y-91461628D02*
X131212969Y-91490200D01*
X131784398Y-91375914D02*
X131812970Y-91347342D01*
X131812970Y-91347342D02*
X131870113Y-91318771D01*
X131870113Y-91318771D02*
X132012970Y-91318771D01*
X132012970Y-91318771D02*
X132070113Y-91347342D01*
X132070113Y-91347342D02*
X132098684Y-91375914D01*
X132098684Y-91375914D02*
X132127255Y-91433057D01*
X132127255Y-91433057D02*
X132127255Y-91490200D01*
X132127255Y-91490200D02*
X132098684Y-91575914D01*
X132098684Y-91575914D02*
X131755827Y-91918771D01*
X131755827Y-91918771D02*
X132127255Y-91918771D01*
X132298684Y-91318771D02*
X132498684Y-91918771D01*
X132498684Y-91918771D02*
X132698684Y-91318771D01*
X132898685Y-91518771D02*
X133355828Y-91690200D01*
X133355828Y-91690200D02*
X132898685Y-91861628D01*
D11*
X117600000Y-76000000D02*
X117600000Y-74400000D01*
X114000000Y-76000000D02*
X117600000Y-76000000D01*
X114000000Y-77400000D02*
X114000000Y-76000000D01*
X107800000Y-77400000D02*
X114000000Y-77400000D01*
X107800000Y-74400000D02*
X107800000Y-77400000D01*
D10*
X108598684Y-75657242D02*
X108527255Y-75692956D01*
X108527255Y-75692956D02*
X108384398Y-75692956D01*
X108384398Y-75692956D02*
X108312969Y-75657242D01*
X108312969Y-75657242D02*
X108277255Y-75621527D01*
X108277255Y-75621527D02*
X108241541Y-75550099D01*
X108241541Y-75550099D02*
X108241541Y-75335813D01*
X108241541Y-75335813D02*
X108277255Y-75264384D01*
X108277255Y-75264384D02*
X108312969Y-75228670D01*
X108312969Y-75228670D02*
X108384398Y-75192956D01*
X108384398Y-75192956D02*
X108527255Y-75192956D01*
X108527255Y-75192956D02*
X108598684Y-75228670D01*
X109027255Y-75692956D02*
X108955826Y-75657242D01*
X108955826Y-75657242D02*
X108920112Y-75621527D01*
X108920112Y-75621527D02*
X108884398Y-75550099D01*
X108884398Y-75550099D02*
X108884398Y-75335813D01*
X108884398Y-75335813D02*
X108920112Y-75264384D01*
X108920112Y-75264384D02*
X108955826Y-75228670D01*
X108955826Y-75228670D02*
X109027255Y-75192956D01*
X109027255Y-75192956D02*
X109134398Y-75192956D01*
X109134398Y-75192956D02*
X109205826Y-75228670D01*
X109205826Y-75228670D02*
X109241541Y-75264384D01*
X109241541Y-75264384D02*
X109277255Y-75335813D01*
X109277255Y-75335813D02*
X109277255Y-75550099D01*
X109277255Y-75550099D02*
X109241541Y-75621527D01*
X109241541Y-75621527D02*
X109205826Y-75657242D01*
X109205826Y-75657242D02*
X109134398Y-75692956D01*
X109134398Y-75692956D02*
X109027255Y-75692956D01*
X109598683Y-75692956D02*
X109598683Y-75192956D01*
X109598683Y-75264384D02*
X109634397Y-75228670D01*
X109634397Y-75228670D02*
X109705826Y-75192956D01*
X109705826Y-75192956D02*
X109812969Y-75192956D01*
X109812969Y-75192956D02*
X109884397Y-75228670D01*
X109884397Y-75228670D02*
X109920112Y-75300099D01*
X109920112Y-75300099D02*
X109920112Y-75692956D01*
X109920112Y-75300099D02*
X109955826Y-75228670D01*
X109955826Y-75228670D02*
X110027254Y-75192956D01*
X110027254Y-75192956D02*
X110134397Y-75192956D01*
X110134397Y-75192956D02*
X110205826Y-75228670D01*
X110205826Y-75228670D02*
X110241540Y-75300099D01*
X110241540Y-75300099D02*
X110241540Y-75692956D01*
X110598683Y-75192956D02*
X110598683Y-75942956D01*
X110598683Y-75228670D02*
X110670112Y-75192956D01*
X110670112Y-75192956D02*
X110812969Y-75192956D01*
X110812969Y-75192956D02*
X110884397Y-75228670D01*
X110884397Y-75228670D02*
X110920112Y-75264384D01*
X110920112Y-75264384D02*
X110955826Y-75335813D01*
X110955826Y-75335813D02*
X110955826Y-75550099D01*
X110955826Y-75550099D02*
X110920112Y-75621527D01*
X110920112Y-75621527D02*
X110884397Y-75657242D01*
X110884397Y-75657242D02*
X110812969Y-75692956D01*
X110812969Y-75692956D02*
X110670112Y-75692956D01*
X110670112Y-75692956D02*
X110598683Y-75657242D01*
X111384397Y-75692956D02*
X111312968Y-75657242D01*
X111312968Y-75657242D02*
X111277254Y-75621527D01*
X111277254Y-75621527D02*
X111241540Y-75550099D01*
X111241540Y-75550099D02*
X111241540Y-75335813D01*
X111241540Y-75335813D02*
X111277254Y-75264384D01*
X111277254Y-75264384D02*
X111312968Y-75228670D01*
X111312968Y-75228670D02*
X111384397Y-75192956D01*
X111384397Y-75192956D02*
X111491540Y-75192956D01*
X111491540Y-75192956D02*
X111562968Y-75228670D01*
X111562968Y-75228670D02*
X111598683Y-75264384D01*
X111598683Y-75264384D02*
X111634397Y-75335813D01*
X111634397Y-75335813D02*
X111634397Y-75550099D01*
X111634397Y-75550099D02*
X111598683Y-75621527D01*
X111598683Y-75621527D02*
X111562968Y-75657242D01*
X111562968Y-75657242D02*
X111491540Y-75692956D01*
X111491540Y-75692956D02*
X111384397Y-75692956D01*
X111920111Y-75657242D02*
X111991539Y-75692956D01*
X111991539Y-75692956D02*
X112134396Y-75692956D01*
X112134396Y-75692956D02*
X112205825Y-75657242D01*
X112205825Y-75657242D02*
X112241539Y-75585813D01*
X112241539Y-75585813D02*
X112241539Y-75550099D01*
X112241539Y-75550099D02*
X112205825Y-75478670D01*
X112205825Y-75478670D02*
X112134396Y-75442956D01*
X112134396Y-75442956D02*
X112027254Y-75442956D01*
X112027254Y-75442956D02*
X111955825Y-75407242D01*
X111955825Y-75407242D02*
X111920111Y-75335813D01*
X111920111Y-75335813D02*
X111920111Y-75300099D01*
X111920111Y-75300099D02*
X111955825Y-75228670D01*
X111955825Y-75228670D02*
X112027254Y-75192956D01*
X112027254Y-75192956D02*
X112134396Y-75192956D01*
X112134396Y-75192956D02*
X112205825Y-75228670D01*
X112562968Y-75692956D02*
X112562968Y-75192956D01*
X112562968Y-74942956D02*
X112527254Y-74978670D01*
X112527254Y-74978670D02*
X112562968Y-75014384D01*
X112562968Y-75014384D02*
X112598682Y-74978670D01*
X112598682Y-74978670D02*
X112562968Y-74942956D01*
X112562968Y-74942956D02*
X112562968Y-75014384D01*
X112812968Y-75192956D02*
X113098682Y-75192956D01*
X112920111Y-74942956D02*
X112920111Y-75585813D01*
X112920111Y-75585813D02*
X112955825Y-75657242D01*
X112955825Y-75657242D02*
X113027254Y-75692956D01*
X113027254Y-75692956D02*
X113098682Y-75692956D01*
X113634396Y-75657242D02*
X113562968Y-75692956D01*
X113562968Y-75692956D02*
X113420111Y-75692956D01*
X113420111Y-75692956D02*
X113348682Y-75657242D01*
X113348682Y-75657242D02*
X113312968Y-75585813D01*
X113312968Y-75585813D02*
X113312968Y-75300099D01*
X113312968Y-75300099D02*
X113348682Y-75228670D01*
X113348682Y-75228670D02*
X113420111Y-75192956D01*
X113420111Y-75192956D02*
X113562968Y-75192956D01*
X113562968Y-75192956D02*
X113634396Y-75228670D01*
X113634396Y-75228670D02*
X113670111Y-75300099D01*
X113670111Y-75300099D02*
X113670111Y-75371527D01*
X113670111Y-75371527D02*
X113312968Y-75442956D01*
X114491539Y-75192956D02*
X114670111Y-75692956D01*
X114670111Y-75692956D02*
X114848682Y-75192956D01*
X115134397Y-75692956D02*
X115134397Y-75192956D01*
X115134397Y-74942956D02*
X115098683Y-74978670D01*
X115098683Y-74978670D02*
X115134397Y-75014384D01*
X115134397Y-75014384D02*
X115170111Y-74978670D01*
X115170111Y-74978670D02*
X115134397Y-74942956D01*
X115134397Y-74942956D02*
X115134397Y-75014384D01*
X115812969Y-75692956D02*
X115812969Y-74942956D01*
X115812969Y-75657242D02*
X115741540Y-75692956D01*
X115741540Y-75692956D02*
X115598683Y-75692956D01*
X115598683Y-75692956D02*
X115527254Y-75657242D01*
X115527254Y-75657242D02*
X115491540Y-75621527D01*
X115491540Y-75621527D02*
X115455826Y-75550099D01*
X115455826Y-75550099D02*
X115455826Y-75335813D01*
X115455826Y-75335813D02*
X115491540Y-75264384D01*
X115491540Y-75264384D02*
X115527254Y-75228670D01*
X115527254Y-75228670D02*
X115598683Y-75192956D01*
X115598683Y-75192956D02*
X115741540Y-75192956D01*
X115741540Y-75192956D02*
X115812969Y-75228670D01*
X116455825Y-75657242D02*
X116384397Y-75692956D01*
X116384397Y-75692956D02*
X116241540Y-75692956D01*
X116241540Y-75692956D02*
X116170111Y-75657242D01*
X116170111Y-75657242D02*
X116134397Y-75585813D01*
X116134397Y-75585813D02*
X116134397Y-75300099D01*
X116134397Y-75300099D02*
X116170111Y-75228670D01*
X116170111Y-75228670D02*
X116241540Y-75192956D01*
X116241540Y-75192956D02*
X116384397Y-75192956D01*
X116384397Y-75192956D02*
X116455825Y-75228670D01*
X116455825Y-75228670D02*
X116491540Y-75300099D01*
X116491540Y-75300099D02*
X116491540Y-75371527D01*
X116491540Y-75371527D02*
X116134397Y-75442956D01*
X116920111Y-75692956D02*
X116848682Y-75657242D01*
X116848682Y-75657242D02*
X116812968Y-75621527D01*
X116812968Y-75621527D02*
X116777254Y-75550099D01*
X116777254Y-75550099D02*
X116777254Y-75335813D01*
X116777254Y-75335813D02*
X116812968Y-75264384D01*
X116812968Y-75264384D02*
X116848682Y-75228670D01*
X116848682Y-75228670D02*
X116920111Y-75192956D01*
X116920111Y-75192956D02*
X117027254Y-75192956D01*
X117027254Y-75192956D02*
X117098682Y-75228670D01*
X117098682Y-75228670D02*
X117134397Y-75264384D01*
X117134397Y-75264384D02*
X117170111Y-75335813D01*
X117170111Y-75335813D02*
X117170111Y-75550099D01*
X117170111Y-75550099D02*
X117134397Y-75621527D01*
X117134397Y-75621527D02*
X117098682Y-75657242D01*
X117098682Y-75657242D02*
X117027254Y-75692956D01*
X117027254Y-75692956D02*
X116920111Y-75692956D01*
X108170112Y-76400414D02*
X108455826Y-76400414D01*
X108277255Y-76150414D02*
X108277255Y-76793271D01*
X108277255Y-76793271D02*
X108312969Y-76864700D01*
X108312969Y-76864700D02*
X108384398Y-76900414D01*
X108384398Y-76900414D02*
X108455826Y-76900414D01*
X108812969Y-76900414D02*
X108741540Y-76864700D01*
X108741540Y-76864700D02*
X108705826Y-76828985D01*
X108705826Y-76828985D02*
X108670112Y-76757557D01*
X108670112Y-76757557D02*
X108670112Y-76543271D01*
X108670112Y-76543271D02*
X108705826Y-76471842D01*
X108705826Y-76471842D02*
X108741540Y-76436128D01*
X108741540Y-76436128D02*
X108812969Y-76400414D01*
X108812969Y-76400414D02*
X108920112Y-76400414D01*
X108920112Y-76400414D02*
X108991540Y-76436128D01*
X108991540Y-76436128D02*
X109027255Y-76471842D01*
X109027255Y-76471842D02*
X109062969Y-76543271D01*
X109062969Y-76543271D02*
X109062969Y-76757557D01*
X109062969Y-76757557D02*
X109027255Y-76828985D01*
X109027255Y-76828985D02*
X108991540Y-76864700D01*
X108991540Y-76864700D02*
X108920112Y-76900414D01*
X108920112Y-76900414D02*
X108812969Y-76900414D01*
X109955826Y-76900414D02*
X109955826Y-76400414D01*
X109955826Y-76471842D02*
X109991540Y-76436128D01*
X109991540Y-76436128D02*
X110062969Y-76400414D01*
X110062969Y-76400414D02*
X110170112Y-76400414D01*
X110170112Y-76400414D02*
X110241540Y-76436128D01*
X110241540Y-76436128D02*
X110277255Y-76507557D01*
X110277255Y-76507557D02*
X110277255Y-76900414D01*
X110277255Y-76507557D02*
X110312969Y-76436128D01*
X110312969Y-76436128D02*
X110384397Y-76400414D01*
X110384397Y-76400414D02*
X110491540Y-76400414D01*
X110491540Y-76400414D02*
X110562969Y-76436128D01*
X110562969Y-76436128D02*
X110598683Y-76507557D01*
X110598683Y-76507557D02*
X110598683Y-76900414D01*
X110955826Y-76900414D02*
X110955826Y-76400414D01*
X110955826Y-76150414D02*
X110920112Y-76186128D01*
X110920112Y-76186128D02*
X110955826Y-76221842D01*
X110955826Y-76221842D02*
X110991540Y-76186128D01*
X110991540Y-76186128D02*
X110955826Y-76150414D01*
X110955826Y-76150414D02*
X110955826Y-76221842D01*
X111312969Y-76400414D02*
X111312969Y-76900414D01*
X111312969Y-76471842D02*
X111348683Y-76436128D01*
X111348683Y-76436128D02*
X111420112Y-76400414D01*
X111420112Y-76400414D02*
X111527255Y-76400414D01*
X111527255Y-76400414D02*
X111598683Y-76436128D01*
X111598683Y-76436128D02*
X111634398Y-76507557D01*
X111634398Y-76507557D02*
X111634398Y-76900414D01*
X111991540Y-76900414D02*
X111991540Y-76400414D01*
X111991540Y-76150414D02*
X111955826Y-76186128D01*
X111955826Y-76186128D02*
X111991540Y-76221842D01*
X111991540Y-76221842D02*
X112027254Y-76186128D01*
X112027254Y-76186128D02*
X111991540Y-76150414D01*
X111991540Y-76150414D02*
X111991540Y-76221842D01*
X112241540Y-76400414D02*
X112527254Y-76400414D01*
X112348683Y-76150414D02*
X112348683Y-76793271D01*
X112348683Y-76793271D02*
X112384397Y-76864700D01*
X112384397Y-76864700D02*
X112455826Y-76900414D01*
X112455826Y-76900414D02*
X112527254Y-76900414D01*
X113062968Y-76864700D02*
X112991540Y-76900414D01*
X112991540Y-76900414D02*
X112848683Y-76900414D01*
X112848683Y-76900414D02*
X112777254Y-76864700D01*
X112777254Y-76864700D02*
X112741540Y-76793271D01*
X112741540Y-76793271D02*
X112741540Y-76507557D01*
X112741540Y-76507557D02*
X112777254Y-76436128D01*
X112777254Y-76436128D02*
X112848683Y-76400414D01*
X112848683Y-76400414D02*
X112991540Y-76400414D01*
X112991540Y-76400414D02*
X113062968Y-76436128D01*
X113062968Y-76436128D02*
X113098683Y-76507557D01*
X113098683Y-76507557D02*
X113098683Y-76578985D01*
X113098683Y-76578985D02*
X112741540Y-76650414D01*
X113527254Y-76900414D02*
X113455825Y-76864700D01*
X113455825Y-76864700D02*
X113420111Y-76793271D01*
X113420111Y-76793271D02*
X113420111Y-76150414D01*
D12*
G36*
X102254380Y-89167405D02*
G01*
X102279361Y-89170777D01*
X102303130Y-89176553D01*
X102325641Y-89184573D01*
X102346847Y-89194679D01*
X102366702Y-89206713D01*
X102385158Y-89220516D01*
X102402170Y-89235931D01*
X102417691Y-89252798D01*
X102431674Y-89270959D01*
X102444072Y-89290256D01*
X102454839Y-89310531D01*
X102463929Y-89331624D01*
X102471293Y-89353378D01*
X102476887Y-89375635D01*
X102480663Y-89398235D01*
X102482575Y-89421021D01*
X102482575Y-89443834D01*
X102480618Y-89466515D01*
X102476656Y-89488907D01*
X102470644Y-89510850D01*
X102462534Y-89532187D01*
X102452280Y-89552759D01*
X102439835Y-89572408D01*
X102425153Y-89590975D01*
X102408187Y-89608302D01*
X102388889Y-89624230D01*
X102367215Y-89638601D01*
X102343116Y-89651257D01*
X102316547Y-89662040D01*
X102292484Y-89670515D01*
X102289904Y-89928625D01*
X102288917Y-90020467D01*
X102287815Y-90091456D01*
X102287126Y-90120434D01*
X102286294Y-90145761D01*
X102285279Y-90167958D01*
X102284045Y-90187547D01*
X102282553Y-90205048D01*
X102280763Y-90220982D01*
X102278639Y-90235870D01*
X102276141Y-90250233D01*
X102273232Y-90264592D01*
X102269872Y-90279467D01*
X102261650Y-90312851D01*
X102250091Y-90354343D01*
X102236529Y-90395276D01*
X102221026Y-90435563D01*
X102203643Y-90475120D01*
X102184440Y-90513860D01*
X102163479Y-90551698D01*
X102140821Y-90588548D01*
X102116526Y-90624326D01*
X102090655Y-90658944D01*
X102063271Y-90692319D01*
X102034432Y-90724363D01*
X102004202Y-90754992D01*
X101972640Y-90784119D01*
X101939807Y-90811660D01*
X101905765Y-90837528D01*
X101870574Y-90861639D01*
X101867249Y-90863888D01*
X101866031Y-90864886D01*
X101865152Y-90865856D01*
X101864849Y-90866343D01*
X101864643Y-90866838D01*
X101864538Y-90867347D01*
X101864538Y-90867875D01*
X101864646Y-90868427D01*
X101864867Y-90869008D01*
X101865205Y-90869623D01*
X101865663Y-90870279D01*
X101866958Y-90871729D01*
X101868784Y-90873400D01*
X101871173Y-90875334D01*
X101874157Y-90877573D01*
X101882036Y-90883129D01*
X101892679Y-90890403D01*
X101929560Y-90916939D01*
X101964936Y-90945308D01*
X101998762Y-90975441D01*
X102030996Y-91007270D01*
X102061594Y-91040727D01*
X102090512Y-91075743D01*
X102117708Y-91112250D01*
X102143137Y-91150178D01*
X102166756Y-91189460D01*
X102188521Y-91230028D01*
X102208390Y-91271811D01*
X102226318Y-91314744D01*
X102242262Y-91358755D01*
X102256179Y-91403778D01*
X102268026Y-91449744D01*
X102277758Y-91496585D01*
X102280793Y-91514302D01*
X102283169Y-91532260D01*
X102285000Y-91553365D01*
X102286401Y-91580523D01*
X102288367Y-91664619D01*
X102289982Y-91807795D01*
X102292487Y-92065905D01*
X102316548Y-92074381D01*
X102338053Y-92082993D01*
X102358033Y-92093082D01*
X102376495Y-92104543D01*
X102393448Y-92117271D01*
X102408898Y-92131162D01*
X102422851Y-92146111D01*
X102435316Y-92162012D01*
X102446298Y-92178763D01*
X102455806Y-92196257D01*
X102463846Y-92214390D01*
X102470425Y-92233058D01*
X102475551Y-92252155D01*
X102479229Y-92271577D01*
X102481468Y-92291219D01*
X102482275Y-92310977D01*
X102481656Y-92330745D01*
X102479619Y-92350420D01*
X102476170Y-92369896D01*
X102471317Y-92389069D01*
X102465066Y-92407833D01*
X102457425Y-92426085D01*
X102448401Y-92443719D01*
X102438001Y-92460631D01*
X102426232Y-92476717D01*
X102413101Y-92491870D01*
X102398614Y-92505987D01*
X102382780Y-92518964D01*
X102365605Y-92530694D01*
X102347096Y-92541074D01*
X102327260Y-92549999D01*
X102306105Y-92557364D01*
X102283636Y-92563064D01*
X102254790Y-92567697D01*
X102227115Y-92569407D01*
X102200656Y-92568355D01*
X102175454Y-92564707D01*
X102151553Y-92558624D01*
X102128996Y-92550270D01*
X102107824Y-92539807D01*
X102088082Y-92527399D01*
X102069812Y-92513208D01*
X102053056Y-92497398D01*
X102037857Y-92480132D01*
X102024258Y-92461572D01*
X102012303Y-92441883D01*
X102002033Y-92421225D01*
X101993492Y-92399764D01*
X101986721Y-92377662D01*
X101981765Y-92355081D01*
X101978666Y-92332185D01*
X101977860Y-92316693D01*
X102096711Y-92316693D01*
X102097263Y-92326721D01*
X102098641Y-92336839D01*
X102100877Y-92347018D01*
X102103999Y-92357226D01*
X102108039Y-92367432D01*
X102111813Y-92375293D01*
X102115995Y-92382768D01*
X102120564Y-92389852D01*
X102125498Y-92396542D01*
X102130776Y-92402833D01*
X102136375Y-92408721D01*
X102142274Y-92414203D01*
X102148451Y-92419275D01*
X102154886Y-92423932D01*
X102161555Y-92428170D01*
X102168439Y-92431985D01*
X102175513Y-92435374D01*
X102182759Y-92438333D01*
X102190152Y-92440856D01*
X102197673Y-92442942D01*
X102205299Y-92444584D01*
X102213008Y-92445780D01*
X102220780Y-92446525D01*
X102228592Y-92446816D01*
X102236422Y-92446648D01*
X102244250Y-92446018D01*
X102252053Y-92444920D01*
X102259809Y-92443352D01*
X102267498Y-92441310D01*
X102275097Y-92438789D01*
X102282585Y-92435785D01*
X102289940Y-92432294D01*
X102297141Y-92428313D01*
X102304165Y-92423837D01*
X102310992Y-92418863D01*
X102317599Y-92413385D01*
X102323965Y-92407401D01*
X102329871Y-92401112D01*
X102335269Y-92394577D01*
X102340164Y-92387819D01*
X102344561Y-92380859D01*
X102348463Y-92373719D01*
X102351874Y-92366420D01*
X102354799Y-92358985D01*
X102357242Y-92351436D01*
X102359208Y-92343794D01*
X102360700Y-92336080D01*
X102361723Y-92328318D01*
X102362281Y-92320527D01*
X102362378Y-92312731D01*
X102362018Y-92304951D01*
X102361206Y-92297209D01*
X102359946Y-92289526D01*
X102358242Y-92281924D01*
X102356098Y-92274426D01*
X102353518Y-92267052D01*
X102350508Y-92259825D01*
X102347070Y-92252766D01*
X102343210Y-92245898D01*
X102338931Y-92239241D01*
X102334237Y-92232818D01*
X102329134Y-92226651D01*
X102323625Y-92220761D01*
X102317713Y-92215169D01*
X102311405Y-92209899D01*
X102304703Y-92204971D01*
X102297612Y-92200408D01*
X102290136Y-92196230D01*
X102282280Y-92192461D01*
X102282281Y-92192461D01*
X102272093Y-92188428D01*
X102261904Y-92185315D01*
X102251746Y-92183092D01*
X102241649Y-92181727D01*
X102231645Y-92181191D01*
X102221762Y-92181452D01*
X102212033Y-92182479D01*
X102202488Y-92184242D01*
X102193157Y-92186711D01*
X102184070Y-92189854D01*
X102175260Y-92193640D01*
X102166755Y-92198039D01*
X102158587Y-92203021D01*
X102150786Y-92208554D01*
X102143383Y-92214608D01*
X102136408Y-92221152D01*
X102129892Y-92228156D01*
X102123866Y-92235588D01*
X102118360Y-92243417D01*
X102113405Y-92251614D01*
X102109031Y-92260148D01*
X102105270Y-92268987D01*
X102102150Y-92278101D01*
X102099704Y-92287459D01*
X102097962Y-92297031D01*
X102096954Y-92306786D01*
X102096711Y-92316693D01*
X101977860Y-92316693D01*
X101977466Y-92309137D01*
X101978209Y-92286100D01*
X101980937Y-92263237D01*
X101985693Y-92240711D01*
X101992519Y-92218684D01*
X102001459Y-92197321D01*
X102012556Y-92176784D01*
X102025851Y-92157235D01*
X102041388Y-92138839D01*
X102059210Y-92121758D01*
X102079360Y-92106155D01*
X102101879Y-92092193D01*
X102126812Y-92080035D01*
X102154200Y-92069844D01*
X102170794Y-92064534D01*
X102170784Y-91860214D01*
X102170437Y-91763296D01*
X102169208Y-91683779D01*
X102168168Y-91649562D01*
X102166795Y-91618518D01*
X102165051Y-91590252D01*
X102162899Y-91564372D01*
X102160302Y-91540485D01*
X102157222Y-91518199D01*
X102153621Y-91497120D01*
X102149462Y-91476856D01*
X102144707Y-91457014D01*
X102139320Y-91437201D01*
X102133263Y-91417024D01*
X102126498Y-91396092D01*
X102114012Y-91361333D01*
X102099912Y-91327237D01*
X102084246Y-91293857D01*
X102067058Y-91261252D01*
X102048397Y-91229476D01*
X102028308Y-91198587D01*
X102006838Y-91168641D01*
X101984033Y-91139694D01*
X101959940Y-91111802D01*
X101934606Y-91085022D01*
X101908075Y-91059411D01*
X101880396Y-91035023D01*
X101851615Y-91011916D01*
X101821777Y-90990147D01*
X101790930Y-90969770D01*
X101759120Y-90950843D01*
X101734637Y-90937058D01*
X101650703Y-90980369D01*
X101497329Y-91059586D01*
X101445659Y-91086379D01*
X101407901Y-91106078D01*
X101381982Y-91119769D01*
X101365827Y-91128540D01*
X101360763Y-91131420D01*
X101357363Y-91133478D01*
X101355366Y-91134849D01*
X101354814Y-91135320D01*
X101354515Y-91135670D01*
X101354911Y-91136337D01*
X101356500Y-91137607D01*
X101363017Y-91141822D01*
X101373590Y-91148051D01*
X101387743Y-91156029D01*
X101424884Y-91176172D01*
X101470631Y-91200134D01*
X101516759Y-91224086D01*
X101536312Y-91234399D01*
X101553796Y-91243777D01*
X101569417Y-91252347D01*
X101583378Y-91260241D01*
X101595884Y-91267585D01*
X101607139Y-91274510D01*
X101617348Y-91281146D01*
X101626715Y-91287619D01*
X101635445Y-91294061D01*
X101643742Y-91300600D01*
X101651811Y-91307366D01*
X101659855Y-91314487D01*
X101668079Y-91322092D01*
X101676689Y-91330311D01*
X101691693Y-91345472D01*
X101705840Y-91361145D01*
X101719125Y-91377316D01*
X101731543Y-91393975D01*
X101743088Y-91411110D01*
X101753755Y-91428708D01*
X101763540Y-91446759D01*
X101772435Y-91465251D01*
X101780437Y-91484171D01*
X101787540Y-91503508D01*
X101793739Y-91523250D01*
X101799027Y-91543386D01*
X101803402Y-91563903D01*
X101806855Y-91584791D01*
X101809384Y-91606036D01*
X101810982Y-91627629D01*
X101813652Y-91679029D01*
X101836684Y-91686289D01*
X101850402Y-91691279D01*
X101863941Y-91697504D01*
X101877234Y-91704886D01*
X101890212Y-91713344D01*
X101902805Y-91722800D01*
X101914944Y-91733175D01*
X101926562Y-91744388D01*
X101937589Y-91756362D01*
X101947956Y-91769017D01*
X101957595Y-91782273D01*
X101966437Y-91796052D01*
X101974412Y-91810275D01*
X101981453Y-91824861D01*
X101987490Y-91839732D01*
X101992454Y-91854809D01*
X101996277Y-91870012D01*
X102000202Y-91893118D01*
X102002129Y-91915680D01*
X102002146Y-91937650D01*
X102000340Y-91958982D01*
X101996801Y-91979626D01*
X101991615Y-91999536D01*
X101984870Y-92018664D01*
X101976655Y-92036963D01*
X101967056Y-92054384D01*
X101956161Y-92070880D01*
X101944059Y-92086403D01*
X101930838Y-92100906D01*
X101916584Y-92114341D01*
X101901385Y-92126661D01*
X101885330Y-92137817D01*
X101868507Y-92147763D01*
X101851002Y-92156450D01*
X101832904Y-92163831D01*
X101814301Y-92169858D01*
X101795280Y-92174484D01*
X101775929Y-92177660D01*
X101756335Y-92179341D01*
X101736588Y-92179476D01*
X101716774Y-92178020D01*
X101696981Y-92174924D01*
X101677297Y-92170141D01*
X101657809Y-92163623D01*
X101638606Y-92155322D01*
X101619776Y-92145191D01*
X101601405Y-92133183D01*
X101583582Y-92119248D01*
X101566395Y-92103341D01*
X101554328Y-92090374D01*
X101543389Y-92076879D01*
X101533563Y-92062908D01*
X101524839Y-92048511D01*
X101517202Y-92033740D01*
X101510641Y-92018645D01*
X101505141Y-92003278D01*
X101500690Y-91987689D01*
X101497276Y-91971930D01*
X101494884Y-91956051D01*
X101493501Y-91940105D01*
X101493116Y-91924140D01*
X101493207Y-91921709D01*
X101614079Y-91921709D01*
X101614285Y-91931355D01*
X101615229Y-91941119D01*
X101616938Y-91950975D01*
X101619438Y-91960897D01*
X101622754Y-91970860D01*
X101626155Y-91979123D01*
X101630017Y-91987002D01*
X101634316Y-91994492D01*
X101639028Y-92001587D01*
X101644129Y-92008282D01*
X101649595Y-92014571D01*
X101655401Y-92020450D01*
X101661525Y-92025913D01*
X101667941Y-92030955D01*
X101674626Y-92035571D01*
X101681555Y-92039755D01*
X101688706Y-92043502D01*
X101696052Y-92046807D01*
X101703571Y-92049664D01*
X101711238Y-92052069D01*
X101719030Y-92054016D01*
X101726922Y-92055499D01*
X101734890Y-92056514D01*
X101742910Y-92057056D01*
X101750959Y-92057118D01*
X101759011Y-92056696D01*
X101767043Y-92055784D01*
X101775031Y-92054378D01*
X101782951Y-92052471D01*
X101790779Y-92050060D01*
X101798490Y-92047137D01*
X101806061Y-92043699D01*
X101813468Y-92039740D01*
X101820686Y-92035254D01*
X101827692Y-92030237D01*
X101834461Y-92024683D01*
X101840970Y-92018586D01*
X101847054Y-92012089D01*
X101852596Y-92005330D01*
X101857603Y-91998332D01*
X101862078Y-91991120D01*
X101866027Y-91983718D01*
X101869456Y-91976150D01*
X101872370Y-91968441D01*
X101874774Y-91960614D01*
X101876673Y-91952694D01*
X101878073Y-91944705D01*
X101878979Y-91936671D01*
X101879396Y-91928616D01*
X101879330Y-91920564D01*
X101878785Y-91912540D01*
X101877768Y-91904568D01*
X101876283Y-91896671D01*
X101874336Y-91888875D01*
X101871931Y-91881203D01*
X101869075Y-91873679D01*
X101865773Y-91866328D01*
X101862029Y-91859173D01*
X101857850Y-91852240D01*
X101853240Y-91845551D01*
X101848204Y-91839132D01*
X101842749Y-91833006D01*
X101836879Y-91827198D01*
X101830599Y-91821731D01*
X101823915Y-91816630D01*
X101816833Y-91811920D01*
X101809356Y-91807623D01*
X101801492Y-91803766D01*
X101793244Y-91800370D01*
X101783282Y-91797054D01*
X101773359Y-91794555D01*
X101763503Y-91792845D01*
X101753739Y-91791901D01*
X101744093Y-91791695D01*
X101734591Y-91792202D01*
X101725259Y-91793395D01*
X101716122Y-91795250D01*
X101707207Y-91797741D01*
X101698538Y-91800840D01*
X101690144Y-91804524D01*
X101682048Y-91808764D01*
X101674277Y-91813537D01*
X101666856Y-91818816D01*
X101659813Y-91824574D01*
X101653171Y-91830787D01*
X101646958Y-91837428D01*
X101641200Y-91844472D01*
X101635921Y-91851892D01*
X101631149Y-91859663D01*
X101626908Y-91867759D01*
X101623224Y-91876154D01*
X101620125Y-91884822D01*
X101617635Y-91893738D01*
X101615779Y-91902875D01*
X101614586Y-91912207D01*
X101614079Y-91921709D01*
X101493207Y-91921709D01*
X101493714Y-91908210D01*
X101495282Y-91892364D01*
X101497809Y-91876654D01*
X101501280Y-91861131D01*
X101505682Y-91845846D01*
X101511003Y-91830849D01*
X101517229Y-91816193D01*
X101524348Y-91801927D01*
X101532346Y-91788103D01*
X101541211Y-91774772D01*
X101550928Y-91761985D01*
X101561486Y-91749793D01*
X101572871Y-91738246D01*
X101585071Y-91727397D01*
X101598071Y-91717296D01*
X101611860Y-91707994D01*
X101626424Y-91699542D01*
X101641749Y-91691992D01*
X101657824Y-91685393D01*
X101674634Y-91679798D01*
X101694006Y-91674082D01*
X101691052Y-91638439D01*
X101689424Y-91622107D01*
X101687283Y-91606270D01*
X101684620Y-91590905D01*
X101681426Y-91575991D01*
X101677692Y-91561506D01*
X101673407Y-91547429D01*
X101668562Y-91533737D01*
X101663149Y-91520409D01*
X101657157Y-91507423D01*
X101650577Y-91494758D01*
X101643400Y-91482392D01*
X101635616Y-91470303D01*
X101627215Y-91458469D01*
X101618190Y-91446869D01*
X101608529Y-91435481D01*
X101598223Y-91424283D01*
X101585552Y-91411669D01*
X101572015Y-91399942D01*
X101555795Y-91388000D01*
X101535072Y-91374742D01*
X101508030Y-91359068D01*
X101472849Y-91339875D01*
X101370803Y-91286528D01*
X101214860Y-91205946D01*
X101058917Y-91286563D01*
X101003096Y-91315502D01*
X100959410Y-91338433D01*
X100941487Y-91348019D01*
X100925843Y-91356551D01*
X100912224Y-91364178D01*
X100900379Y-91371049D01*
X100890056Y-91377315D01*
X100881003Y-91383123D01*
X100872967Y-91388624D01*
X100865698Y-91393966D01*
X100858943Y-91399299D01*
X100852450Y-91404773D01*
X100845966Y-91410537D01*
X100839241Y-91416739D01*
X100831916Y-91423935D01*
X100824744Y-91431674D01*
X100817741Y-91439909D01*
X100810921Y-91448591D01*
X100797893Y-91467109D01*
X100785781Y-91486847D01*
X100774705Y-91507422D01*
X100764787Y-91528455D01*
X100756147Y-91549562D01*
X100748907Y-91570363D01*
X100743186Y-91590477D01*
X100739106Y-91609522D01*
X100737719Y-91618524D01*
X100736788Y-91627116D01*
X100736327Y-91635250D01*
X100736352Y-91642878D01*
X100736877Y-91649953D01*
X100737919Y-91656427D01*
X100739492Y-91662253D01*
X100741611Y-91667382D01*
X100744291Y-91671767D01*
X100747547Y-91675360D01*
X100751395Y-91678114D01*
X100755849Y-91679981D01*
X100772614Y-91685557D01*
X100788643Y-91692132D01*
X100803922Y-91699654D01*
X100818438Y-91708072D01*
X100832179Y-91717338D01*
X100845133Y-91727399D01*
X100857285Y-91738206D01*
X100868623Y-91749708D01*
X100879136Y-91761855D01*
X100888808Y-91774597D01*
X100897629Y-91787883D01*
X100905585Y-91801663D01*
X100912664Y-91815886D01*
X100918852Y-91830502D01*
X100924136Y-91845460D01*
X100928505Y-91860711D01*
X100931945Y-91876204D01*
X100934443Y-91891888D01*
X100935987Y-91907713D01*
X100936564Y-91923629D01*
X100936160Y-91939585D01*
X100934764Y-91955531D01*
X100932362Y-91971416D01*
X100928942Y-91987191D01*
X100924490Y-92002804D01*
X100918994Y-92018206D01*
X100912442Y-92033345D01*
X100904820Y-92048172D01*
X100896116Y-92062636D01*
X100886316Y-92076687D01*
X100875408Y-92090275D01*
X100863380Y-92103348D01*
X100848610Y-92117289D01*
X100833245Y-92129753D01*
X100817352Y-92140766D01*
X100800999Y-92150353D01*
X100784253Y-92158539D01*
X100767180Y-92165348D01*
X100749849Y-92170807D01*
X100732325Y-92174939D01*
X100714677Y-92177770D01*
X100696971Y-92179325D01*
X100679274Y-92179629D01*
X100661654Y-92178707D01*
X100644177Y-92176584D01*
X100626912Y-92173285D01*
X100609924Y-92168835D01*
X100593282Y-92163259D01*
X100577051Y-92156582D01*
X100561300Y-92148829D01*
X100546096Y-92140026D01*
X100531505Y-92130196D01*
X100517595Y-92119366D01*
X100504432Y-92107560D01*
X100492085Y-92094802D01*
X100480619Y-92081120D01*
X100470103Y-92066536D01*
X100460603Y-92051077D01*
X100452187Y-92034767D01*
X100444921Y-92017631D01*
X100438873Y-91999695D01*
X100434110Y-91980983D01*
X100430699Y-91961520D01*
X100428707Y-91941332D01*
X100428289Y-91930791D01*
X100428313Y-91922769D01*
X100549705Y-91922769D01*
X100549888Y-91933060D01*
X100550930Y-91943452D01*
X100552864Y-91953911D01*
X100555724Y-91964401D01*
X100559542Y-91974890D01*
X100564352Y-91985341D01*
X100568353Y-91992626D01*
X100572722Y-91999541D01*
X100577438Y-92006082D01*
X100582482Y-92012248D01*
X100587834Y-92018034D01*
X100593473Y-92023437D01*
X100599379Y-92028454D01*
X100605532Y-92033082D01*
X100611911Y-92037318D01*
X100618498Y-92041157D01*
X100625271Y-92044598D01*
X100632210Y-92047637D01*
X100639296Y-92050271D01*
X100646508Y-92052496D01*
X100653826Y-92054310D01*
X100661229Y-92055708D01*
X100668699Y-92056688D01*
X100676214Y-92057247D01*
X100683755Y-92057381D01*
X100691300Y-92057087D01*
X100698832Y-92056362D01*
X100706328Y-92055203D01*
X100713769Y-92053607D01*
X100721134Y-92051569D01*
X100728405Y-92049088D01*
X100735559Y-92046159D01*
X100742579Y-92042780D01*
X100749442Y-92038948D01*
X100756129Y-92034658D01*
X100762621Y-92029909D01*
X100768896Y-92024696D01*
X100774934Y-92019016D01*
X100780961Y-92012624D01*
X100786490Y-92006013D01*
X100791525Y-91999203D01*
X100796071Y-91992212D01*
X100800129Y-91985063D01*
X100803704Y-91977773D01*
X100806799Y-91970363D01*
X100809417Y-91962852D01*
X100811562Y-91955262D01*
X100813237Y-91947610D01*
X100814445Y-91939917D01*
X100815191Y-91932203D01*
X100815477Y-91924488D01*
X100815306Y-91916791D01*
X100814682Y-91909132D01*
X100813609Y-91901531D01*
X100812090Y-91894008D01*
X100810128Y-91886583D01*
X100807727Y-91879275D01*
X100804890Y-91872104D01*
X100801620Y-91865090D01*
X100797921Y-91858252D01*
X100793796Y-91851611D01*
X100789249Y-91845187D01*
X100784283Y-91838998D01*
X100778901Y-91833066D01*
X100773107Y-91827409D01*
X100766904Y-91822047D01*
X100760296Y-91817001D01*
X100753286Y-91812290D01*
X100745877Y-91807934D01*
X100738073Y-91803952D01*
X100738073Y-91803954D01*
X100727536Y-91799483D01*
X100716998Y-91796012D01*
X100706491Y-91793506D01*
X100696050Y-91791930D01*
X100685706Y-91791251D01*
X100675493Y-91791433D01*
X100665444Y-91792442D01*
X100655592Y-91794243D01*
X100645970Y-91796802D01*
X100636612Y-91800085D01*
X100627550Y-91804056D01*
X100618818Y-91808681D01*
X100610448Y-91813926D01*
X100602475Y-91819756D01*
X100594930Y-91826136D01*
X100587847Y-91833033D01*
X100581259Y-91840410D01*
X100575199Y-91848235D01*
X100569700Y-91856471D01*
X100564796Y-91865086D01*
X100560519Y-91874044D01*
X100556903Y-91883310D01*
X100553980Y-91892850D01*
X100551784Y-91902630D01*
X100550348Y-91912614D01*
X100549705Y-91922769D01*
X100428313Y-91922769D01*
X100428321Y-91920272D01*
X100428795Y-91909791D01*
X100429702Y-91899361D01*
X100431033Y-91888997D01*
X100432777Y-91878712D01*
X100434926Y-91868522D01*
X100437471Y-91858441D01*
X100440403Y-91848482D01*
X100443711Y-91838661D01*
X100447388Y-91828992D01*
X100451423Y-91819488D01*
X100455808Y-91810165D01*
X100460533Y-91801036D01*
X100465589Y-91792116D01*
X100470966Y-91783419D01*
X100476657Y-91774959D01*
X100482650Y-91766751D01*
X100488938Y-91758810D01*
X100495510Y-91751149D01*
X100502358Y-91743782D01*
X100509473Y-91736725D01*
X100516844Y-91729991D01*
X100524464Y-91723594D01*
X100532322Y-91717550D01*
X100540410Y-91711872D01*
X100548717Y-91706575D01*
X100557236Y-91701672D01*
X100565956Y-91697179D01*
X100574869Y-91693109D01*
X100583965Y-91689477D01*
X100593235Y-91686298D01*
X100616269Y-91679038D01*
X100618934Y-91627640D01*
X100620532Y-91606048D01*
X100623060Y-91584802D01*
X100626514Y-91563915D01*
X100630888Y-91543397D01*
X100636177Y-91523261D01*
X100642376Y-91503519D01*
X100649479Y-91484182D01*
X100657481Y-91465262D01*
X100666376Y-91446771D01*
X100676160Y-91428720D01*
X100686828Y-91411121D01*
X100698373Y-91393987D01*
X100710791Y-91377328D01*
X100724076Y-91361156D01*
X100738223Y-91345484D01*
X100753227Y-91330322D01*
X100771130Y-91312610D01*
X100788898Y-91297227D01*
X100817461Y-91278177D01*
X100867752Y-91249466D01*
X101077240Y-91139073D01*
X101504810Y-90918083D01*
X101569947Y-90884251D01*
X101628467Y-90853400D01*
X101680877Y-90825154D01*
X101727684Y-90799140D01*
X101769394Y-90774983D01*
X101806514Y-90752306D01*
X101839551Y-90730737D01*
X101869011Y-90709899D01*
X101895400Y-90689419D01*
X101907602Y-90679195D01*
X101919226Y-90668920D01*
X101930336Y-90658547D01*
X101940995Y-90648029D01*
X101961214Y-90626370D01*
X101980389Y-90603570D01*
X101999026Y-90579252D01*
X102017633Y-90553042D01*
X102036716Y-90524565D01*
X102056711Y-90493063D01*
X102074720Y-90462390D01*
X102090834Y-90432090D01*
X102105146Y-90401705D01*
X102117748Y-90370778D01*
X102128732Y-90338854D01*
X102138190Y-90305474D01*
X102146214Y-90270183D01*
X102152896Y-90232522D01*
X102158329Y-90192036D01*
X102162604Y-90148268D01*
X102165813Y-90100759D01*
X102168049Y-90049055D01*
X102169403Y-89992697D01*
X102169836Y-89864195D01*
X102168636Y-89669975D01*
X102150934Y-89664695D01*
X102129000Y-89657074D01*
X102108574Y-89647849D01*
X102089651Y-89637128D01*
X102072226Y-89625024D01*
X102056295Y-89611646D01*
X102041852Y-89597106D01*
X102028892Y-89581513D01*
X102017411Y-89564979D01*
X102007403Y-89547614D01*
X101998865Y-89529528D01*
X101991790Y-89510833D01*
X101986174Y-89491639D01*
X101982012Y-89472056D01*
X101979300Y-89452196D01*
X101978031Y-89432168D01*
X101978075Y-89427052D01*
X102096478Y-89427052D01*
X102097418Y-89438159D01*
X102099379Y-89449282D01*
X102102398Y-89460367D01*
X102106512Y-89471362D01*
X102111758Y-89482215D01*
X102118172Y-89492873D01*
X102125793Y-89503284D01*
X102134656Y-89513395D01*
X102142681Y-89521188D01*
X102151020Y-89528132D01*
X102159636Y-89534241D01*
X102168492Y-89539532D01*
X102177549Y-89544021D01*
X102186771Y-89547722D01*
X102196120Y-89550651D01*
X102205559Y-89552824D01*
X102215049Y-89554257D01*
X102224555Y-89554964D01*
X102234038Y-89554963D01*
X102243461Y-89554268D01*
X102252786Y-89552895D01*
X102261977Y-89550859D01*
X102270995Y-89548176D01*
X102279803Y-89544862D01*
X102288364Y-89540933D01*
X102296640Y-89536403D01*
X102304594Y-89531289D01*
X102312189Y-89525606D01*
X102319387Y-89519370D01*
X102326150Y-89512596D01*
X102332442Y-89505300D01*
X102338224Y-89497498D01*
X102343459Y-89489204D01*
X102348111Y-89480436D01*
X102352141Y-89471208D01*
X102355511Y-89461535D01*
X102358186Y-89451435D01*
X102360127Y-89440921D01*
X102361296Y-89430010D01*
X102361656Y-89418718D01*
X102361545Y-89414083D01*
X102361257Y-89409469D01*
X102360794Y-89404879D01*
X102360159Y-89400319D01*
X102359355Y-89395791D01*
X102358386Y-89391301D01*
X102357253Y-89386852D01*
X102355960Y-89382449D01*
X102354509Y-89378095D01*
X102352903Y-89373796D01*
X102351145Y-89369556D01*
X102349237Y-89365378D01*
X102347183Y-89361266D01*
X102344985Y-89357226D01*
X102342646Y-89353261D01*
X102340169Y-89349376D01*
X102337557Y-89345574D01*
X102334812Y-89341860D01*
X102331937Y-89338238D01*
X102328935Y-89334712D01*
X102325809Y-89331287D01*
X102322561Y-89327966D01*
X102319195Y-89324755D01*
X102315713Y-89321657D01*
X102312117Y-89318676D01*
X102308411Y-89315816D01*
X102304598Y-89313083D01*
X102300680Y-89310479D01*
X102296660Y-89308010D01*
X102292541Y-89305679D01*
X102288325Y-89303491D01*
X102284016Y-89301450D01*
X102284017Y-89301450D01*
X102271552Y-89296450D01*
X102259220Y-89292725D01*
X102247058Y-89290223D01*
X102235104Y-89288890D01*
X102223393Y-89288674D01*
X102211964Y-89289523D01*
X102200853Y-89291385D01*
X102190096Y-89294206D01*
X102179732Y-89297935D01*
X102169798Y-89302518D01*
X102160329Y-89307904D01*
X102151363Y-89314040D01*
X102142937Y-89320873D01*
X102135089Y-89328350D01*
X102127854Y-89336421D01*
X102121271Y-89345031D01*
X102115375Y-89354129D01*
X102110205Y-89363661D01*
X102105796Y-89373576D01*
X102102186Y-89383822D01*
X102099413Y-89394344D01*
X102097512Y-89405092D01*
X102096522Y-89416012D01*
X102096478Y-89427052D01*
X101978075Y-89427052D01*
X101978203Y-89412084D01*
X101979808Y-89392054D01*
X101982843Y-89372188D01*
X101987303Y-89352598D01*
X101993183Y-89333394D01*
X102000477Y-89314686D01*
X102009181Y-89296586D01*
X102019291Y-89279203D01*
X102030800Y-89262649D01*
X102043705Y-89247034D01*
X102058000Y-89232468D01*
X102073681Y-89219063D01*
X102090742Y-89206929D01*
X102109179Y-89196176D01*
X102128987Y-89186915D01*
X102150161Y-89179257D01*
X102172695Y-89173313D01*
X102172636Y-89173290D01*
X102200971Y-89168503D01*
X102228234Y-89166594D01*
X102254380Y-89167405D01*
G37*
G36*
X100214422Y-89167231D02*
G01*
X100233172Y-89168801D01*
X100251471Y-89171744D01*
X100269273Y-89176002D01*
X100286534Y-89181519D01*
X100303211Y-89188239D01*
X100319258Y-89196105D01*
X100334633Y-89205060D01*
X100349290Y-89215048D01*
X100363186Y-89226012D01*
X100376276Y-89237896D01*
X100388516Y-89250644D01*
X100399863Y-89264198D01*
X100410271Y-89278503D01*
X100419698Y-89293501D01*
X100428098Y-89309136D01*
X100435427Y-89325352D01*
X100441642Y-89342092D01*
X100446698Y-89359299D01*
X100450551Y-89376917D01*
X100453157Y-89394889D01*
X100454472Y-89413160D01*
X100454451Y-89431671D01*
X100453051Y-89450368D01*
X100450227Y-89469192D01*
X100445935Y-89488089D01*
X100440132Y-89507000D01*
X100432772Y-89525870D01*
X100423811Y-89544642D01*
X100418199Y-89554625D01*
X100411888Y-89564479D01*
X100404931Y-89574161D01*
X100397379Y-89583627D01*
X100389285Y-89592835D01*
X100380700Y-89601741D01*
X100371677Y-89610302D01*
X100362268Y-89618475D01*
X100352524Y-89626216D01*
X100342498Y-89633483D01*
X100332241Y-89640232D01*
X100321805Y-89646420D01*
X100311243Y-89652004D01*
X100300607Y-89656940D01*
X100289948Y-89661185D01*
X100279318Y-89664697D01*
X100261385Y-89669977D01*
X100260081Y-89868624D01*
X100259844Y-89964409D01*
X100260669Y-90043961D01*
X100261555Y-90078512D01*
X100262800Y-90110040D01*
X100264432Y-90138890D01*
X100266484Y-90165407D01*
X100268985Y-90189937D01*
X100271967Y-90212825D01*
X100275461Y-90234416D01*
X100279497Y-90255054D01*
X100284105Y-90275086D01*
X100289318Y-90294857D01*
X100295165Y-90314711D01*
X100301678Y-90334993D01*
X100314014Y-90369497D01*
X100327806Y-90403264D01*
X100343022Y-90436256D01*
X100359633Y-90468434D01*
X100377606Y-90499758D01*
X100396911Y-90530191D01*
X100417515Y-90559692D01*
X100439389Y-90588224D01*
X100462501Y-90615748D01*
X100486819Y-90642224D01*
X100512313Y-90667613D01*
X100538951Y-90691877D01*
X100566702Y-90714977D01*
X100595535Y-90736874D01*
X100625419Y-90757528D01*
X100656322Y-90776902D01*
X100694378Y-90799580D01*
X100788745Y-90750936D01*
X100978220Y-90653263D01*
X101015310Y-90633955D01*
X101031658Y-90625310D01*
X101046009Y-90617625D01*
X101057963Y-90611114D01*
X101067121Y-90605992D01*
X101073084Y-90602476D01*
X101074743Y-90601387D01*
X101075453Y-90600780D01*
X101075057Y-90600111D01*
X101073468Y-90598839D01*
X101066951Y-90594621D01*
X101056377Y-90588390D01*
X101042224Y-90580411D01*
X101005083Y-90560266D01*
X100959336Y-90536304D01*
X100913208Y-90512353D01*
X100893656Y-90502040D01*
X100876171Y-90492662D01*
X100860551Y-90484092D01*
X100846590Y-90476199D01*
X100834084Y-90468854D01*
X100822829Y-90461929D01*
X100812619Y-90455294D01*
X100803252Y-90448820D01*
X100794522Y-90442378D01*
X100786225Y-90435839D01*
X100778157Y-90429074D01*
X100770113Y-90421953D01*
X100761888Y-90414347D01*
X100753279Y-90406127D01*
X100738275Y-90390966D01*
X100724127Y-90375294D01*
X100710842Y-90359122D01*
X100698424Y-90342463D01*
X100686879Y-90325329D01*
X100676212Y-90307730D01*
X100666427Y-90289679D01*
X100657532Y-90271188D01*
X100649530Y-90252268D01*
X100642427Y-90232931D01*
X100636228Y-90213189D01*
X100630939Y-90193053D01*
X100626565Y-90172535D01*
X100623112Y-90151648D01*
X100620583Y-90130402D01*
X100618986Y-90108810D01*
X100616320Y-90057412D01*
X100593287Y-90050152D01*
X100579569Y-90045162D01*
X100566030Y-90038937D01*
X100552737Y-90031556D01*
X100539759Y-90023098D01*
X100527166Y-90013642D01*
X100515027Y-90003267D01*
X100503409Y-89992053D01*
X100492382Y-89980079D01*
X100482015Y-89967425D01*
X100472376Y-89954168D01*
X100463535Y-89940389D01*
X100455559Y-89926167D01*
X100448518Y-89911580D01*
X100442481Y-89896709D01*
X100437517Y-89881632D01*
X100433693Y-89866429D01*
X100429768Y-89843319D01*
X100427840Y-89820753D01*
X100427838Y-89818314D01*
X100548933Y-89818314D01*
X100549962Y-89829630D01*
X100552023Y-89840640D01*
X100555062Y-89851304D01*
X100559021Y-89861585D01*
X100563846Y-89871444D01*
X100569481Y-89880845D01*
X100575870Y-89889748D01*
X100582957Y-89898116D01*
X100590686Y-89905911D01*
X100599003Y-89913094D01*
X100607850Y-89919629D01*
X100617173Y-89925476D01*
X100626915Y-89930599D01*
X100637021Y-89934958D01*
X100647435Y-89938516D01*
X100658101Y-89941235D01*
X100668964Y-89943077D01*
X100679967Y-89944004D01*
X100691056Y-89943978D01*
X100702174Y-89942961D01*
X100713266Y-89940914D01*
X100724275Y-89937801D01*
X100735147Y-89933583D01*
X100745825Y-89928222D01*
X100756253Y-89921680D01*
X100766377Y-89913919D01*
X100776139Y-89904901D01*
X100782208Y-89898344D01*
X100787732Y-89891502D01*
X100792717Y-89884404D01*
X100797169Y-89877075D01*
X100801093Y-89869542D01*
X100804495Y-89861833D01*
X100807382Y-89853974D01*
X100809759Y-89845993D01*
X100811631Y-89837915D01*
X100813005Y-89829767D01*
X100813887Y-89821578D01*
X100814282Y-89813372D01*
X100814196Y-89805178D01*
X100813635Y-89797022D01*
X100812605Y-89788931D01*
X100811111Y-89780931D01*
X100809160Y-89773050D01*
X100806756Y-89765314D01*
X100803907Y-89757751D01*
X100800618Y-89750386D01*
X100796895Y-89743248D01*
X100792743Y-89736362D01*
X100788168Y-89729755D01*
X100783176Y-89723455D01*
X100777773Y-89717488D01*
X100771965Y-89711881D01*
X100765758Y-89706661D01*
X100759157Y-89701855D01*
X100752168Y-89697489D01*
X100744798Y-89693591D01*
X100737051Y-89690187D01*
X100728934Y-89687304D01*
X100728934Y-89687306D01*
X100722157Y-89685311D01*
X100715431Y-89683609D01*
X100708761Y-89682197D01*
X100702151Y-89681074D01*
X100695606Y-89680237D01*
X100689131Y-89679685D01*
X100682732Y-89679415D01*
X100676412Y-89679426D01*
X100670177Y-89679715D01*
X100664031Y-89680280D01*
X100657980Y-89681119D01*
X100652027Y-89682231D01*
X100646179Y-89683612D01*
X100640439Y-89685262D01*
X100634813Y-89687177D01*
X100629305Y-89689357D01*
X100623921Y-89691798D01*
X100618665Y-89694499D01*
X100613541Y-89697458D01*
X100608556Y-89700673D01*
X100603712Y-89704141D01*
X100599017Y-89707861D01*
X100594473Y-89711831D01*
X100590087Y-89716048D01*
X100585863Y-89720511D01*
X100581805Y-89725217D01*
X100577919Y-89730165D01*
X100574209Y-89735352D01*
X100570681Y-89740776D01*
X100567338Y-89746435D01*
X100564187Y-89752328D01*
X100561231Y-89758451D01*
X100556260Y-89770735D01*
X100552600Y-89782900D01*
X100550197Y-89794911D01*
X100548993Y-89806728D01*
X100548933Y-89818314D01*
X100427838Y-89818314D01*
X100427822Y-89798779D01*
X100429626Y-89777445D01*
X100433164Y-89756798D01*
X100438349Y-89736885D01*
X100445093Y-89717755D01*
X100453307Y-89699454D01*
X100462905Y-89682032D01*
X100473798Y-89665535D01*
X100485899Y-89650010D01*
X100499120Y-89635506D01*
X100513373Y-89622071D01*
X100528571Y-89609751D01*
X100544625Y-89598594D01*
X100561448Y-89588649D01*
X100578953Y-89579962D01*
X100597050Y-89572582D01*
X100615653Y-89566556D01*
X100634675Y-89561931D01*
X100654026Y-89558755D01*
X100673619Y-89557077D01*
X100693368Y-89556943D01*
X100713183Y-89558401D01*
X100732977Y-89561499D01*
X100752662Y-89566284D01*
X100772151Y-89572805D01*
X100791356Y-89581108D01*
X100810188Y-89591241D01*
X100828561Y-89603253D01*
X100846387Y-89617190D01*
X100863577Y-89633100D01*
X100875623Y-89646047D01*
X100886545Y-89659524D01*
X100896355Y-89673480D01*
X100905067Y-89687864D01*
X100912694Y-89702625D01*
X100919248Y-89717711D01*
X100924742Y-89733071D01*
X100929191Y-89748655D01*
X100932606Y-89764410D01*
X100935000Y-89780286D01*
X100936388Y-89796232D01*
X100936781Y-89812196D01*
X100936193Y-89828126D01*
X100934637Y-89843973D01*
X100932125Y-89859685D01*
X100928671Y-89875209D01*
X100924289Y-89890497D01*
X100918990Y-89905495D01*
X100912788Y-89920153D01*
X100905695Y-89934420D01*
X100897726Y-89948245D01*
X100888893Y-89961575D01*
X100879209Y-89974361D01*
X100868686Y-89986551D01*
X100857339Y-89998094D01*
X100845180Y-90008938D01*
X100832221Y-90019032D01*
X100818477Y-90028325D01*
X100803960Y-90036767D01*
X100788683Y-90044305D01*
X100772659Y-90050889D01*
X100755902Y-90056467D01*
X100751964Y-90057742D01*
X100748505Y-90059146D01*
X100745515Y-90060761D01*
X100742982Y-90062667D01*
X100741882Y-90063754D01*
X100740891Y-90064944D01*
X100740009Y-90066247D01*
X100739233Y-90067673D01*
X100737995Y-90070933D01*
X100737165Y-90074807D01*
X100736730Y-90079374D01*
X100736679Y-90084714D01*
X100736999Y-90090908D01*
X100737679Y-90098036D01*
X100738706Y-90106179D01*
X100740069Y-90115418D01*
X100743753Y-90137503D01*
X100748645Y-90162857D01*
X100754271Y-90186204D01*
X100760897Y-90207807D01*
X100768789Y-90227931D01*
X100778213Y-90246838D01*
X100789435Y-90264792D01*
X100802721Y-90282056D01*
X100818337Y-90298894D01*
X100836548Y-90315569D01*
X100857621Y-90332345D01*
X100881822Y-90349485D01*
X100909416Y-90367252D01*
X100940669Y-90385910D01*
X100975849Y-90405723D01*
X101015219Y-90426953D01*
X101059047Y-90449865D01*
X101215056Y-90530470D01*
X101371015Y-90449887D01*
X101425259Y-90421692D01*
X101469310Y-90398340D01*
X101487953Y-90388214D01*
X101504576Y-90378979D01*
X101519355Y-90370529D01*
X101532466Y-90362756D01*
X101544086Y-90355554D01*
X101554391Y-90348816D01*
X101563556Y-90342436D01*
X101571758Y-90336307D01*
X101579173Y-90330322D01*
X101585978Y-90324374D01*
X101592347Y-90318357D01*
X101598458Y-90312165D01*
X101605521Y-90304458D01*
X101612404Y-90296313D01*
X101619096Y-90287772D01*
X101625585Y-90278876D01*
X101637901Y-90260191D01*
X101649253Y-90240592D01*
X101659541Y-90220417D01*
X101668667Y-90200000D01*
X101676531Y-90179678D01*
X101683033Y-90159787D01*
X101688075Y-90140662D01*
X101691556Y-90122640D01*
X101692680Y-90114147D01*
X101693378Y-90106056D01*
X101693635Y-90098408D01*
X101693441Y-90091246D01*
X101692781Y-90084611D01*
X101691645Y-90078546D01*
X101690020Y-90073093D01*
X101687893Y-90068293D01*
X101685251Y-90064188D01*
X101682083Y-90060821D01*
X101678376Y-90058233D01*
X101674117Y-90056467D01*
X101657367Y-90050892D01*
X101641351Y-90044310D01*
X101626081Y-90036773D01*
X101611570Y-90028333D01*
X101597831Y-90019039D01*
X101584878Y-90008945D01*
X101572723Y-89998100D01*
X101561379Y-89986556D01*
X101550860Y-89974365D01*
X101541178Y-89961577D01*
X101532347Y-89948244D01*
X101524380Y-89934418D01*
X101517289Y-89920148D01*
X101511087Y-89905488D01*
X101505788Y-89890487D01*
X101501405Y-89875197D01*
X101497951Y-89859670D01*
X101495438Y-89843957D01*
X101493880Y-89828108D01*
X101493389Y-89814829D01*
X101613991Y-89814829D01*
X101614717Y-89825602D01*
X101616388Y-89836437D01*
X101619039Y-89847290D01*
X101622706Y-89858120D01*
X101627422Y-89868883D01*
X101633223Y-89879537D01*
X101640143Y-89890038D01*
X101645151Y-89896572D01*
X101650460Y-89902686D01*
X101656053Y-89908381D01*
X101661908Y-89913656D01*
X101668007Y-89918512D01*
X101674329Y-89922948D01*
X101680855Y-89926964D01*
X101687565Y-89930560D01*
X101694440Y-89933737D01*
X101701459Y-89936493D01*
X101708603Y-89938830D01*
X101715853Y-89940747D01*
X101723188Y-89942243D01*
X101730590Y-89943320D01*
X101738037Y-89943976D01*
X101745511Y-89944212D01*
X101752992Y-89944028D01*
X101760460Y-89943423D01*
X101767895Y-89942398D01*
X101775278Y-89940952D01*
X101782590Y-89939086D01*
X101789809Y-89936800D01*
X101796917Y-89934092D01*
X101803894Y-89930964D01*
X101810721Y-89927416D01*
X101817377Y-89923446D01*
X101823842Y-89919056D01*
X101830098Y-89914244D01*
X101836124Y-89909012D01*
X101841901Y-89903359D01*
X101847410Y-89897284D01*
X101852629Y-89890789D01*
X101857226Y-89884330D01*
X101861382Y-89877719D01*
X101865101Y-89870972D01*
X101868387Y-89864107D01*
X101871243Y-89857139D01*
X101873675Y-89850086D01*
X101875686Y-89842963D01*
X101877282Y-89835787D01*
X101878465Y-89828575D01*
X101879240Y-89821344D01*
X101879612Y-89814110D01*
X101879585Y-89806890D01*
X101879162Y-89799699D01*
X101878348Y-89792556D01*
X101877148Y-89785475D01*
X101875566Y-89778475D01*
X101873605Y-89771571D01*
X101871270Y-89764780D01*
X101868565Y-89758119D01*
X101865495Y-89751604D01*
X101862063Y-89745252D01*
X101858274Y-89739079D01*
X101854132Y-89733102D01*
X101849642Y-89727338D01*
X101844807Y-89721802D01*
X101839632Y-89716513D01*
X101834121Y-89711485D01*
X101828278Y-89706736D01*
X101822108Y-89702283D01*
X101815614Y-89698141D01*
X101808801Y-89694328D01*
X101801673Y-89690860D01*
X101801673Y-89690828D01*
X101790038Y-89686141D01*
X101778480Y-89682586D01*
X101767035Y-89680120D01*
X101755738Y-89678701D01*
X101744622Y-89678285D01*
X101733723Y-89678831D01*
X101723076Y-89680294D01*
X101712714Y-89682633D01*
X101702674Y-89685805D01*
X101692989Y-89689766D01*
X101683695Y-89694474D01*
X101674825Y-89699886D01*
X101666416Y-89705959D01*
X101658500Y-89712651D01*
X101651114Y-89719918D01*
X101644292Y-89727718D01*
X101638068Y-89736008D01*
X101632477Y-89744746D01*
X101627555Y-89753887D01*
X101623335Y-89763390D01*
X101619853Y-89773212D01*
X101617142Y-89783309D01*
X101615239Y-89793640D01*
X101614177Y-89804161D01*
X101613991Y-89814829D01*
X101493389Y-89814829D01*
X101493290Y-89812175D01*
X101493681Y-89796210D01*
X101495066Y-89780264D01*
X101497457Y-89764387D01*
X101500869Y-89748632D01*
X101505313Y-89733049D01*
X101510803Y-89717689D01*
X101517353Y-89702605D01*
X101524974Y-89687846D01*
X101533681Y-89673466D01*
X101543486Y-89659513D01*
X101554402Y-89646041D01*
X101566442Y-89633100D01*
X101583629Y-89617192D01*
X101601452Y-89603258D01*
X101619823Y-89591250D01*
X101638653Y-89581119D01*
X101657856Y-89572818D01*
X101677344Y-89566300D01*
X101697028Y-89561517D01*
X101716821Y-89558421D01*
X101736635Y-89556965D01*
X101756382Y-89557100D01*
X101775976Y-89558780D01*
X101795327Y-89561957D01*
X101814348Y-89566583D01*
X101832951Y-89572610D01*
X101851049Y-89579991D01*
X101868554Y-89588678D01*
X101885377Y-89598624D01*
X101901432Y-89609780D01*
X101916631Y-89622100D01*
X101930884Y-89635535D01*
X101944106Y-89650038D01*
X101956208Y-89665561D01*
X101967103Y-89682057D01*
X101976702Y-89699478D01*
X101984917Y-89717777D01*
X101991662Y-89736905D01*
X101996848Y-89756815D01*
X102000387Y-89777459D01*
X102002192Y-89798791D01*
X102002176Y-89820761D01*
X102000249Y-89843323D01*
X101996324Y-89866429D01*
X101994554Y-89874069D01*
X101992490Y-89881684D01*
X101987517Y-89896800D01*
X101981472Y-89911699D01*
X101974423Y-89926303D01*
X101966437Y-89940535D01*
X101957582Y-89954318D01*
X101947926Y-89967572D01*
X101937535Y-89980222D01*
X101926478Y-89992190D01*
X101914822Y-90003398D01*
X101902635Y-90013769D01*
X101889984Y-90023225D01*
X101876936Y-90031688D01*
X101863560Y-90039082D01*
X101856769Y-90042353D01*
X101849922Y-90045328D01*
X101843026Y-90047996D01*
X101836090Y-90050349D01*
X101812403Y-90057820D01*
X101812403Y-90089426D01*
X101811879Y-90110121D01*
X101810319Y-90130782D01*
X101807739Y-90151366D01*
X101804157Y-90171832D01*
X101799587Y-90192141D01*
X101794048Y-90212251D01*
X101787555Y-90232121D01*
X101780126Y-90251710D01*
X101771776Y-90270977D01*
X101762524Y-90289881D01*
X101752384Y-90308381D01*
X101741374Y-90326437D01*
X101729510Y-90344007D01*
X101716810Y-90361050D01*
X101703288Y-90377525D01*
X101688964Y-90393393D01*
X101670453Y-90412179D01*
X101651466Y-90429135D01*
X101640951Y-90437444D01*
X101629305Y-90445916D01*
X101601274Y-90464174D01*
X101564677Y-90485565D01*
X101516818Y-90511743D01*
X101454999Y-90544363D01*
X101376524Y-90585079D01*
X100932302Y-90814672D01*
X100800000Y-90883361D01*
X100751429Y-90908769D01*
X100712721Y-90929205D01*
X100682484Y-90945410D01*
X100659325Y-90958123D01*
X100641853Y-90968085D01*
X100628675Y-90976035D01*
X100618398Y-90982713D01*
X100609631Y-90988859D01*
X100591055Y-91002516D01*
X100566510Y-91021142D01*
X100542699Y-91040761D01*
X100519652Y-91061330D01*
X100497399Y-91082809D01*
X100475972Y-91105155D01*
X100455399Y-91128328D01*
X100435711Y-91152286D01*
X100416938Y-91176987D01*
X100399112Y-91202391D01*
X100382261Y-91228456D01*
X100366416Y-91255141D01*
X100351607Y-91282404D01*
X100337866Y-91310204D01*
X100325221Y-91338500D01*
X100313702Y-91367249D01*
X100303342Y-91396412D01*
X100290531Y-91437428D01*
X100280406Y-91476952D01*
X100276257Y-91497146D01*
X100272667Y-91518154D01*
X100267010Y-91564202D01*
X100263134Y-91618265D01*
X100260739Y-91683510D01*
X100259521Y-91763108D01*
X100259179Y-91860225D01*
X100259168Y-92064546D01*
X100275761Y-92069856D01*
X100300695Y-92079069D01*
X100323649Y-92090041D01*
X100344646Y-92102637D01*
X100363707Y-92116721D01*
X100380852Y-92132161D01*
X100396103Y-92148820D01*
X100409481Y-92166565D01*
X100421007Y-92185261D01*
X100430703Y-92204774D01*
X100438589Y-92224970D01*
X100444687Y-92245713D01*
X100449017Y-92266869D01*
X100451602Y-92288304D01*
X100452462Y-92309884D01*
X100451618Y-92331474D01*
X100449091Y-92352938D01*
X100444903Y-92374144D01*
X100439076Y-92394957D01*
X100431629Y-92415241D01*
X100422584Y-92434863D01*
X100411962Y-92453688D01*
X100399785Y-92471581D01*
X100386074Y-92488408D01*
X100370849Y-92504036D01*
X100354132Y-92518328D01*
X100335945Y-92531151D01*
X100316307Y-92542370D01*
X100295241Y-92551851D01*
X100272768Y-92559459D01*
X100248909Y-92565060D01*
X100223684Y-92568519D01*
X100197115Y-92569702D01*
X100171621Y-92568543D01*
X100147383Y-92565156D01*
X100124422Y-92559669D01*
X100102760Y-92552214D01*
X100082420Y-92542922D01*
X100063424Y-92531922D01*
X100045793Y-92519346D01*
X100029550Y-92505323D01*
X100014717Y-92489985D01*
X100001316Y-92473462D01*
X99989369Y-92455885D01*
X99978898Y-92437383D01*
X99969925Y-92418088D01*
X99962472Y-92398131D01*
X99956562Y-92377641D01*
X99952215Y-92356750D01*
X99949455Y-92335587D01*
X99948376Y-92315634D01*
X100067446Y-92315634D01*
X100067832Y-92326318D01*
X100069139Y-92337014D01*
X100071397Y-92347671D01*
X100074637Y-92358239D01*
X100078890Y-92368669D01*
X100084187Y-92378910D01*
X100090557Y-92388913D01*
X100098033Y-92398627D01*
X100106644Y-92408003D01*
X100115988Y-92416592D01*
X100125663Y-92424057D01*
X100135620Y-92430426D01*
X100145809Y-92435731D01*
X100156184Y-92440000D01*
X100166693Y-92443265D01*
X100177289Y-92445554D01*
X100187923Y-92446898D01*
X100198545Y-92447326D01*
X100209107Y-92446868D01*
X100219560Y-92445555D01*
X100229855Y-92443415D01*
X100239944Y-92440480D01*
X100249777Y-92436778D01*
X100259305Y-92432339D01*
X100268480Y-92427195D01*
X100277253Y-92421373D01*
X100285574Y-92414905D01*
X100293396Y-92407820D01*
X100300669Y-92400147D01*
X100307344Y-92391918D01*
X100313372Y-92383161D01*
X100318705Y-92373906D01*
X100323293Y-92364184D01*
X100327088Y-92354024D01*
X100330042Y-92343456D01*
X100332104Y-92332510D01*
X100333226Y-92321216D01*
X100333359Y-92309604D01*
X100332455Y-92297703D01*
X100330465Y-92285544D01*
X100327339Y-92273155D01*
X100326329Y-92270038D01*
X100325141Y-92266877D01*
X100322256Y-92260456D01*
X100318743Y-92253949D01*
X100314659Y-92247415D01*
X100310061Y-92240910D01*
X100305008Y-92234492D01*
X100299556Y-92228220D01*
X100293763Y-92222150D01*
X100287687Y-92216340D01*
X100281385Y-92210848D01*
X100274916Y-92205731D01*
X100268336Y-92201048D01*
X100261704Y-92196854D01*
X100255076Y-92193209D01*
X100248511Y-92190170D01*
X100242065Y-92187794D01*
X100242065Y-92187796D01*
X100229749Y-92184445D01*
X100217647Y-92182253D01*
X100205790Y-92181171D01*
X100194209Y-92181148D01*
X100182935Y-92182135D01*
X100171999Y-92184081D01*
X100161430Y-92186938D01*
X100151261Y-92190654D01*
X100141520Y-92195180D01*
X100132240Y-92200466D01*
X100123451Y-92206463D01*
X100115184Y-92213119D01*
X100107468Y-92220386D01*
X100100336Y-92228213D01*
X100093818Y-92236550D01*
X100087943Y-92245348D01*
X100082744Y-92254557D01*
X100078251Y-92264126D01*
X100074494Y-92274006D01*
X100071505Y-92284146D01*
X100069313Y-92294498D01*
X100067950Y-92305010D01*
X100067446Y-92315634D01*
X99948376Y-92315634D01*
X99948303Y-92314284D01*
X99948782Y-92292971D01*
X99950913Y-92271779D01*
X99954719Y-92250837D01*
X99960222Y-92230278D01*
X99967443Y-92210230D01*
X99976405Y-92190825D01*
X99987129Y-92172194D01*
X99999639Y-92154466D01*
X100013955Y-92137773D01*
X100030101Y-92122244D01*
X100048097Y-92108012D01*
X100067967Y-92095205D01*
X100089731Y-92083955D01*
X100113413Y-92074392D01*
X100137476Y-92065917D01*
X100139976Y-91807807D01*
X100140963Y-91716351D01*
X100142128Y-91644758D01*
X100142865Y-91615219D01*
X100143751Y-91589217D01*
X100144821Y-91566275D01*
X100146110Y-91545918D01*
X100147654Y-91527668D01*
X100149486Y-91511050D01*
X100151643Y-91495587D01*
X100154158Y-91480804D01*
X100157067Y-91466223D01*
X100160405Y-91451369D01*
X100168507Y-91418934D01*
X100179614Y-91379828D01*
X100192524Y-91341191D01*
X100207182Y-91303103D01*
X100223531Y-91265644D01*
X100241517Y-91228895D01*
X100261084Y-91192935D01*
X100282177Y-91157845D01*
X100304741Y-91123704D01*
X100328720Y-91090592D01*
X100354058Y-91058590D01*
X100380701Y-91027778D01*
X100408592Y-90998236D01*
X100437677Y-90970043D01*
X100467900Y-90943279D01*
X100499205Y-90918026D01*
X100531538Y-90894362D01*
X100544468Y-90885361D01*
X100549551Y-90881694D01*
X100553714Y-90878468D01*
X100555452Y-90876994D01*
X100556961Y-90875598D01*
X100558240Y-90874270D01*
X100559291Y-90872999D01*
X100560114Y-90871774D01*
X100560709Y-90870584D01*
X100561076Y-90869419D01*
X100561215Y-90868268D01*
X100561127Y-90867120D01*
X100560811Y-90865965D01*
X100560269Y-90864792D01*
X100559500Y-90863589D01*
X100558504Y-90862348D01*
X100557283Y-90861056D01*
X100555835Y-90859703D01*
X100554162Y-90858279D01*
X100550139Y-90855172D01*
X100545216Y-90851651D01*
X100532678Y-90843019D01*
X100500538Y-90819711D01*
X100469349Y-90794698D01*
X100439175Y-90768074D01*
X100410080Y-90739930D01*
X100382128Y-90710360D01*
X100355384Y-90679457D01*
X100329912Y-90647314D01*
X100305776Y-90614022D01*
X100283041Y-90579676D01*
X100261770Y-90544367D01*
X100242029Y-90508190D01*
X100223881Y-90471235D01*
X100207391Y-90433597D01*
X100192622Y-90395368D01*
X100179640Y-90356641D01*
X100168509Y-90317509D01*
X100160406Y-90285071D01*
X100154159Y-90255634D01*
X100149487Y-90225384D01*
X100146111Y-90190509D01*
X100143751Y-90147194D01*
X100142129Y-90091626D01*
X100139977Y-89928481D01*
X100137477Y-89670227D01*
X100110882Y-89660598D01*
X100089994Y-89652042D01*
X100070555Y-89642086D01*
X100052558Y-89630828D01*
X100035998Y-89618364D01*
X100020872Y-89604793D01*
X100007173Y-89590212D01*
X99994897Y-89574718D01*
X99984039Y-89558408D01*
X99974594Y-89541381D01*
X99966556Y-89523733D01*
X99959921Y-89505563D01*
X99954684Y-89486967D01*
X99950840Y-89468043D01*
X99948384Y-89448889D01*
X99947312Y-89429641D01*
X100066743Y-89429641D01*
X100067655Y-89441440D01*
X100069680Y-89453147D01*
X100072849Y-89464685D01*
X100077196Y-89475977D01*
X100082754Y-89486945D01*
X100089554Y-89497513D01*
X100097631Y-89507602D01*
X100107016Y-89517136D01*
X100117742Y-89526037D01*
X100129843Y-89534228D01*
X100143350Y-89541632D01*
X100149460Y-89544444D01*
X100155628Y-89546915D01*
X100161844Y-89549046D01*
X100168100Y-89550842D01*
X100174385Y-89552305D01*
X100180690Y-89553440D01*
X100187005Y-89554250D01*
X100193320Y-89554737D01*
X100199627Y-89554906D01*
X100205916Y-89554760D01*
X100212176Y-89554302D01*
X100218399Y-89553536D01*
X100224574Y-89552465D01*
X100230693Y-89551092D01*
X100236746Y-89549421D01*
X100242723Y-89547456D01*
X100248614Y-89545199D01*
X100254410Y-89542654D01*
X100260102Y-89539825D01*
X100265680Y-89536715D01*
X100271133Y-89533327D01*
X100276454Y-89529665D01*
X100281632Y-89525732D01*
X100286657Y-89521531D01*
X100291520Y-89517066D01*
X100296212Y-89512341D01*
X100300723Y-89507358D01*
X100305043Y-89502122D01*
X100309162Y-89496635D01*
X100313072Y-89490901D01*
X100316763Y-89484923D01*
X100320224Y-89478705D01*
X100323210Y-89472566D01*
X100325781Y-89466274D01*
X100327943Y-89459849D01*
X100329705Y-89453308D01*
X100331073Y-89446670D01*
X100332056Y-89439953D01*
X100332660Y-89433175D01*
X100332893Y-89426355D01*
X100332763Y-89419511D01*
X100332277Y-89412662D01*
X100331442Y-89405825D01*
X100330266Y-89399019D01*
X100328756Y-89392263D01*
X100326920Y-89385574D01*
X100324766Y-89378971D01*
X100322300Y-89372473D01*
X100319530Y-89366097D01*
X100316464Y-89359862D01*
X100313109Y-89353787D01*
X100309472Y-89347889D01*
X100305562Y-89342187D01*
X100301384Y-89336699D01*
X100296948Y-89331444D01*
X100292260Y-89326440D01*
X100287328Y-89321705D01*
X100282159Y-89317258D01*
X100276760Y-89313117D01*
X100271140Y-89309299D01*
X100265305Y-89305825D01*
X100259264Y-89302711D01*
X100253023Y-89299976D01*
X100246589Y-89297639D01*
X100231701Y-89293501D01*
X100217237Y-89290895D01*
X100203231Y-89289744D01*
X100189717Y-89289970D01*
X100176725Y-89291497D01*
X100164290Y-89294246D01*
X100152444Y-89298141D01*
X100141219Y-89303103D01*
X100130648Y-89309057D01*
X100120765Y-89315924D01*
X100111601Y-89323627D01*
X100103189Y-89332089D01*
X100095563Y-89341233D01*
X100088754Y-89350981D01*
X100082797Y-89361256D01*
X100077722Y-89371980D01*
X100073563Y-89383077D01*
X100070353Y-89394469D01*
X100068125Y-89406079D01*
X100066911Y-89417828D01*
X100066743Y-89429641D01*
X99947312Y-89429641D01*
X99947310Y-89429601D01*
X99947614Y-89410278D01*
X99949291Y-89391017D01*
X99952335Y-89371916D01*
X99956743Y-89353070D01*
X99962508Y-89334580D01*
X99969626Y-89316541D01*
X99978091Y-89299051D01*
X99987900Y-89282208D01*
X99999046Y-89266109D01*
X100011525Y-89250851D01*
X100025331Y-89236532D01*
X100040461Y-89223250D01*
X100056908Y-89211102D01*
X100074668Y-89200186D01*
X100093735Y-89190598D01*
X100114106Y-89182436D01*
X100135774Y-89175798D01*
X100135777Y-89175803D01*
X100155896Y-89171319D01*
X100175739Y-89168433D01*
X100195262Y-89167090D01*
X100214422Y-89167231D01*
G37*
D10*
X108041541Y-79664700D02*
X108148684Y-79700414D01*
X108148684Y-79700414D02*
X108327255Y-79700414D01*
X108327255Y-79700414D02*
X108398684Y-79664700D01*
X108398684Y-79664700D02*
X108434398Y-79628985D01*
X108434398Y-79628985D02*
X108470112Y-79557557D01*
X108470112Y-79557557D02*
X108470112Y-79486128D01*
X108470112Y-79486128D02*
X108434398Y-79414700D01*
X108434398Y-79414700D02*
X108398684Y-79378985D01*
X108398684Y-79378985D02*
X108327255Y-79343271D01*
X108327255Y-79343271D02*
X108184398Y-79307557D01*
X108184398Y-79307557D02*
X108112969Y-79271842D01*
X108112969Y-79271842D02*
X108077255Y-79236128D01*
X108077255Y-79236128D02*
X108041541Y-79164700D01*
X108041541Y-79164700D02*
X108041541Y-79093271D01*
X108041541Y-79093271D02*
X108077255Y-79021842D01*
X108077255Y-79021842D02*
X108112969Y-78986128D01*
X108112969Y-78986128D02*
X108184398Y-78950414D01*
X108184398Y-78950414D02*
X108362969Y-78950414D01*
X108362969Y-78950414D02*
X108470112Y-78986128D01*
X108934398Y-79343271D02*
X108934398Y-79700414D01*
X108684398Y-78950414D02*
X108934398Y-79343271D01*
X108934398Y-79343271D02*
X109184398Y-78950414D01*
X109434398Y-79700414D02*
X109434398Y-78950414D01*
X109434398Y-78950414D02*
X109862969Y-79700414D01*
X109862969Y-79700414D02*
X109862969Y-78950414D01*
X110648683Y-79628985D02*
X110612969Y-79664700D01*
X110612969Y-79664700D02*
X110505826Y-79700414D01*
X110505826Y-79700414D02*
X110434398Y-79700414D01*
X110434398Y-79700414D02*
X110327255Y-79664700D01*
X110327255Y-79664700D02*
X110255826Y-79593271D01*
X110255826Y-79593271D02*
X110220112Y-79521842D01*
X110220112Y-79521842D02*
X110184398Y-79378985D01*
X110184398Y-79378985D02*
X110184398Y-79271842D01*
X110184398Y-79271842D02*
X110220112Y-79128985D01*
X110220112Y-79128985D02*
X110255826Y-79057557D01*
X110255826Y-79057557D02*
X110327255Y-78986128D01*
X110327255Y-78986128D02*
X110434398Y-78950414D01*
X110434398Y-78950414D02*
X110505826Y-78950414D01*
X110505826Y-78950414D02*
X110612969Y-78986128D01*
X110612969Y-78986128D02*
X110648683Y-79021842D01*
X110791541Y-79771842D02*
X111362969Y-79771842D01*
X111684398Y-78950414D02*
X111827255Y-78950414D01*
X111827255Y-78950414D02*
X111898684Y-78986128D01*
X111898684Y-78986128D02*
X111970112Y-79057557D01*
X111970112Y-79057557D02*
X112005827Y-79200414D01*
X112005827Y-79200414D02*
X112005827Y-79450414D01*
X112005827Y-79450414D02*
X111970112Y-79593271D01*
X111970112Y-79593271D02*
X111898684Y-79664700D01*
X111898684Y-79664700D02*
X111827255Y-79700414D01*
X111827255Y-79700414D02*
X111684398Y-79700414D01*
X111684398Y-79700414D02*
X111612970Y-79664700D01*
X111612970Y-79664700D02*
X111541541Y-79593271D01*
X111541541Y-79593271D02*
X111505827Y-79450414D01*
X111505827Y-79450414D02*
X111505827Y-79200414D01*
X111505827Y-79200414D02*
X111541541Y-79057557D01*
X111541541Y-79057557D02*
X111612970Y-78986128D01*
X111612970Y-78986128D02*
X111684398Y-78950414D01*
X112327255Y-78950414D02*
X112327255Y-79557557D01*
X112327255Y-79557557D02*
X112362969Y-79628985D01*
X112362969Y-79628985D02*
X112398684Y-79664700D01*
X112398684Y-79664700D02*
X112470112Y-79700414D01*
X112470112Y-79700414D02*
X112612969Y-79700414D01*
X112612969Y-79700414D02*
X112684398Y-79664700D01*
X112684398Y-79664700D02*
X112720112Y-79628985D01*
X112720112Y-79628985D02*
X112755826Y-79557557D01*
X112755826Y-79557557D02*
X112755826Y-78950414D01*
X113005826Y-78950414D02*
X113434398Y-78950414D01*
X113220112Y-79700414D02*
X113220112Y-78950414D01*
X96986128Y-80529887D02*
X96950414Y-80601316D01*
X96950414Y-80601316D02*
X96950414Y-80708458D01*
X96950414Y-80708458D02*
X96986128Y-80815601D01*
X96986128Y-80815601D02*
X97057557Y-80887030D01*
X97057557Y-80887030D02*
X97128985Y-80922744D01*
X97128985Y-80922744D02*
X97271842Y-80958458D01*
X97271842Y-80958458D02*
X97378985Y-80958458D01*
X97378985Y-80958458D02*
X97521842Y-80922744D01*
X97521842Y-80922744D02*
X97593271Y-80887030D01*
X97593271Y-80887030D02*
X97664700Y-80815601D01*
X97664700Y-80815601D02*
X97700414Y-80708458D01*
X97700414Y-80708458D02*
X97700414Y-80637030D01*
X97700414Y-80637030D02*
X97664700Y-80529887D01*
X97664700Y-80529887D02*
X97628985Y-80494173D01*
X97628985Y-80494173D02*
X97378985Y-80494173D01*
X97378985Y-80494173D02*
X97378985Y-80637030D01*
X97700414Y-80172744D02*
X96950414Y-80172744D01*
X96950414Y-80172744D02*
X97700414Y-79744173D01*
X97700414Y-79744173D02*
X96950414Y-79744173D01*
X97700414Y-79387030D02*
X96950414Y-79387030D01*
X96950414Y-79387030D02*
X96950414Y-79208459D01*
X96950414Y-79208459D02*
X96986128Y-79101316D01*
X96986128Y-79101316D02*
X97057557Y-79029887D01*
X97057557Y-79029887D02*
X97128985Y-78994173D01*
X97128985Y-78994173D02*
X97271842Y-78958459D01*
X97271842Y-78958459D02*
X97378985Y-78958459D01*
X97378985Y-78958459D02*
X97521842Y-78994173D01*
X97521842Y-78994173D02*
X97593271Y-79029887D01*
X97593271Y-79029887D02*
X97664700Y-79101316D01*
X97664700Y-79101316D02*
X97700414Y-79208459D01*
X97700414Y-79208459D02*
X97700414Y-79387030D01*
X94386128Y-85929887D02*
X94350414Y-86001316D01*
X94350414Y-86001316D02*
X94350414Y-86108458D01*
X94350414Y-86108458D02*
X94386128Y-86215601D01*
X94386128Y-86215601D02*
X94457557Y-86287030D01*
X94457557Y-86287030D02*
X94528985Y-86322744D01*
X94528985Y-86322744D02*
X94671842Y-86358458D01*
X94671842Y-86358458D02*
X94778985Y-86358458D01*
X94778985Y-86358458D02*
X94921842Y-86322744D01*
X94921842Y-86322744D02*
X94993271Y-86287030D01*
X94993271Y-86287030D02*
X95064700Y-86215601D01*
X95064700Y-86215601D02*
X95100414Y-86108458D01*
X95100414Y-86108458D02*
X95100414Y-86037030D01*
X95100414Y-86037030D02*
X95064700Y-85929887D01*
X95064700Y-85929887D02*
X95028985Y-85894173D01*
X95028985Y-85894173D02*
X94778985Y-85894173D01*
X94778985Y-85894173D02*
X94778985Y-86037030D01*
X95100414Y-85572744D02*
X94350414Y-85572744D01*
X94350414Y-85572744D02*
X95100414Y-85144173D01*
X95100414Y-85144173D02*
X94350414Y-85144173D01*
X95100414Y-84787030D02*
X94350414Y-84787030D01*
X94350414Y-84787030D02*
X94350414Y-84608459D01*
X94350414Y-84608459D02*
X94386128Y-84501316D01*
X94386128Y-84501316D02*
X94457557Y-84429887D01*
X94457557Y-84429887D02*
X94528985Y-84394173D01*
X94528985Y-84394173D02*
X94671842Y-84358459D01*
X94671842Y-84358459D02*
X94778985Y-84358459D01*
X94778985Y-84358459D02*
X94921842Y-84394173D01*
X94921842Y-84394173D02*
X94993271Y-84429887D01*
X94993271Y-84429887D02*
X95064700Y-84501316D01*
X95064700Y-84501316D02*
X95100414Y-84608459D01*
X95100414Y-84608459D02*
X95100414Y-84787030D01*
X112970112Y-77550414D02*
X113220112Y-78300414D01*
X113220112Y-78300414D02*
X113470112Y-77550414D01*
X113720112Y-78300414D02*
X113720112Y-77550414D01*
X114077255Y-78300414D02*
X114077255Y-77550414D01*
X114077255Y-77550414D02*
X114255826Y-77550414D01*
X114255826Y-77550414D02*
X114362969Y-77586128D01*
X114362969Y-77586128D02*
X114434398Y-77657557D01*
X114434398Y-77657557D02*
X114470112Y-77728985D01*
X114470112Y-77728985D02*
X114505826Y-77871842D01*
X114505826Y-77871842D02*
X114505826Y-77978985D01*
X114505826Y-77978985D02*
X114470112Y-78121842D01*
X114470112Y-78121842D02*
X114434398Y-78193271D01*
X114434398Y-78193271D02*
X114362969Y-78264700D01*
X114362969Y-78264700D02*
X114255826Y-78300414D01*
X114255826Y-78300414D02*
X114077255Y-78300414D01*
X114827255Y-77907557D02*
X115077255Y-77907557D01*
X115184398Y-78300414D02*
X114827255Y-78300414D01*
X114827255Y-78300414D02*
X114827255Y-77550414D01*
X114827255Y-77550414D02*
X115184398Y-77550414D01*
X115648683Y-77550414D02*
X115791540Y-77550414D01*
X115791540Y-77550414D02*
X115862969Y-77586128D01*
X115862969Y-77586128D02*
X115934397Y-77657557D01*
X115934397Y-77657557D02*
X115970112Y-77800414D01*
X115970112Y-77800414D02*
X115970112Y-78050414D01*
X115970112Y-78050414D02*
X115934397Y-78193271D01*
X115934397Y-78193271D02*
X115862969Y-78264700D01*
X115862969Y-78264700D02*
X115791540Y-78300414D01*
X115791540Y-78300414D02*
X115648683Y-78300414D01*
X115648683Y-78300414D02*
X115577255Y-78264700D01*
X115577255Y-78264700D02*
X115505826Y-78193271D01*
X115505826Y-78193271D02*
X115470112Y-78050414D01*
X115470112Y-78050414D02*
X115470112Y-77800414D01*
X115470112Y-77800414D02*
X115505826Y-77657557D01*
X115505826Y-77657557D02*
X115577255Y-77586128D01*
X115577255Y-77586128D02*
X115648683Y-77550414D01*
X116112969Y-78371842D02*
X116684397Y-78371842D01*
X116862969Y-78300414D02*
X116862969Y-77550414D01*
X117220112Y-78300414D02*
X117220112Y-77550414D01*
X117220112Y-77550414D02*
X117648683Y-78300414D01*
X117648683Y-78300414D02*
X117648683Y-77550414D01*
X117898683Y-77550414D02*
X118148683Y-78300414D01*
X118148683Y-78300414D02*
X118398683Y-77550414D01*
X118648683Y-77907557D02*
X118898683Y-77907557D01*
X119005826Y-78300414D02*
X118648683Y-78300414D01*
X118648683Y-78300414D02*
X118648683Y-77550414D01*
X118648683Y-77550414D02*
X119005826Y-77550414D01*
X119755825Y-78300414D02*
X119505825Y-77943271D01*
X119327254Y-78300414D02*
X119327254Y-77550414D01*
X119327254Y-77550414D02*
X119612968Y-77550414D01*
X119612968Y-77550414D02*
X119684397Y-77586128D01*
X119684397Y-77586128D02*
X119720111Y-77621842D01*
X119720111Y-77621842D02*
X119755825Y-77693271D01*
X119755825Y-77693271D02*
X119755825Y-77800414D01*
X119755825Y-77800414D02*
X119720111Y-77871842D01*
X119720111Y-77871842D02*
X119684397Y-77907557D01*
X119684397Y-77907557D02*
X119612968Y-77943271D01*
X119612968Y-77943271D02*
X119327254Y-77943271D01*
X119970111Y-77550414D02*
X120398683Y-77550414D01*
X120184397Y-78300414D02*
X120184397Y-77550414D01*
X125487255Y-75300414D02*
X125487255Y-74550414D01*
X125487255Y-74550414D02*
X125737255Y-75086128D01*
X125737255Y-75086128D02*
X125987255Y-74550414D01*
X125987255Y-74550414D02*
X125987255Y-75300414D01*
X126344398Y-75300414D02*
X126344398Y-74550414D01*
X126701541Y-75300414D02*
X126701541Y-74550414D01*
X126701541Y-74550414D02*
X127130112Y-75300414D01*
X127130112Y-75300414D02*
X127130112Y-74550414D01*
X127487255Y-75300414D02*
X127487255Y-74550414D01*
X127665827Y-75371842D02*
X128237255Y-75371842D01*
X128308684Y-74550414D02*
X128558684Y-75300414D01*
X128558684Y-75300414D02*
X128808684Y-74550414D01*
X129058684Y-75300414D02*
X129058684Y-74550414D01*
X129415827Y-75300414D02*
X129415827Y-74550414D01*
X129415827Y-74550414D02*
X129594398Y-74550414D01*
X129594398Y-74550414D02*
X129701541Y-74586128D01*
X129701541Y-74586128D02*
X129772970Y-74657557D01*
X129772970Y-74657557D02*
X129808684Y-74728985D01*
X129808684Y-74728985D02*
X129844398Y-74871842D01*
X129844398Y-74871842D02*
X129844398Y-74978985D01*
X129844398Y-74978985D02*
X129808684Y-75121842D01*
X129808684Y-75121842D02*
X129772970Y-75193271D01*
X129772970Y-75193271D02*
X129701541Y-75264700D01*
X129701541Y-75264700D02*
X129594398Y-75300414D01*
X129594398Y-75300414D02*
X129415827Y-75300414D01*
X129987256Y-75371842D02*
X130558684Y-75371842D01*
X130880113Y-74550414D02*
X131022970Y-74550414D01*
X131022970Y-74550414D02*
X131094399Y-74586128D01*
X131094399Y-74586128D02*
X131165827Y-74657557D01*
X131165827Y-74657557D02*
X131201542Y-74800414D01*
X131201542Y-74800414D02*
X131201542Y-75050414D01*
X131201542Y-75050414D02*
X131165827Y-75193271D01*
X131165827Y-75193271D02*
X131094399Y-75264700D01*
X131094399Y-75264700D02*
X131022970Y-75300414D01*
X131022970Y-75300414D02*
X130880113Y-75300414D01*
X130880113Y-75300414D02*
X130808685Y-75264700D01*
X130808685Y-75264700D02*
X130737256Y-75193271D01*
X130737256Y-75193271D02*
X130701542Y-75050414D01*
X130701542Y-75050414D02*
X130701542Y-74800414D01*
X130701542Y-74800414D02*
X130737256Y-74657557D01*
X130737256Y-74657557D02*
X130808685Y-74586128D01*
X130808685Y-74586128D02*
X130880113Y-74550414D01*
X131522970Y-74550414D02*
X131522970Y-75157557D01*
X131522970Y-75157557D02*
X131558684Y-75228985D01*
X131558684Y-75228985D02*
X131594399Y-75264700D01*
X131594399Y-75264700D02*
X131665827Y-75300414D01*
X131665827Y-75300414D02*
X131808684Y-75300414D01*
X131808684Y-75300414D02*
X131880113Y-75264700D01*
X131880113Y-75264700D02*
X131915827Y-75228985D01*
X131915827Y-75228985D02*
X131951541Y-75157557D01*
X131951541Y-75157557D02*
X131951541Y-74550414D01*
X132201541Y-74550414D02*
X132630113Y-74550414D01*
X132415827Y-75300414D02*
X132415827Y-74550414D01*
X128786128Y-86329887D02*
X128750414Y-86401316D01*
X128750414Y-86401316D02*
X128750414Y-86508458D01*
X128750414Y-86508458D02*
X128786128Y-86615601D01*
X128786128Y-86615601D02*
X128857557Y-86687030D01*
X128857557Y-86687030D02*
X128928985Y-86722744D01*
X128928985Y-86722744D02*
X129071842Y-86758458D01*
X129071842Y-86758458D02*
X129178985Y-86758458D01*
X129178985Y-86758458D02*
X129321842Y-86722744D01*
X129321842Y-86722744D02*
X129393271Y-86687030D01*
X129393271Y-86687030D02*
X129464700Y-86615601D01*
X129464700Y-86615601D02*
X129500414Y-86508458D01*
X129500414Y-86508458D02*
X129500414Y-86437030D01*
X129500414Y-86437030D02*
X129464700Y-86329887D01*
X129464700Y-86329887D02*
X129428985Y-86294173D01*
X129428985Y-86294173D02*
X129178985Y-86294173D01*
X129178985Y-86294173D02*
X129178985Y-86437030D01*
X129500414Y-85972744D02*
X128750414Y-85972744D01*
X128750414Y-85972744D02*
X129500414Y-85544173D01*
X129500414Y-85544173D02*
X128750414Y-85544173D01*
X129500414Y-85187030D02*
X128750414Y-85187030D01*
X128750414Y-85187030D02*
X128750414Y-85008459D01*
X128750414Y-85008459D02*
X128786128Y-84901316D01*
X128786128Y-84901316D02*
X128857557Y-84829887D01*
X128857557Y-84829887D02*
X128928985Y-84794173D01*
X128928985Y-84794173D02*
X129071842Y-84758459D01*
X129071842Y-84758459D02*
X129178985Y-84758459D01*
X129178985Y-84758459D02*
X129321842Y-84794173D01*
X129321842Y-84794173D02*
X129393271Y-84829887D01*
X129393271Y-84829887D02*
X129464700Y-84901316D01*
X129464700Y-84901316D02*
X129500414Y-85008459D01*
X129500414Y-85008459D02*
X129500414Y-85187030D01*
X94970112Y-75350414D02*
X95220112Y-76100414D01*
X95220112Y-76100414D02*
X95470112Y-75350414D01*
X95720112Y-76100414D02*
X95720112Y-75600414D01*
X95720112Y-75350414D02*
X95684398Y-75386128D01*
X95684398Y-75386128D02*
X95720112Y-75421842D01*
X95720112Y-75421842D02*
X95755826Y-75386128D01*
X95755826Y-75386128D02*
X95720112Y-75350414D01*
X95720112Y-75350414D02*
X95720112Y-75421842D01*
X96398684Y-76100414D02*
X96398684Y-75350414D01*
X96398684Y-76064700D02*
X96327255Y-76100414D01*
X96327255Y-76100414D02*
X96184398Y-76100414D01*
X96184398Y-76100414D02*
X96112969Y-76064700D01*
X96112969Y-76064700D02*
X96077255Y-76028985D01*
X96077255Y-76028985D02*
X96041541Y-75957557D01*
X96041541Y-75957557D02*
X96041541Y-75743271D01*
X96041541Y-75743271D02*
X96077255Y-75671842D01*
X96077255Y-75671842D02*
X96112969Y-75636128D01*
X96112969Y-75636128D02*
X96184398Y-75600414D01*
X96184398Y-75600414D02*
X96327255Y-75600414D01*
X96327255Y-75600414D02*
X96398684Y-75636128D01*
X97041540Y-76064700D02*
X96970112Y-76100414D01*
X96970112Y-76100414D02*
X96827255Y-76100414D01*
X96827255Y-76100414D02*
X96755826Y-76064700D01*
X96755826Y-76064700D02*
X96720112Y-75993271D01*
X96720112Y-75993271D02*
X96720112Y-75707557D01*
X96720112Y-75707557D02*
X96755826Y-75636128D01*
X96755826Y-75636128D02*
X96827255Y-75600414D01*
X96827255Y-75600414D02*
X96970112Y-75600414D01*
X96970112Y-75600414D02*
X97041540Y-75636128D01*
X97041540Y-75636128D02*
X97077255Y-75707557D01*
X97077255Y-75707557D02*
X97077255Y-75778985D01*
X97077255Y-75778985D02*
X96720112Y-75850414D01*
X97505826Y-76100414D02*
X97434397Y-76064700D01*
X97434397Y-76064700D02*
X97398683Y-76028985D01*
X97398683Y-76028985D02*
X97362969Y-75957557D01*
X97362969Y-75957557D02*
X97362969Y-75743271D01*
X97362969Y-75743271D02*
X97398683Y-75671842D01*
X97398683Y-75671842D02*
X97434397Y-75636128D01*
X97434397Y-75636128D02*
X97505826Y-75600414D01*
X97505826Y-75600414D02*
X97612969Y-75600414D01*
X97612969Y-75600414D02*
X97684397Y-75636128D01*
X97684397Y-75636128D02*
X97720112Y-75671842D01*
X97720112Y-75671842D02*
X97755826Y-75743271D01*
X97755826Y-75743271D02*
X97755826Y-75957557D01*
X97755826Y-75957557D02*
X97720112Y-76028985D01*
X97720112Y-76028985D02*
X97684397Y-76064700D01*
X97684397Y-76064700D02*
X97612969Y-76100414D01*
X97612969Y-76100414D02*
X97505826Y-76100414D01*
X97898683Y-76171842D02*
X98470111Y-76171842D01*
X98648683Y-76100414D02*
X98648683Y-75600414D01*
X98648683Y-75350414D02*
X98612969Y-75386128D01*
X98612969Y-75386128D02*
X98648683Y-75421842D01*
X98648683Y-75421842D02*
X98684397Y-75386128D01*
X98684397Y-75386128D02*
X98648683Y-75350414D01*
X98648683Y-75350414D02*
X98648683Y-75421842D01*
X99005826Y-75600414D02*
X99005826Y-76100414D01*
X99005826Y-75671842D02*
X99041540Y-75636128D01*
X99041540Y-75636128D02*
X99112969Y-75600414D01*
X99112969Y-75600414D02*
X99220112Y-75600414D01*
X99220112Y-75600414D02*
X99291540Y-75636128D01*
X99291540Y-75636128D02*
X99327255Y-75707557D01*
X99327255Y-75707557D02*
X99327255Y-76100414D01*
X130500414Y-89729887D02*
X130500414Y-90158458D01*
X130500414Y-89944173D02*
X129750414Y-89944173D01*
X129750414Y-89944173D02*
X129857557Y-90015601D01*
X129857557Y-90015601D02*
X129928985Y-90087030D01*
X129928985Y-90087030D02*
X129964700Y-90158458D01*
X129821842Y-89444172D02*
X129786128Y-89408458D01*
X129786128Y-89408458D02*
X129750414Y-89337030D01*
X129750414Y-89337030D02*
X129750414Y-89158458D01*
X129750414Y-89158458D02*
X129786128Y-89087030D01*
X129786128Y-89087030D02*
X129821842Y-89051315D01*
X129821842Y-89051315D02*
X129893271Y-89015601D01*
X129893271Y-89015601D02*
X129964700Y-89015601D01*
X129964700Y-89015601D02*
X130071842Y-89051315D01*
X130071842Y-89051315D02*
X130500414Y-89479887D01*
X130500414Y-89479887D02*
X130500414Y-89015601D01*
X129750414Y-88801315D02*
X130500414Y-88551315D01*
X130500414Y-88551315D02*
X129750414Y-88301315D01*
X114170112Y-79150414D02*
X114420112Y-79900414D01*
X114420112Y-79900414D02*
X114670112Y-79150414D01*
X114920112Y-79900414D02*
X114920112Y-79150414D01*
X115277255Y-79900414D02*
X115277255Y-79150414D01*
X115277255Y-79150414D02*
X115455826Y-79150414D01*
X115455826Y-79150414D02*
X115562969Y-79186128D01*
X115562969Y-79186128D02*
X115634398Y-79257557D01*
X115634398Y-79257557D02*
X115670112Y-79328985D01*
X115670112Y-79328985D02*
X115705826Y-79471842D01*
X115705826Y-79471842D02*
X115705826Y-79578985D01*
X115705826Y-79578985D02*
X115670112Y-79721842D01*
X115670112Y-79721842D02*
X115634398Y-79793271D01*
X115634398Y-79793271D02*
X115562969Y-79864700D01*
X115562969Y-79864700D02*
X115455826Y-79900414D01*
X115455826Y-79900414D02*
X115277255Y-79900414D01*
X116027255Y-79507557D02*
X116277255Y-79507557D01*
X116384398Y-79900414D02*
X116027255Y-79900414D01*
X116027255Y-79900414D02*
X116027255Y-79150414D01*
X116027255Y-79150414D02*
X116384398Y-79150414D01*
X116848683Y-79150414D02*
X116991540Y-79150414D01*
X116991540Y-79150414D02*
X117062969Y-79186128D01*
X117062969Y-79186128D02*
X117134397Y-79257557D01*
X117134397Y-79257557D02*
X117170112Y-79400414D01*
X117170112Y-79400414D02*
X117170112Y-79650414D01*
X117170112Y-79650414D02*
X117134397Y-79793271D01*
X117134397Y-79793271D02*
X117062969Y-79864700D01*
X117062969Y-79864700D02*
X116991540Y-79900414D01*
X116991540Y-79900414D02*
X116848683Y-79900414D01*
X116848683Y-79900414D02*
X116777255Y-79864700D01*
X116777255Y-79864700D02*
X116705826Y-79793271D01*
X116705826Y-79793271D02*
X116670112Y-79650414D01*
X116670112Y-79650414D02*
X116670112Y-79400414D01*
X116670112Y-79400414D02*
X116705826Y-79257557D01*
X116705826Y-79257557D02*
X116777255Y-79186128D01*
X116777255Y-79186128D02*
X116848683Y-79150414D01*
X117312969Y-79971842D02*
X117884397Y-79971842D01*
X118062969Y-79900414D02*
X118062969Y-79150414D01*
X118420112Y-79900414D02*
X118420112Y-79150414D01*
X118420112Y-79150414D02*
X118848683Y-79900414D01*
X118848683Y-79900414D02*
X118848683Y-79150414D01*
X108246428Y-89339164D02*
X108246428Y-88589164D01*
X108246428Y-88589164D02*
X108424999Y-88589164D01*
X108424999Y-88589164D02*
X108532142Y-88624878D01*
X108532142Y-88624878D02*
X108603571Y-88696307D01*
X108603571Y-88696307D02*
X108639285Y-88767735D01*
X108639285Y-88767735D02*
X108674999Y-88910592D01*
X108674999Y-88910592D02*
X108674999Y-89017735D01*
X108674999Y-89017735D02*
X108639285Y-89160592D01*
X108639285Y-89160592D02*
X108603571Y-89232021D01*
X108603571Y-89232021D02*
X108532142Y-89303450D01*
X108532142Y-89303450D02*
X108424999Y-89339164D01*
X108424999Y-89339164D02*
X108246428Y-89339164D01*
X108924999Y-88589164D02*
X109389285Y-88589164D01*
X109389285Y-88589164D02*
X109139285Y-88874878D01*
X109139285Y-88874878D02*
X109246428Y-88874878D01*
X109246428Y-88874878D02*
X109317857Y-88910592D01*
X109317857Y-88910592D02*
X109353571Y-88946307D01*
X109353571Y-88946307D02*
X109389285Y-89017735D01*
X109389285Y-89017735D02*
X109389285Y-89196307D01*
X109389285Y-89196307D02*
X109353571Y-89267735D01*
X109353571Y-89267735D02*
X109317857Y-89303450D01*
X109317857Y-89303450D02*
X109246428Y-89339164D01*
X109246428Y-89339164D02*
X109032142Y-89339164D01*
X109032142Y-89339164D02*
X108960714Y-89303450D01*
X108960714Y-89303450D02*
X108924999Y-89267735D01*
X108246428Y-87939164D02*
X108246428Y-87189164D01*
X108246428Y-87189164D02*
X108424999Y-87189164D01*
X108424999Y-87189164D02*
X108532142Y-87224878D01*
X108532142Y-87224878D02*
X108603571Y-87296307D01*
X108603571Y-87296307D02*
X108639285Y-87367735D01*
X108639285Y-87367735D02*
X108674999Y-87510592D01*
X108674999Y-87510592D02*
X108674999Y-87617735D01*
X108674999Y-87617735D02*
X108639285Y-87760592D01*
X108639285Y-87760592D02*
X108603571Y-87832021D01*
X108603571Y-87832021D02*
X108532142Y-87903450D01*
X108532142Y-87903450D02*
X108424999Y-87939164D01*
X108424999Y-87939164D02*
X108246428Y-87939164D01*
X108960714Y-87260592D02*
X108996428Y-87224878D01*
X108996428Y-87224878D02*
X109067857Y-87189164D01*
X109067857Y-87189164D02*
X109246428Y-87189164D01*
X109246428Y-87189164D02*
X109317857Y-87224878D01*
X109317857Y-87224878D02*
X109353571Y-87260592D01*
X109353571Y-87260592D02*
X109389285Y-87332021D01*
X109389285Y-87332021D02*
X109389285Y-87403450D01*
X109389285Y-87403450D02*
X109353571Y-87510592D01*
X109353571Y-87510592D02*
X108924999Y-87939164D01*
X108924999Y-87939164D02*
X109389285Y-87939164D01*
X104674999Y-92667735D02*
X104639285Y-92703450D01*
X104639285Y-92703450D02*
X104532142Y-92739164D01*
X104532142Y-92739164D02*
X104460714Y-92739164D01*
X104460714Y-92739164D02*
X104353571Y-92703450D01*
X104353571Y-92703450D02*
X104282142Y-92632021D01*
X104282142Y-92632021D02*
X104246428Y-92560592D01*
X104246428Y-92560592D02*
X104210714Y-92417735D01*
X104210714Y-92417735D02*
X104210714Y-92310592D01*
X104210714Y-92310592D02*
X104246428Y-92167735D01*
X104246428Y-92167735D02*
X104282142Y-92096307D01*
X104282142Y-92096307D02*
X104353571Y-92024878D01*
X104353571Y-92024878D02*
X104460714Y-91989164D01*
X104460714Y-91989164D02*
X104532142Y-91989164D01*
X104532142Y-91989164D02*
X104639285Y-92024878D01*
X104639285Y-92024878D02*
X104674999Y-92060592D01*
X105317857Y-92239164D02*
X105317857Y-92739164D01*
X105139285Y-91953450D02*
X104960714Y-92489164D01*
X104960714Y-92489164D02*
X105424999Y-92489164D01*
X108517856Y-90739164D02*
X108267856Y-90382021D01*
X108089285Y-90739164D02*
X108089285Y-89989164D01*
X108089285Y-89989164D02*
X108374999Y-89989164D01*
X108374999Y-89989164D02*
X108446428Y-90024878D01*
X108446428Y-90024878D02*
X108482142Y-90060592D01*
X108482142Y-90060592D02*
X108517856Y-90132021D01*
X108517856Y-90132021D02*
X108517856Y-90239164D01*
X108517856Y-90239164D02*
X108482142Y-90310592D01*
X108482142Y-90310592D02*
X108446428Y-90346307D01*
X108446428Y-90346307D02*
X108374999Y-90382021D01*
X108374999Y-90382021D02*
X108089285Y-90382021D01*
X109232142Y-90739164D02*
X108803571Y-90739164D01*
X109017856Y-90739164D02*
X109017856Y-89989164D01*
X109017856Y-89989164D02*
X108946428Y-90096307D01*
X108946428Y-90096307D02*
X108874999Y-90167735D01*
X108874999Y-90167735D02*
X108803571Y-90203450D01*
X109946428Y-90739164D02*
X109517857Y-90739164D01*
X109732142Y-90739164D02*
X109732142Y-89989164D01*
X109732142Y-89989164D02*
X109660714Y-90096307D01*
X109660714Y-90096307D02*
X109589285Y-90167735D01*
X109589285Y-90167735D02*
X109517857Y-90203450D01*
X112117856Y-89539164D02*
X111867856Y-89182021D01*
X111689285Y-89539164D02*
X111689285Y-88789164D01*
X111689285Y-88789164D02*
X111974999Y-88789164D01*
X111974999Y-88789164D02*
X112046428Y-88824878D01*
X112046428Y-88824878D02*
X112082142Y-88860592D01*
X112082142Y-88860592D02*
X112117856Y-88932021D01*
X112117856Y-88932021D02*
X112117856Y-89039164D01*
X112117856Y-89039164D02*
X112082142Y-89110592D01*
X112082142Y-89110592D02*
X112046428Y-89146307D01*
X112046428Y-89146307D02*
X111974999Y-89182021D01*
X111974999Y-89182021D02*
X111689285Y-89182021D01*
X112832142Y-89539164D02*
X112403571Y-89539164D01*
X112617856Y-89539164D02*
X112617856Y-88789164D01*
X112617856Y-88789164D02*
X112546428Y-88896307D01*
X112546428Y-88896307D02*
X112474999Y-88967735D01*
X112474999Y-88967735D02*
X112403571Y-89003450D01*
X113296428Y-88789164D02*
X113367857Y-88789164D01*
X113367857Y-88789164D02*
X113439285Y-88824878D01*
X113439285Y-88824878D02*
X113475000Y-88860592D01*
X113475000Y-88860592D02*
X113510714Y-88932021D01*
X113510714Y-88932021D02*
X113546428Y-89074878D01*
X113546428Y-89074878D02*
X113546428Y-89253450D01*
X113546428Y-89253450D02*
X113510714Y-89396307D01*
X113510714Y-89396307D02*
X113475000Y-89467735D01*
X113475000Y-89467735D02*
X113439285Y-89503450D01*
X113439285Y-89503450D02*
X113367857Y-89539164D01*
X113367857Y-89539164D02*
X113296428Y-89539164D01*
X113296428Y-89539164D02*
X113225000Y-89503450D01*
X113225000Y-89503450D02*
X113189285Y-89467735D01*
X113189285Y-89467735D02*
X113153571Y-89396307D01*
X113153571Y-89396307D02*
X113117857Y-89253450D01*
X113117857Y-89253450D02*
X113117857Y-89074878D01*
X113117857Y-89074878D02*
X113153571Y-88932021D01*
X113153571Y-88932021D02*
X113189285Y-88860592D01*
X113189285Y-88860592D02*
X113225000Y-88824878D01*
X113225000Y-88824878D02*
X113296428Y-88789164D01*
X125528571Y-82010592D02*
X125457142Y-81974878D01*
X125457142Y-81974878D02*
X125385714Y-81903450D01*
X125385714Y-81903450D02*
X125278571Y-81796307D01*
X125278571Y-81796307D02*
X125207142Y-81760592D01*
X125207142Y-81760592D02*
X125135714Y-81760592D01*
X125171428Y-81939164D02*
X125100000Y-81903450D01*
X125100000Y-81903450D02*
X125028571Y-81832021D01*
X125028571Y-81832021D02*
X124992857Y-81689164D01*
X124992857Y-81689164D02*
X124992857Y-81439164D01*
X124992857Y-81439164D02*
X125028571Y-81296307D01*
X125028571Y-81296307D02*
X125100000Y-81224878D01*
X125100000Y-81224878D02*
X125171428Y-81189164D01*
X125171428Y-81189164D02*
X125314285Y-81189164D01*
X125314285Y-81189164D02*
X125385714Y-81224878D01*
X125385714Y-81224878D02*
X125457142Y-81296307D01*
X125457142Y-81296307D02*
X125492857Y-81439164D01*
X125492857Y-81439164D02*
X125492857Y-81689164D01*
X125492857Y-81689164D02*
X125457142Y-81832021D01*
X125457142Y-81832021D02*
X125385714Y-81903450D01*
X125385714Y-81903450D02*
X125314285Y-81939164D01*
X125314285Y-81939164D02*
X125171428Y-81939164D01*
X125742856Y-81189164D02*
X126207142Y-81189164D01*
X126207142Y-81189164D02*
X125957142Y-81474878D01*
X125957142Y-81474878D02*
X126064285Y-81474878D01*
X126064285Y-81474878D02*
X126135714Y-81510592D01*
X126135714Y-81510592D02*
X126171428Y-81546307D01*
X126171428Y-81546307D02*
X126207142Y-81617735D01*
X126207142Y-81617735D02*
X126207142Y-81796307D01*
X126207142Y-81796307D02*
X126171428Y-81867735D01*
X126171428Y-81867735D02*
X126135714Y-81903450D01*
X126135714Y-81903450D02*
X126064285Y-81939164D01*
X126064285Y-81939164D02*
X125849999Y-81939164D01*
X125849999Y-81939164D02*
X125778571Y-81903450D01*
X125778571Y-81903450D02*
X125742856Y-81867735D01*
X116428571Y-81789164D02*
X116428571Y-82396307D01*
X116428571Y-82396307D02*
X116464285Y-82467735D01*
X116464285Y-82467735D02*
X116500000Y-82503450D01*
X116500000Y-82503450D02*
X116571428Y-82539164D01*
X116571428Y-82539164D02*
X116714285Y-82539164D01*
X116714285Y-82539164D02*
X116785714Y-82503450D01*
X116785714Y-82503450D02*
X116821428Y-82467735D01*
X116821428Y-82467735D02*
X116857142Y-82396307D01*
X116857142Y-82396307D02*
X116857142Y-81789164D01*
X117607142Y-82539164D02*
X117178571Y-82539164D01*
X117392856Y-82539164D02*
X117392856Y-81789164D01*
X117392856Y-81789164D02*
X117321428Y-81896307D01*
X117321428Y-81896307D02*
X117249999Y-81967735D01*
X117249999Y-81967735D02*
X117178571Y-82003450D01*
X116453571Y-80589164D02*
X116882143Y-80589164D01*
X116667857Y-81339164D02*
X116667857Y-80589164D01*
X117132143Y-81339164D02*
X117132143Y-80589164D01*
X117132143Y-80589164D02*
X117417857Y-80589164D01*
X117417857Y-80589164D02*
X117489286Y-80624878D01*
X117489286Y-80624878D02*
X117525000Y-80660592D01*
X117525000Y-80660592D02*
X117560714Y-80732021D01*
X117560714Y-80732021D02*
X117560714Y-80839164D01*
X117560714Y-80839164D02*
X117525000Y-80910592D01*
X117525000Y-80910592D02*
X117489286Y-80946307D01*
X117489286Y-80946307D02*
X117417857Y-80982021D01*
X117417857Y-80982021D02*
X117132143Y-80982021D01*
X117810714Y-80589164D02*
X118275000Y-80589164D01*
X118275000Y-80589164D02*
X118025000Y-80874878D01*
X118025000Y-80874878D02*
X118132143Y-80874878D01*
X118132143Y-80874878D02*
X118203572Y-80910592D01*
X118203572Y-80910592D02*
X118239286Y-80946307D01*
X118239286Y-80946307D02*
X118275000Y-81017735D01*
X118275000Y-81017735D02*
X118275000Y-81196307D01*
X118275000Y-81196307D02*
X118239286Y-81267735D01*
X118239286Y-81267735D02*
X118203572Y-81303450D01*
X118203572Y-81303450D02*
X118132143Y-81339164D01*
X118132143Y-81339164D02*
X117917857Y-81339164D01*
X117917857Y-81339164D02*
X117846429Y-81303450D01*
X117846429Y-81303450D02*
X117810714Y-81267735D01*
X129653571Y-84341164D02*
X130082143Y-84341164D01*
X129867857Y-85091164D02*
X129867857Y-84341164D01*
X130332143Y-85091164D02*
X130332143Y-84341164D01*
X130332143Y-84341164D02*
X130617857Y-84341164D01*
X130617857Y-84341164D02*
X130689286Y-84376878D01*
X130689286Y-84376878D02*
X130725000Y-84412592D01*
X130725000Y-84412592D02*
X130760714Y-84484021D01*
X130760714Y-84484021D02*
X130760714Y-84591164D01*
X130760714Y-84591164D02*
X130725000Y-84662592D01*
X130725000Y-84662592D02*
X130689286Y-84698307D01*
X130689286Y-84698307D02*
X130617857Y-84734021D01*
X130617857Y-84734021D02*
X130332143Y-84734021D01*
X131403572Y-84341164D02*
X131260714Y-84341164D01*
X131260714Y-84341164D02*
X131189286Y-84376878D01*
X131189286Y-84376878D02*
X131153572Y-84412592D01*
X131153572Y-84412592D02*
X131082143Y-84519735D01*
X131082143Y-84519735D02*
X131046429Y-84662592D01*
X131046429Y-84662592D02*
X131046429Y-84948307D01*
X131046429Y-84948307D02*
X131082143Y-85019735D01*
X131082143Y-85019735D02*
X131117857Y-85055450D01*
X131117857Y-85055450D02*
X131189286Y-85091164D01*
X131189286Y-85091164D02*
X131332143Y-85091164D01*
X131332143Y-85091164D02*
X131403572Y-85055450D01*
X131403572Y-85055450D02*
X131439286Y-85019735D01*
X131439286Y-85019735D02*
X131475000Y-84948307D01*
X131475000Y-84948307D02*
X131475000Y-84769735D01*
X131475000Y-84769735D02*
X131439286Y-84698307D01*
X131439286Y-84698307D02*
X131403572Y-84662592D01*
X131403572Y-84662592D02*
X131332143Y-84626878D01*
X131332143Y-84626878D02*
X131189286Y-84626878D01*
X131189286Y-84626878D02*
X131117857Y-84662592D01*
X131117857Y-84662592D02*
X131082143Y-84698307D01*
X131082143Y-84698307D02*
X131046429Y-84769735D01*
X138160000Y-73494164D02*
X138160000Y-74029878D01*
X138160000Y-74029878D02*
X138124285Y-74137021D01*
X138124285Y-74137021D02*
X138052857Y-74208450D01*
X138052857Y-74208450D02*
X137945714Y-74244164D01*
X137945714Y-74244164D02*
X137874285Y-74244164D01*
X138481429Y-73565592D02*
X138517143Y-73529878D01*
X138517143Y-73529878D02*
X138588572Y-73494164D01*
X138588572Y-73494164D02*
X138767143Y-73494164D01*
X138767143Y-73494164D02*
X138838572Y-73529878D01*
X138838572Y-73529878D02*
X138874286Y-73565592D01*
X138874286Y-73565592D02*
X138910000Y-73637021D01*
X138910000Y-73637021D02*
X138910000Y-73708450D01*
X138910000Y-73708450D02*
X138874286Y-73815592D01*
X138874286Y-73815592D02*
X138445714Y-74244164D01*
X138445714Y-74244164D02*
X138910000Y-74244164D01*
X120474999Y-84139164D02*
X120224999Y-83782021D01*
X120046428Y-84139164D02*
X120046428Y-83389164D01*
X120046428Y-83389164D02*
X120332142Y-83389164D01*
X120332142Y-83389164D02*
X120403571Y-83424878D01*
X120403571Y-83424878D02*
X120439285Y-83460592D01*
X120439285Y-83460592D02*
X120474999Y-83532021D01*
X120474999Y-83532021D02*
X120474999Y-83639164D01*
X120474999Y-83639164D02*
X120439285Y-83710592D01*
X120439285Y-83710592D02*
X120403571Y-83746307D01*
X120403571Y-83746307D02*
X120332142Y-83782021D01*
X120332142Y-83782021D02*
X120046428Y-83782021D01*
X120903571Y-83710592D02*
X120832142Y-83674878D01*
X120832142Y-83674878D02*
X120796428Y-83639164D01*
X120796428Y-83639164D02*
X120760714Y-83567735D01*
X120760714Y-83567735D02*
X120760714Y-83532021D01*
X120760714Y-83532021D02*
X120796428Y-83460592D01*
X120796428Y-83460592D02*
X120832142Y-83424878D01*
X120832142Y-83424878D02*
X120903571Y-83389164D01*
X120903571Y-83389164D02*
X121046428Y-83389164D01*
X121046428Y-83389164D02*
X121117857Y-83424878D01*
X121117857Y-83424878D02*
X121153571Y-83460592D01*
X121153571Y-83460592D02*
X121189285Y-83532021D01*
X121189285Y-83532021D02*
X121189285Y-83567735D01*
X121189285Y-83567735D02*
X121153571Y-83639164D01*
X121153571Y-83639164D02*
X121117857Y-83674878D01*
X121117857Y-83674878D02*
X121046428Y-83710592D01*
X121046428Y-83710592D02*
X120903571Y-83710592D01*
X120903571Y-83710592D02*
X120832142Y-83746307D01*
X120832142Y-83746307D02*
X120796428Y-83782021D01*
X120796428Y-83782021D02*
X120760714Y-83853450D01*
X120760714Y-83853450D02*
X120760714Y-83996307D01*
X120760714Y-83996307D02*
X120796428Y-84067735D01*
X120796428Y-84067735D02*
X120832142Y-84103450D01*
X120832142Y-84103450D02*
X120903571Y-84139164D01*
X120903571Y-84139164D02*
X121046428Y-84139164D01*
X121046428Y-84139164D02*
X121117857Y-84103450D01*
X121117857Y-84103450D02*
X121153571Y-84067735D01*
X121153571Y-84067735D02*
X121189285Y-83996307D01*
X121189285Y-83996307D02*
X121189285Y-83853450D01*
X121189285Y-83853450D02*
X121153571Y-83782021D01*
X121153571Y-83782021D02*
X121117857Y-83746307D01*
X121117857Y-83746307D02*
X121046428Y-83710592D01*
X112074999Y-91267735D02*
X112039285Y-91303450D01*
X112039285Y-91303450D02*
X111932142Y-91339164D01*
X111932142Y-91339164D02*
X111860714Y-91339164D01*
X111860714Y-91339164D02*
X111753571Y-91303450D01*
X111753571Y-91303450D02*
X111682142Y-91232021D01*
X111682142Y-91232021D02*
X111646428Y-91160592D01*
X111646428Y-91160592D02*
X111610714Y-91017735D01*
X111610714Y-91017735D02*
X111610714Y-90910592D01*
X111610714Y-90910592D02*
X111646428Y-90767735D01*
X111646428Y-90767735D02*
X111682142Y-90696307D01*
X111682142Y-90696307D02*
X111753571Y-90624878D01*
X111753571Y-90624878D02*
X111860714Y-90589164D01*
X111860714Y-90589164D02*
X111932142Y-90589164D01*
X111932142Y-90589164D02*
X112039285Y-90624878D01*
X112039285Y-90624878D02*
X112074999Y-90660592D01*
X112753571Y-90589164D02*
X112396428Y-90589164D01*
X112396428Y-90589164D02*
X112360714Y-90946307D01*
X112360714Y-90946307D02*
X112396428Y-90910592D01*
X112396428Y-90910592D02*
X112467857Y-90874878D01*
X112467857Y-90874878D02*
X112646428Y-90874878D01*
X112646428Y-90874878D02*
X112717857Y-90910592D01*
X112717857Y-90910592D02*
X112753571Y-90946307D01*
X112753571Y-90946307D02*
X112789285Y-91017735D01*
X112789285Y-91017735D02*
X112789285Y-91196307D01*
X112789285Y-91196307D02*
X112753571Y-91267735D01*
X112753571Y-91267735D02*
X112717857Y-91303450D01*
X112717857Y-91303450D02*
X112646428Y-91339164D01*
X112646428Y-91339164D02*
X112467857Y-91339164D01*
X112467857Y-91339164D02*
X112396428Y-91303450D01*
X112396428Y-91303450D02*
X112360714Y-91267735D01*
X106433333Y-75959580D02*
X106385714Y-76007200D01*
X106385714Y-76007200D02*
X106242857Y-76054819D01*
X106242857Y-76054819D02*
X106147619Y-76054819D01*
X106147619Y-76054819D02*
X106004762Y-76007200D01*
X106004762Y-76007200D02*
X105909524Y-75911961D01*
X105909524Y-75911961D02*
X105861905Y-75816723D01*
X105861905Y-75816723D02*
X105814286Y-75626247D01*
X105814286Y-75626247D02*
X105814286Y-75483390D01*
X105814286Y-75483390D02*
X105861905Y-75292914D01*
X105861905Y-75292914D02*
X105909524Y-75197676D01*
X105909524Y-75197676D02*
X106004762Y-75102438D01*
X106004762Y-75102438D02*
X106147619Y-75054819D01*
X106147619Y-75054819D02*
X106242857Y-75054819D01*
X106242857Y-75054819D02*
X106385714Y-75102438D01*
X106385714Y-75102438D02*
X106433333Y-75150057D01*
X106766667Y-75054819D02*
X107385714Y-75054819D01*
X107385714Y-75054819D02*
X107052381Y-75435771D01*
X107052381Y-75435771D02*
X107195238Y-75435771D01*
X107195238Y-75435771D02*
X107290476Y-75483390D01*
X107290476Y-75483390D02*
X107338095Y-75531009D01*
X107338095Y-75531009D02*
X107385714Y-75626247D01*
X107385714Y-75626247D02*
X107385714Y-75864342D01*
X107385714Y-75864342D02*
X107338095Y-75959580D01*
X107338095Y-75959580D02*
X107290476Y-76007200D01*
X107290476Y-76007200D02*
X107195238Y-76054819D01*
X107195238Y-76054819D02*
X106909524Y-76054819D01*
X106909524Y-76054819D02*
X106814286Y-76007200D01*
X106814286Y-76007200D02*
X106766667Y-75959580D01*
X95550000Y-81989164D02*
X95550000Y-82524878D01*
X95550000Y-82524878D02*
X95514285Y-82632021D01*
X95514285Y-82632021D02*
X95442857Y-82703450D01*
X95442857Y-82703450D02*
X95335714Y-82739164D01*
X95335714Y-82739164D02*
X95264285Y-82739164D01*
X96300000Y-82739164D02*
X95871429Y-82739164D01*
X96085714Y-82739164D02*
X96085714Y-81989164D01*
X96085714Y-81989164D02*
X96014286Y-82096307D01*
X96014286Y-82096307D02*
X95942857Y-82167735D01*
X95942857Y-82167735D02*
X95871429Y-82203450D01*
X127853571Y-87589164D02*
X128282143Y-87589164D01*
X128067857Y-88339164D02*
X128067857Y-87589164D01*
X128532143Y-88339164D02*
X128532143Y-87589164D01*
X128532143Y-87589164D02*
X128817857Y-87589164D01*
X128817857Y-87589164D02*
X128889286Y-87624878D01*
X128889286Y-87624878D02*
X128925000Y-87660592D01*
X128925000Y-87660592D02*
X128960714Y-87732021D01*
X128960714Y-87732021D02*
X128960714Y-87839164D01*
X128960714Y-87839164D02*
X128925000Y-87910592D01*
X128925000Y-87910592D02*
X128889286Y-87946307D01*
X128889286Y-87946307D02*
X128817857Y-87982021D01*
X128817857Y-87982021D02*
X128532143Y-87982021D01*
X129675000Y-88339164D02*
X129246429Y-88339164D01*
X129460714Y-88339164D02*
X129460714Y-87589164D01*
X129460714Y-87589164D02*
X129389286Y-87696307D01*
X129389286Y-87696307D02*
X129317857Y-87767735D01*
X129317857Y-87767735D02*
X129246429Y-87803450D01*
X98074999Y-81667735D02*
X98039285Y-81703450D01*
X98039285Y-81703450D02*
X97932142Y-81739164D01*
X97932142Y-81739164D02*
X97860714Y-81739164D01*
X97860714Y-81739164D02*
X97753571Y-81703450D01*
X97753571Y-81703450D02*
X97682142Y-81632021D01*
X97682142Y-81632021D02*
X97646428Y-81560592D01*
X97646428Y-81560592D02*
X97610714Y-81417735D01*
X97610714Y-81417735D02*
X97610714Y-81310592D01*
X97610714Y-81310592D02*
X97646428Y-81167735D01*
X97646428Y-81167735D02*
X97682142Y-81096307D01*
X97682142Y-81096307D02*
X97753571Y-81024878D01*
X97753571Y-81024878D02*
X97860714Y-80989164D01*
X97860714Y-80989164D02*
X97932142Y-80989164D01*
X97932142Y-80989164D02*
X98039285Y-81024878D01*
X98039285Y-81024878D02*
X98074999Y-81060592D01*
X98360714Y-81060592D02*
X98396428Y-81024878D01*
X98396428Y-81024878D02*
X98467857Y-80989164D01*
X98467857Y-80989164D02*
X98646428Y-80989164D01*
X98646428Y-80989164D02*
X98717857Y-81024878D01*
X98717857Y-81024878D02*
X98753571Y-81060592D01*
X98753571Y-81060592D02*
X98789285Y-81132021D01*
X98789285Y-81132021D02*
X98789285Y-81203450D01*
X98789285Y-81203450D02*
X98753571Y-81310592D01*
X98753571Y-81310592D02*
X98324999Y-81739164D01*
X98324999Y-81739164D02*
X98789285Y-81739164D01*
X127739164Y-91925000D02*
X127382021Y-92175000D01*
X127739164Y-92353571D02*
X126989164Y-92353571D01*
X126989164Y-92353571D02*
X126989164Y-92067857D01*
X126989164Y-92067857D02*
X127024878Y-91996428D01*
X127024878Y-91996428D02*
X127060592Y-91960714D01*
X127060592Y-91960714D02*
X127132021Y-91925000D01*
X127132021Y-91925000D02*
X127239164Y-91925000D01*
X127239164Y-91925000D02*
X127310592Y-91960714D01*
X127310592Y-91960714D02*
X127346307Y-91996428D01*
X127346307Y-91996428D02*
X127382021Y-92067857D01*
X127382021Y-92067857D02*
X127382021Y-92353571D01*
X127739164Y-91210714D02*
X127739164Y-91639285D01*
X127739164Y-91425000D02*
X126989164Y-91425000D01*
X126989164Y-91425000D02*
X127096307Y-91496428D01*
X127096307Y-91496428D02*
X127167735Y-91567857D01*
X127167735Y-91567857D02*
X127203450Y-91639285D01*
X101074999Y-89139164D02*
X100824999Y-88782021D01*
X100646428Y-89139164D02*
X100646428Y-88389164D01*
X100646428Y-88389164D02*
X100932142Y-88389164D01*
X100932142Y-88389164D02*
X101003571Y-88424878D01*
X101003571Y-88424878D02*
X101039285Y-88460592D01*
X101039285Y-88460592D02*
X101074999Y-88532021D01*
X101074999Y-88532021D02*
X101074999Y-88639164D01*
X101074999Y-88639164D02*
X101039285Y-88710592D01*
X101039285Y-88710592D02*
X101003571Y-88746307D01*
X101003571Y-88746307D02*
X100932142Y-88782021D01*
X100932142Y-88782021D02*
X100646428Y-88782021D01*
X101360714Y-88460592D02*
X101396428Y-88424878D01*
X101396428Y-88424878D02*
X101467857Y-88389164D01*
X101467857Y-88389164D02*
X101646428Y-88389164D01*
X101646428Y-88389164D02*
X101717857Y-88424878D01*
X101717857Y-88424878D02*
X101753571Y-88460592D01*
X101753571Y-88460592D02*
X101789285Y-88532021D01*
X101789285Y-88532021D02*
X101789285Y-88603450D01*
X101789285Y-88603450D02*
X101753571Y-88710592D01*
X101753571Y-88710592D02*
X101324999Y-89139164D01*
X101324999Y-89139164D02*
X101789285Y-89139164D01*
X120274999Y-82539164D02*
X120024999Y-82182021D01*
X119846428Y-82539164D02*
X119846428Y-81789164D01*
X119846428Y-81789164D02*
X120132142Y-81789164D01*
X120132142Y-81789164D02*
X120203571Y-81824878D01*
X120203571Y-81824878D02*
X120239285Y-81860592D01*
X120239285Y-81860592D02*
X120274999Y-81932021D01*
X120274999Y-81932021D02*
X120274999Y-82039164D01*
X120274999Y-82039164D02*
X120239285Y-82110592D01*
X120239285Y-82110592D02*
X120203571Y-82146307D01*
X120203571Y-82146307D02*
X120132142Y-82182021D01*
X120132142Y-82182021D02*
X119846428Y-82182021D01*
X120524999Y-81789164D02*
X121024999Y-81789164D01*
X121024999Y-81789164D02*
X120703571Y-82539164D01*
X120246428Y-92139164D02*
X120246428Y-91389164D01*
X120246428Y-91389164D02*
X120424999Y-91389164D01*
X120424999Y-91389164D02*
X120532142Y-91424878D01*
X120532142Y-91424878D02*
X120603571Y-91496307D01*
X120603571Y-91496307D02*
X120639285Y-91567735D01*
X120639285Y-91567735D02*
X120674999Y-91710592D01*
X120674999Y-91710592D02*
X120674999Y-91817735D01*
X120674999Y-91817735D02*
X120639285Y-91960592D01*
X120639285Y-91960592D02*
X120603571Y-92032021D01*
X120603571Y-92032021D02*
X120532142Y-92103450D01*
X120532142Y-92103450D02*
X120424999Y-92139164D01*
X120424999Y-92139164D02*
X120246428Y-92139164D01*
X121389285Y-92139164D02*
X120960714Y-92139164D01*
X121174999Y-92139164D02*
X121174999Y-91389164D01*
X121174999Y-91389164D02*
X121103571Y-91496307D01*
X121103571Y-91496307D02*
X121032142Y-91567735D01*
X121032142Y-91567735D02*
X120960714Y-91603450D01*
X126464164Y-76325000D02*
X126107021Y-76575000D01*
X126464164Y-76753571D02*
X125714164Y-76753571D01*
X125714164Y-76753571D02*
X125714164Y-76467857D01*
X125714164Y-76467857D02*
X125749878Y-76396428D01*
X125749878Y-76396428D02*
X125785592Y-76360714D01*
X125785592Y-76360714D02*
X125857021Y-76325000D01*
X125857021Y-76325000D02*
X125964164Y-76325000D01*
X125964164Y-76325000D02*
X126035592Y-76360714D01*
X126035592Y-76360714D02*
X126071307Y-76396428D01*
X126071307Y-76396428D02*
X126107021Y-76467857D01*
X126107021Y-76467857D02*
X126107021Y-76753571D01*
X125964164Y-75682143D02*
X126464164Y-75682143D01*
X125678450Y-75860714D02*
X126214164Y-76039285D01*
X126214164Y-76039285D02*
X126214164Y-75575000D01*
X129464164Y-83125000D02*
X129107021Y-83375000D01*
X129464164Y-83553571D02*
X128714164Y-83553571D01*
X128714164Y-83553571D02*
X128714164Y-83267857D01*
X128714164Y-83267857D02*
X128749878Y-83196428D01*
X128749878Y-83196428D02*
X128785592Y-83160714D01*
X128785592Y-83160714D02*
X128857021Y-83125000D01*
X128857021Y-83125000D02*
X128964164Y-83125000D01*
X128964164Y-83125000D02*
X129035592Y-83160714D01*
X129035592Y-83160714D02*
X129071307Y-83196428D01*
X129071307Y-83196428D02*
X129107021Y-83267857D01*
X129107021Y-83267857D02*
X129107021Y-83553571D01*
X129464164Y-82767857D02*
X129464164Y-82625000D01*
X129464164Y-82625000D02*
X129428450Y-82553571D01*
X129428450Y-82553571D02*
X129392735Y-82517857D01*
X129392735Y-82517857D02*
X129285592Y-82446428D01*
X129285592Y-82446428D02*
X129142735Y-82410714D01*
X129142735Y-82410714D02*
X128857021Y-82410714D01*
X128857021Y-82410714D02*
X128785592Y-82446428D01*
X128785592Y-82446428D02*
X128749878Y-82482143D01*
X128749878Y-82482143D02*
X128714164Y-82553571D01*
X128714164Y-82553571D02*
X128714164Y-82696428D01*
X128714164Y-82696428D02*
X128749878Y-82767857D01*
X128749878Y-82767857D02*
X128785592Y-82803571D01*
X128785592Y-82803571D02*
X128857021Y-82839285D01*
X128857021Y-82839285D02*
X129035592Y-82839285D01*
X129035592Y-82839285D02*
X129107021Y-82803571D01*
X129107021Y-82803571D02*
X129142735Y-82767857D01*
X129142735Y-82767857D02*
X129178450Y-82696428D01*
X129178450Y-82696428D02*
X129178450Y-82553571D01*
X129178450Y-82553571D02*
X129142735Y-82482143D01*
X129142735Y-82482143D02*
X129107021Y-82446428D01*
X129107021Y-82446428D02*
X129035592Y-82410714D01*
X123539164Y-76325000D02*
X123182021Y-76575000D01*
X123539164Y-76753571D02*
X122789164Y-76753571D01*
X122789164Y-76753571D02*
X122789164Y-76467857D01*
X122789164Y-76467857D02*
X122824878Y-76396428D01*
X122824878Y-76396428D02*
X122860592Y-76360714D01*
X122860592Y-76360714D02*
X122932021Y-76325000D01*
X122932021Y-76325000D02*
X123039164Y-76325000D01*
X123039164Y-76325000D02*
X123110592Y-76360714D01*
X123110592Y-76360714D02*
X123146307Y-76396428D01*
X123146307Y-76396428D02*
X123182021Y-76467857D01*
X123182021Y-76467857D02*
X123182021Y-76753571D01*
X122789164Y-76075000D02*
X122789164Y-75610714D01*
X122789164Y-75610714D02*
X123074878Y-75860714D01*
X123074878Y-75860714D02*
X123074878Y-75753571D01*
X123074878Y-75753571D02*
X123110592Y-75682143D01*
X123110592Y-75682143D02*
X123146307Y-75646428D01*
X123146307Y-75646428D02*
X123217735Y-75610714D01*
X123217735Y-75610714D02*
X123396307Y-75610714D01*
X123396307Y-75610714D02*
X123467735Y-75646428D01*
X123467735Y-75646428D02*
X123503450Y-75682143D01*
X123503450Y-75682143D02*
X123539164Y-75753571D01*
X123539164Y-75753571D02*
X123539164Y-75967857D01*
X123539164Y-75967857D02*
X123503450Y-76039285D01*
X123503450Y-76039285D02*
X123467735Y-76075000D01*
X130053571Y-75989164D02*
X130482143Y-75989164D01*
X130267857Y-76739164D02*
X130267857Y-75989164D01*
X130732143Y-76739164D02*
X130732143Y-75989164D01*
X130732143Y-75989164D02*
X131017857Y-75989164D01*
X131017857Y-75989164D02*
X131089286Y-76024878D01*
X131089286Y-76024878D02*
X131125000Y-76060592D01*
X131125000Y-76060592D02*
X131160714Y-76132021D01*
X131160714Y-76132021D02*
X131160714Y-76239164D01*
X131160714Y-76239164D02*
X131125000Y-76310592D01*
X131125000Y-76310592D02*
X131089286Y-76346307D01*
X131089286Y-76346307D02*
X131017857Y-76382021D01*
X131017857Y-76382021D02*
X130732143Y-76382021D01*
X131839286Y-75989164D02*
X131482143Y-75989164D01*
X131482143Y-75989164D02*
X131446429Y-76346307D01*
X131446429Y-76346307D02*
X131482143Y-76310592D01*
X131482143Y-76310592D02*
X131553572Y-76274878D01*
X131553572Y-76274878D02*
X131732143Y-76274878D01*
X131732143Y-76274878D02*
X131803572Y-76310592D01*
X131803572Y-76310592D02*
X131839286Y-76346307D01*
X131839286Y-76346307D02*
X131875000Y-76417735D01*
X131875000Y-76417735D02*
X131875000Y-76596307D01*
X131875000Y-76596307D02*
X131839286Y-76667735D01*
X131839286Y-76667735D02*
X131803572Y-76703450D01*
X131803572Y-76703450D02*
X131732143Y-76739164D01*
X131732143Y-76739164D02*
X131553572Y-76739164D01*
X131553572Y-76739164D02*
X131482143Y-76703450D01*
X131482143Y-76703450D02*
X131446429Y-76667735D01*
X104674999Y-91739164D02*
X104424999Y-91382021D01*
X104246428Y-91739164D02*
X104246428Y-90989164D01*
X104246428Y-90989164D02*
X104532142Y-90989164D01*
X104532142Y-90989164D02*
X104603571Y-91024878D01*
X104603571Y-91024878D02*
X104639285Y-91060592D01*
X104639285Y-91060592D02*
X104674999Y-91132021D01*
X104674999Y-91132021D02*
X104674999Y-91239164D01*
X104674999Y-91239164D02*
X104639285Y-91310592D01*
X104639285Y-91310592D02*
X104603571Y-91346307D01*
X104603571Y-91346307D02*
X104532142Y-91382021D01*
X104532142Y-91382021D02*
X104246428Y-91382021D01*
X105317857Y-90989164D02*
X105174999Y-90989164D01*
X105174999Y-90989164D02*
X105103571Y-91024878D01*
X105103571Y-91024878D02*
X105067857Y-91060592D01*
X105067857Y-91060592D02*
X104996428Y-91167735D01*
X104996428Y-91167735D02*
X104960714Y-91310592D01*
X104960714Y-91310592D02*
X104960714Y-91596307D01*
X104960714Y-91596307D02*
X104996428Y-91667735D01*
X104996428Y-91667735D02*
X105032142Y-91703450D01*
X105032142Y-91703450D02*
X105103571Y-91739164D01*
X105103571Y-91739164D02*
X105246428Y-91739164D01*
X105246428Y-91739164D02*
X105317857Y-91703450D01*
X105317857Y-91703450D02*
X105353571Y-91667735D01*
X105353571Y-91667735D02*
X105389285Y-91596307D01*
X105389285Y-91596307D02*
X105389285Y-91417735D01*
X105389285Y-91417735D02*
X105353571Y-91346307D01*
X105353571Y-91346307D02*
X105317857Y-91310592D01*
X105317857Y-91310592D02*
X105246428Y-91274878D01*
X105246428Y-91274878D02*
X105103571Y-91274878D01*
X105103571Y-91274878D02*
X105032142Y-91310592D01*
X105032142Y-91310592D02*
X104996428Y-91346307D01*
X104996428Y-91346307D02*
X104960714Y-91417735D01*
X116453571Y-76389164D02*
X116882143Y-76389164D01*
X116667857Y-77139164D02*
X116667857Y-76389164D01*
X117132143Y-77139164D02*
X117132143Y-76389164D01*
X117132143Y-76389164D02*
X117417857Y-76389164D01*
X117417857Y-76389164D02*
X117489286Y-76424878D01*
X117489286Y-76424878D02*
X117525000Y-76460592D01*
X117525000Y-76460592D02*
X117560714Y-76532021D01*
X117560714Y-76532021D02*
X117560714Y-76639164D01*
X117560714Y-76639164D02*
X117525000Y-76710592D01*
X117525000Y-76710592D02*
X117489286Y-76746307D01*
X117489286Y-76746307D02*
X117417857Y-76782021D01*
X117417857Y-76782021D02*
X117132143Y-76782021D01*
X117846429Y-76460592D02*
X117882143Y-76424878D01*
X117882143Y-76424878D02*
X117953572Y-76389164D01*
X117953572Y-76389164D02*
X118132143Y-76389164D01*
X118132143Y-76389164D02*
X118203572Y-76424878D01*
X118203572Y-76424878D02*
X118239286Y-76460592D01*
X118239286Y-76460592D02*
X118275000Y-76532021D01*
X118275000Y-76532021D02*
X118275000Y-76603450D01*
X118275000Y-76603450D02*
X118239286Y-76710592D01*
X118239286Y-76710592D02*
X117810714Y-77139164D01*
X117810714Y-77139164D02*
X118275000Y-77139164D01*
X104674999Y-90739164D02*
X104424999Y-90382021D01*
X104246428Y-90739164D02*
X104246428Y-89989164D01*
X104246428Y-89989164D02*
X104532142Y-89989164D01*
X104532142Y-89989164D02*
X104603571Y-90024878D01*
X104603571Y-90024878D02*
X104639285Y-90060592D01*
X104639285Y-90060592D02*
X104674999Y-90132021D01*
X104674999Y-90132021D02*
X104674999Y-90239164D01*
X104674999Y-90239164D02*
X104639285Y-90310592D01*
X104639285Y-90310592D02*
X104603571Y-90346307D01*
X104603571Y-90346307D02*
X104532142Y-90382021D01*
X104532142Y-90382021D02*
X104246428Y-90382021D01*
X105353571Y-89989164D02*
X104996428Y-89989164D01*
X104996428Y-89989164D02*
X104960714Y-90346307D01*
X104960714Y-90346307D02*
X104996428Y-90310592D01*
X104996428Y-90310592D02*
X105067857Y-90274878D01*
X105067857Y-90274878D02*
X105246428Y-90274878D01*
X105246428Y-90274878D02*
X105317857Y-90310592D01*
X105317857Y-90310592D02*
X105353571Y-90346307D01*
X105353571Y-90346307D02*
X105389285Y-90417735D01*
X105389285Y-90417735D02*
X105389285Y-90596307D01*
X105389285Y-90596307D02*
X105353571Y-90667735D01*
X105353571Y-90667735D02*
X105317857Y-90703450D01*
X105317857Y-90703450D02*
X105246428Y-90739164D01*
X105246428Y-90739164D02*
X105067857Y-90739164D01*
X105067857Y-90739164D02*
X104996428Y-90703450D01*
X104996428Y-90703450D02*
X104960714Y-90667735D01*
X101928571Y-84810592D02*
X101857142Y-84774878D01*
X101857142Y-84774878D02*
X101785714Y-84703450D01*
X101785714Y-84703450D02*
X101678571Y-84596307D01*
X101678571Y-84596307D02*
X101607142Y-84560592D01*
X101607142Y-84560592D02*
X101535714Y-84560592D01*
X101571428Y-84739164D02*
X101500000Y-84703450D01*
X101500000Y-84703450D02*
X101428571Y-84632021D01*
X101428571Y-84632021D02*
X101392857Y-84489164D01*
X101392857Y-84489164D02*
X101392857Y-84239164D01*
X101392857Y-84239164D02*
X101428571Y-84096307D01*
X101428571Y-84096307D02*
X101500000Y-84024878D01*
X101500000Y-84024878D02*
X101571428Y-83989164D01*
X101571428Y-83989164D02*
X101714285Y-83989164D01*
X101714285Y-83989164D02*
X101785714Y-84024878D01*
X101785714Y-84024878D02*
X101857142Y-84096307D01*
X101857142Y-84096307D02*
X101892857Y-84239164D01*
X101892857Y-84239164D02*
X101892857Y-84489164D01*
X101892857Y-84489164D02*
X101857142Y-84632021D01*
X101857142Y-84632021D02*
X101785714Y-84703450D01*
X101785714Y-84703450D02*
X101714285Y-84739164D01*
X101714285Y-84739164D02*
X101571428Y-84739164D01*
X102607142Y-84739164D02*
X102178571Y-84739164D01*
X102392856Y-84739164D02*
X102392856Y-83989164D01*
X102392856Y-83989164D02*
X102321428Y-84096307D01*
X102321428Y-84096307D02*
X102249999Y-84167735D01*
X102249999Y-84167735D02*
X102178571Y-84203450D01*
X94453571Y-83189164D02*
X94882143Y-83189164D01*
X94667857Y-83939164D02*
X94667857Y-83189164D01*
X95132143Y-83939164D02*
X95132143Y-83189164D01*
X95132143Y-83189164D02*
X95417857Y-83189164D01*
X95417857Y-83189164D02*
X95489286Y-83224878D01*
X95489286Y-83224878D02*
X95525000Y-83260592D01*
X95525000Y-83260592D02*
X95560714Y-83332021D01*
X95560714Y-83332021D02*
X95560714Y-83439164D01*
X95560714Y-83439164D02*
X95525000Y-83510592D01*
X95525000Y-83510592D02*
X95489286Y-83546307D01*
X95489286Y-83546307D02*
X95417857Y-83582021D01*
X95417857Y-83582021D02*
X95132143Y-83582021D01*
X95810714Y-83189164D02*
X96310714Y-83189164D01*
X96310714Y-83189164D02*
X95989286Y-83939164D01*
X104117856Y-89739164D02*
X103867856Y-89382021D01*
X103689285Y-89739164D02*
X103689285Y-88989164D01*
X103689285Y-88989164D02*
X103974999Y-88989164D01*
X103974999Y-88989164D02*
X104046428Y-89024878D01*
X104046428Y-89024878D02*
X104082142Y-89060592D01*
X104082142Y-89060592D02*
X104117856Y-89132021D01*
X104117856Y-89132021D02*
X104117856Y-89239164D01*
X104117856Y-89239164D02*
X104082142Y-89310592D01*
X104082142Y-89310592D02*
X104046428Y-89346307D01*
X104046428Y-89346307D02*
X103974999Y-89382021D01*
X103974999Y-89382021D02*
X103689285Y-89382021D01*
X104832142Y-89739164D02*
X104403571Y-89739164D01*
X104617856Y-89739164D02*
X104617856Y-88989164D01*
X104617856Y-88989164D02*
X104546428Y-89096307D01*
X104546428Y-89096307D02*
X104474999Y-89167735D01*
X104474999Y-89167735D02*
X104403571Y-89203450D01*
X105117857Y-89060592D02*
X105153571Y-89024878D01*
X105153571Y-89024878D02*
X105225000Y-88989164D01*
X105225000Y-88989164D02*
X105403571Y-88989164D01*
X105403571Y-88989164D02*
X105475000Y-89024878D01*
X105475000Y-89024878D02*
X105510714Y-89060592D01*
X105510714Y-89060592D02*
X105546428Y-89132021D01*
X105546428Y-89132021D02*
X105546428Y-89203450D01*
X105546428Y-89203450D02*
X105510714Y-89310592D01*
X105510714Y-89310592D02*
X105082142Y-89739164D01*
X105082142Y-89739164D02*
X105546428Y-89739164D01*
X120033333Y-89759580D02*
X119985714Y-89807200D01*
X119985714Y-89807200D02*
X119842857Y-89854819D01*
X119842857Y-89854819D02*
X119747619Y-89854819D01*
X119747619Y-89854819D02*
X119604762Y-89807200D01*
X119604762Y-89807200D02*
X119509524Y-89711961D01*
X119509524Y-89711961D02*
X119461905Y-89616723D01*
X119461905Y-89616723D02*
X119414286Y-89426247D01*
X119414286Y-89426247D02*
X119414286Y-89283390D01*
X119414286Y-89283390D02*
X119461905Y-89092914D01*
X119461905Y-89092914D02*
X119509524Y-88997676D01*
X119509524Y-88997676D02*
X119604762Y-88902438D01*
X119604762Y-88902438D02*
X119747619Y-88854819D01*
X119747619Y-88854819D02*
X119842857Y-88854819D01*
X119842857Y-88854819D02*
X119985714Y-88902438D01*
X119985714Y-88902438D02*
X120033333Y-88950057D01*
X120985714Y-89854819D02*
X120414286Y-89854819D01*
X120700000Y-89854819D02*
X120700000Y-88854819D01*
X120700000Y-88854819D02*
X120604762Y-88997676D01*
X120604762Y-88997676D02*
X120509524Y-89092914D01*
X120509524Y-89092914D02*
X120414286Y-89140533D01*
X130128571Y-81210592D02*
X130057142Y-81174878D01*
X130057142Y-81174878D02*
X129985714Y-81103450D01*
X129985714Y-81103450D02*
X129878571Y-80996307D01*
X129878571Y-80996307D02*
X129807142Y-80960592D01*
X129807142Y-80960592D02*
X129735714Y-80960592D01*
X129771428Y-81139164D02*
X129700000Y-81103450D01*
X129700000Y-81103450D02*
X129628571Y-81032021D01*
X129628571Y-81032021D02*
X129592857Y-80889164D01*
X129592857Y-80889164D02*
X129592857Y-80639164D01*
X129592857Y-80639164D02*
X129628571Y-80496307D01*
X129628571Y-80496307D02*
X129700000Y-80424878D01*
X129700000Y-80424878D02*
X129771428Y-80389164D01*
X129771428Y-80389164D02*
X129914285Y-80389164D01*
X129914285Y-80389164D02*
X129985714Y-80424878D01*
X129985714Y-80424878D02*
X130057142Y-80496307D01*
X130057142Y-80496307D02*
X130092857Y-80639164D01*
X130092857Y-80639164D02*
X130092857Y-80889164D01*
X130092857Y-80889164D02*
X130057142Y-81032021D01*
X130057142Y-81032021D02*
X129985714Y-81103450D01*
X129985714Y-81103450D02*
X129914285Y-81139164D01*
X129914285Y-81139164D02*
X129771428Y-81139164D01*
X130378571Y-80460592D02*
X130414285Y-80424878D01*
X130414285Y-80424878D02*
X130485714Y-80389164D01*
X130485714Y-80389164D02*
X130664285Y-80389164D01*
X130664285Y-80389164D02*
X130735714Y-80424878D01*
X130735714Y-80424878D02*
X130771428Y-80460592D01*
X130771428Y-80460592D02*
X130807142Y-80532021D01*
X130807142Y-80532021D02*
X130807142Y-80603450D01*
X130807142Y-80603450D02*
X130771428Y-80710592D01*
X130771428Y-80710592D02*
X130342856Y-81139164D01*
X130342856Y-81139164D02*
X130807142Y-81139164D01*
X110989164Y-81946428D02*
X110989164Y-81517857D01*
X111739164Y-81732142D02*
X110989164Y-81732142D01*
X111739164Y-81267856D02*
X110989164Y-81267856D01*
X110989164Y-81267856D02*
X110989164Y-80982142D01*
X110989164Y-80982142D02*
X111024878Y-80910713D01*
X111024878Y-80910713D02*
X111060592Y-80874999D01*
X111060592Y-80874999D02*
X111132021Y-80839285D01*
X111132021Y-80839285D02*
X111239164Y-80839285D01*
X111239164Y-80839285D02*
X111310592Y-80874999D01*
X111310592Y-80874999D02*
X111346307Y-80910713D01*
X111346307Y-80910713D02*
X111382021Y-80982142D01*
X111382021Y-80982142D02*
X111382021Y-81267856D01*
X111239164Y-80196428D02*
X111739164Y-80196428D01*
X110953450Y-80374999D02*
X111489164Y-80553570D01*
X111489164Y-80553570D02*
X111489164Y-80089285D01*
D13*
%TO.C,D3*%
X110210000Y-86850000D02*
X110210000Y-85150000D01*
X110210000Y-86850000D02*
X107550000Y-86850000D01*
X110210000Y-85150000D02*
X107550000Y-85150000D01*
%TO.C,D2*%
X110110000Y-84450000D02*
X110110000Y-82750000D01*
X110110000Y-84450000D02*
X107450000Y-84450000D01*
X110110000Y-82750000D02*
X107450000Y-82750000D01*
%TO.C,C4*%
X104259420Y-87490000D02*
X104540580Y-87490000D01*
X104259420Y-88510000D02*
X104540580Y-88510000D01*
%TO.C,R11*%
X108827064Y-80465000D02*
X108372936Y-80465000D01*
X108827064Y-81935000D02*
X108372936Y-81935000D01*
%TO.C,R10*%
X115627064Y-88465000D02*
X115172936Y-88465000D01*
X115627064Y-89935000D02*
X115172936Y-89935000D01*
%TO.C,Q3*%
X121840000Y-79800000D02*
X121840000Y-79150000D01*
X121840000Y-79800000D02*
X121840000Y-80450000D01*
X124960000Y-79800000D02*
X124960000Y-79150000D01*
X124960000Y-79800000D02*
X124960000Y-80450000D01*
X121890000Y-80962500D02*
X121560000Y-81202500D01*
X121560000Y-80722500D01*
X121890000Y-80962500D01*
G36*
X121890000Y-80962500D02*
G01*
X121560000Y-81202500D01*
X121560000Y-80722500D01*
X121890000Y-80962500D01*
G37*
D14*
%TO.C,U1*%
X113450000Y-82875000D02*
X117350000Y-82875000D01*
X113450000Y-87925000D02*
X117350000Y-87925000D01*
D15*
X111460000Y-83095000D02*
G75*
G02*
X111260000Y-83095000I-100000J0D01*
G01*
X111260000Y-83095000D02*
G75*
G02*
X111460000Y-83095000I100000J0D01*
G01*
D13*
%TO.C,TP3*%
X115700000Y-81200000D02*
G75*
G02*
X114300000Y-81200000I-700000J0D01*
G01*
X114300000Y-81200000D02*
G75*
G02*
X115700000Y-81200000I700000J0D01*
G01*
%TO.C,TP6*%
X131300000Y-86200000D02*
G75*
G02*
X129900000Y-86200000I-700000J0D01*
G01*
X129900000Y-86200000D02*
G75*
G02*
X131300000Y-86200000I700000J0D01*
G01*
%TO.C,J2*%
X132755000Y-74905000D02*
X134025000Y-74905000D01*
X132755000Y-76175000D02*
X132755000Y-74905000D01*
X135067929Y-78335000D02*
X135465000Y-78335000D01*
X135067929Y-79095000D02*
X135465000Y-79095000D01*
X135067929Y-80875000D02*
X135465000Y-80875000D01*
X135067929Y-81635000D02*
X135465000Y-81635000D01*
X135067929Y-83415000D02*
X135465000Y-83415000D01*
X135067929Y-84175000D02*
X135465000Y-84175000D01*
X135067929Y-85955000D02*
X135465000Y-85955000D01*
X135067929Y-86715000D02*
X135465000Y-86715000D01*
X135067929Y-88495000D02*
X135465000Y-88495000D01*
X135067929Y-89255000D02*
X135465000Y-89255000D01*
X135067929Y-91035000D02*
X135465000Y-91035000D01*
X135067929Y-91795000D02*
X135465000Y-91795000D01*
X135135000Y-75795000D02*
X135465000Y-75795000D01*
X135135000Y-76555000D02*
X135465000Y-76555000D01*
X135465000Y-74845000D02*
X135465000Y-92745000D01*
X135465000Y-77445000D02*
X138125000Y-77445000D01*
X135465000Y-79985000D02*
X138125000Y-79985000D01*
X135465000Y-82525000D02*
X138125000Y-82525000D01*
X135465000Y-85065000D02*
X138125000Y-85065000D01*
X135465000Y-87605000D02*
X138125000Y-87605000D01*
X135465000Y-90145000D02*
X138125000Y-90145000D01*
X135465000Y-92745000D02*
X138125000Y-92745000D01*
X138125000Y-74845000D02*
X135465000Y-74845000D01*
X138125000Y-75795000D02*
X144125000Y-75795000D01*
X138125000Y-75855000D02*
X144125000Y-75855000D01*
X138125000Y-75975000D02*
X144125000Y-75975000D01*
X138125000Y-76095000D02*
X144125000Y-76095000D01*
X138125000Y-76215000D02*
X144125000Y-76215000D01*
X138125000Y-76335000D02*
X144125000Y-76335000D01*
X138125000Y-76455000D02*
X144125000Y-76455000D01*
X138125000Y-78335000D02*
X144125000Y-78335000D01*
X138125000Y-80875000D02*
X144125000Y-80875000D01*
X138125000Y-83415000D02*
X144125000Y-83415000D01*
X138125000Y-85955000D02*
X144125000Y-85955000D01*
X138125000Y-88495000D02*
X144125000Y-88495000D01*
X138125000Y-91035000D02*
X144125000Y-91035000D01*
X138125000Y-92745000D02*
X138125000Y-74845000D01*
X144125000Y-75795000D02*
X144125000Y-76555000D01*
X144125000Y-76555000D02*
X138125000Y-76555000D01*
X144125000Y-78335000D02*
X144125000Y-79095000D01*
X144125000Y-79095000D02*
X138125000Y-79095000D01*
X144125000Y-80875000D02*
X144125000Y-81635000D01*
X144125000Y-81635000D02*
X138125000Y-81635000D01*
X144125000Y-83415000D02*
X144125000Y-84175000D01*
X144125000Y-84175000D02*
X138125000Y-84175000D01*
X144125000Y-85955000D02*
X144125000Y-86715000D01*
X144125000Y-86715000D02*
X138125000Y-86715000D01*
X144125000Y-88495000D02*
X144125000Y-89255000D01*
X144125000Y-89255000D02*
X138125000Y-89255000D01*
X144125000Y-91035000D02*
X144125000Y-91795000D01*
X144125000Y-91795000D02*
X138125000Y-91795000D01*
%TO.C,R8*%
X123627064Y-82265000D02*
X123172936Y-82265000D01*
X123627064Y-83735000D02*
X123172936Y-83735000D01*
%TO.C,C5*%
X115059420Y-90490000D02*
X115340580Y-90490000D01*
X115059420Y-91510000D02*
X115340580Y-91510000D01*
%TO.C,C3*%
X100040000Y-74840000D02*
X100040000Y-76540000D01*
X100040000Y-80360000D02*
X100040000Y-78660000D01*
X104495563Y-74840000D02*
X100040000Y-74840000D01*
X104495563Y-80360000D02*
X100040000Y-80360000D01*
X105560000Y-75904437D02*
X104495563Y-74840000D01*
X105560000Y-75904437D02*
X105560000Y-76540000D01*
X105560000Y-79295563D02*
X104495563Y-80360000D01*
X105560000Y-79295563D02*
X105560000Y-78660000D01*
X106112500Y-79597500D02*
X106112500Y-78972500D01*
X106425000Y-79285000D02*
X105800000Y-79285000D01*
%TO.C,J1*%
X85275000Y-76955000D02*
X91275000Y-76955000D01*
X85275000Y-77715000D02*
X85275000Y-76955000D01*
X85275000Y-79495000D02*
X91275000Y-79495000D01*
X85275000Y-80255000D02*
X85275000Y-79495000D01*
X91275000Y-76005000D02*
X91275000Y-81205000D01*
X91275000Y-77715000D02*
X85275000Y-77715000D01*
X91275000Y-79595000D02*
X85275000Y-79595000D01*
X91275000Y-79715000D02*
X85275000Y-79715000D01*
X91275000Y-79835000D02*
X85275000Y-79835000D01*
X91275000Y-79955000D02*
X85275000Y-79955000D01*
X91275000Y-80075000D02*
X85275000Y-80075000D01*
X91275000Y-80195000D02*
X85275000Y-80195000D01*
X91275000Y-80255000D02*
X85275000Y-80255000D01*
X91275000Y-81205000D02*
X93935000Y-81205000D01*
X93935000Y-76005000D02*
X91275000Y-76005000D01*
X93935000Y-78605000D02*
X91275000Y-78605000D01*
X93935000Y-81205000D02*
X93935000Y-76005000D01*
X94265000Y-79495000D02*
X93935000Y-79495000D01*
X94265000Y-80255000D02*
X93935000Y-80255000D01*
X94332071Y-76955000D02*
X93935000Y-76955000D01*
X94332071Y-77715000D02*
X93935000Y-77715000D01*
X96645000Y-79875000D02*
X96645000Y-81145000D01*
X96645000Y-81145000D02*
X95375000Y-81145000D01*
%TO.C,TP1*%
X129100000Y-89600000D02*
G75*
G02*
X127700000Y-89600000I-700000J0D01*
G01*
X127700000Y-89600000D02*
G75*
G02*
X129100000Y-89600000I700000J0D01*
G01*
%TO.C,C2*%
X100459420Y-80890000D02*
X100740580Y-80890000D01*
X100459420Y-81910000D02*
X100740580Y-81910000D01*
%TO.C,R1*%
X129627064Y-91065000D02*
X129172936Y-91065000D01*
X129627064Y-92535000D02*
X129172936Y-92535000D01*
%TO.C,R2*%
X100260436Y-86465000D02*
X100714564Y-86465000D01*
X100260436Y-87935000D02*
X100714564Y-87935000D01*
%TO.C,R7*%
X119665000Y-80227064D02*
X119665000Y-79772936D01*
X121135000Y-80227064D02*
X121135000Y-79772936D01*
%TO.C,D1*%
X122450000Y-92910000D02*
X126860000Y-92910000D01*
X126860000Y-90690000D02*
X122450000Y-90690000D01*
X126860000Y-92910000D02*
X126860000Y-90690000D01*
%TO.C,R4*%
X123740000Y-75972936D02*
X123740000Y-76427064D01*
X125210000Y-75972936D02*
X125210000Y-76427064D01*
%TO.C,R9*%
X126740000Y-82772936D02*
X126740000Y-83227064D01*
X128210000Y-82772936D02*
X128210000Y-83227064D01*
%TO.C,R3*%
X120940000Y-75972936D02*
X120940000Y-76427064D01*
X122410000Y-75972936D02*
X122410000Y-76427064D01*
%TO.C,TP5*%
X129700000Y-76175000D02*
G75*
G02*
X128300000Y-76175000I-700000J0D01*
G01*
X128300000Y-76175000D02*
G75*
G02*
X129700000Y-76175000I700000J0D01*
G01*
%TO.C,R6*%
X104627064Y-85265000D02*
X104172936Y-85265000D01*
X104627064Y-86735000D02*
X104172936Y-86735000D01*
%TO.C,TP2*%
X119700000Y-76000000D02*
G75*
G02*
X118300000Y-76000000I-700000J0D01*
G01*
X118300000Y-76000000D02*
G75*
G02*
X119700000Y-76000000I700000J0D01*
G01*
%TO.C,R5*%
X104627064Y-82865000D02*
X104172936Y-82865000D01*
X104627064Y-84335000D02*
X104172936Y-84335000D01*
%TO.C,Q1*%
X97890000Y-84337500D02*
X97890000Y-83687500D01*
X97890000Y-84337500D02*
X97890000Y-84987500D01*
X101010000Y-84337500D02*
X101010000Y-83687500D01*
X101010000Y-84337500D02*
X101010000Y-84987500D01*
X101290000Y-83415000D02*
X100960000Y-83175000D01*
X101290000Y-82935000D01*
X101290000Y-83415000D01*
G36*
X101290000Y-83415000D02*
G01*
X100960000Y-83175000D01*
X101290000Y-82935000D01*
X101290000Y-83415000D01*
G37*
%TO.C,TP7*%
X96700000Y-85200000D02*
G75*
G02*
X95300000Y-85200000I-700000J0D01*
G01*
X95300000Y-85200000D02*
G75*
G02*
X96700000Y-85200000I700000J0D01*
G01*
%TO.C,R12*%
X104627064Y-80865000D02*
X104172936Y-80865000D01*
X104627064Y-82335000D02*
X104172936Y-82335000D01*
%TO.C,C1*%
X121240000Y-84840000D02*
X121240000Y-86540000D01*
X121240000Y-90360000D02*
X121240000Y-88660000D01*
X125695563Y-84840000D02*
X121240000Y-84840000D01*
X125695563Y-90360000D02*
X121240000Y-90360000D01*
X126760000Y-85904437D02*
X125695563Y-84840000D01*
X126760000Y-85904437D02*
X126760000Y-86540000D01*
X126760000Y-89295563D02*
X125695563Y-90360000D01*
X126760000Y-89295563D02*
X126760000Y-88660000D01*
X127312500Y-89597500D02*
X127312500Y-88972500D01*
X127625000Y-89285000D02*
X127000000Y-89285000D01*
%TO.C,Q2*%
X125977500Y-79262500D02*
X125977500Y-78612500D01*
X125977500Y-79262500D02*
X125977500Y-79912500D01*
X129097500Y-79262500D02*
X129097500Y-78612500D01*
X129097500Y-79262500D02*
X129097500Y-79912500D01*
X126027500Y-80425000D02*
X125697500Y-80665000D01*
X125697500Y-80185000D01*
X126027500Y-80425000D01*
G36*
X126027500Y-80425000D02*
G01*
X125697500Y-80665000D01*
X125697500Y-80185000D01*
X126027500Y-80425000D01*
G37*
%TO.C,TP4*%
X113500000Y-81200000D02*
G75*
G02*
X112100000Y-81200000I-700000J0D01*
G01*
X112100000Y-81200000D02*
G75*
G02*
X113500000Y-81200000I700000J0D01*
G01*
%TD*%
M02*
