%TF.GenerationSoftware,KiCad,Pcbnew,8.0.7*%
%TF.CreationDate,2025-01-02T14:00:47+01:00*%
%TF.ProjectId,av-to-minitel,61762d74-6f2d-46d6-996e-6974656c2e6b,v0.1*%
%TF.SameCoordinates,Original*%
%TF.FileFunction,Paste,Top*%
%TF.FilePolarity,Positive*%
%FSLAX46Y46*%
G04 Gerber Fmt 4.6, Leading zero omitted, Abs format (unit mm)*
G04 Created by KiCad (PCBNEW 8.0.7) date 2025-01-02 14:00:47*
%MOMM*%
%LPD*%
G01*
G04 APERTURE LIST*
G04 Aperture macros list*
%AMRoundRect*
0 Rectangle with rounded corners*
0 $1 Rounding radius*
0 $2 $3 $4 $5 $6 $7 $8 $9 X,Y pos of 4 corners*
0 Add a 4 corners polygon primitive as box body*
4,1,4,$2,$3,$4,$5,$6,$7,$8,$9,$2,$3,0*
0 Add four circle primitives for the rounded corners*
1,1,$1+$1,$2,$3*
1,1,$1+$1,$4,$5*
1,1,$1+$1,$6,$7*
1,1,$1+$1,$8,$9*
0 Add four rect primitives between the rounded corners*
20,1,$1+$1,$2,$3,$4,$5,0*
20,1,$1+$1,$4,$5,$6,$7,0*
20,1,$1+$1,$6,$7,$8,$9,0*
20,1,$1+$1,$8,$9,$2,$3,0*%
G04 Aperture macros list end*
%ADD10RoundRect,0.125000X0.125000X0.125000X-0.125000X0.125000X-0.125000X-0.125000X0.125000X-0.125000X0*%
%ADD11RoundRect,0.225000X-0.225000X-0.250000X0.225000X-0.250000X0.225000X0.250000X-0.225000X0.250000X0*%
%ADD12RoundRect,0.250000X0.262500X0.450000X-0.262500X0.450000X-0.262500X-0.450000X0.262500X-0.450000X0*%
%ADD13RoundRect,0.150000X0.150000X-0.587500X0.150000X0.587500X-0.150000X0.587500X-0.150000X-0.587500X0*%
%ADD14RoundRect,0.075000X-0.910000X-0.225000X0.910000X-0.225000X0.910000X0.225000X-0.910000X0.225000X0*%
%ADD15RoundRect,0.250000X1.250000X0.550000X-1.250000X0.550000X-1.250000X-0.550000X1.250000X-0.550000X0*%
%ADD16RoundRect,0.250000X-0.262500X-0.450000X0.262500X-0.450000X0.262500X0.450000X-0.262500X0.450000X0*%
%ADD17RoundRect,0.250000X0.450000X-0.262500X0.450000X0.262500X-0.450000X0.262500X-0.450000X-0.262500X0*%
%ADD18RoundRect,0.250000X0.400000X0.600000X-0.400000X0.600000X-0.400000X-0.600000X0.400000X-0.600000X0*%
%ADD19RoundRect,0.250000X-0.450000X0.262500X-0.450000X-0.262500X0.450000X-0.262500X0.450000X0.262500X0*%
%ADD20RoundRect,0.150000X-0.150000X0.587500X-0.150000X-0.587500X0.150000X-0.587500X0.150000X0.587500X0*%
G04 APERTURE END LIST*
D10*
%TO.C,D3*%
X109700000Y-86000000D03*
X107500000Y-86000000D03*
%TD*%
%TO.C,D2*%
X109600000Y-83600000D03*
X107400000Y-83600000D03*
%TD*%
D11*
%TO.C,C4*%
X103625000Y-88000000D03*
X105175000Y-88000000D03*
%TD*%
D12*
%TO.C,R11*%
X109512500Y-81200000D03*
X107687500Y-81200000D03*
%TD*%
%TO.C,R10*%
X116312500Y-89200000D03*
X114487500Y-89200000D03*
%TD*%
D13*
%TO.C,Q3*%
X123400000Y-78862500D03*
X122450000Y-80737500D03*
X124350000Y-80737500D03*
%TD*%
D14*
%TO.C,U1*%
X112930000Y-83495000D03*
X112930000Y-84765000D03*
X112930000Y-86035000D03*
X112930000Y-87305000D03*
X117870000Y-87305000D03*
X117870000Y-86035000D03*
X117870000Y-84765000D03*
X117870000Y-83495000D03*
%TD*%
D12*
%TO.C,R8*%
X124312500Y-83000000D03*
X122487500Y-83000000D03*
%TD*%
D11*
%TO.C,C5*%
X114425000Y-91000000D03*
X115975000Y-91000000D03*
%TD*%
D15*
%TO.C,C3*%
X105000000Y-77600000D03*
X100600000Y-77600000D03*
%TD*%
D11*
%TO.C,C2*%
X99825000Y-81400000D03*
X101375000Y-81400000D03*
%TD*%
D12*
%TO.C,R1*%
X130312500Y-91800000D03*
X128487500Y-91800000D03*
%TD*%
D16*
%TO.C,R2*%
X99575000Y-87200000D03*
X101400000Y-87200000D03*
%TD*%
D17*
%TO.C,R7*%
X120400000Y-80912500D03*
X120400000Y-79087500D03*
%TD*%
D18*
%TO.C,D1*%
X125950000Y-91800000D03*
X122450000Y-91800000D03*
%TD*%
D19*
%TO.C,R4*%
X124475000Y-75287500D03*
X124475000Y-77112500D03*
%TD*%
%TO.C,R9*%
X127475000Y-82087500D03*
X127475000Y-83912500D03*
%TD*%
%TO.C,R3*%
X121675000Y-75287500D03*
X121675000Y-77112500D03*
%TD*%
D12*
%TO.C,R6*%
X105312500Y-86000000D03*
X103487500Y-86000000D03*
%TD*%
%TO.C,R5*%
X105312500Y-83600000D03*
X103487500Y-83600000D03*
%TD*%
D20*
%TO.C,Q1*%
X99450000Y-85275000D03*
X100400000Y-83400000D03*
X98500000Y-83400000D03*
%TD*%
D12*
%TO.C,R12*%
X105312500Y-81600000D03*
X103487500Y-81600000D03*
%TD*%
D15*
%TO.C,C1*%
X126200000Y-87600000D03*
X121800000Y-87600000D03*
%TD*%
D13*
%TO.C,Q2*%
X127537500Y-78325000D03*
X126587500Y-80200000D03*
X128487500Y-80200000D03*
%TD*%
M02*
