M48
; DRILL file {KiCad 8.0.7} date 2025-01-02T14:00:51+0100
; FORMAT={-:-/ absolute / inch / decimal}
; #@! TF.CreationDate,2025-01-02T14:00:51+01:00
; #@! TF.GenerationSoftware,Kicad,Pcbnew,8.0.7
; #@! TF.FileFunction,Plated,1,2,PTH
FMAT,2
INCH
; #@! TA.AperFunction,Plated,PTH,ViaDrill
T1C0.0118
; #@! TA.AperFunction,Plated,PTH,ComponentDrill
T2C0.0197
; #@! TA.AperFunction,Plated,PTH,ComponentDrill
T3C0.0394
%
G90
G05
T1
X3.8346Y-3.0787
X3.8365Y-3.2761
X3.8365Y-3.3761
X3.8365Y-3.4761
X3.8425Y-2.9921
X4.0236Y-3.252
X4.0394Y-3.4646
X4.0787Y-3.5118
X4.1365Y-3.5761
X4.189Y-3.1969
X4.2283Y-3.1024
X4.2365Y-3.4761
X4.2365Y-3.5761
X4.3365Y-3.5761
X4.3701Y-3.4488
X4.4488Y-3.5039
X4.4567Y-3.5748
X4.5365Y-3.3761
X4.6365Y-3.4761
X4.7402Y-3.0709
X4.7638Y-3.6142
X4.7795Y-3.2677
X4.7953Y-3.3937
X4.8189Y-3.5512
X4.874Y-3.4567
X4.9606Y-3.3071
X5.0365Y-2.9761
X5.1102Y-3.0945
X5.1365Y-3.4761
X5.1496Y-3.2047
T2
X3.7795Y-3.3543
X4.4409Y-3.1969
X4.5276Y-3.1969
X4.685Y-2.9921
X5.0551Y-3.5276
X5.0787Y-2.999
X5.1417Y-3.3937
T3
X3.7549Y-3.0447
X3.7549Y-3.1447
X5.2766Y-2.999
X5.2766Y-3.099
X5.2766Y-3.199
X5.2766Y-3.299
X5.2766Y-3.399
X5.2766Y-3.499
X5.2766Y-3.599
M30
