%TF.GenerationSoftware,KiCad,Pcbnew,8.0.7*%
%TF.CreationDate,2025-01-02T14:00:46+01:00*%
%TF.ProjectId,av-to-minitel,61762d74-6f2d-46d6-996e-6974656c2e6b,v0.1*%
%TF.SameCoordinates,Original*%
%TF.FileFunction,Copper,L2,Bot*%
%TF.FilePolarity,Positive*%
%FSLAX46Y46*%
G04 Gerber Fmt 4.6, Leading zero omitted, Abs format (unit mm)*
G04 Created by KiCad (PCBNEW 8.0.7) date 2025-01-02 14:00:46*
%MOMM*%
%LPD*%
G01*
G04 APERTURE LIST*
%TA.AperFunction,ComponentPad*%
%ADD10C,1.000000*%
%TD*%
%TA.AperFunction,ComponentPad*%
%ADD11R,1.700000X1.700000*%
%TD*%
%TA.AperFunction,ComponentPad*%
%ADD12O,1.700000X1.700000*%
%TD*%
%TA.AperFunction,ViaPad*%
%ADD13C,0.600000*%
%TD*%
%TA.AperFunction,Conductor*%
%ADD14C,0.350000*%
%TD*%
%TA.AperFunction,Conductor*%
%ADD15C,0.250000*%
%TD*%
G04 APERTURE END LIST*
D10*
%TO.P,TP3,1,1*%
%TO.N,Net-(U1-COMPOSITESYNCIN)*%
X115000000Y-81200000D03*
%TD*%
%TO.P,TP6,1,1*%
%TO.N,GND*%
X130600000Y-86200000D03*
%TD*%
D11*
%TO.P,J2,1,Pin_1*%
%TO.N,minitel_video_in*%
X134025000Y-76175000D03*
D12*
%TO.P,J2,2,Pin_2*%
%TO.N,GND*%
X134025000Y-78715000D03*
%TO.P,J2,3,Pin_3*%
%TO.N,minitel_sync_in*%
X134025000Y-81255000D03*
%TO.P,J2,4,Pin_4*%
%TO.N,GND*%
X134025000Y-83795000D03*
%TO.P,J2,5,Pin_5*%
%TO.N,unconnected-(J2-Pin_5-Pad5)*%
X134025000Y-86335000D03*
%TO.P,J2,6,Pin_6*%
%TO.N,unconnected-(J2-Pin_6-Pad6)*%
X134025000Y-88875000D03*
%TO.P,J2,7,Pin_7*%
%TO.N,+15V*%
X134025000Y-91415000D03*
%TD*%
D11*
%TO.P,J1,1,Pin_1*%
%TO.N,GND*%
X95375000Y-79875000D03*
D12*
%TO.P,J1,2,Pin_2*%
%TO.N,comp_video_in*%
X95375000Y-77335000D03*
%TD*%
D10*
%TO.P,TP1,1,1*%
%TO.N,+12V*%
X128400000Y-89600000D03*
%TD*%
%TO.P,TP5,1,1*%
%TO.N,minitel_video_in*%
X129000000Y-76175000D03*
%TD*%
%TO.P,TP2,1,1*%
%TO.N,Net-(Q1-C)*%
X119000000Y-76000000D03*
%TD*%
%TO.P,TP7,1,1*%
%TO.N,GND*%
X96000000Y-85200000D03*
%TD*%
%TO.P,TP4,1,1*%
%TO.N,Net-(D2-K)*%
X112800000Y-81200000D03*
%TD*%
D13*
%TO.N,GND*%
X130465952Y-88291750D03*
X127925952Y-75591750D03*
X117765952Y-88291750D03*
X115225952Y-85751750D03*
X110145952Y-90831750D03*
X107605952Y-90831750D03*
X107605952Y-88291750D03*
X105065952Y-90831750D03*
X97445952Y-88291750D03*
X97445952Y-85751750D03*
X97445952Y-83211750D03*
X102600000Y-88000000D03*
X113200000Y-90800000D03*
X120400000Y-78000000D03*
X121000000Y-91800000D03*
X123800000Y-87800000D03*
X102200000Y-82600000D03*
X122400000Y-90200000D03*
X113000000Y-89000000D03*
X121400000Y-83000000D03*
X121800000Y-86200000D03*
X103600000Y-89200000D03*
X111000000Y-87600000D03*
X126000000Y-84000000D03*
%TO.N,+12V*%
X130800000Y-81400000D03*
X129800000Y-78600000D03*
%TO.N,minitel_sync_in*%
X107400000Y-78800000D03*
X106400000Y-81200000D03*
%TO.N,Net-(Q1-C)*%
X97400000Y-78200000D03*
X97600000Y-76000000D03*
%TD*%
D14*
%TO.N,+12V*%
X129800000Y-78600000D02*
X130300000Y-79100000D01*
X130800000Y-80307106D02*
X130800000Y-81400000D01*
X130300000Y-79100000D02*
G75*
G02*
X130799997Y-80307106I-1207100J-1207100D01*
G01*
D15*
%TO.N,minitel_sync_in*%
X106400000Y-81200000D02*
X106400000Y-80500000D01*
X106894974Y-79305025D02*
X107400000Y-78800000D01*
X106894974Y-79305025D02*
G75*
G03*
X106399985Y-80500000I1194926J-1194975D01*
G01*
%TO.N,Net-(Q1-C)*%
X97400000Y-78200000D02*
X97400000Y-76341421D01*
X97600000Y-76000000D02*
X97500000Y-76100000D01*
X97500000Y-76100000D02*
G75*
G03*
X97400009Y-76341421I241400J-241400D01*
G01*
%TD*%
%TA.AperFunction,Conductor*%
%TO.N,GND*%
G36*
X133017686Y-74920185D02*
G01*
X133063441Y-74972989D01*
X133073385Y-75042147D01*
X133044360Y-75105703D01*
X133019538Y-75127602D01*
X132994399Y-75144398D01*
X132939033Y-75227260D01*
X132939032Y-75227264D01*
X132924500Y-75300321D01*
X132924500Y-77049678D01*
X132939032Y-77122735D01*
X132939033Y-77122739D01*
X132939034Y-77122740D01*
X132994399Y-77205601D01*
X133077260Y-77260966D01*
X133077264Y-77260967D01*
X133150321Y-77275499D01*
X133150324Y-77275500D01*
X133150326Y-77275500D01*
X133358318Y-77275500D01*
X133425357Y-77295185D01*
X133471112Y-77347989D01*
X133481056Y-77417147D01*
X133452031Y-77480703D01*
X133410723Y-77511882D01*
X133347422Y-77541399D01*
X133347420Y-77541400D01*
X133153926Y-77676886D01*
X133153920Y-77676891D01*
X132986891Y-77843920D01*
X132986886Y-77843926D01*
X132851400Y-78037420D01*
X132851399Y-78037422D01*
X132751570Y-78251507D01*
X132751567Y-78251513D01*
X132694364Y-78464999D01*
X132694364Y-78465000D01*
X133591988Y-78465000D01*
X133559075Y-78522007D01*
X133525000Y-78649174D01*
X133525000Y-78780826D01*
X133559075Y-78907993D01*
X133591988Y-78965000D01*
X132694364Y-78965000D01*
X132751567Y-79178486D01*
X132751570Y-79178492D01*
X132851399Y-79392578D01*
X132986894Y-79586082D01*
X133153917Y-79753105D01*
X133347421Y-79888600D01*
X133561507Y-79988429D01*
X133561516Y-79988433D01*
X133600583Y-79998901D01*
X133660244Y-80035266D01*
X133690773Y-80098113D01*
X133682479Y-80167488D01*
X133637993Y-80221366D01*
X133613284Y-80234302D01*
X133532373Y-80265647D01*
X133532357Y-80265655D01*
X133358960Y-80373017D01*
X133358958Y-80373019D01*
X133208237Y-80510418D01*
X133085327Y-80673178D01*
X132994422Y-80855739D01*
X132994417Y-80855752D01*
X132938602Y-81051917D01*
X132919785Y-81254999D01*
X132919785Y-81255000D01*
X132938602Y-81458082D01*
X132994417Y-81654247D01*
X132994422Y-81654260D01*
X133085327Y-81836821D01*
X133208237Y-81999581D01*
X133358958Y-82136980D01*
X133358960Y-82136982D01*
X133458141Y-82198392D01*
X133532363Y-82244348D01*
X133613283Y-82275696D01*
X133668685Y-82318269D01*
X133692276Y-82384035D01*
X133676565Y-82452116D01*
X133626542Y-82500895D01*
X133600586Y-82511097D01*
X133561519Y-82521565D01*
X133561507Y-82521570D01*
X133347422Y-82621399D01*
X133347420Y-82621400D01*
X133153926Y-82756886D01*
X133153920Y-82756891D01*
X132986891Y-82923920D01*
X132986886Y-82923926D01*
X132851400Y-83117420D01*
X132851399Y-83117422D01*
X132751570Y-83331507D01*
X132751567Y-83331513D01*
X132694364Y-83544999D01*
X132694364Y-83545000D01*
X133591988Y-83545000D01*
X133559075Y-83602007D01*
X133525000Y-83729174D01*
X133525000Y-83860826D01*
X133559075Y-83987993D01*
X133591988Y-84045000D01*
X132694364Y-84045000D01*
X132751567Y-84258486D01*
X132751570Y-84258492D01*
X132851399Y-84472578D01*
X132986894Y-84666082D01*
X133153917Y-84833105D01*
X133347421Y-84968600D01*
X133561507Y-85068429D01*
X133561516Y-85068433D01*
X133600583Y-85078901D01*
X133660244Y-85115266D01*
X133690773Y-85178113D01*
X133682479Y-85247488D01*
X133637993Y-85301366D01*
X133613284Y-85314302D01*
X133532373Y-85345647D01*
X133532357Y-85345655D01*
X133358960Y-85453017D01*
X133358958Y-85453019D01*
X133208237Y-85590418D01*
X133085327Y-85753178D01*
X132994422Y-85935739D01*
X132994417Y-85935752D01*
X132938602Y-86131917D01*
X132919785Y-86334999D01*
X132919785Y-86335000D01*
X132938602Y-86538082D01*
X132994417Y-86734247D01*
X132994422Y-86734260D01*
X133085327Y-86916821D01*
X133208237Y-87079581D01*
X133358958Y-87216980D01*
X133358960Y-87216982D01*
X133458141Y-87278392D01*
X133532363Y-87324348D01*
X133722544Y-87398024D01*
X133923024Y-87435500D01*
X133923026Y-87435500D01*
X134126974Y-87435500D01*
X134126976Y-87435500D01*
X134327456Y-87398024D01*
X134517637Y-87324348D01*
X134691041Y-87216981D01*
X134691955Y-87216147D01*
X134692491Y-87215886D01*
X134695615Y-87213527D01*
X134696076Y-87214137D01*
X134754756Y-87185525D01*
X134824144Y-87193718D01*
X134878087Y-87238123D01*
X134899460Y-87304643D01*
X134899500Y-87307778D01*
X134899500Y-87902221D01*
X134879815Y-87969260D01*
X134827011Y-88015015D01*
X134757853Y-88024959D01*
X134694297Y-87995934D01*
X134691964Y-87993860D01*
X134691041Y-87993019D01*
X134691039Y-87993017D01*
X134517642Y-87885655D01*
X134517635Y-87885651D01*
X134422546Y-87848814D01*
X134327456Y-87811976D01*
X134126976Y-87774500D01*
X133923024Y-87774500D01*
X133722544Y-87811976D01*
X133722541Y-87811976D01*
X133722541Y-87811977D01*
X133532364Y-87885651D01*
X133532357Y-87885655D01*
X133358960Y-87993017D01*
X133358958Y-87993019D01*
X133208237Y-88130418D01*
X133085327Y-88293178D01*
X132994422Y-88475739D01*
X132994417Y-88475752D01*
X132938602Y-88671917D01*
X132919785Y-88874999D01*
X132919785Y-88875000D01*
X132938602Y-89078082D01*
X132994417Y-89274247D01*
X132994422Y-89274260D01*
X133085327Y-89456821D01*
X133208237Y-89619581D01*
X133358958Y-89756980D01*
X133358960Y-89756982D01*
X133458141Y-89818392D01*
X133532363Y-89864348D01*
X133722544Y-89938024D01*
X133923024Y-89975500D01*
X133923026Y-89975500D01*
X134126974Y-89975500D01*
X134126976Y-89975500D01*
X134327456Y-89938024D01*
X134517637Y-89864348D01*
X134691041Y-89756981D01*
X134691955Y-89756147D01*
X134692491Y-89755886D01*
X134695615Y-89753527D01*
X134696076Y-89754137D01*
X134754756Y-89725525D01*
X134824144Y-89733718D01*
X134878087Y-89778123D01*
X134899460Y-89844643D01*
X134899500Y-89847778D01*
X134899500Y-90442221D01*
X134879815Y-90509260D01*
X134827011Y-90555015D01*
X134757853Y-90564959D01*
X134694297Y-90535934D01*
X134691964Y-90533860D01*
X134691041Y-90533019D01*
X134691039Y-90533017D01*
X134517642Y-90425655D01*
X134517635Y-90425651D01*
X134422546Y-90388814D01*
X134327456Y-90351976D01*
X134126976Y-90314500D01*
X133923024Y-90314500D01*
X133722544Y-90351976D01*
X133722541Y-90351976D01*
X133722541Y-90351977D01*
X133532364Y-90425651D01*
X133532357Y-90425655D01*
X133358960Y-90533017D01*
X133358958Y-90533019D01*
X133208237Y-90670418D01*
X133085327Y-90833178D01*
X132994422Y-91015739D01*
X132994417Y-91015752D01*
X132938602Y-91211917D01*
X132919785Y-91414999D01*
X132919785Y-91415000D01*
X132938602Y-91618082D01*
X132994417Y-91814247D01*
X132994422Y-91814260D01*
X133085327Y-91996821D01*
X133208237Y-92159581D01*
X133358958Y-92296980D01*
X133358960Y-92296982D01*
X133431564Y-92341936D01*
X133532363Y-92404348D01*
X133620354Y-92438435D01*
X133639015Y-92445665D01*
X133694417Y-92488238D01*
X133718007Y-92554005D01*
X133702296Y-92622086D01*
X133652272Y-92670864D01*
X133603067Y-92684976D01*
X133404418Y-92699184D01*
X133395572Y-92699500D01*
X97272899Y-92699500D01*
X97205860Y-92679815D01*
X97160105Y-92627011D01*
X97150161Y-92557853D01*
X97179186Y-92494297D01*
X97216729Y-92465311D01*
X97216696Y-92465254D01*
X97217121Y-92465008D01*
X97218052Y-92464290D01*
X97220203Y-92463228D01*
X97220204Y-92463227D01*
X97220212Y-92463224D01*
X97430289Y-92341936D01*
X97622738Y-92194265D01*
X97794265Y-92022738D01*
X97941936Y-91830289D01*
X98063224Y-91620212D01*
X98156054Y-91396100D01*
X98218838Y-91161789D01*
X98250500Y-90921288D01*
X98250500Y-90678712D01*
X98249408Y-90670421D01*
X98231319Y-90533017D01*
X98218838Y-90438211D01*
X98156054Y-90203900D01*
X98063224Y-89979788D01*
X97941936Y-89769711D01*
X97881018Y-89690321D01*
X97811710Y-89599997D01*
X127644751Y-89599997D01*
X127644751Y-89600002D01*
X127663685Y-89768056D01*
X127719545Y-89927694D01*
X127719547Y-89927697D01*
X127809518Y-90070884D01*
X127809523Y-90070890D01*
X127929109Y-90190476D01*
X127929115Y-90190481D01*
X128072302Y-90280452D01*
X128072305Y-90280454D01*
X128072309Y-90280455D01*
X128072310Y-90280456D01*
X128144913Y-90305860D01*
X128231943Y-90336314D01*
X128399997Y-90355249D01*
X128400000Y-90355249D01*
X128400003Y-90355249D01*
X128568056Y-90336314D01*
X128630397Y-90314500D01*
X128727690Y-90280456D01*
X128727692Y-90280454D01*
X128727694Y-90280454D01*
X128727697Y-90280452D01*
X128870884Y-90190481D01*
X128870885Y-90190480D01*
X128870890Y-90190477D01*
X128990477Y-90070890D01*
X129016567Y-90029368D01*
X129080452Y-89927697D01*
X129080454Y-89927694D01*
X129080454Y-89927692D01*
X129080456Y-89927690D01*
X129136313Y-89768059D01*
X129136313Y-89768058D01*
X129136314Y-89768056D01*
X129155249Y-89600002D01*
X129155249Y-89599997D01*
X129136314Y-89431943D01*
X129080454Y-89272305D01*
X129080452Y-89272302D01*
X128990481Y-89129115D01*
X128990476Y-89129109D01*
X128870890Y-89009523D01*
X128870884Y-89009518D01*
X128727697Y-88919547D01*
X128727694Y-88919545D01*
X128568056Y-88863685D01*
X128400003Y-88844751D01*
X128399997Y-88844751D01*
X128231943Y-88863685D01*
X128072305Y-88919545D01*
X128072302Y-88919547D01*
X127929115Y-89009518D01*
X127929109Y-89009523D01*
X127809523Y-89129109D01*
X127809518Y-89129115D01*
X127719547Y-89272302D01*
X127719545Y-89272305D01*
X127663685Y-89431943D01*
X127644751Y-89599997D01*
X97811710Y-89599997D01*
X97794266Y-89577263D01*
X97794260Y-89577256D01*
X97622743Y-89405739D01*
X97622736Y-89405733D01*
X97430293Y-89258067D01*
X97430292Y-89258066D01*
X97430289Y-89258064D01*
X97220212Y-89136776D01*
X97201705Y-89129110D01*
X96996104Y-89043947D01*
X96761785Y-88981161D01*
X96521289Y-88949500D01*
X96521288Y-88949500D01*
X96278712Y-88949500D01*
X96278711Y-88949500D01*
X96038214Y-88981161D01*
X95803895Y-89043947D01*
X95579794Y-89136773D01*
X95579785Y-89136777D01*
X95369706Y-89258067D01*
X95177263Y-89405733D01*
X95177256Y-89405739D01*
X95005739Y-89577256D01*
X95005733Y-89577263D01*
X94858067Y-89769706D01*
X94736775Y-89979788D01*
X94735707Y-89981955D01*
X94735218Y-89982486D01*
X94734746Y-89983304D01*
X94734562Y-89983198D01*
X94688396Y-90033370D01*
X94620799Y-90051045D01*
X94554377Y-90029368D01*
X94510218Y-89975222D01*
X94500500Y-89927100D01*
X94500500Y-87062075D01*
X130091476Y-87062075D01*
X130215462Y-87128348D01*
X130403969Y-87185531D01*
X130403965Y-87185531D01*
X130600000Y-87204838D01*
X130796032Y-87185531D01*
X130984537Y-87128348D01*
X131108523Y-87062076D01*
X131108523Y-87062075D01*
X130600001Y-86553553D01*
X130600000Y-86553553D01*
X130091476Y-87062075D01*
X94500500Y-87062075D01*
X94500500Y-86062075D01*
X95491476Y-86062075D01*
X95615462Y-86128348D01*
X95803969Y-86185531D01*
X95803965Y-86185531D01*
X96000000Y-86204838D01*
X96049122Y-86200000D01*
X129595161Y-86200000D01*
X129614468Y-86396032D01*
X129671651Y-86584539D01*
X129737922Y-86708523D01*
X129737923Y-86708523D01*
X130246446Y-86200000D01*
X130246446Y-86199999D01*
X130196719Y-86150272D01*
X130350000Y-86150272D01*
X130350000Y-86249728D01*
X130388060Y-86341614D01*
X130458386Y-86411940D01*
X130550272Y-86450000D01*
X130649728Y-86450000D01*
X130741614Y-86411940D01*
X130811940Y-86341614D01*
X130850000Y-86249728D01*
X130850000Y-86199999D01*
X130953553Y-86199999D01*
X130953553Y-86200000D01*
X131462076Y-86708523D01*
X131528348Y-86584537D01*
X131585531Y-86396032D01*
X131604838Y-86200000D01*
X131585531Y-86003967D01*
X131528348Y-85815462D01*
X131462075Y-85691476D01*
X130953553Y-86199999D01*
X130850000Y-86199999D01*
X130850000Y-86150272D01*
X130811940Y-86058386D01*
X130741614Y-85988060D01*
X130649728Y-85950000D01*
X130550272Y-85950000D01*
X130458386Y-85988060D01*
X130388060Y-86058386D01*
X130350000Y-86150272D01*
X130196719Y-86150272D01*
X129737923Y-85691476D01*
X129671649Y-85815466D01*
X129614468Y-86003967D01*
X129595161Y-86200000D01*
X96049122Y-86200000D01*
X96196032Y-86185531D01*
X96384537Y-86128348D01*
X96508523Y-86062076D01*
X96508523Y-86062075D01*
X96000001Y-85553553D01*
X96000000Y-85553553D01*
X95491476Y-86062075D01*
X94500500Y-86062075D01*
X94500500Y-85200000D01*
X94995161Y-85200000D01*
X95014468Y-85396032D01*
X95071651Y-85584539D01*
X95137922Y-85708523D01*
X95137923Y-85708523D01*
X95646446Y-85200000D01*
X95646446Y-85199999D01*
X95596719Y-85150272D01*
X95750000Y-85150272D01*
X95750000Y-85249728D01*
X95788060Y-85341614D01*
X95858386Y-85411940D01*
X95950272Y-85450000D01*
X96049728Y-85450000D01*
X96141614Y-85411940D01*
X96211940Y-85341614D01*
X96250000Y-85249728D01*
X96250000Y-85199999D01*
X96353553Y-85199999D01*
X96353553Y-85200000D01*
X96862075Y-85708523D01*
X96862076Y-85708523D01*
X96928348Y-85584537D01*
X96985531Y-85396032D01*
X96991254Y-85337923D01*
X130091476Y-85337923D01*
X130600000Y-85846446D01*
X130600001Y-85846446D01*
X131108523Y-85337923D01*
X131108523Y-85337922D01*
X130984539Y-85271651D01*
X130796030Y-85214468D01*
X130796034Y-85214468D01*
X130600000Y-85195161D01*
X130403967Y-85214468D01*
X130215466Y-85271649D01*
X130091476Y-85337923D01*
X96991254Y-85337923D01*
X97004838Y-85200000D01*
X96985531Y-85003967D01*
X96928348Y-84815462D01*
X96862075Y-84691476D01*
X96353553Y-85199999D01*
X96250000Y-85199999D01*
X96250000Y-85150272D01*
X96211940Y-85058386D01*
X96141614Y-84988060D01*
X96049728Y-84950000D01*
X95950272Y-84950000D01*
X95858386Y-84988060D01*
X95788060Y-85058386D01*
X95750000Y-85150272D01*
X95596719Y-85150272D01*
X95137923Y-84691476D01*
X95071649Y-84815466D01*
X95014468Y-85003967D01*
X94995161Y-85200000D01*
X94500500Y-85200000D01*
X94500500Y-84337923D01*
X95491476Y-84337923D01*
X96000000Y-84846446D01*
X96000001Y-84846446D01*
X96508523Y-84337923D01*
X96508523Y-84337922D01*
X96384539Y-84271651D01*
X96196030Y-84214468D01*
X96196034Y-84214468D01*
X96000000Y-84195161D01*
X95803967Y-84214468D01*
X95615466Y-84271649D01*
X95491476Y-84337923D01*
X94500500Y-84337923D01*
X94500500Y-81349000D01*
X94520185Y-81281961D01*
X94572989Y-81236206D01*
X94624500Y-81225000D01*
X95125000Y-81225000D01*
X95125000Y-80308012D01*
X95182007Y-80340925D01*
X95309174Y-80375000D01*
X95440826Y-80375000D01*
X95567993Y-80340925D01*
X95625000Y-80308012D01*
X95625000Y-81225000D01*
X96272828Y-81225000D01*
X96272844Y-81224999D01*
X96332372Y-81218598D01*
X96332379Y-81218596D01*
X96382238Y-81200000D01*
X105844750Y-81200000D01*
X105852160Y-81256287D01*
X105863670Y-81343708D01*
X105863671Y-81343712D01*
X105919137Y-81477622D01*
X105919138Y-81477624D01*
X105919139Y-81477625D01*
X106007379Y-81592621D01*
X106122375Y-81680861D01*
X106256291Y-81736330D01*
X106383280Y-81753048D01*
X106399999Y-81755250D01*
X106400000Y-81755250D01*
X106400001Y-81755250D01*
X106414977Y-81753278D01*
X106543709Y-81736330D01*
X106677625Y-81680861D01*
X106792621Y-81592621D01*
X106880861Y-81477625D01*
X106936330Y-81343709D01*
X106955250Y-81200000D01*
X106955250Y-81199997D01*
X112044751Y-81199997D01*
X112044751Y-81200002D01*
X112063685Y-81368056D01*
X112119545Y-81527694D01*
X112119547Y-81527697D01*
X112209518Y-81670884D01*
X112209523Y-81670890D01*
X112329109Y-81790476D01*
X112329115Y-81790481D01*
X112472302Y-81880452D01*
X112472305Y-81880454D01*
X112472309Y-81880455D01*
X112472310Y-81880456D01*
X112544913Y-81905860D01*
X112631943Y-81936314D01*
X112799997Y-81955249D01*
X112800000Y-81955249D01*
X112800003Y-81955249D01*
X112968056Y-81936314D01*
X113005751Y-81923124D01*
X113127690Y-81880456D01*
X113127692Y-81880454D01*
X113127694Y-81880454D01*
X113127697Y-81880452D01*
X113270884Y-81790481D01*
X113270885Y-81790480D01*
X113270890Y-81790477D01*
X113390477Y-81670890D01*
X113390481Y-81670884D01*
X113480452Y-81527697D01*
X113480454Y-81527694D01*
X113480454Y-81527692D01*
X113480456Y-81527690D01*
X113536313Y-81368059D01*
X113536313Y-81368058D01*
X113536314Y-81368056D01*
X113555249Y-81200002D01*
X113555249Y-81199997D01*
X114244751Y-81199997D01*
X114244751Y-81200002D01*
X114263685Y-81368056D01*
X114319545Y-81527694D01*
X114319547Y-81527697D01*
X114409518Y-81670884D01*
X114409523Y-81670890D01*
X114529109Y-81790476D01*
X114529115Y-81790481D01*
X114672302Y-81880452D01*
X114672305Y-81880454D01*
X114672309Y-81880455D01*
X114672310Y-81880456D01*
X114744913Y-81905860D01*
X114831943Y-81936314D01*
X114999997Y-81955249D01*
X115000000Y-81955249D01*
X115000003Y-81955249D01*
X115168056Y-81936314D01*
X115205751Y-81923124D01*
X115327690Y-81880456D01*
X115327692Y-81880454D01*
X115327694Y-81880454D01*
X115327697Y-81880452D01*
X115470884Y-81790481D01*
X115470885Y-81790480D01*
X115470890Y-81790477D01*
X115590477Y-81670890D01*
X115590481Y-81670884D01*
X115680452Y-81527697D01*
X115680454Y-81527694D01*
X115680454Y-81527692D01*
X115680456Y-81527690D01*
X115736313Y-81368059D01*
X115736313Y-81368058D01*
X115736314Y-81368056D01*
X115755249Y-81200002D01*
X115755249Y-81199997D01*
X115736314Y-81031943D01*
X115680454Y-80872305D01*
X115680452Y-80872302D01*
X115590481Y-80729115D01*
X115590476Y-80729109D01*
X115470890Y-80609523D01*
X115470884Y-80609518D01*
X115327697Y-80519547D01*
X115327694Y-80519545D01*
X115168056Y-80463685D01*
X115000003Y-80444751D01*
X114999997Y-80444751D01*
X114831943Y-80463685D01*
X114672305Y-80519545D01*
X114672302Y-80519547D01*
X114529115Y-80609518D01*
X114529109Y-80609523D01*
X114409523Y-80729109D01*
X114409518Y-80729115D01*
X114319547Y-80872302D01*
X114319545Y-80872305D01*
X114263685Y-81031943D01*
X114244751Y-81199997D01*
X113555249Y-81199997D01*
X113536314Y-81031943D01*
X113480454Y-80872305D01*
X113480452Y-80872302D01*
X113390481Y-80729115D01*
X113390476Y-80729109D01*
X113270890Y-80609523D01*
X113270884Y-80609518D01*
X113127697Y-80519547D01*
X113127694Y-80519545D01*
X112968056Y-80463685D01*
X112800003Y-80444751D01*
X112799997Y-80444751D01*
X112631943Y-80463685D01*
X112472305Y-80519545D01*
X112472302Y-80519547D01*
X112329115Y-80609518D01*
X112329109Y-80609523D01*
X112209523Y-80729109D01*
X112209518Y-80729115D01*
X112119547Y-80872302D01*
X112119545Y-80872305D01*
X112063685Y-81031943D01*
X112044751Y-81199997D01*
X106955250Y-81199997D01*
X106936330Y-81056291D01*
X106880861Y-80922375D01*
X106801123Y-80818459D01*
X106775930Y-80753291D01*
X106775500Y-80742974D01*
X106775500Y-80504066D01*
X106775765Y-80495957D01*
X106781729Y-80404959D01*
X106786214Y-80336525D01*
X106788329Y-80320468D01*
X106818705Y-80167762D01*
X106822896Y-80152117D01*
X106872945Y-80004683D01*
X106879152Y-79989700D01*
X106907130Y-79932968D01*
X106948014Y-79850064D01*
X106956123Y-79836022D01*
X106974063Y-79809174D01*
X107042622Y-79706571D01*
X107052478Y-79693728D01*
X107157996Y-79573412D01*
X107163511Y-79567525D01*
X107198663Y-79532374D01*
X107198663Y-79532373D01*
X107205724Y-79525313D01*
X107205730Y-79525306D01*
X107342352Y-79388683D01*
X107403673Y-79355200D01*
X107413839Y-79353427D01*
X107543709Y-79336330D01*
X107677625Y-79280861D01*
X107792621Y-79192621D01*
X107880861Y-79077625D01*
X107936330Y-78943709D01*
X107955250Y-78800000D01*
X107936330Y-78656291D01*
X107913014Y-78600000D01*
X129244750Y-78600000D01*
X129262698Y-78736329D01*
X129263670Y-78743708D01*
X129263671Y-78743712D01*
X129319137Y-78877622D01*
X129319138Y-78877624D01*
X129319139Y-78877625D01*
X129407379Y-78992621D01*
X129522375Y-79080861D01*
X129656291Y-79136330D01*
X129704719Y-79142705D01*
X129768615Y-79170971D01*
X129776215Y-79177963D01*
X129995676Y-79397424D01*
X130002285Y-79404573D01*
X130111435Y-79532372D01*
X130123397Y-79546377D01*
X130134830Y-79562114D01*
X130173367Y-79625000D01*
X130229712Y-79716947D01*
X130238545Y-79734283D01*
X130308037Y-79902050D01*
X130314050Y-79920556D01*
X130356440Y-80097127D01*
X130359484Y-80116346D01*
X130374117Y-80302285D01*
X130374499Y-80312013D01*
X130374499Y-80378269D01*
X130374500Y-80378282D01*
X130374500Y-81008134D01*
X130354815Y-81075173D01*
X130348876Y-81083620D01*
X130319138Y-81122374D01*
X130263671Y-81256287D01*
X130263670Y-81256291D01*
X130244750Y-81399999D01*
X130244750Y-81400000D01*
X130263670Y-81543708D01*
X130263671Y-81543712D01*
X130319137Y-81677622D01*
X130319138Y-81677624D01*
X130319139Y-81677625D01*
X130407379Y-81792621D01*
X130522375Y-81880861D01*
X130656291Y-81936330D01*
X130783280Y-81953048D01*
X130799999Y-81955250D01*
X130800000Y-81955250D01*
X130800001Y-81955250D01*
X130814977Y-81953278D01*
X130943709Y-81936330D01*
X131077625Y-81880861D01*
X131192621Y-81792621D01*
X131280861Y-81677625D01*
X131336330Y-81543709D01*
X131355250Y-81400000D01*
X131336330Y-81256291D01*
X131280861Y-81122375D01*
X131280861Y-81122374D01*
X131251124Y-81083620D01*
X131225930Y-81018450D01*
X131225500Y-81008134D01*
X131225500Y-80243509D01*
X131225497Y-80243459D01*
X131225497Y-80187340D01*
X131225496Y-80187336D01*
X131221796Y-80154500D01*
X131216402Y-80106618D01*
X131198680Y-79949324D01*
X131198679Y-79949323D01*
X131198679Y-79949320D01*
X131145379Y-79715796D01*
X131066268Y-79489708D01*
X131066265Y-79489701D01*
X130962344Y-79273905D01*
X130911270Y-79192621D01*
X130834904Y-79071084D01*
X130685560Y-78883813D01*
X130685559Y-78883812D01*
X130685556Y-78883808D01*
X130377963Y-78576215D01*
X130344478Y-78514892D01*
X130342707Y-78504731D01*
X130336330Y-78456291D01*
X130280861Y-78322375D01*
X130192621Y-78207379D01*
X130077625Y-78119139D01*
X130077624Y-78119138D01*
X130077622Y-78119137D01*
X129943712Y-78063671D01*
X129943710Y-78063670D01*
X129943709Y-78063670D01*
X129871854Y-78054210D01*
X129800001Y-78044750D01*
X129799999Y-78044750D01*
X129656291Y-78063670D01*
X129656287Y-78063671D01*
X129522377Y-78119137D01*
X129407379Y-78207379D01*
X129319137Y-78322377D01*
X129263671Y-78456287D01*
X129263670Y-78456291D01*
X129245722Y-78592620D01*
X129244750Y-78600000D01*
X107913014Y-78600000D01*
X107887121Y-78537489D01*
X107880862Y-78522377D01*
X107880861Y-78522376D01*
X107880861Y-78522375D01*
X107792621Y-78407379D01*
X107677625Y-78319139D01*
X107677624Y-78319138D01*
X107677622Y-78319137D01*
X107543712Y-78263671D01*
X107543710Y-78263670D01*
X107543709Y-78263670D01*
X107451324Y-78251507D01*
X107400001Y-78244750D01*
X107399999Y-78244750D01*
X107256291Y-78263670D01*
X107256287Y-78263671D01*
X107122377Y-78319137D01*
X107007379Y-78407379D01*
X106919137Y-78522377D01*
X106863671Y-78656287D01*
X106863670Y-78656292D01*
X106846573Y-78786150D01*
X106818306Y-78850047D01*
X106811315Y-78857645D01*
X106589073Y-79079887D01*
X106588917Y-79080064D01*
X106547449Y-79121531D01*
X106402807Y-79302900D01*
X106279379Y-79499328D01*
X106246545Y-79567508D01*
X106179568Y-79706584D01*
X106178718Y-79708348D01*
X106102099Y-79927306D01*
X106102096Y-79927315D01*
X106050473Y-80153484D01*
X106024501Y-80383999D01*
X106024500Y-80384004D01*
X106024500Y-80742974D01*
X106004815Y-80810013D01*
X105998882Y-80818452D01*
X105970261Y-80855752D01*
X105919137Y-80922377D01*
X105863671Y-81056287D01*
X105863670Y-81056291D01*
X105844750Y-81200000D01*
X96382238Y-81200000D01*
X96467086Y-81168354D01*
X96467093Y-81168350D01*
X96582187Y-81082190D01*
X96582190Y-81082187D01*
X96668350Y-80967093D01*
X96668354Y-80967086D01*
X96718596Y-80832379D01*
X96718598Y-80832372D01*
X96724999Y-80772844D01*
X96725000Y-80772827D01*
X96725000Y-80125000D01*
X95808012Y-80125000D01*
X95840925Y-80067993D01*
X95875000Y-79940826D01*
X95875000Y-79809174D01*
X95840925Y-79682007D01*
X95808012Y-79625000D01*
X96725000Y-79625000D01*
X96725000Y-78977172D01*
X96724999Y-78977155D01*
X96718598Y-78917627D01*
X96718596Y-78917620D01*
X96668354Y-78782913D01*
X96668350Y-78782906D01*
X96582190Y-78667812D01*
X96582187Y-78667809D01*
X96467093Y-78581649D01*
X96467086Y-78581645D01*
X96332379Y-78531403D01*
X96332372Y-78531401D01*
X96272844Y-78525000D01*
X95979388Y-78525000D01*
X95912349Y-78505315D01*
X95866594Y-78452511D01*
X95856650Y-78383353D01*
X95885675Y-78319797D01*
X95914111Y-78295573D01*
X96041039Y-78216982D01*
X96041038Y-78216982D01*
X96041041Y-78216981D01*
X96059668Y-78200000D01*
X96844750Y-78200000D01*
X96853132Y-78263670D01*
X96863670Y-78343708D01*
X96863671Y-78343712D01*
X96919137Y-78477622D01*
X96919138Y-78477624D01*
X96919139Y-78477625D01*
X97007379Y-78592621D01*
X97122375Y-78680861D01*
X97256291Y-78736330D01*
X97383280Y-78753048D01*
X97399999Y-78755250D01*
X97400000Y-78755250D01*
X97400001Y-78755250D01*
X97414977Y-78753278D01*
X97543709Y-78736330D01*
X97677625Y-78680861D01*
X97792621Y-78592621D01*
X97880861Y-78477625D01*
X97936330Y-78343709D01*
X97955250Y-78200000D01*
X97936330Y-78056291D01*
X97880861Y-77922375D01*
X97801123Y-77818459D01*
X97775930Y-77753291D01*
X97775500Y-77742974D01*
X97775500Y-76606015D01*
X97795185Y-76538976D01*
X97847989Y-76493221D01*
X97851970Y-76491486D01*
X97877625Y-76480861D01*
X97992621Y-76392621D01*
X98080861Y-76277625D01*
X98136330Y-76143709D01*
X98155250Y-76000000D01*
X98155250Y-75999997D01*
X118244751Y-75999997D01*
X118244751Y-76000002D01*
X118263685Y-76168056D01*
X118319545Y-76327694D01*
X118319547Y-76327697D01*
X118409518Y-76470884D01*
X118409523Y-76470890D01*
X118529109Y-76590476D01*
X118529115Y-76590481D01*
X118672302Y-76680452D01*
X118672305Y-76680454D01*
X118672309Y-76680455D01*
X118672310Y-76680456D01*
X118744913Y-76705860D01*
X118831943Y-76736314D01*
X118999997Y-76755249D01*
X119000000Y-76755249D01*
X119000003Y-76755249D01*
X119168056Y-76736314D01*
X119168059Y-76736313D01*
X119327690Y-76680456D01*
X119327692Y-76680454D01*
X119327694Y-76680454D01*
X119327697Y-76680452D01*
X119470884Y-76590481D01*
X119470885Y-76590480D01*
X119470890Y-76590477D01*
X119590477Y-76470890D01*
X119601706Y-76453019D01*
X119680452Y-76327697D01*
X119680454Y-76327694D01*
X119680454Y-76327692D01*
X119680456Y-76327690D01*
X119733885Y-76174997D01*
X128244751Y-76174997D01*
X128244751Y-76175002D01*
X128263685Y-76343056D01*
X128319545Y-76502694D01*
X128319547Y-76502697D01*
X128409518Y-76645884D01*
X128409523Y-76645890D01*
X128529109Y-76765476D01*
X128529115Y-76765481D01*
X128672302Y-76855452D01*
X128672305Y-76855454D01*
X128672309Y-76855455D01*
X128672310Y-76855456D01*
X128744913Y-76880860D01*
X128831943Y-76911314D01*
X128999997Y-76930249D01*
X129000000Y-76930249D01*
X129000003Y-76930249D01*
X129168056Y-76911314D01*
X129168059Y-76911313D01*
X129327690Y-76855456D01*
X129327692Y-76855454D01*
X129327694Y-76855454D01*
X129327697Y-76855452D01*
X129470884Y-76765481D01*
X129470885Y-76765480D01*
X129470890Y-76765477D01*
X129590477Y-76645890D01*
X129590481Y-76645884D01*
X129680452Y-76502697D01*
X129680454Y-76502694D01*
X129680454Y-76502692D01*
X129680456Y-76502690D01*
X129736313Y-76343059D01*
X129736313Y-76343058D01*
X129736314Y-76343056D01*
X129755249Y-76175002D01*
X129755249Y-76174997D01*
X129736314Y-76006943D01*
X129705860Y-75919913D01*
X129680456Y-75847310D01*
X129680455Y-75847309D01*
X129680454Y-75847305D01*
X129680452Y-75847302D01*
X129590481Y-75704115D01*
X129590476Y-75704109D01*
X129470890Y-75584523D01*
X129470884Y-75584518D01*
X129327697Y-75494547D01*
X129327694Y-75494545D01*
X129168056Y-75438685D01*
X129000003Y-75419751D01*
X128999997Y-75419751D01*
X128831943Y-75438685D01*
X128672305Y-75494545D01*
X128672302Y-75494547D01*
X128529115Y-75584518D01*
X128529109Y-75584523D01*
X128409523Y-75704109D01*
X128409518Y-75704115D01*
X128319547Y-75847302D01*
X128319545Y-75847305D01*
X128263685Y-76006943D01*
X128244751Y-76174997D01*
X119733885Y-76174997D01*
X119736313Y-76168059D01*
X119736313Y-76168058D01*
X119736314Y-76168056D01*
X119755249Y-76000002D01*
X119755249Y-75999997D01*
X119736314Y-75831943D01*
X119680454Y-75672305D01*
X119680452Y-75672302D01*
X119590481Y-75529115D01*
X119590476Y-75529109D01*
X119470890Y-75409523D01*
X119470884Y-75409518D01*
X119327697Y-75319547D01*
X119327694Y-75319545D01*
X119168056Y-75263685D01*
X119000003Y-75244751D01*
X118999997Y-75244751D01*
X118831943Y-75263685D01*
X118672305Y-75319545D01*
X118672302Y-75319547D01*
X118529115Y-75409518D01*
X118529109Y-75409523D01*
X118409523Y-75529109D01*
X118409518Y-75529115D01*
X118319547Y-75672302D01*
X118319545Y-75672305D01*
X118263685Y-75831943D01*
X118244751Y-75999997D01*
X98155250Y-75999997D01*
X98136330Y-75856291D01*
X98080861Y-75722375D01*
X97992621Y-75607379D01*
X97877625Y-75519139D01*
X97877624Y-75519138D01*
X97877622Y-75519137D01*
X97743712Y-75463671D01*
X97743710Y-75463670D01*
X97743709Y-75463670D01*
X97671854Y-75454210D01*
X97600001Y-75444750D01*
X97599999Y-75444750D01*
X97456291Y-75463670D01*
X97456287Y-75463671D01*
X97322377Y-75519137D01*
X97207379Y-75607379D01*
X97119137Y-75722377D01*
X97063671Y-75856287D01*
X97063670Y-75856291D01*
X97044750Y-75999999D01*
X97044750Y-76000002D01*
X97055608Y-76082482D01*
X97052033Y-76126102D01*
X97053230Y-76126340D01*
X97024496Y-76270829D01*
X97024500Y-76334109D01*
X97024500Y-77742974D01*
X97004815Y-77810013D01*
X96998882Y-77818452D01*
X96955235Y-77875333D01*
X96919137Y-77922377D01*
X96863671Y-78056287D01*
X96863670Y-78056291D01*
X96844750Y-78200000D01*
X96059668Y-78200000D01*
X96191764Y-78079579D01*
X96314673Y-77916821D01*
X96405582Y-77734250D01*
X96461397Y-77538083D01*
X96480215Y-77335000D01*
X96461397Y-77131917D01*
X96405582Y-76935750D01*
X96393414Y-76911314D01*
X96361272Y-76846764D01*
X96314673Y-76753179D01*
X96203540Y-76606015D01*
X96191762Y-76590418D01*
X96041041Y-76453019D01*
X96041039Y-76453017D01*
X95867642Y-76345655D01*
X95867635Y-76345651D01*
X95772546Y-76308814D01*
X95677456Y-76271976D01*
X95476976Y-76234500D01*
X95273024Y-76234500D01*
X95072544Y-76271976D01*
X95072541Y-76271976D01*
X95072541Y-76271977D01*
X94882364Y-76345651D01*
X94882357Y-76345655D01*
X94708960Y-76453017D01*
X94704385Y-76456473D01*
X94703171Y-76454865D01*
X94648442Y-76481535D01*
X94579056Y-76473325D01*
X94525124Y-76428906D01*
X94503768Y-76362380D01*
X94504045Y-76350431D01*
X94504387Y-76345651D01*
X94515130Y-76195436D01*
X94517646Y-76177938D01*
X94559356Y-75986199D01*
X94564333Y-75969248D01*
X94632911Y-75785385D01*
X94640259Y-75769298D01*
X94693221Y-75672305D01*
X94734291Y-75597089D01*
X94743845Y-75582221D01*
X94861448Y-75425123D01*
X94873020Y-75411769D01*
X95011769Y-75273020D01*
X95025123Y-75261448D01*
X95182221Y-75143845D01*
X95197089Y-75134291D01*
X95369298Y-75040258D01*
X95385385Y-75032911D01*
X95569248Y-74964333D01*
X95586199Y-74959356D01*
X95777938Y-74917646D01*
X95795436Y-74915130D01*
X95995582Y-74900816D01*
X96004428Y-74900500D01*
X96065892Y-74900500D01*
X132950647Y-74900500D01*
X133017686Y-74920185D01*
G37*
%TD.AperFunction*%
%TD*%
M02*
