%TF.GenerationSoftware,KiCad,Pcbnew,8.0.7*%
%TF.CreationDate,2025-01-02T14:00:46+01:00*%
%TF.ProjectId,av-to-minitel,61762d74-6f2d-46d6-996e-6974656c2e6b,v0.1*%
%TF.SameCoordinates,Original*%
%TF.FileFunction,Copper,L1,Top*%
%TF.FilePolarity,Positive*%
%FSLAX46Y46*%
G04 Gerber Fmt 4.6, Leading zero omitted, Abs format (unit mm)*
G04 Created by KiCad (PCBNEW 8.0.7) date 2025-01-02 14:00:46*
%MOMM*%
%LPD*%
G01*
G04 APERTURE LIST*
G04 Aperture macros list*
%AMRoundRect*
0 Rectangle with rounded corners*
0 $1 Rounding radius*
0 $2 $3 $4 $5 $6 $7 $8 $9 X,Y pos of 4 corners*
0 Add a 4 corners polygon primitive as box body*
4,1,4,$2,$3,$4,$5,$6,$7,$8,$9,$2,$3,0*
0 Add four circle primitives for the rounded corners*
1,1,$1+$1,$2,$3*
1,1,$1+$1,$4,$5*
1,1,$1+$1,$6,$7*
1,1,$1+$1,$8,$9*
0 Add four rect primitives between the rounded corners*
20,1,$1+$1,$2,$3,$4,$5,0*
20,1,$1+$1,$4,$5,$6,$7,0*
20,1,$1+$1,$6,$7,$8,$9,0*
20,1,$1+$1,$8,$9,$2,$3,0*%
G04 Aperture macros list end*
%TA.AperFunction,SMDPad,CuDef*%
%ADD10RoundRect,0.125000X0.125000X0.125000X-0.125000X0.125000X-0.125000X-0.125000X0.125000X-0.125000X0*%
%TD*%
%TA.AperFunction,SMDPad,CuDef*%
%ADD11RoundRect,0.225000X-0.225000X-0.250000X0.225000X-0.250000X0.225000X0.250000X-0.225000X0.250000X0*%
%TD*%
%TA.AperFunction,SMDPad,CuDef*%
%ADD12RoundRect,0.250000X0.262500X0.450000X-0.262500X0.450000X-0.262500X-0.450000X0.262500X-0.450000X0*%
%TD*%
%TA.AperFunction,SMDPad,CuDef*%
%ADD13RoundRect,0.150000X0.150000X-0.587500X0.150000X0.587500X-0.150000X0.587500X-0.150000X-0.587500X0*%
%TD*%
%TA.AperFunction,SMDPad,CuDef*%
%ADD14RoundRect,0.075000X-0.910000X-0.225000X0.910000X-0.225000X0.910000X0.225000X-0.910000X0.225000X0*%
%TD*%
%TA.AperFunction,ComponentPad*%
%ADD15C,1.000000*%
%TD*%
%TA.AperFunction,ComponentPad*%
%ADD16R,1.700000X1.700000*%
%TD*%
%TA.AperFunction,ComponentPad*%
%ADD17O,1.700000X1.700000*%
%TD*%
%TA.AperFunction,SMDPad,CuDef*%
%ADD18RoundRect,0.250000X1.250000X0.550000X-1.250000X0.550000X-1.250000X-0.550000X1.250000X-0.550000X0*%
%TD*%
%TA.AperFunction,SMDPad,CuDef*%
%ADD19RoundRect,0.250000X-0.262500X-0.450000X0.262500X-0.450000X0.262500X0.450000X-0.262500X0.450000X0*%
%TD*%
%TA.AperFunction,SMDPad,CuDef*%
%ADD20RoundRect,0.250000X0.450000X-0.262500X0.450000X0.262500X-0.450000X0.262500X-0.450000X-0.262500X0*%
%TD*%
%TA.AperFunction,SMDPad,CuDef*%
%ADD21RoundRect,0.250000X0.400000X0.600000X-0.400000X0.600000X-0.400000X-0.600000X0.400000X-0.600000X0*%
%TD*%
%TA.AperFunction,SMDPad,CuDef*%
%ADD22RoundRect,0.250000X-0.450000X0.262500X-0.450000X-0.262500X0.450000X-0.262500X0.450000X0.262500X0*%
%TD*%
%TA.AperFunction,SMDPad,CuDef*%
%ADD23RoundRect,0.150000X-0.150000X0.587500X-0.150000X-0.587500X0.150000X-0.587500X0.150000X0.587500X0*%
%TD*%
%TA.AperFunction,ViaPad*%
%ADD24C,0.600000*%
%TD*%
%TA.AperFunction,Conductor*%
%ADD25C,0.250000*%
%TD*%
%TA.AperFunction,Conductor*%
%ADD26C,0.350000*%
%TD*%
G04 APERTURE END LIST*
D10*
%TO.P,D3,1,K*%
%TO.N,Net-(D3-K)*%
X109700000Y-86000000D03*
%TO.P,D3,2,A*%
%TO.N,Net-(D3-A)*%
X107500000Y-86000000D03*
%TD*%
%TO.P,D2,1,K*%
%TO.N,Net-(D2-K)*%
X109600000Y-83600000D03*
%TO.P,D2,2,A*%
%TO.N,Net-(D2-A)*%
X107400000Y-83600000D03*
%TD*%
D11*
%TO.P,C4,1*%
%TO.N,GND*%
X103625000Y-88000000D03*
%TO.P,C4,2*%
%TO.N,Net-(D3-A)*%
X105175000Y-88000000D03*
%TD*%
D12*
%TO.P,R11,1*%
%TO.N,Net-(D2-K)*%
X109512500Y-81200000D03*
%TO.P,R11,2*%
%TO.N,minitel_sync_in*%
X107687500Y-81200000D03*
%TD*%
%TO.P,R10,1*%
%TO.N,Net-(U1-RSET)*%
X116312500Y-89200000D03*
%TO.P,R10,2*%
%TO.N,GND*%
X114487500Y-89200000D03*
%TD*%
D13*
%TO.P,Q3,1,C*%
%TO.N,Net-(Q1-C)*%
X123400000Y-78862500D03*
%TO.P,Q3,2,B*%
%TO.N,Net-(Q3-B)*%
X122450000Y-80737500D03*
%TO.P,Q3,3,E*%
%TO.N,Net-(Q3-E)*%
X124350000Y-80737500D03*
%TD*%
D14*
%TO.P,U1,1,CSYNCOUT*%
%TO.N,Net-(D2-K)*%
X112930000Y-83495000D03*
%TO.P,U1,2,COMPOSITESYNCIN*%
%TO.N,Net-(U1-COMPOSITESYNCIN)*%
X112930000Y-84765000D03*
%TO.P,U1,3,VSOUT*%
%TO.N,Net-(D3-K)*%
X112930000Y-86035000D03*
%TO.P,U1,4,GND*%
%TO.N,GND*%
X112930000Y-87305000D03*
%TO.P,U1,5,BPOUT*%
%TO.N,unconnected-(U1-BPOUT-Pad5)*%
X117870000Y-87305000D03*
%TO.P,U1,6,RSET*%
%TO.N,Net-(U1-RSET)*%
X117870000Y-86035000D03*
%TO.P,U1,7,OEOUT*%
%TO.N,unconnected-(U1-OEOUT-Pad7)*%
X117870000Y-84765000D03*
%TO.P,U1,8,VCC*%
%TO.N,+12V*%
X117870000Y-83495000D03*
%TD*%
D15*
%TO.P,TP3,1,1*%
%TO.N,Net-(U1-COMPOSITESYNCIN)*%
X115000000Y-81200000D03*
%TD*%
%TO.P,TP6,1,1*%
%TO.N,GND*%
X130600000Y-86200000D03*
%TD*%
D16*
%TO.P,J2,1,Pin_1*%
%TO.N,minitel_video_in*%
X134025000Y-76175000D03*
D17*
%TO.P,J2,2,Pin_2*%
%TO.N,GND*%
X134025000Y-78715000D03*
%TO.P,J2,3,Pin_3*%
%TO.N,minitel_sync_in*%
X134025000Y-81255000D03*
%TO.P,J2,4,Pin_4*%
%TO.N,GND*%
X134025000Y-83795000D03*
%TO.P,J2,5,Pin_5*%
%TO.N,unconnected-(J2-Pin_5-Pad5)*%
X134025000Y-86335000D03*
%TO.P,J2,6,Pin_6*%
%TO.N,unconnected-(J2-Pin_6-Pad6)*%
X134025000Y-88875000D03*
%TO.P,J2,7,Pin_7*%
%TO.N,+15V*%
X134025000Y-91415000D03*
%TD*%
D12*
%TO.P,R8,1*%
%TO.N,Net-(Q3-E)*%
X124312500Y-83000000D03*
%TO.P,R8,2*%
%TO.N,GND*%
X122487500Y-83000000D03*
%TD*%
D11*
%TO.P,C5,1*%
%TO.N,GND*%
X114425000Y-91000000D03*
%TO.P,C5,2*%
%TO.N,Net-(U1-RSET)*%
X115975000Y-91000000D03*
%TD*%
D18*
%TO.P,C3,1*%
%TO.N,Net-(Q3-B)*%
X105000000Y-77600000D03*
%TO.P,C3,2*%
%TO.N,comp_video_in*%
X100600000Y-77600000D03*
%TD*%
D16*
%TO.P,J1,1,Pin_1*%
%TO.N,GND*%
X95375000Y-79875000D03*
D17*
%TO.P,J1,2,Pin_2*%
%TO.N,comp_video_in*%
X95375000Y-77335000D03*
%TD*%
D15*
%TO.P,TP1,1,1*%
%TO.N,+12V*%
X128400000Y-89600000D03*
%TD*%
D11*
%TO.P,C2,1*%
%TO.N,comp_video_in*%
X99825000Y-81400000D03*
%TO.P,C2,2*%
%TO.N,Net-(U1-COMPOSITESYNCIN)*%
X101375000Y-81400000D03*
%TD*%
D12*
%TO.P,R1,1*%
%TO.N,+15V*%
X130312500Y-91800000D03*
%TO.P,R1,2*%
%TO.N,+12V*%
X128487500Y-91800000D03*
%TD*%
D19*
%TO.P,R2,1*%
%TO.N,+12V*%
X99575000Y-87200000D03*
%TO.P,R2,2*%
%TO.N,Net-(Q1-B)*%
X101400000Y-87200000D03*
%TD*%
D20*
%TO.P,R7,1*%
%TO.N,Net-(Q3-B)*%
X120400000Y-80912500D03*
%TO.P,R7,2*%
%TO.N,GND*%
X120400000Y-79087500D03*
%TD*%
D21*
%TO.P,D1,1,K*%
%TO.N,+12V*%
X125950000Y-91800000D03*
%TO.P,D1,2,A*%
%TO.N,GND*%
X122450000Y-91800000D03*
%TD*%
D22*
%TO.P,R4,1*%
%TO.N,+12V*%
X124475000Y-75287500D03*
%TO.P,R4,2*%
%TO.N,Net-(Q1-C)*%
X124475000Y-77112500D03*
%TD*%
%TO.P,R9,1*%
%TO.N,minitel_video_in*%
X127475000Y-82087500D03*
%TO.P,R9,2*%
%TO.N,GND*%
X127475000Y-83912500D03*
%TD*%
%TO.P,R3,1*%
%TO.N,+12V*%
X121675000Y-75287500D03*
%TO.P,R3,2*%
%TO.N,Net-(Q3-B)*%
X121675000Y-77112500D03*
%TD*%
D15*
%TO.P,TP5,1,1*%
%TO.N,minitel_video_in*%
X129000000Y-76175000D03*
%TD*%
D12*
%TO.P,R6,1*%
%TO.N,Net-(D3-A)*%
X105312500Y-86000000D03*
%TO.P,R6,2*%
%TO.N,Net-(Q1-B)*%
X103487500Y-86000000D03*
%TD*%
D15*
%TO.P,TP2,1,1*%
%TO.N,Net-(Q1-C)*%
X119000000Y-76000000D03*
%TD*%
D12*
%TO.P,R5,1*%
%TO.N,Net-(D2-A)*%
X105312500Y-83600000D03*
%TO.P,R5,2*%
%TO.N,Net-(Q1-B)*%
X103487500Y-83600000D03*
%TD*%
D23*
%TO.P,Q1,1,C*%
%TO.N,Net-(Q1-C)*%
X99450000Y-85275000D03*
%TO.P,Q1,2,B*%
%TO.N,Net-(Q1-B)*%
X100400000Y-83400000D03*
%TO.P,Q1,3,E*%
%TO.N,+12V*%
X98500000Y-83400000D03*
%TD*%
D15*
%TO.P,TP7,1,1*%
%TO.N,GND*%
X96000000Y-85200000D03*
%TD*%
D12*
%TO.P,R12,1*%
%TO.N,minitel_sync_in*%
X105312500Y-81600000D03*
%TO.P,R12,2*%
%TO.N,GND*%
X103487500Y-81600000D03*
%TD*%
D18*
%TO.P,C1,1*%
%TO.N,+12V*%
X126200000Y-87600000D03*
%TO.P,C1,2*%
%TO.N,GND*%
X121800000Y-87600000D03*
%TD*%
D13*
%TO.P,Q2,1,C*%
%TO.N,+12V*%
X127537500Y-78325000D03*
%TO.P,Q2,2,B*%
%TO.N,Net-(Q1-C)*%
X126587500Y-80200000D03*
%TO.P,Q2,3,E*%
%TO.N,minitel_video_in*%
X128487500Y-80200000D03*
%TD*%
D15*
%TO.P,TP4,1,1*%
%TO.N,Net-(D2-K)*%
X112800000Y-81200000D03*
%TD*%
D24*
%TO.N,GND*%
X130465952Y-88291750D03*
X127925952Y-75591750D03*
X117765952Y-88291750D03*
X115225952Y-85751750D03*
X110145952Y-90831750D03*
X107605952Y-90831750D03*
X107605952Y-88291750D03*
X105065952Y-90831750D03*
X97445952Y-88291750D03*
X97445952Y-85751750D03*
X97445952Y-83211750D03*
X102600000Y-88000000D03*
X113200000Y-90800000D03*
X120400000Y-78000000D03*
X121000000Y-91800000D03*
X123800000Y-87800000D03*
X102200000Y-82600000D03*
X122400000Y-90200000D03*
X113000000Y-89000000D03*
X121400000Y-83000000D03*
X121800000Y-86200000D03*
X103600000Y-89200000D03*
X111000000Y-87600000D03*
X126000000Y-84000000D03*
%TO.N,+12V*%
X130800000Y-81400000D03*
X129800000Y-78600000D03*
%TO.N,minitel_sync_in*%
X107400000Y-78800000D03*
X106400000Y-81200000D03*
%TO.N,Net-(Q1-C)*%
X97400000Y-78200000D03*
X97600000Y-76000000D03*
%TD*%
D25*
%TO.N,Net-(D3-K)*%
X110025560Y-86026419D02*
X109999141Y-86000000D01*
X112930000Y-86035000D02*
X110059748Y-86035000D01*
X109999141Y-86000000D02*
X109700000Y-86000000D01*
X110059748Y-86035000D02*
G75*
G02*
X110025561Y-86026417I4752J91300D01*
G01*
%TO.N,Net-(D2-K)*%
X109608870Y-83161103D02*
X109608431Y-83160249D01*
X109600000Y-83169973D02*
X109600000Y-83600000D01*
X110179246Y-83495000D02*
X112930000Y-83495000D01*
X109608870Y-83161103D02*
X109600000Y-83169973D01*
X109600000Y-83600000D02*
X109958417Y-83600000D01*
X110052500Y-83547500D02*
G75*
G02*
X110179246Y-83495019I126700J-126700D01*
G01*
X109512500Y-81200000D02*
X109512500Y-82764222D01*
X109983895Y-83574522D02*
G75*
G03*
X110052483Y-83547485I7605J81222D01*
G01*
X109958417Y-83600000D02*
X109983895Y-83574522D01*
X109512500Y-82764222D02*
G75*
G03*
X109608441Y-83160244I865400J22D01*
G01*
%TO.N,Net-(D2-A)*%
X105312500Y-83600000D02*
X107400000Y-83600000D01*
%TO.N,Net-(D3-A)*%
X105363151Y-86000576D02*
X107499424Y-86000576D01*
X105243750Y-86068750D02*
G75*
G02*
X105363154Y-86000587I200550J-212650D01*
G01*
X105175000Y-86234727D02*
G75*
G02*
X105243742Y-86068742I234700J27D01*
G01*
X105175000Y-88000000D02*
X105175000Y-86234727D01*
X107499424Y-86000576D02*
X107500000Y-86000000D01*
%TO.N,comp_video_in*%
X99825000Y-78923007D02*
X99825000Y-81400000D01*
X100467500Y-77732500D02*
X100212500Y-77987500D01*
X100147616Y-77335000D02*
X95375000Y-77335000D01*
X100467500Y-77467500D02*
G75*
G02*
X100467500Y-77732500I-132500J-132500D01*
G01*
X100467500Y-77467500D02*
G75*
G03*
X100147616Y-77334993I-319900J-319900D01*
G01*
X100212500Y-77987500D02*
G75*
G03*
X99825003Y-78923007I935500J-935500D01*
G01*
%TO.N,Net-(U1-COMPOSITESYNCIN)*%
X113422499Y-84765000D02*
X112930000Y-84765000D01*
X115000000Y-81200000D02*
X115000000Y-82912787D01*
X103764949Y-80000000D02*
X112951471Y-80000000D01*
X115000000Y-81200000D02*
X114400000Y-80600000D01*
X114457499Y-84222499D02*
X114263248Y-84416750D01*
X102075000Y-80700000D02*
X101375000Y-81400000D01*
X114400000Y-80600000D02*
G75*
G03*
X112951471Y-80000012I-1448500J-1448500D01*
G01*
X114263248Y-84416750D02*
G75*
G02*
X113422499Y-84764999I-840748J840750D01*
G01*
X115000000Y-82912787D02*
G75*
G02*
X114457503Y-84222503I-1852200J-13D01*
G01*
X103764949Y-80000000D02*
G75*
G03*
X102074986Y-80699986I-49J-2389900D01*
G01*
%TO.N,Net-(Q3-B)*%
X121537500Y-79179765D02*
X121537500Y-77347227D01*
X122151256Y-80912500D02*
X120600000Y-80912500D01*
X119055285Y-77600000D02*
X104800000Y-77600000D01*
X121577772Y-77112500D02*
X120232214Y-77112500D01*
X122362500Y-80650000D02*
X121993750Y-80281250D01*
X119643750Y-77356250D02*
G75*
G02*
X119055285Y-77599994I-588450J588450D01*
G01*
X122362500Y-80650000D02*
G75*
G02*
X122362500Y-80825000I-87500J-87500D01*
G01*
X121537500Y-79179765D02*
G75*
G03*
X121993740Y-80281260I1557700J-35D01*
G01*
X120232214Y-77112500D02*
G75*
G03*
X119643746Y-77356246I-14J-832200D01*
G01*
X121606250Y-77181250D02*
G75*
G03*
X121577772Y-77112566I-28450J28450D01*
G01*
X122362500Y-80825000D02*
G75*
G02*
X122151256Y-80912453I-211200J211300D01*
G01*
X121606250Y-77181250D02*
G75*
G03*
X121537511Y-77347227I165950J-165950D01*
G01*
%TO.N,GND*%
X103600000Y-89200000D02*
X103612500Y-89187500D01*
X120400000Y-78000000D02*
X120400000Y-79087500D01*
X122450000Y-91800000D02*
X121000000Y-91800000D01*
X127325628Y-84000000D02*
X126000000Y-84000000D01*
X113000000Y-89000000D02*
X114487500Y-89000000D01*
X113200000Y-90800000D02*
X114425000Y-90800000D01*
X103625000Y-88000000D02*
X103625000Y-89157322D01*
X122450000Y-91800000D02*
X122450000Y-90285355D01*
X103625000Y-88000000D02*
X102600000Y-88000000D01*
X111503596Y-87305000D02*
X112930000Y-87305000D01*
X121400000Y-83000000D02*
X122487500Y-83000000D01*
X122400000Y-90200000D02*
X122425000Y-90225000D01*
X103487500Y-81456250D02*
X103487500Y-81200000D01*
X111000000Y-87600000D02*
X111147500Y-87452500D01*
X121800000Y-87458578D02*
X121800000Y-86200000D01*
X122141421Y-87800000D02*
X123800000Y-87800000D01*
X102200000Y-82600000D02*
X103098353Y-81701646D01*
X127431250Y-83956250D02*
X127475000Y-83912500D01*
X103625000Y-89157322D02*
G75*
G02*
X103612493Y-89187493I-42700J22D01*
G01*
X111503596Y-87305000D02*
G75*
G03*
X111147501Y-87452501I4J-503600D01*
G01*
X122425000Y-90225000D02*
G75*
G02*
X122450018Y-90285355I-60400J-60400D01*
G01*
X127431250Y-83956250D02*
G75*
G02*
X127325628Y-84000012I-105650J105650D01*
G01*
X103343750Y-81600000D02*
G75*
G03*
X103098337Y-81701630I-50J-347000D01*
G01*
X121800000Y-87458578D02*
G75*
G03*
X121899994Y-87700006I341400J-22D01*
G01*
X121900000Y-87700000D02*
G75*
G03*
X122141421Y-87799991I241400J241400D01*
G01*
X103487500Y-81456250D02*
G75*
G02*
X103343750Y-81600000I-143800J50D01*
G01*
%TO.N,Net-(U1-RSET)*%
X116312500Y-86490793D02*
X116312500Y-88556250D01*
X116312500Y-88556250D02*
X116312500Y-89443750D01*
X115975000Y-90463648D02*
X115975000Y-90800000D01*
X116312500Y-89648851D02*
X116312500Y-89443750D01*
X116456250Y-86143750D02*
X116582500Y-86017500D01*
X116659748Y-86035000D02*
X117870000Y-86035000D01*
X116312500Y-89648851D02*
G75*
G02*
X116143735Y-90056235I-576200J51D01*
G01*
X116143750Y-90056250D02*
G75*
G03*
X115975020Y-90463648I407350J-407350D01*
G01*
X116617500Y-86017500D02*
G75*
G03*
X116582500Y-86017500I-17500J-17499D01*
G01*
X116617500Y-86017500D02*
G75*
G03*
X116659748Y-86035021I42300J42300D01*
G01*
X116456250Y-86143750D02*
G75*
G03*
X116312497Y-86490793I347050J-347050D01*
G01*
D26*
%TO.N,+12V*%
X100687500Y-91412500D02*
X100671015Y-91396015D01*
X127512500Y-78325000D02*
X124475000Y-75287500D01*
X129739339Y-85460659D02*
X128094974Y-87105025D01*
X126376776Y-87600000D02*
X126900000Y-87600000D01*
X125950000Y-88026776D02*
X125950000Y-91800000D01*
X124475000Y-75287500D02*
X121675000Y-75287500D01*
X128129289Y-89529289D02*
X126400000Y-87800000D01*
X125950000Y-91800000D02*
X128487500Y-91800000D01*
X119900000Y-89700000D02*
X118637500Y-90962500D01*
X114865291Y-92525000D02*
X103373312Y-92525000D01*
X99656250Y-86743750D02*
X99737500Y-86662500D01*
X123375735Y-89400000D02*
X120624264Y-89400000D01*
X98500000Y-85364860D02*
X98500000Y-83400000D01*
X99575000Y-87012500D02*
X99575000Y-87387500D01*
X99575000Y-88750000D02*
X99575000Y-87387500D01*
X119227499Y-83867500D02*
X119203248Y-83843249D01*
X99575000Y-86939904D02*
X99575000Y-87012500D01*
X125950000Y-91800000D02*
X124741421Y-91800000D01*
X118362499Y-83495000D02*
X117870000Y-83495000D01*
X124400000Y-91458578D02*
X124400000Y-90424264D01*
X119600000Y-88375735D02*
X119600000Y-84766796D01*
X127512500Y-78325000D02*
X129330545Y-78325000D01*
X130800000Y-81400000D02*
X130800000Y-82900000D01*
X128300000Y-89600000D02*
X128400000Y-89600000D01*
X99442417Y-87067417D02*
X99037500Y-86662500D01*
X129800000Y-78600000D02*
X129662500Y-78462500D01*
X118637500Y-90962500D02*
G75*
G02*
X114865291Y-92524996I-3772200J3772200D01*
G01*
X119600000Y-88375735D02*
G75*
G03*
X119900011Y-89099989I1024300J35D01*
G01*
X124100000Y-89700000D02*
G75*
G02*
X124400015Y-90424264I-724300J-724300D01*
G01*
X130800000Y-82900000D02*
G75*
G02*
X129739336Y-85460656I-3621300J0D01*
G01*
X99575000Y-87387500D02*
G75*
G03*
X99442424Y-87067410I-452700J0D01*
G01*
X128094974Y-87105025D02*
G75*
G02*
X126900000Y-87599985I-1194974J1195025D01*
G01*
X126075000Y-87725000D02*
G75*
G03*
X125949990Y-88026776I301800J-301800D01*
G01*
X119227499Y-83867500D02*
G75*
G02*
X119600002Y-84766796I-899299J-899300D01*
G01*
X128129289Y-89529289D02*
G75*
G03*
X128300000Y-89600006I170711J170689D01*
G01*
X124500000Y-91700000D02*
G75*
G03*
X124741421Y-91799991I241400J241400D01*
G01*
X99575000Y-88750000D02*
G75*
G03*
X100671021Y-91396009I3742000J0D01*
G01*
X99656250Y-86743750D02*
G75*
G03*
X99575002Y-86939904I196150J-196150D01*
G01*
X119900000Y-89100000D02*
G75*
G03*
X120624264Y-89400015I724300J724300D01*
G01*
X99442417Y-87067417D02*
G75*
G03*
X99574940Y-87012500I54883J54917D01*
G01*
X126376776Y-87600000D02*
G75*
G03*
X126075007Y-87725007I24J-426800D01*
G01*
X124100000Y-89700000D02*
G75*
G03*
X123375735Y-89399985I-724300J-724300D01*
G01*
X98500000Y-85364860D02*
G75*
G03*
X99037488Y-86662512I1835100J-40D01*
G01*
X120624264Y-89400000D02*
G75*
G03*
X119900011Y-89700011I36J-1024300D01*
G01*
X129662500Y-78462500D02*
G75*
G03*
X129330545Y-78324981I-332000J-332000D01*
G01*
X124400000Y-91458578D02*
G75*
G03*
X124499994Y-91700006I341400J-22D01*
G01*
X119900000Y-89700000D02*
G75*
G03*
X119900000Y-89100000I-300000J300000D01*
G01*
X119203248Y-83843249D02*
G75*
G03*
X118362499Y-83495001I-840748J-840751D01*
G01*
X100687500Y-91412500D02*
G75*
G03*
X103373312Y-92524995I2685800J2685800D01*
G01*
D25*
%TO.N,minitel_sync_in*%
X106400000Y-81200000D02*
X107687500Y-81200000D01*
X113546036Y-78800000D02*
X107400000Y-78800000D01*
X127610050Y-85200000D02*
X122989949Y-85200000D01*
X105512500Y-81400000D02*
X105312500Y-81600000D01*
X121300000Y-84500000D02*
X120670710Y-83870710D01*
X130000000Y-82810050D02*
X130000000Y-81282842D01*
X106400000Y-81200000D02*
X105995342Y-81200000D01*
X133118154Y-81255000D02*
X134025000Y-81255000D01*
X120529299Y-83529299D02*
X117393792Y-80393792D01*
X131536845Y-80600000D02*
X130682842Y-80600000D01*
X130000000Y-82810050D02*
G75*
G02*
X129299985Y-84499985I-2390000J50D01*
G01*
X132327500Y-80927500D02*
G75*
G03*
X133118154Y-81255019I790700J790700D01*
G01*
X120529299Y-83529299D02*
G75*
G02*
X120600006Y-83700000I-170699J-170701D01*
G01*
X132327500Y-80927500D02*
G75*
G03*
X131536845Y-80599981I-790700J-790700D01*
G01*
X130682842Y-80600000D02*
G75*
G03*
X130199987Y-80799987I-42J-682800D01*
G01*
X105995342Y-81200000D02*
G75*
G03*
X105512487Y-81399987I-42J-682800D01*
G01*
X117393792Y-80393792D02*
G75*
G03*
X113546036Y-78799989I-3847792J-3847808D01*
G01*
X120600000Y-83700000D02*
G75*
G03*
X120670714Y-83870706I241400J0D01*
G01*
X121300000Y-84500000D02*
G75*
G03*
X122989949Y-85200021I1690000J1690000D01*
G01*
X130200000Y-80800000D02*
G75*
G03*
X130000018Y-81282842I482800J-482800D01*
G01*
X129300000Y-84500000D02*
G75*
G02*
X127610050Y-85200021I-1690000J1690000D01*
G01*
%TO.N,minitel_video_in*%
X128475000Y-80662500D02*
X128475000Y-80200000D01*
X131424264Y-76975735D02*
X131612500Y-76787500D01*
X134025000Y-76175000D02*
X129000000Y-76175000D01*
X134025000Y-76175000D02*
X133091205Y-76175000D01*
X128937500Y-80200000D02*
X128475000Y-80200000D01*
X129727036Y-79872962D02*
X130575735Y-79024264D01*
X128147962Y-81452036D02*
X127525758Y-82074241D01*
X127493750Y-82087500D02*
X127475000Y-82087500D01*
X129727036Y-79872962D02*
G75*
G02*
X128937500Y-80199991I-789536J789562D01*
G01*
X133091205Y-76175000D02*
G75*
G03*
X131612498Y-76787498I-5J-2091200D01*
G01*
X128475000Y-80662500D02*
G75*
G02*
X128147968Y-81452042I-1116600J0D01*
G01*
X131000000Y-78000000D02*
G75*
G02*
X130575730Y-79024259I-1448500J0D01*
G01*
X127525758Y-82074241D02*
G75*
G02*
X127493750Y-82087525I-32058J32041D01*
G01*
X131424264Y-76975735D02*
G75*
G03*
X130999991Y-78000000I1024236J-1024265D01*
G01*
%TO.N,Net-(Q1-C)*%
X126587500Y-79871875D02*
X126587500Y-80537500D01*
X124468370Y-77105870D02*
X124018750Y-76656250D01*
X97600000Y-76000000D02*
X97700000Y-75900000D01*
X118600000Y-76000000D02*
X118800000Y-76200000D01*
X124468370Y-77119129D02*
X123638648Y-77948851D01*
X97400000Y-78200000D02*
X98093750Y-78893750D01*
X124465625Y-77112500D02*
X124137500Y-77112500D01*
X124500379Y-77119129D02*
X126116832Y-78735582D01*
X99400000Y-83033102D02*
X99400000Y-85030394D01*
X122917265Y-76200000D02*
X118800000Y-76200000D01*
X98787500Y-81554397D02*
X98787500Y-80568610D01*
X97941421Y-75800000D02*
X118117157Y-75800000D01*
X123400000Y-78525000D02*
X123400000Y-78862500D01*
X124484375Y-77112500D02*
G75*
G03*
X124468390Y-77119149I25J-22600D01*
G01*
X98093750Y-78893750D02*
G75*
G02*
X98787496Y-80568610I-1674850J-1674850D01*
G01*
X124468370Y-77119129D02*
G75*
G03*
X124465625Y-77112512I-2770J2729D01*
G01*
X123638648Y-77948851D02*
G75*
G03*
X123400000Y-78525000I576152J-576149D01*
G01*
X124465625Y-77112500D02*
G75*
G03*
X124468378Y-77105862I-25J3900D01*
G01*
X118600000Y-76000000D02*
G75*
G03*
X118117157Y-75800018I-482800J-482800D01*
G01*
X124500379Y-77119129D02*
G75*
G03*
X124484375Y-77112508I-15979J-15971D01*
G01*
X97941421Y-75800000D02*
G75*
G03*
X97699994Y-75899994I-21J-341400D01*
G01*
X126116832Y-78735582D02*
G75*
G02*
X126587506Y-79871875I-1136332J-1136318D01*
G01*
X98787500Y-81554397D02*
G75*
G03*
X99093749Y-82293751I1045600J-3D01*
G01*
X124018750Y-76656250D02*
G75*
G03*
X122917265Y-76200014I-1101450J-1101450D01*
G01*
X124468370Y-77105870D02*
G75*
G03*
X124484375Y-77112527I16030J15970D01*
G01*
X99093750Y-82293750D02*
G75*
G02*
X99399999Y-83033102I-739350J-739350D01*
G01*
%TO.N,Net-(Q1-B)*%
X103487500Y-86000000D02*
X103487500Y-83600000D01*
X100400000Y-85492893D02*
X100400000Y-83400000D01*
X103487500Y-86000000D02*
X102601278Y-86886221D01*
X100900000Y-86700000D02*
X101086221Y-86886221D01*
X101086221Y-86886221D02*
G75*
G03*
X101843750Y-87200037I757579J757521D01*
G01*
X102601278Y-86886221D02*
G75*
G02*
X101843750Y-87200037I-757578J757521D01*
G01*
X100400000Y-85492893D02*
G75*
G03*
X100899998Y-86700002I1707100J-7D01*
G01*
%TO.N,Net-(Q3-E)*%
X124331250Y-82981250D02*
X124312500Y-83000000D01*
X124350000Y-82935983D02*
X124350000Y-80737500D01*
X124350000Y-82935983D02*
G75*
G02*
X124331255Y-82981255I-64000J-17D01*
G01*
D26*
%TO.N,+15V*%
X133367763Y-91800000D02*
X130312500Y-91800000D01*
X133832500Y-91607500D02*
X134025000Y-91415000D01*
X133832500Y-91607500D02*
G75*
G02*
X133367763Y-91799985I-464700J464700D01*
G01*
D25*
%TO.N,Net-(D2-K)*%
X112930000Y-83495000D02*
X112930000Y-81421923D01*
X112865000Y-81265000D02*
X112800000Y-81200000D01*
X112865000Y-81265000D02*
G75*
G02*
X112929990Y-81421923I-156900J-156900D01*
G01*
%TD*%
%TA.AperFunction,Conductor*%
%TO.N,GND*%
G36*
X96897308Y-77730185D02*
G01*
X96943063Y-77782989D01*
X96953007Y-77852147D01*
X96928646Y-77909985D01*
X96919138Y-77922375D01*
X96919138Y-77922376D01*
X96863671Y-78056287D01*
X96863670Y-78056291D01*
X96851373Y-78149698D01*
X96844750Y-78200000D01*
X96853132Y-78263670D01*
X96863670Y-78343708D01*
X96863671Y-78343712D01*
X96919137Y-78477622D01*
X96919138Y-78477624D01*
X96919139Y-78477625D01*
X97007379Y-78592621D01*
X97122375Y-78680861D01*
X97256291Y-78736330D01*
X97386151Y-78753426D01*
X97450047Y-78781692D01*
X97457646Y-78788684D01*
X97825762Y-79156800D01*
X97830541Y-79161854D01*
X97972525Y-79320735D01*
X97981195Y-79331607D01*
X98102473Y-79502533D01*
X98109871Y-79514307D01*
X98211250Y-79697738D01*
X98217283Y-79710267D01*
X98297485Y-79903893D01*
X98302078Y-79917018D01*
X98360097Y-80118409D01*
X98363191Y-80131965D01*
X98398297Y-80338585D01*
X98399854Y-80352404D01*
X98411805Y-80565225D01*
X98412000Y-80572177D01*
X98412000Y-81612458D01*
X98412002Y-81612487D01*
X98412002Y-81647540D01*
X98436315Y-81832223D01*
X98436316Y-81832228D01*
X98436317Y-81832234D01*
X98483291Y-82007544D01*
X98484532Y-82012174D01*
X98484537Y-82012190D01*
X98555815Y-82184271D01*
X98555826Y-82184293D01*
X98579906Y-82226001D01*
X98596379Y-82293901D01*
X98573526Y-82359928D01*
X98518605Y-82403118D01*
X98472520Y-82412000D01*
X98318482Y-82412000D01*
X98237519Y-82424823D01*
X98224696Y-82426854D01*
X98111658Y-82484450D01*
X98111657Y-82484451D01*
X98111652Y-82484454D01*
X98021954Y-82574152D01*
X98021951Y-82574157D01*
X98021950Y-82574158D01*
X98004271Y-82608854D01*
X97964352Y-82687198D01*
X97949500Y-82780975D01*
X97949500Y-84019017D01*
X97957767Y-84071211D01*
X97964354Y-84112804D01*
X98021950Y-84225842D01*
X98021951Y-84225843D01*
X98021953Y-84225846D01*
X98038179Y-84242071D01*
X98071666Y-84303393D01*
X98074500Y-84329754D01*
X98074500Y-85428616D01*
X98074514Y-85428851D01*
X98074514Y-85466210D01*
X98074514Y-85491806D01*
X98100724Y-85724455D01*
X98102940Y-85744127D01*
X98102942Y-85744136D01*
X98159433Y-85991659D01*
X98159434Y-85991663D01*
X98159435Y-85991665D01*
X98165769Y-86009768D01*
X98243291Y-86231325D01*
X98243295Y-86231334D01*
X98353455Y-86460087D01*
X98353457Y-86460091D01*
X98353459Y-86460094D01*
X98402462Y-86538083D01*
X98488542Y-86675081D01*
X98488556Y-86675101D01*
X98646849Y-86873596D01*
X98689944Y-86916691D01*
X98689947Y-86916695D01*
X98775681Y-87002429D01*
X98809166Y-87063752D01*
X98812000Y-87090110D01*
X98812000Y-87697870D01*
X98812001Y-87697876D01*
X98818408Y-87757483D01*
X98868702Y-87892328D01*
X98868706Y-87892335D01*
X98954952Y-88007544D01*
X98954955Y-88007547D01*
X99065364Y-88090199D01*
X99070169Y-88093796D01*
X99070171Y-88093796D01*
X99077952Y-88098046D01*
X99077145Y-88099522D01*
X99124760Y-88135159D01*
X99149183Y-88200621D01*
X99149500Y-88209479D01*
X99149500Y-88698629D01*
X99149491Y-88698659D01*
X99149491Y-88931960D01*
X99181209Y-89294494D01*
X99244402Y-89652874D01*
X99244403Y-89652881D01*
X99260442Y-89712738D01*
X99338593Y-90004397D01*
X99338594Y-90004399D01*
X99338594Y-90004400D01*
X99341888Y-90013449D01*
X99456510Y-90328372D01*
X99463061Y-90346369D01*
X99463062Y-90346372D01*
X99527906Y-90485427D01*
X99610839Y-90663276D01*
X99616863Y-90676193D01*
X99616864Y-90676195D01*
X99735037Y-90880875D01*
X99797344Y-90988794D01*
X99798826Y-90991360D01*
X100007546Y-91289439D01*
X100007549Y-91289443D01*
X100007555Y-91289451D01*
X100119957Y-91423405D01*
X100241464Y-91568211D01*
X100241470Y-91568218D01*
X100241478Y-91568227D01*
X100241485Y-91568234D01*
X100241486Y-91568235D01*
X100343352Y-91670101D01*
X100343367Y-91670115D01*
X100350303Y-91677051D01*
X100350312Y-91677068D01*
X100386622Y-91713377D01*
X100386622Y-91713378D01*
X100517024Y-91843779D01*
X100518259Y-91844815D01*
X100799564Y-92080859D01*
X101101677Y-92292401D01*
X101101684Y-92292405D01*
X101101695Y-92292413D01*
X101374599Y-92449973D01*
X101406018Y-92468113D01*
X101454233Y-92518680D01*
X101467457Y-92587287D01*
X101441489Y-92652152D01*
X101384575Y-92692680D01*
X101344018Y-92699500D01*
X97272899Y-92699500D01*
X97205860Y-92679815D01*
X97160105Y-92627011D01*
X97150161Y-92557853D01*
X97179186Y-92494297D01*
X97216729Y-92465311D01*
X97216696Y-92465254D01*
X97217121Y-92465008D01*
X97218052Y-92464290D01*
X97220203Y-92463228D01*
X97220204Y-92463227D01*
X97220212Y-92463224D01*
X97430289Y-92341936D01*
X97622738Y-92194265D01*
X97794265Y-92022738D01*
X97941936Y-91830289D01*
X98063224Y-91620212D01*
X98156054Y-91396100D01*
X98218838Y-91161789D01*
X98250500Y-90921288D01*
X98250500Y-90678712D01*
X98249408Y-90670421D01*
X98229576Y-90519774D01*
X98218838Y-90438211D01*
X98156054Y-90203900D01*
X98155105Y-90201610D01*
X98129922Y-90140811D01*
X98063224Y-89979788D01*
X97941936Y-89769711D01*
X97828380Y-89621722D01*
X97794266Y-89577263D01*
X97794260Y-89577256D01*
X97622743Y-89405739D01*
X97622736Y-89405733D01*
X97430293Y-89258067D01*
X97430292Y-89258066D01*
X97430289Y-89258064D01*
X97220212Y-89136776D01*
X97201705Y-89129110D01*
X96996104Y-89043947D01*
X96829536Y-88999315D01*
X96761789Y-88981162D01*
X96761788Y-88981161D01*
X96761785Y-88981161D01*
X96521289Y-88949500D01*
X96521288Y-88949500D01*
X96278712Y-88949500D01*
X96278711Y-88949500D01*
X96038214Y-88981161D01*
X95803895Y-89043947D01*
X95579794Y-89136773D01*
X95579785Y-89136777D01*
X95369706Y-89258067D01*
X95177263Y-89405733D01*
X95177256Y-89405739D01*
X95005739Y-89577256D01*
X95005733Y-89577263D01*
X94858067Y-89769706D01*
X94736775Y-89979788D01*
X94735707Y-89981955D01*
X94735218Y-89982486D01*
X94734746Y-89983304D01*
X94734562Y-89983198D01*
X94688396Y-90033370D01*
X94620799Y-90051045D01*
X94554377Y-90029368D01*
X94510218Y-89975222D01*
X94500500Y-89927100D01*
X94500500Y-86062075D01*
X95491476Y-86062075D01*
X95615462Y-86128348D01*
X95803969Y-86185531D01*
X95803965Y-86185531D01*
X96000000Y-86204838D01*
X96196032Y-86185531D01*
X96384537Y-86128348D01*
X96508523Y-86062076D01*
X96508523Y-86062075D01*
X96000001Y-85553553D01*
X96000000Y-85553553D01*
X95491476Y-86062075D01*
X94500500Y-86062075D01*
X94500500Y-85200000D01*
X94995161Y-85200000D01*
X95014468Y-85396032D01*
X95071651Y-85584539D01*
X95137922Y-85708523D01*
X95137923Y-85708523D01*
X95646446Y-85200000D01*
X95646446Y-85199999D01*
X95596719Y-85150272D01*
X95750000Y-85150272D01*
X95750000Y-85249728D01*
X95788060Y-85341614D01*
X95858386Y-85411940D01*
X95950272Y-85450000D01*
X96049728Y-85450000D01*
X96141614Y-85411940D01*
X96211940Y-85341614D01*
X96250000Y-85249728D01*
X96250000Y-85199999D01*
X96353553Y-85199999D01*
X96353553Y-85200000D01*
X96862075Y-85708523D01*
X96862076Y-85708523D01*
X96928348Y-85584537D01*
X96985531Y-85396032D01*
X97004838Y-85200000D01*
X96985531Y-85003967D01*
X96928348Y-84815462D01*
X96862075Y-84691476D01*
X96353553Y-85199999D01*
X96250000Y-85199999D01*
X96250000Y-85150272D01*
X96211940Y-85058386D01*
X96141614Y-84988060D01*
X96049728Y-84950000D01*
X95950272Y-84950000D01*
X95858386Y-84988060D01*
X95788060Y-85058386D01*
X95750000Y-85150272D01*
X95596719Y-85150272D01*
X95137923Y-84691476D01*
X95071649Y-84815466D01*
X95014468Y-85003967D01*
X94995161Y-85200000D01*
X94500500Y-85200000D01*
X94500500Y-84337923D01*
X95491476Y-84337923D01*
X96000000Y-84846446D01*
X96000001Y-84846446D01*
X96508523Y-84337923D01*
X96508523Y-84337922D01*
X96384539Y-84271651D01*
X96196030Y-84214468D01*
X96196034Y-84214468D01*
X96000000Y-84195161D01*
X95803967Y-84214468D01*
X95615466Y-84271649D01*
X95491476Y-84337923D01*
X94500500Y-84337923D01*
X94500500Y-81349000D01*
X94520185Y-81281961D01*
X94572989Y-81236206D01*
X94624500Y-81225000D01*
X95125000Y-81225000D01*
X95125000Y-80308012D01*
X95182007Y-80340925D01*
X95309174Y-80375000D01*
X95440826Y-80375000D01*
X95567993Y-80340925D01*
X95625000Y-80308012D01*
X95625000Y-81225000D01*
X96272828Y-81225000D01*
X96272844Y-81224999D01*
X96332372Y-81218598D01*
X96332379Y-81218596D01*
X96467086Y-81168354D01*
X96467093Y-81168350D01*
X96582187Y-81082190D01*
X96582190Y-81082187D01*
X96668350Y-80967093D01*
X96668354Y-80967086D01*
X96718596Y-80832379D01*
X96718598Y-80832372D01*
X96724999Y-80772844D01*
X96725000Y-80772827D01*
X96725000Y-80125000D01*
X95808012Y-80125000D01*
X95840925Y-80067993D01*
X95875000Y-79940826D01*
X95875000Y-79809174D01*
X95840925Y-79682007D01*
X95808012Y-79625000D01*
X96725000Y-79625000D01*
X96725000Y-78977172D01*
X96724999Y-78977155D01*
X96718598Y-78917627D01*
X96718596Y-78917620D01*
X96668354Y-78782913D01*
X96668350Y-78782906D01*
X96582190Y-78667812D01*
X96582187Y-78667809D01*
X96467093Y-78581649D01*
X96467086Y-78581645D01*
X96332379Y-78531403D01*
X96332372Y-78531401D01*
X96272844Y-78525000D01*
X95979388Y-78525000D01*
X95912349Y-78505315D01*
X95866594Y-78452511D01*
X95856650Y-78383353D01*
X95885675Y-78319797D01*
X95914111Y-78295573D01*
X96041039Y-78216982D01*
X96041038Y-78216982D01*
X96041041Y-78216981D01*
X96191764Y-78079579D01*
X96314673Y-77916821D01*
X96383186Y-77779226D01*
X96430687Y-77727992D01*
X96494185Y-77710500D01*
X96830269Y-77710500D01*
X96897308Y-77730185D01*
G37*
%TD.AperFunction*%
%TA.AperFunction,Conductor*%
G36*
X123381778Y-89826097D02*
G01*
X123402508Y-89828139D01*
X123480386Y-89835812D01*
X123504217Y-89840553D01*
X123593177Y-89867540D01*
X123615626Y-89876839D01*
X123697610Y-89920662D01*
X123717821Y-89934167D01*
X123789727Y-89993179D01*
X123806914Y-90010366D01*
X123865843Y-90082169D01*
X123879349Y-90102381D01*
X123923171Y-90184364D01*
X123932473Y-90206820D01*
X123959459Y-90295774D01*
X123964201Y-90319614D01*
X123973902Y-90418076D01*
X123974500Y-90430234D01*
X123974500Y-91522547D01*
X123974504Y-91522620D01*
X123974504Y-91534095D01*
X124003969Y-91682256D01*
X124003971Y-91682265D01*
X124061783Y-91821848D01*
X124145708Y-91947454D01*
X124145712Y-91947459D01*
X124148796Y-91950543D01*
X124148799Y-91950547D01*
X124162801Y-91964549D01*
X124162815Y-91964575D01*
X124252534Y-92054294D01*
X124252539Y-92054298D01*
X124378144Y-92138223D01*
X124378149Y-92138225D01*
X124378152Y-92138227D01*
X124517732Y-92196037D01*
X124616993Y-92215776D01*
X124665902Y-92225503D01*
X124665903Y-92225503D01*
X124665908Y-92225504D01*
X124741444Y-92225500D01*
X124741448Y-92225500D01*
X124925501Y-92225500D01*
X124992540Y-92245185D01*
X125038295Y-92297989D01*
X125049501Y-92349500D01*
X125049501Y-92447876D01*
X125055909Y-92507485D01*
X125065115Y-92532168D01*
X125070099Y-92601860D01*
X125036613Y-92663182D01*
X124975289Y-92696667D01*
X124948933Y-92699500D01*
X123711434Y-92699500D01*
X123644395Y-92679815D01*
X123598640Y-92627011D01*
X123588924Y-92559441D01*
X123588818Y-92559431D01*
X123588861Y-92559004D01*
X123588696Y-92557853D01*
X123589357Y-92554151D01*
X123599999Y-92449986D01*
X123600000Y-92449973D01*
X123600000Y-92050000D01*
X121300001Y-92050000D01*
X121300001Y-92449986D01*
X121311182Y-92559431D01*
X121309063Y-92559647D01*
X121304601Y-92619224D01*
X121262542Y-92675016D01*
X121196996Y-92699213D01*
X121188566Y-92699500D01*
X117240420Y-92699500D01*
X117173381Y-92679815D01*
X117127626Y-92627011D01*
X117117682Y-92557853D01*
X117146707Y-92494297D01*
X117192965Y-92460940D01*
X117278719Y-92425420D01*
X117682023Y-92219927D01*
X117721010Y-92196036D01*
X117815345Y-92138227D01*
X118067960Y-91983424D01*
X118434153Y-91717370D01*
X118778342Y-91423405D01*
X118938374Y-91263374D01*
X118981633Y-91220115D01*
X119051735Y-91150013D01*
X121300000Y-91150013D01*
X121300000Y-91550000D01*
X122200000Y-91550000D01*
X122700000Y-91550000D01*
X123599999Y-91550000D01*
X123599999Y-91150028D01*
X123599998Y-91150013D01*
X123589505Y-91047302D01*
X123534358Y-90880880D01*
X123534356Y-90880875D01*
X123442315Y-90731654D01*
X123318345Y-90607684D01*
X123169124Y-90515643D01*
X123169119Y-90515641D01*
X123002697Y-90460494D01*
X123002690Y-90460493D01*
X122899986Y-90450000D01*
X122700000Y-90450000D01*
X122700000Y-91550000D01*
X122200000Y-91550000D01*
X122200000Y-90450000D01*
X122000029Y-90450000D01*
X122000012Y-90450001D01*
X121897302Y-90460494D01*
X121730880Y-90515641D01*
X121730875Y-90515643D01*
X121581654Y-90607684D01*
X121457684Y-90731654D01*
X121365643Y-90880875D01*
X121365641Y-90880880D01*
X121310494Y-91047302D01*
X121310493Y-91047309D01*
X121300000Y-91150013D01*
X119051735Y-91150013D01*
X120196567Y-90005180D01*
X120205558Y-89997031D01*
X120282174Y-89934152D01*
X120302375Y-89920653D01*
X120384370Y-89876825D01*
X120406812Y-89867529D01*
X120495781Y-89840538D01*
X120519608Y-89835798D01*
X120618079Y-89826096D01*
X120630232Y-89825500D01*
X120685427Y-89825503D01*
X120685431Y-89825501D01*
X120694453Y-89825502D01*
X120694494Y-89825500D01*
X123369621Y-89825500D01*
X123381778Y-89826097D01*
G37*
%TD.AperFunction*%
%TA.AperFunction,Conductor*%
G36*
X131542879Y-80976096D02*
G01*
X131669569Y-80988578D01*
X131693397Y-80993318D01*
X131729828Y-81004371D01*
X131809348Y-81028495D01*
X131831804Y-81037797D01*
X131938660Y-81094916D01*
X131958859Y-81108412D01*
X132057415Y-81189296D01*
X132066422Y-81197460D01*
X132106537Y-81237574D01*
X132106726Y-81237737D01*
X132131216Y-81262227D01*
X132131224Y-81262234D01*
X132271255Y-81369685D01*
X132286551Y-81381422D01*
X132286556Y-81381425D01*
X132286564Y-81381430D01*
X132456103Y-81479317D01*
X132456110Y-81479320D01*
X132456113Y-81479322D01*
X132456118Y-81479324D01*
X132456120Y-81479325D01*
X132516409Y-81504299D01*
X132637002Y-81554253D01*
X132743049Y-81582671D01*
X132822040Y-81603839D01*
X132826123Y-81604933D01*
X132914543Y-81616576D01*
X132978437Y-81644845D01*
X133009353Y-81684244D01*
X133029896Y-81725500D01*
X133085327Y-81836821D01*
X133127244Y-81892328D01*
X133208237Y-81999581D01*
X133358958Y-82136980D01*
X133358960Y-82136982D01*
X133435371Y-82184293D01*
X133532363Y-82244348D01*
X133613283Y-82275696D01*
X133668685Y-82318269D01*
X133692276Y-82384035D01*
X133676565Y-82452116D01*
X133626542Y-82500895D01*
X133600586Y-82511097D01*
X133561519Y-82521565D01*
X133561507Y-82521570D01*
X133347422Y-82621399D01*
X133347420Y-82621400D01*
X133153926Y-82756886D01*
X133153920Y-82756891D01*
X132986891Y-82923920D01*
X132986886Y-82923926D01*
X132851400Y-83117420D01*
X132851399Y-83117422D01*
X132751570Y-83331507D01*
X132751567Y-83331513D01*
X132694364Y-83544999D01*
X132694364Y-83545000D01*
X133591988Y-83545000D01*
X133559075Y-83602007D01*
X133525000Y-83729174D01*
X133525000Y-83860826D01*
X133559075Y-83987993D01*
X133591988Y-84045000D01*
X132694364Y-84045000D01*
X132751567Y-84258486D01*
X132751570Y-84258492D01*
X132851399Y-84472578D01*
X132986894Y-84666082D01*
X133153917Y-84833105D01*
X133347421Y-84968600D01*
X133561507Y-85068429D01*
X133561516Y-85068433D01*
X133600583Y-85078901D01*
X133660244Y-85115266D01*
X133690773Y-85178113D01*
X133682479Y-85247488D01*
X133637993Y-85301366D01*
X133613284Y-85314302D01*
X133532373Y-85345647D01*
X133532357Y-85345655D01*
X133358960Y-85453017D01*
X133358958Y-85453019D01*
X133208237Y-85590418D01*
X133085327Y-85753178D01*
X132994422Y-85935739D01*
X132994417Y-85935752D01*
X132938602Y-86131917D01*
X132919785Y-86334999D01*
X132919785Y-86335000D01*
X132938602Y-86538082D01*
X132994417Y-86734247D01*
X132994422Y-86734260D01*
X133085327Y-86916821D01*
X133208237Y-87079581D01*
X133358958Y-87216980D01*
X133358960Y-87216982D01*
X133458141Y-87278392D01*
X133532363Y-87324348D01*
X133722544Y-87398024D01*
X133923024Y-87435500D01*
X133923026Y-87435500D01*
X134126974Y-87435500D01*
X134126976Y-87435500D01*
X134327456Y-87398024D01*
X134517637Y-87324348D01*
X134691041Y-87216981D01*
X134691955Y-87216147D01*
X134692491Y-87215886D01*
X134695615Y-87213527D01*
X134696076Y-87214137D01*
X134754756Y-87185525D01*
X134824144Y-87193718D01*
X134878087Y-87238123D01*
X134899460Y-87304643D01*
X134899500Y-87307778D01*
X134899500Y-87902221D01*
X134879815Y-87969260D01*
X134827011Y-88015015D01*
X134757853Y-88024959D01*
X134694297Y-87995934D01*
X134691964Y-87993860D01*
X134691041Y-87993019D01*
X134691039Y-87993017D01*
X134517642Y-87885655D01*
X134517635Y-87885651D01*
X134384864Y-87834216D01*
X134327456Y-87811976D01*
X134126976Y-87774500D01*
X133923024Y-87774500D01*
X133722544Y-87811976D01*
X133722541Y-87811976D01*
X133722541Y-87811977D01*
X133532364Y-87885651D01*
X133532357Y-87885655D01*
X133358960Y-87993017D01*
X133358958Y-87993019D01*
X133208237Y-88130418D01*
X133085327Y-88293178D01*
X132994422Y-88475739D01*
X132994417Y-88475752D01*
X132938602Y-88671917D01*
X132919785Y-88874999D01*
X132919785Y-88875000D01*
X132938602Y-89078082D01*
X132994417Y-89274247D01*
X132994422Y-89274260D01*
X133085327Y-89456821D01*
X133208237Y-89619581D01*
X133358958Y-89756980D01*
X133358960Y-89756982D01*
X133398843Y-89781676D01*
X133532363Y-89864348D01*
X133722544Y-89938024D01*
X133923024Y-89975500D01*
X133923026Y-89975500D01*
X134126974Y-89975500D01*
X134126976Y-89975500D01*
X134327456Y-89938024D01*
X134517637Y-89864348D01*
X134691041Y-89756981D01*
X134691955Y-89756147D01*
X134692491Y-89755886D01*
X134695615Y-89753527D01*
X134696076Y-89754137D01*
X134754756Y-89725525D01*
X134824144Y-89733718D01*
X134878087Y-89778123D01*
X134899460Y-89844643D01*
X134899500Y-89847778D01*
X134899500Y-90442221D01*
X134879815Y-90509260D01*
X134827011Y-90555015D01*
X134757853Y-90564959D01*
X134694297Y-90535934D01*
X134691964Y-90533860D01*
X134691041Y-90533019D01*
X134691039Y-90533017D01*
X134517642Y-90425655D01*
X134517635Y-90425651D01*
X134422546Y-90388814D01*
X134327456Y-90351976D01*
X134126976Y-90314500D01*
X133923024Y-90314500D01*
X133722544Y-90351976D01*
X133722541Y-90351976D01*
X133722541Y-90351977D01*
X133532364Y-90425651D01*
X133532357Y-90425655D01*
X133358960Y-90533017D01*
X133358958Y-90533019D01*
X133208237Y-90670418D01*
X133085327Y-90833178D01*
X132994422Y-91015739D01*
X132994417Y-91015752D01*
X132938603Y-91211917D01*
X132933968Y-91261941D01*
X132908182Y-91326878D01*
X132851382Y-91367566D01*
X132810497Y-91374500D01*
X131194664Y-91374500D01*
X131127625Y-91354815D01*
X131081870Y-91302011D01*
X131071374Y-91263754D01*
X131069895Y-91250000D01*
X131069091Y-91242517D01*
X131020304Y-91111711D01*
X131018797Y-91107671D01*
X131018793Y-91107664D01*
X130932547Y-90992455D01*
X130932544Y-90992452D01*
X130817335Y-90906206D01*
X130817328Y-90906202D01*
X130682486Y-90855910D01*
X130682485Y-90855909D01*
X130682483Y-90855909D01*
X130622873Y-90849500D01*
X130622863Y-90849500D01*
X130002129Y-90849500D01*
X130002123Y-90849501D01*
X129942516Y-90855908D01*
X129807671Y-90906202D01*
X129807664Y-90906206D01*
X129692455Y-90992452D01*
X129692452Y-90992455D01*
X129606206Y-91107664D01*
X129606202Y-91107671D01*
X129555908Y-91242517D01*
X129550863Y-91289451D01*
X129549501Y-91302123D01*
X129549500Y-91302135D01*
X129549500Y-92297870D01*
X129549501Y-92297876D01*
X129555908Y-92357483D01*
X129606202Y-92492328D01*
X129606206Y-92492334D01*
X129612835Y-92501190D01*
X129637252Y-92566654D01*
X129622400Y-92634927D01*
X129572995Y-92684332D01*
X129513568Y-92699500D01*
X129286432Y-92699500D01*
X129219393Y-92679815D01*
X129173638Y-92627011D01*
X129163694Y-92557853D01*
X129187165Y-92501190D01*
X129192324Y-92494297D01*
X129193796Y-92492331D01*
X129244091Y-92357483D01*
X129250500Y-92297873D01*
X129250499Y-91302128D01*
X129244091Y-91242517D01*
X129242702Y-91238794D01*
X129193797Y-91107671D01*
X129193793Y-91107664D01*
X129107547Y-90992455D01*
X129107544Y-90992452D01*
X128992335Y-90906206D01*
X128992328Y-90906202D01*
X128857486Y-90855910D01*
X128857485Y-90855909D01*
X128857483Y-90855909D01*
X128797873Y-90849500D01*
X128797863Y-90849500D01*
X128177129Y-90849500D01*
X128177123Y-90849501D01*
X128117516Y-90855908D01*
X127982671Y-90906202D01*
X127982664Y-90906206D01*
X127867455Y-90992452D01*
X127867452Y-90992455D01*
X127781206Y-91107664D01*
X127781202Y-91107671D01*
X127730908Y-91242516D01*
X127728625Y-91263757D01*
X127701886Y-91328308D01*
X127644493Y-91368155D01*
X127605336Y-91374500D01*
X126974499Y-91374500D01*
X126907460Y-91354815D01*
X126861705Y-91302011D01*
X126850499Y-91250500D01*
X126850499Y-91152129D01*
X126850498Y-91152123D01*
X126850271Y-91150013D01*
X126844091Y-91092517D01*
X126840320Y-91082407D01*
X126793797Y-90957671D01*
X126793793Y-90957664D01*
X126707547Y-90842455D01*
X126707544Y-90842452D01*
X126592335Y-90756206D01*
X126592330Y-90756203D01*
X126456166Y-90705417D01*
X126400233Y-90663545D01*
X126375816Y-90598081D01*
X126375500Y-90589235D01*
X126375500Y-88774499D01*
X126395185Y-88707460D01*
X126447989Y-88661705D01*
X126499500Y-88650499D01*
X126597389Y-88650499D01*
X126664428Y-88670184D01*
X126685070Y-88686818D01*
X127619974Y-89621722D01*
X127653459Y-89683045D01*
X127655513Y-89695519D01*
X127663685Y-89768053D01*
X127719544Y-89927692D01*
X127719547Y-89927697D01*
X127809518Y-90070884D01*
X127809523Y-90070890D01*
X127929109Y-90190476D01*
X127929115Y-90190481D01*
X128072302Y-90280452D01*
X128072305Y-90280454D01*
X128072309Y-90280455D01*
X128072310Y-90280456D01*
X128120365Y-90297271D01*
X128231943Y-90336314D01*
X128399997Y-90355249D01*
X128400000Y-90355249D01*
X128400003Y-90355249D01*
X128568056Y-90336314D01*
X128588307Y-90329228D01*
X128727690Y-90280456D01*
X128727692Y-90280454D01*
X128727694Y-90280454D01*
X128727697Y-90280452D01*
X128870884Y-90190481D01*
X128870885Y-90190480D01*
X128870890Y-90190477D01*
X128990477Y-90070890D01*
X129022444Y-90020015D01*
X129080452Y-89927697D01*
X129080454Y-89927694D01*
X129080454Y-89927692D01*
X129080456Y-89927690D01*
X129136313Y-89768059D01*
X129136313Y-89768058D01*
X129136314Y-89768056D01*
X129155249Y-89600002D01*
X129155249Y-89599997D01*
X129136314Y-89431943D01*
X129080454Y-89272305D01*
X129080452Y-89272302D01*
X128990481Y-89129115D01*
X128990476Y-89129109D01*
X128870890Y-89009523D01*
X128870884Y-89009518D01*
X128727697Y-88919547D01*
X128727694Y-88919545D01*
X128568056Y-88863685D01*
X128400003Y-88844751D01*
X128399997Y-88844751D01*
X128231945Y-88863685D01*
X128231941Y-88863686D01*
X128182136Y-88881114D01*
X128112357Y-88884675D01*
X128053501Y-88851753D01*
X127841459Y-88639711D01*
X127807974Y-88578388D01*
X127812958Y-88508696D01*
X127829870Y-88477724D01*
X127893796Y-88392331D01*
X127944091Y-88257483D01*
X127950500Y-88197873D01*
X127950499Y-87816891D01*
X127970183Y-87749853D01*
X128008530Y-87711897D01*
X128126061Y-87638051D01*
X128126064Y-87638048D01*
X128126070Y-87638045D01*
X128311835Y-87489907D01*
X128347862Y-87453880D01*
X128347881Y-87453865D01*
X128356235Y-87445510D01*
X128356237Y-87445510D01*
X128395842Y-87405905D01*
X128439102Y-87362647D01*
X128439102Y-87362644D01*
X128448000Y-87353748D01*
X128448009Y-87353736D01*
X128739670Y-87062075D01*
X130091476Y-87062075D01*
X130215462Y-87128348D01*
X130403969Y-87185531D01*
X130403965Y-87185531D01*
X130600000Y-87204838D01*
X130796032Y-87185531D01*
X130984537Y-87128348D01*
X131108523Y-87062076D01*
X131108523Y-87062075D01*
X130600001Y-86553553D01*
X130600000Y-86553553D01*
X130091476Y-87062075D01*
X128739670Y-87062075D01*
X129419598Y-86382147D01*
X129480917Y-86348665D01*
X129550608Y-86353649D01*
X129606542Y-86395521D01*
X129625936Y-86433835D01*
X129671652Y-86584540D01*
X129737922Y-86708523D01*
X130296173Y-86150272D01*
X130350000Y-86150272D01*
X130350000Y-86249728D01*
X130388060Y-86341614D01*
X130458386Y-86411940D01*
X130550272Y-86450000D01*
X130649728Y-86450000D01*
X130741614Y-86411940D01*
X130811940Y-86341614D01*
X130850000Y-86249728D01*
X130850000Y-86199999D01*
X130953553Y-86199999D01*
X130953553Y-86200000D01*
X131462076Y-86708523D01*
X131528348Y-86584537D01*
X131585531Y-86396032D01*
X131604838Y-86200000D01*
X131585531Y-86003967D01*
X131528348Y-85815462D01*
X131462075Y-85691476D01*
X130953553Y-86199999D01*
X130850000Y-86199999D01*
X130850000Y-86150272D01*
X130811940Y-86058386D01*
X130741614Y-85988060D01*
X130649728Y-85950000D01*
X130550272Y-85950000D01*
X130458386Y-85988060D01*
X130388060Y-86058386D01*
X130350000Y-86150272D01*
X130296173Y-86150272D01*
X131108523Y-85337922D01*
X130984539Y-85271651D01*
X130796032Y-85214468D01*
X130721779Y-85207155D01*
X130656992Y-85180994D01*
X130616634Y-85123959D01*
X130613517Y-85054159D01*
X130626545Y-85021755D01*
X130771670Y-84770393D01*
X130921014Y-84450126D01*
X131041876Y-84118061D01*
X131133337Y-83776726D01*
X131194701Y-83428719D01*
X131225500Y-83076688D01*
X131225500Y-82900000D01*
X131225500Y-82838822D01*
X131225500Y-81791864D01*
X131245185Y-81724825D01*
X131251114Y-81716390D01*
X131280861Y-81677625D01*
X131336330Y-81543709D01*
X131355250Y-81400000D01*
X131336330Y-81256291D01*
X131291041Y-81146952D01*
X131283572Y-81077483D01*
X131314847Y-81015004D01*
X131374937Y-80979352D01*
X131405602Y-80975500D01*
X131530741Y-80975500D01*
X131542879Y-80976096D01*
G37*
%TD.AperFunction*%
%TA.AperFunction,Conductor*%
G36*
X120667539Y-74920185D02*
G01*
X120713294Y-74972989D01*
X120724500Y-75024500D01*
X120724500Y-75597870D01*
X120724501Y-75597876D01*
X120730909Y-75657487D01*
X120732692Y-75665031D01*
X120731375Y-75665342D01*
X120735775Y-75726858D01*
X120702291Y-75788181D01*
X120640968Y-75821666D01*
X120614609Y-75824500D01*
X119821692Y-75824500D01*
X119754653Y-75804815D01*
X119708898Y-75752011D01*
X119704650Y-75741454D01*
X119691584Y-75704114D01*
X119680456Y-75672310D01*
X119680455Y-75672307D01*
X119680452Y-75672302D01*
X119590481Y-75529115D01*
X119590476Y-75529109D01*
X119470890Y-75409523D01*
X119470884Y-75409518D01*
X119327697Y-75319547D01*
X119327694Y-75319545D01*
X119168056Y-75263685D01*
X119000003Y-75244751D01*
X118999997Y-75244751D01*
X118831943Y-75263685D01*
X118672305Y-75319545D01*
X118672302Y-75319547D01*
X118529112Y-75409520D01*
X118529105Y-75409526D01*
X118511622Y-75427009D01*
X118450298Y-75460493D01*
X118385631Y-75457259D01*
X118364974Y-75450548D01*
X118364972Y-75450547D01*
X118364971Y-75450547D01*
X118200432Y-75424496D01*
X118200430Y-75424496D01*
X118117133Y-75424500D01*
X97884429Y-75424500D01*
X97884335Y-75424505D01*
X97870825Y-75424505D01*
X97726343Y-75453238D01*
X97726104Y-75452040D01*
X97682501Y-75455611D01*
X97600001Y-75444750D01*
X97599999Y-75444750D01*
X97456291Y-75463670D01*
X97456287Y-75463671D01*
X97322377Y-75519137D01*
X97207379Y-75607379D01*
X97119137Y-75722377D01*
X97063671Y-75856287D01*
X97063670Y-75856291D01*
X97044750Y-76000000D01*
X97056043Y-76085781D01*
X97063670Y-76143708D01*
X97063671Y-76143712D01*
X97119137Y-76277622D01*
X97119138Y-76277623D01*
X97119139Y-76277625D01*
X97207379Y-76392621D01*
X97322375Y-76480861D01*
X97456291Y-76536330D01*
X97583280Y-76553048D01*
X97599999Y-76555250D01*
X97600000Y-76555250D01*
X97600001Y-76555250D01*
X97614977Y-76553278D01*
X97743709Y-76536330D01*
X97877625Y-76480861D01*
X97992621Y-76392621D01*
X98080861Y-76277625D01*
X98091455Y-76252046D01*
X98135294Y-76197645D01*
X98201588Y-76175579D01*
X98206016Y-76175500D01*
X118054119Y-76175500D01*
X118054173Y-76175503D01*
X118063190Y-76175502D01*
X118063192Y-76175503D01*
X118109057Y-76175500D01*
X118125232Y-76176559D01*
X118180539Y-76183838D01*
X118211804Y-76192214D01*
X118228531Y-76199142D01*
X118231100Y-76200206D01*
X118285504Y-76244046D01*
X118300690Y-76273812D01*
X118319543Y-76327691D01*
X118409518Y-76470884D01*
X118409523Y-76470890D01*
X118529109Y-76590476D01*
X118529115Y-76590481D01*
X118672302Y-76680452D01*
X118672305Y-76680454D01*
X118672309Y-76680455D01*
X118672310Y-76680456D01*
X118729913Y-76700612D01*
X118831943Y-76736314D01*
X118999997Y-76755249D01*
X119000000Y-76755249D01*
X119000003Y-76755249D01*
X119168056Y-76736314D01*
X119171900Y-76734969D01*
X119327690Y-76680456D01*
X119464478Y-76594506D01*
X119530450Y-76575500D01*
X119755080Y-76575500D01*
X119822119Y-76595185D01*
X119867874Y-76647989D01*
X119877818Y-76717147D01*
X119848793Y-76780703D01*
X119793397Y-76817431D01*
X119768622Y-76825480D01*
X119768611Y-76825485D01*
X119599239Y-76911783D01*
X119599225Y-76911792D01*
X119445447Y-77023518D01*
X119445439Y-77023525D01*
X119420742Y-77048221D01*
X119420728Y-77048233D01*
X119382536Y-77086425D01*
X119373520Y-77094597D01*
X119318460Y-77139781D01*
X119298255Y-77153282D01*
X119281957Y-77161994D01*
X119240836Y-77183973D01*
X119218379Y-77193275D01*
X119156077Y-77212174D01*
X119132233Y-77216916D01*
X119061284Y-77223902D01*
X119049133Y-77224499D01*
X118991315Y-77224499D01*
X118991303Y-77224500D01*
X106874499Y-77224500D01*
X106807460Y-77204815D01*
X106761705Y-77152011D01*
X106750499Y-77100500D01*
X106750499Y-77002129D01*
X106750498Y-77002123D01*
X106750497Y-77002116D01*
X106744091Y-76942517D01*
X106743083Y-76939815D01*
X106693797Y-76807671D01*
X106693793Y-76807664D01*
X106607547Y-76692455D01*
X106607544Y-76692452D01*
X106492335Y-76606206D01*
X106492328Y-76606202D01*
X106357482Y-76555908D01*
X106357483Y-76555908D01*
X106297883Y-76549501D01*
X106297881Y-76549500D01*
X106297873Y-76549500D01*
X106297864Y-76549500D01*
X103702129Y-76549500D01*
X103702123Y-76549501D01*
X103642516Y-76555908D01*
X103507671Y-76606202D01*
X103507664Y-76606206D01*
X103392455Y-76692452D01*
X103392452Y-76692455D01*
X103306206Y-76807664D01*
X103306202Y-76807671D01*
X103255908Y-76942517D01*
X103251400Y-76984451D01*
X103249501Y-77002123D01*
X103249500Y-77002135D01*
X103249500Y-78197870D01*
X103249501Y-78197876D01*
X103255908Y-78257483D01*
X103306202Y-78392328D01*
X103306206Y-78392335D01*
X103392452Y-78507544D01*
X103392455Y-78507547D01*
X103507664Y-78593793D01*
X103507671Y-78593797D01*
X103642517Y-78644091D01*
X103642516Y-78644091D01*
X103649444Y-78644835D01*
X103702127Y-78650500D01*
X106297872Y-78650499D01*
X106357483Y-78644091D01*
X106492331Y-78593796D01*
X106607546Y-78507546D01*
X106693796Y-78392331D01*
X106744091Y-78257483D01*
X106750500Y-78197873D01*
X106750500Y-78099500D01*
X106770185Y-78032461D01*
X106822989Y-77986706D01*
X106874500Y-77975500D01*
X119113487Y-77975500D01*
X119113579Y-77975493D01*
X119150328Y-77975494D01*
X119338087Y-77945759D01*
X119518883Y-77887017D01*
X119688263Y-77800715D01*
X119842057Y-77688978D01*
X119859167Y-77671866D01*
X119859174Y-77671862D01*
X119871092Y-77659944D01*
X119871093Y-77659944D01*
X119904971Y-77626066D01*
X119913959Y-77617920D01*
X119969050Y-77572709D01*
X119989232Y-77559224D01*
X120046669Y-77528523D01*
X120069119Y-77519225D01*
X120086831Y-77513852D01*
X120131426Y-77500324D01*
X120155255Y-77495584D01*
X120226219Y-77488596D01*
X120238364Y-77488000D01*
X120286196Y-77488001D01*
X120286199Y-77488000D01*
X120646871Y-77488000D01*
X120713910Y-77507685D01*
X120759665Y-77560489D01*
X120763053Y-77568667D01*
X120781202Y-77617328D01*
X120781206Y-77617335D01*
X120867452Y-77732544D01*
X120867455Y-77732547D01*
X120982664Y-77818793D01*
X120982673Y-77818798D01*
X121054293Y-77845510D01*
X121110227Y-77887380D01*
X121134645Y-77952844D01*
X121119794Y-78021117D01*
X121070389Y-78070523D01*
X121002117Y-78085376D01*
X120998359Y-78085050D01*
X120899988Y-78075000D01*
X120650000Y-78075000D01*
X120650000Y-78963500D01*
X120630315Y-79030539D01*
X120577511Y-79076294D01*
X120526000Y-79087500D01*
X120400000Y-79087500D01*
X120400000Y-79213500D01*
X120380315Y-79280539D01*
X120327511Y-79326294D01*
X120276000Y-79337500D01*
X119200001Y-79337500D01*
X119200001Y-79399986D01*
X119210494Y-79502697D01*
X119265641Y-79669119D01*
X119265643Y-79669124D01*
X119357684Y-79818345D01*
X119481654Y-79942315D01*
X119630877Y-80034356D01*
X119631924Y-80034845D01*
X119632522Y-80035371D01*
X119637025Y-80038149D01*
X119636550Y-80038917D01*
X119684368Y-80081012D01*
X119703526Y-80148204D01*
X119683317Y-80215087D01*
X119653842Y-80246498D01*
X119592452Y-80292455D01*
X119506206Y-80407664D01*
X119506202Y-80407671D01*
X119455910Y-80542513D01*
X119455909Y-80542517D01*
X119449500Y-80602127D01*
X119449500Y-80602134D01*
X119449500Y-80602135D01*
X119449500Y-81222870D01*
X119449501Y-81222876D01*
X119455908Y-81282483D01*
X119506202Y-81417328D01*
X119506206Y-81417335D01*
X119592452Y-81532544D01*
X119592455Y-81532547D01*
X119707664Y-81618793D01*
X119707671Y-81618797D01*
X119842517Y-81669091D01*
X119842516Y-81669091D01*
X119849444Y-81669835D01*
X119902127Y-81675500D01*
X120897872Y-81675499D01*
X120957483Y-81669091D01*
X121092331Y-81618796D01*
X121207546Y-81532546D01*
X121293796Y-81417331D01*
X121300260Y-81400000D01*
X121311947Y-81368667D01*
X121353818Y-81312733D01*
X121419283Y-81288316D01*
X121428129Y-81288000D01*
X121782742Y-81288000D01*
X121849781Y-81307685D01*
X121895536Y-81360489D01*
X121905215Y-81392601D01*
X121914354Y-81450304D01*
X121971950Y-81563342D01*
X121971952Y-81563344D01*
X121971954Y-81563347D01*
X122040411Y-81631804D01*
X122073896Y-81693127D01*
X122068912Y-81762819D01*
X122027040Y-81818752D01*
X121991736Y-81837190D01*
X121905884Y-81865640D01*
X121905875Y-81865643D01*
X121756654Y-81957684D01*
X121632684Y-82081654D01*
X121540643Y-82230875D01*
X121540641Y-82230880D01*
X121485494Y-82397302D01*
X121485493Y-82397309D01*
X121475000Y-82500013D01*
X121475000Y-82750000D01*
X122363500Y-82750000D01*
X122430539Y-82769685D01*
X122476294Y-82822489D01*
X122487500Y-82874000D01*
X122487500Y-83000000D01*
X122613500Y-83000000D01*
X122680539Y-83019685D01*
X122726294Y-83072489D01*
X122737500Y-83124000D01*
X122737500Y-84199999D01*
X122799972Y-84199999D01*
X122799986Y-84199998D01*
X122902697Y-84189505D01*
X123069119Y-84134358D01*
X123069124Y-84134356D01*
X123218345Y-84042315D01*
X123342315Y-83918345D01*
X123434354Y-83769126D01*
X123434842Y-83768081D01*
X123435368Y-83767482D01*
X123438149Y-83762975D01*
X123438918Y-83763449D01*
X123481007Y-83715635D01*
X123548198Y-83696473D01*
X123615082Y-83716679D01*
X123646498Y-83746157D01*
X123653591Y-83755632D01*
X123690958Y-83805548D01*
X123692455Y-83807547D01*
X123807664Y-83893793D01*
X123807671Y-83893797D01*
X123849985Y-83909579D01*
X123942517Y-83944091D01*
X124002127Y-83950500D01*
X124622872Y-83950499D01*
X124682483Y-83944091D01*
X124817331Y-83893796D01*
X124932546Y-83807546D01*
X125018796Y-83692331D01*
X125069091Y-83557483D01*
X125075500Y-83497873D01*
X125075499Y-82502128D01*
X125069091Y-82442517D01*
X125063248Y-82426852D01*
X125018797Y-82307671D01*
X125018793Y-82307664D01*
X124932547Y-82192455D01*
X124932544Y-82192452D01*
X124817335Y-82106206D01*
X124817332Y-82106205D01*
X124817331Y-82106204D01*
X124806161Y-82102038D01*
X124750231Y-82060166D01*
X124725816Y-81994701D01*
X124725500Y-81985858D01*
X124725500Y-81717254D01*
X124745185Y-81650215D01*
X124761814Y-81629577D01*
X124828050Y-81563342D01*
X124885646Y-81450304D01*
X124885646Y-81450302D01*
X124885647Y-81450301D01*
X124896282Y-81383147D01*
X124900500Y-81356519D01*
X124900499Y-80118482D01*
X124885646Y-80024696D01*
X124828050Y-79911658D01*
X124828046Y-79911654D01*
X124828045Y-79911652D01*
X124738347Y-79821954D01*
X124738344Y-79821952D01*
X124738342Y-79821950D01*
X124652184Y-79778050D01*
X124625301Y-79764352D01*
X124531524Y-79749500D01*
X124168482Y-79749500D01*
X124097649Y-79760718D01*
X124074696Y-79764354D01*
X124074695Y-79764354D01*
X124065057Y-79765881D01*
X124064736Y-79763859D01*
X124007478Y-79765489D01*
X123947649Y-79729402D01*
X123916827Y-79666698D01*
X123924799Y-79597285D01*
X123928514Y-79589300D01*
X123935646Y-79575304D01*
X123950500Y-79481519D01*
X123950499Y-78243482D01*
X123950068Y-78240762D01*
X123950203Y-78239716D01*
X123950117Y-78238620D01*
X123950347Y-78238601D01*
X123959018Y-78171470D01*
X123984854Y-78133680D01*
X124206717Y-77911817D01*
X124268040Y-77878333D01*
X124294398Y-77875499D01*
X124674349Y-77875499D01*
X124741388Y-77895184D01*
X124762030Y-77911818D01*
X125847867Y-78997655D01*
X125854477Y-79004805D01*
X125970471Y-79140618D01*
X125981908Y-79156359D01*
X126072681Y-79304488D01*
X126081514Y-79321826D01*
X126084121Y-79328120D01*
X126091590Y-79397590D01*
X126080046Y-79431865D01*
X126051853Y-79487198D01*
X126051852Y-79487200D01*
X126037000Y-79580975D01*
X126037000Y-80819017D01*
X126045440Y-80872305D01*
X126051854Y-80912804D01*
X126109450Y-81025842D01*
X126109452Y-81025844D01*
X126109454Y-81025847D01*
X126199152Y-81115545D01*
X126199154Y-81115546D01*
X126199158Y-81115550D01*
X126302791Y-81168354D01*
X126312198Y-81173147D01*
X126405975Y-81187999D01*
X126405981Y-81188000D01*
X126668200Y-81187999D01*
X126735239Y-81207683D01*
X126780994Y-81260487D01*
X126790938Y-81329646D01*
X126761913Y-81393201D01*
X126742512Y-81411265D01*
X126667452Y-81467455D01*
X126581206Y-81582664D01*
X126581202Y-81582671D01*
X126531007Y-81717254D01*
X126530909Y-81717517D01*
X126524500Y-81777127D01*
X126524500Y-81777134D01*
X126524500Y-81777135D01*
X126524500Y-82397870D01*
X126524501Y-82397876D01*
X126530908Y-82457483D01*
X126581202Y-82592328D01*
X126581206Y-82592335D01*
X126667452Y-82707544D01*
X126667455Y-82707547D01*
X126728841Y-82753501D01*
X126770712Y-82809435D01*
X126775696Y-82879126D01*
X126742210Y-82940449D01*
X126711910Y-82961664D01*
X126712025Y-82961851D01*
X126708831Y-82963820D01*
X126706936Y-82965148D01*
X126705885Y-82965637D01*
X126556654Y-83057684D01*
X126432684Y-83181654D01*
X126340643Y-83330875D01*
X126340641Y-83330880D01*
X126285494Y-83497302D01*
X126285493Y-83497309D01*
X126275000Y-83600013D01*
X126275000Y-83662500D01*
X128674999Y-83662500D01*
X128674999Y-83600028D01*
X128674998Y-83600013D01*
X128664505Y-83497302D01*
X128609358Y-83330880D01*
X128609356Y-83330875D01*
X128517315Y-83181654D01*
X128393345Y-83057684D01*
X128244121Y-82965642D01*
X128243068Y-82965151D01*
X128242466Y-82964621D01*
X128237975Y-82961851D01*
X128238448Y-82961083D01*
X128190627Y-82918981D01*
X128171473Y-82851788D01*
X128191686Y-82784906D01*
X128221154Y-82753503D01*
X128282546Y-82707546D01*
X128368796Y-82592331D01*
X128419091Y-82457483D01*
X128425500Y-82397873D01*
X128425499Y-81777128D01*
X128424893Y-81771491D01*
X128437292Y-81702731D01*
X128460498Y-81670547D01*
X128482642Y-81648404D01*
X128601708Y-81493230D01*
X128699502Y-81323842D01*
X128744178Y-81215979D01*
X128788017Y-81161577D01*
X128802435Y-81152952D01*
X128875842Y-81115550D01*
X128965550Y-81025842D01*
X129023146Y-80912804D01*
X129023146Y-80912802D01*
X129023147Y-80912801D01*
X129035148Y-80837025D01*
X129038000Y-80819019D01*
X129037999Y-80683878D01*
X129057683Y-80616840D01*
X129110487Y-80571085D01*
X129145811Y-80560941D01*
X129229211Y-80549962D01*
X129418136Y-80499340D01*
X129598838Y-80424493D01*
X129768224Y-80326700D01*
X129800367Y-80302037D01*
X129923387Y-80207644D01*
X129923389Y-80207641D01*
X129923398Y-80207635D01*
X129950530Y-80180502D01*
X129950543Y-80180492D01*
X129957597Y-80173438D01*
X129957599Y-80173437D01*
X130876209Y-79254827D01*
X130876210Y-79254824D01*
X130882460Y-79248575D01*
X130882514Y-79248512D01*
X130925783Y-79205245D01*
X131071344Y-79015551D01*
X131190900Y-78808479D01*
X131282403Y-78587574D01*
X131344290Y-78356615D01*
X131375500Y-78119553D01*
X131375500Y-78004875D01*
X131375882Y-77995146D01*
X131379769Y-77945758D01*
X131387945Y-77841864D01*
X131390987Y-77822661D01*
X131425740Y-77677905D01*
X131431752Y-77659405D01*
X131451703Y-77611238D01*
X131488720Y-77521872D01*
X131497548Y-77504546D01*
X131575339Y-77377607D01*
X131586765Y-77361881D01*
X131686712Y-77244861D01*
X131693283Y-77237752D01*
X131727955Y-77203082D01*
X131727955Y-77203081D01*
X131875182Y-77055855D01*
X131881043Y-77050366D01*
X132040649Y-76910395D01*
X132053503Y-76900533D01*
X132226596Y-76784877D01*
X132240636Y-76776770D01*
X132427358Y-76684689D01*
X132442319Y-76678492D01*
X132639461Y-76611572D01*
X132655107Y-76607379D01*
X132776312Y-76583271D01*
X132845901Y-76589498D01*
X132901078Y-76632362D01*
X132924322Y-76698251D01*
X132924500Y-76704888D01*
X132924500Y-77049678D01*
X132939032Y-77122735D01*
X132939033Y-77122739D01*
X132939034Y-77122740D01*
X132994399Y-77205601D01*
X133077260Y-77260966D01*
X133077264Y-77260967D01*
X133150321Y-77275499D01*
X133150324Y-77275500D01*
X133150326Y-77275500D01*
X133358318Y-77275500D01*
X133425357Y-77295185D01*
X133471112Y-77347989D01*
X133481056Y-77417147D01*
X133452031Y-77480703D01*
X133410723Y-77511882D01*
X133347422Y-77541399D01*
X133347420Y-77541400D01*
X133153926Y-77676886D01*
X133153920Y-77676891D01*
X132986891Y-77843920D01*
X132986886Y-77843926D01*
X132851400Y-78037420D01*
X132851399Y-78037422D01*
X132751570Y-78251507D01*
X132751567Y-78251513D01*
X132694364Y-78464999D01*
X132694364Y-78465000D01*
X133591988Y-78465000D01*
X133559075Y-78522007D01*
X133525000Y-78649174D01*
X133525000Y-78780826D01*
X133559075Y-78907993D01*
X133591988Y-78965000D01*
X132694364Y-78965000D01*
X132751567Y-79178486D01*
X132751570Y-79178492D01*
X132851399Y-79392578D01*
X132986894Y-79586082D01*
X133153917Y-79753105D01*
X133347421Y-79888600D01*
X133561507Y-79988429D01*
X133561516Y-79988433D01*
X133600583Y-79998901D01*
X133660244Y-80035266D01*
X133690773Y-80098113D01*
X133682479Y-80167488D01*
X133637993Y-80221366D01*
X133613284Y-80234302D01*
X133532373Y-80265647D01*
X133532357Y-80265655D01*
X133358960Y-80373017D01*
X133358958Y-80373019D01*
X133208237Y-80510418D01*
X133085327Y-80673178D01*
X133034258Y-80775738D01*
X132986755Y-80826975D01*
X132919092Y-80844396D01*
X132887261Y-80839126D01*
X132845651Y-80826503D01*
X132823193Y-80817200D01*
X132716342Y-80760085D01*
X132696138Y-80746585D01*
X132597585Y-80665704D01*
X132588577Y-80657539D01*
X132548600Y-80617563D01*
X132548406Y-80617395D01*
X132523783Y-80592772D01*
X132523775Y-80592765D01*
X132368451Y-80473579D01*
X132368434Y-80473568D01*
X132198896Y-80375682D01*
X132198879Y-80375674D01*
X132018003Y-80300748D01*
X131828878Y-80250066D01*
X131634756Y-80224503D01*
X131594931Y-80224502D01*
X131594899Y-80224500D01*
X131586280Y-80224500D01*
X131536861Y-80224500D01*
X131536853Y-80224499D01*
X131482871Y-80224498D01*
X131482870Y-80224498D01*
X131474247Y-80224498D01*
X131474219Y-80224500D01*
X130625799Y-80224500D01*
X130625560Y-80224514D01*
X130599568Y-80224514D01*
X130435032Y-80250565D01*
X130435020Y-80250568D01*
X130276595Y-80302037D01*
X130276585Y-80302041D01*
X130128159Y-80377663D01*
X130128146Y-80377672D01*
X129993385Y-80475580D01*
X129993377Y-80475587D01*
X129976998Y-80491966D01*
X129976974Y-80491987D01*
X129970812Y-80498150D01*
X129970756Y-80498180D01*
X129875572Y-80593366D01*
X129875568Y-80593370D01*
X129777656Y-80728140D01*
X129777651Y-80728146D01*
X129702022Y-80876585D01*
X129702020Y-80876590D01*
X129650551Y-81035015D01*
X129650548Y-81035027D01*
X129624496Y-81199566D01*
X129624500Y-81274697D01*
X129624500Y-82806558D01*
X129624305Y-82813512D01*
X129623801Y-82822489D01*
X129612219Y-83028636D01*
X129610662Y-83042453D01*
X129575151Y-83251437D01*
X129572056Y-83264993D01*
X129513374Y-83468671D01*
X129508782Y-83481796D01*
X129427656Y-83677646D01*
X129421622Y-83690174D01*
X129319085Y-83875697D01*
X129311688Y-83887470D01*
X129307199Y-83893797D01*
X129189026Y-84060345D01*
X129180361Y-84071211D01*
X129038989Y-84229406D01*
X129029156Y-84239239D01*
X128876306Y-84375833D01*
X128813201Y-84405827D01*
X128743899Y-84396942D01*
X128690401Y-84352000D01*
X128669694Y-84285270D01*
X128670321Y-84270768D01*
X128674999Y-84224981D01*
X128675000Y-84224973D01*
X128675000Y-84162500D01*
X126275001Y-84162500D01*
X126275001Y-84224986D01*
X126285494Y-84327697D01*
X126340641Y-84494119D01*
X126340643Y-84494124D01*
X126427785Y-84635403D01*
X126446225Y-84702796D01*
X126425302Y-84769459D01*
X126371660Y-84814229D01*
X126322246Y-84824500D01*
X122993441Y-84824500D01*
X122986486Y-84824305D01*
X122969017Y-84823323D01*
X122771364Y-84812219D01*
X122757547Y-84810662D01*
X122548560Y-84775150D01*
X122535004Y-84772055D01*
X122331327Y-84713374D01*
X122318202Y-84708782D01*
X122122353Y-84627656D01*
X122109825Y-84621622D01*
X121924302Y-84519085D01*
X121912536Y-84511692D01*
X121739645Y-84389019D01*
X121728788Y-84380360D01*
X121567854Y-84236540D01*
X121562801Y-84231763D01*
X121527343Y-84196306D01*
X121003402Y-83672365D01*
X120969917Y-83611042D01*
X120969466Y-83608875D01*
X120961062Y-83566625D01*
X120951798Y-83520054D01*
X120943486Y-83499986D01*
X121475001Y-83499986D01*
X121485494Y-83602697D01*
X121540641Y-83769119D01*
X121540643Y-83769124D01*
X121632684Y-83918345D01*
X121756654Y-84042315D01*
X121905875Y-84134356D01*
X121905880Y-84134358D01*
X122072302Y-84189505D01*
X122072309Y-84189506D01*
X122175019Y-84199999D01*
X122237499Y-84199998D01*
X122237500Y-84199998D01*
X122237500Y-83250000D01*
X121475001Y-83250000D01*
X121475001Y-83499986D01*
X120943486Y-83499986D01*
X120942615Y-83497883D01*
X120905297Y-83407789D01*
X120905295Y-83407786D01*
X120905294Y-83407783D01*
X120837780Y-83306743D01*
X120837776Y-83306739D01*
X120837774Y-83306736D01*
X120794817Y-83263780D01*
X120777806Y-83246769D01*
X117618701Y-80087663D01*
X117618561Y-80087540D01*
X117497698Y-79966677D01*
X117497691Y-79966670D01*
X117307865Y-79804544D01*
X117150110Y-79669809D01*
X117150098Y-79669800D01*
X116898770Y-79487200D01*
X116780301Y-79401127D01*
X116780298Y-79401125D01*
X116780291Y-79401120D01*
X116390572Y-79162299D01*
X116390561Y-79162293D01*
X116390560Y-79162292D01*
X116390556Y-79162290D01*
X115983274Y-78954769D01*
X115983260Y-78954763D01*
X115560977Y-78779846D01*
X115560970Y-78779843D01*
X115560966Y-78779842D01*
X115546104Y-78775013D01*
X119200000Y-78775013D01*
X119200000Y-78837500D01*
X120150000Y-78837500D01*
X120150000Y-78075000D01*
X119900029Y-78075000D01*
X119900012Y-78075001D01*
X119797302Y-78085494D01*
X119630880Y-78140641D01*
X119630875Y-78140643D01*
X119481654Y-78232684D01*
X119357684Y-78356654D01*
X119265643Y-78505875D01*
X119265641Y-78505880D01*
X119210494Y-78672302D01*
X119210493Y-78672309D01*
X119200000Y-78775013D01*
X115546104Y-78775013D01*
X115126234Y-78638588D01*
X114681761Y-78531877D01*
X114681753Y-78531875D01*
X114230293Y-78460369D01*
X114230287Y-78460368D01*
X114230285Y-78460368D01*
X114230281Y-78460367D01*
X114230275Y-78460367D01*
X113774596Y-78424502D01*
X113774582Y-78424501D01*
X113595472Y-78424500D01*
X113595471Y-78424500D01*
X107857026Y-78424500D01*
X107789987Y-78404815D01*
X107781547Y-78398882D01*
X107677625Y-78319139D01*
X107677624Y-78319138D01*
X107677622Y-78319137D01*
X107543712Y-78263671D01*
X107543710Y-78263670D01*
X107543709Y-78263670D01*
X107451324Y-78251507D01*
X107400001Y-78244750D01*
X107399999Y-78244750D01*
X107256291Y-78263670D01*
X107256287Y-78263671D01*
X107122377Y-78319137D01*
X107007379Y-78407379D01*
X106919137Y-78522377D01*
X106863671Y-78656287D01*
X106863670Y-78656291D01*
X106846790Y-78784508D01*
X106844750Y-78800000D01*
X106854969Y-78877623D01*
X106863670Y-78943708D01*
X106863671Y-78943712D01*
X106919137Y-79077622D01*
X106919138Y-79077624D01*
X106919139Y-79077625D01*
X107007379Y-79192621D01*
X107122375Y-79280861D01*
X107122376Y-79280861D01*
X107122377Y-79280862D01*
X107131042Y-79284451D01*
X107256291Y-79336330D01*
X107383280Y-79353048D01*
X107399999Y-79355250D01*
X107400000Y-79355250D01*
X107400001Y-79355250D01*
X107414977Y-79353278D01*
X107543709Y-79336330D01*
X107677625Y-79280861D01*
X107781540Y-79201123D01*
X107846709Y-79175930D01*
X107857026Y-79175500D01*
X113543608Y-79175500D01*
X113548477Y-79175596D01*
X113938661Y-79190928D01*
X113948332Y-79191689D01*
X114333716Y-79237305D01*
X114343291Y-79238821D01*
X114723918Y-79314534D01*
X114733349Y-79316798D01*
X115106843Y-79422136D01*
X115116072Y-79425134D01*
X115441251Y-79545100D01*
X115480153Y-79559452D01*
X115489148Y-79563178D01*
X115835137Y-79722682D01*
X115841552Y-79725639D01*
X115850223Y-79730058D01*
X116188785Y-79919662D01*
X116197069Y-79924738D01*
X116507205Y-80131965D01*
X116519732Y-80140335D01*
X116527606Y-80146056D01*
X116627114Y-80224502D01*
X116832333Y-80386283D01*
X116839737Y-80392606D01*
X117126702Y-80657874D01*
X117130212Y-80661249D01*
X120196596Y-83727633D01*
X120230081Y-83788956D01*
X120230532Y-83791119D01*
X120248205Y-83879958D01*
X120289075Y-83978618D01*
X120294717Y-83992237D01*
X120362235Y-84093275D01*
X120362234Y-84093275D01*
X120362237Y-84093278D01*
X120362238Y-84093279D01*
X120405207Y-84136244D01*
X120996306Y-84727343D01*
X121034481Y-84765519D01*
X121034481Y-84765518D01*
X121092627Y-84823666D01*
X121093089Y-84824097D01*
X121130556Y-84861565D01*
X121340592Y-85033938D01*
X121340606Y-85033949D01*
X121491912Y-85135049D01*
X121566518Y-85184900D01*
X121806147Y-85312986D01*
X122057176Y-85416969D01*
X122096344Y-85428851D01*
X122317178Y-85495844D01*
X122317180Y-85495844D01*
X122317189Y-85495847D01*
X122583680Y-85548859D01*
X122854084Y-85575497D01*
X122928677Y-85575497D01*
X122928695Y-85575500D01*
X122989941Y-85575500D01*
X123043930Y-85575501D01*
X123043933Y-85575500D01*
X127556066Y-85575500D01*
X127556069Y-85575501D01*
X127558669Y-85575500D01*
X127558737Y-85575520D01*
X127610058Y-85575519D01*
X127610058Y-85575520D01*
X127745916Y-85575517D01*
X128016322Y-85548879D01*
X128282816Y-85495866D01*
X128542830Y-85416988D01*
X128793861Y-85313004D01*
X129033491Y-85184917D01*
X129131400Y-85119495D01*
X129198074Y-85098619D01*
X129265454Y-85117103D01*
X129312145Y-85169082D01*
X129323321Y-85238052D01*
X129295436Y-85302115D01*
X129287969Y-85310280D01*
X127939710Y-86658539D01*
X127878387Y-86692024D01*
X127808695Y-86687040D01*
X127777718Y-86670125D01*
X127777421Y-86669903D01*
X127721799Y-86628264D01*
X127692330Y-86606203D01*
X127692328Y-86606202D01*
X127557482Y-86555908D01*
X127557483Y-86555908D01*
X127497883Y-86549501D01*
X127497881Y-86549500D01*
X127497873Y-86549500D01*
X127497864Y-86549500D01*
X124902129Y-86549500D01*
X124902123Y-86549501D01*
X124842516Y-86555908D01*
X124707671Y-86606202D01*
X124707664Y-86606206D01*
X124592455Y-86692452D01*
X124592452Y-86692455D01*
X124506206Y-86807664D01*
X124506202Y-86807671D01*
X124455908Y-86942517D01*
X124449501Y-87002116D01*
X124449500Y-87002135D01*
X124449500Y-88197870D01*
X124449501Y-88197876D01*
X124455908Y-88257483D01*
X124506202Y-88392328D01*
X124506206Y-88392335D01*
X124592452Y-88507544D01*
X124592455Y-88507547D01*
X124707664Y-88593793D01*
X124707671Y-88593797D01*
X124737349Y-88604866D01*
X124842517Y-88644091D01*
X124902127Y-88650500D01*
X125400500Y-88650499D01*
X125467539Y-88670183D01*
X125513294Y-88722987D01*
X125524500Y-88774499D01*
X125524500Y-90589235D01*
X125504815Y-90656274D01*
X125452011Y-90702029D01*
X125443834Y-90705417D01*
X125307669Y-90756203D01*
X125307664Y-90756206D01*
X125192455Y-90842452D01*
X125192452Y-90842455D01*
X125106206Y-90957664D01*
X125106202Y-90957671D01*
X125065682Y-91066313D01*
X125023811Y-91122247D01*
X124958347Y-91146664D01*
X124890074Y-91131812D01*
X124840668Y-91082407D01*
X124825500Y-91022980D01*
X124825500Y-90494494D01*
X124825502Y-90494453D01*
X124825502Y-90485430D01*
X124825503Y-90485427D01*
X124825502Y-90475627D01*
X124825515Y-90475581D01*
X124825513Y-90418076D01*
X124825511Y-90329227D01*
X124800700Y-90140811D01*
X124751509Y-89957244D01*
X124678779Y-89781669D01*
X124583756Y-89617088D01*
X124468064Y-89466317D01*
X124468060Y-89466313D01*
X124468057Y-89466309D01*
X124451204Y-89449457D01*
X124451201Y-89449453D01*
X124400873Y-89399125D01*
X124351375Y-89349626D01*
X124351212Y-89349485D01*
X124333678Y-89331950D01*
X124333677Y-89331949D01*
X124333674Y-89331946D01*
X124182904Y-89216256D01*
X124182900Y-89216254D01*
X124182898Y-89216252D01*
X124182892Y-89216248D01*
X124018334Y-89121237D01*
X124018317Y-89121229D01*
X123842753Y-89048505D01*
X123842751Y-89048504D01*
X123842750Y-89048504D01*
X123797978Y-89036506D01*
X123659191Y-88999315D01*
X123659183Y-88999313D01*
X123545323Y-88984320D01*
X123481427Y-88956051D01*
X123442958Y-88897725D01*
X123442129Y-88827860D01*
X123479203Y-88768638D01*
X123496416Y-88755842D01*
X123518343Y-88742317D01*
X123642315Y-88618345D01*
X123734356Y-88469124D01*
X123734358Y-88469119D01*
X123789505Y-88302697D01*
X123789506Y-88302690D01*
X123799999Y-88199986D01*
X123800000Y-88199973D01*
X123800000Y-87850000D01*
X121924000Y-87850000D01*
X121856961Y-87830315D01*
X121811206Y-87777511D01*
X121800000Y-87726000D01*
X121800000Y-87600000D01*
X121674000Y-87600000D01*
X121606961Y-87580315D01*
X121561206Y-87527511D01*
X121550000Y-87476000D01*
X121550000Y-87350000D01*
X122050000Y-87350000D01*
X123799999Y-87350000D01*
X123799999Y-87000028D01*
X123799998Y-87000013D01*
X123789505Y-86897302D01*
X123734358Y-86730880D01*
X123734356Y-86730875D01*
X123642315Y-86581654D01*
X123518345Y-86457684D01*
X123369124Y-86365643D01*
X123369119Y-86365641D01*
X123202697Y-86310494D01*
X123202690Y-86310493D01*
X123099986Y-86300000D01*
X122050000Y-86300000D01*
X122050000Y-87350000D01*
X121550000Y-87350000D01*
X121550000Y-86300000D01*
X120500028Y-86300000D01*
X120500012Y-86300001D01*
X120397302Y-86310494D01*
X120230880Y-86365641D01*
X120230868Y-86365647D01*
X120214594Y-86375685D01*
X120147202Y-86394124D01*
X120080538Y-86373200D01*
X120035770Y-86319557D01*
X120025500Y-86270145D01*
X120025500Y-84837972D01*
X120025501Y-84837959D01*
X120025501Y-84655554D01*
X120025500Y-84655540D01*
X120011671Y-84550499D01*
X119996459Y-84434958D01*
X119938873Y-84220046D01*
X119853728Y-84014490D01*
X119853725Y-84014485D01*
X119853724Y-84014482D01*
X119853723Y-84014481D01*
X119742485Y-83821812D01*
X119742481Y-83821805D01*
X119685023Y-83746924D01*
X119607037Y-83645290D01*
X119607032Y-83645284D01*
X119567985Y-83606238D01*
X119554453Y-83592706D01*
X119554449Y-83592701D01*
X119528372Y-83566625D01*
X119528372Y-83566624D01*
X119528368Y-83566621D01*
X119485115Y-83523366D01*
X119429301Y-83467552D01*
X119429294Y-83467546D01*
X119261400Y-83338717D01*
X119261394Y-83338713D01*
X119261391Y-83338711D01*
X119160855Y-83280666D01*
X119112641Y-83230100D01*
X119099918Y-83189464D01*
X119099259Y-83184455D01*
X119050747Y-83080421D01*
X118969579Y-82999253D01*
X118865545Y-82950741D01*
X118865543Y-82950740D01*
X118865544Y-82950740D01*
X118818139Y-82944500D01*
X116921867Y-82944500D01*
X116906839Y-82946478D01*
X116874455Y-82950741D01*
X116874453Y-82950742D01*
X116874451Y-82950742D01*
X116770420Y-82999253D01*
X116689253Y-83080420D01*
X116640740Y-83184456D01*
X116634500Y-83231860D01*
X116634500Y-83758132D01*
X116635138Y-83762975D01*
X116640741Y-83805545D01*
X116640742Y-83805547D01*
X116640742Y-83805548D01*
X116675440Y-83879958D01*
X116689253Y-83909579D01*
X116770421Y-83990747D01*
X116828048Y-84017619D01*
X116880484Y-84063788D01*
X116899637Y-84130982D01*
X116879422Y-84197863D01*
X116828047Y-84242380D01*
X116770422Y-84269251D01*
X116689253Y-84350420D01*
X116640740Y-84454456D01*
X116634500Y-84501860D01*
X116634500Y-85028132D01*
X116634501Y-85028138D01*
X116640741Y-85075545D01*
X116640742Y-85075547D01*
X116640742Y-85075548D01*
X116659263Y-85115266D01*
X116689253Y-85179579D01*
X116770421Y-85260747D01*
X116828048Y-85287619D01*
X116880484Y-85333788D01*
X116899637Y-85400982D01*
X116879422Y-85467863D01*
X116828047Y-85512380D01*
X116770423Y-85539251D01*
X116711241Y-85598433D01*
X116649917Y-85631917D01*
X116623560Y-85634751D01*
X116547304Y-85634751D01*
X116520748Y-85641867D01*
X116445505Y-85662028D01*
X116354231Y-85714728D01*
X116324847Y-85744116D01*
X116228907Y-85840056D01*
X116190730Y-85878232D01*
X116152154Y-85916809D01*
X116152153Y-85916810D01*
X116152152Y-85916810D01*
X116152153Y-85916811D01*
X116142526Y-85926439D01*
X116142522Y-85926443D01*
X116062379Y-86036751D01*
X116000469Y-86158252D01*
X115958332Y-86287935D01*
X115937000Y-86422611D01*
X115937000Y-88171871D01*
X115917315Y-88238910D01*
X115864511Y-88284665D01*
X115856335Y-88288052D01*
X115807667Y-88306204D01*
X115807665Y-88306205D01*
X115692455Y-88392452D01*
X115646498Y-88453842D01*
X115590563Y-88495713D01*
X115520872Y-88500696D01*
X115459549Y-88467210D01*
X115438335Y-88436909D01*
X115438149Y-88437025D01*
X115436170Y-88433816D01*
X115434845Y-88431924D01*
X115434356Y-88430877D01*
X115342315Y-88281654D01*
X115218345Y-88157684D01*
X115069124Y-88065643D01*
X115069119Y-88065641D01*
X114902697Y-88010494D01*
X114902690Y-88010493D01*
X114799986Y-88000000D01*
X114737500Y-88000000D01*
X114737500Y-90416138D01*
X114717815Y-90483177D01*
X114701181Y-90503819D01*
X114675000Y-90530000D01*
X114675000Y-90876000D01*
X114655315Y-90943039D01*
X114602511Y-90988794D01*
X114551000Y-91000000D01*
X114425000Y-91000000D01*
X114425000Y-91126000D01*
X114405315Y-91193039D01*
X114352511Y-91238794D01*
X114301000Y-91250000D01*
X113475001Y-91250000D01*
X113475001Y-91298322D01*
X113485144Y-91397607D01*
X113538452Y-91558481D01*
X113538457Y-91558492D01*
X113627424Y-91702728D01*
X113627427Y-91702732D01*
X113747267Y-91822572D01*
X113747271Y-91822575D01*
X113824096Y-91869962D01*
X113870821Y-91921910D01*
X113882042Y-91990872D01*
X113854199Y-92054954D01*
X113796130Y-92093810D01*
X113758999Y-92099500D01*
X103444488Y-92099500D01*
X103444476Y-92099499D01*
X103376360Y-92099499D01*
X103370276Y-92099350D01*
X103048798Y-92083558D01*
X103036688Y-92082365D01*
X102721332Y-92035587D01*
X102709397Y-92033213D01*
X102400147Y-91955751D01*
X102388502Y-91952219D01*
X102088325Y-91844815D01*
X102077082Y-91840158D01*
X102039902Y-91822573D01*
X101788874Y-91703846D01*
X101778151Y-91698113D01*
X101504699Y-91534213D01*
X101494582Y-91527453D01*
X101238512Y-91337540D01*
X101229105Y-91329820D01*
X101198559Y-91302135D01*
X101010637Y-91131812D01*
X100990711Y-91113752D01*
X100986303Y-91109555D01*
X100974040Y-91097292D01*
X100969865Y-91092908D01*
X100757398Y-90858490D01*
X100749684Y-90849089D01*
X100640354Y-90701677D01*
X113475000Y-90701677D01*
X113475000Y-90750000D01*
X114175000Y-90750000D01*
X114175000Y-90008862D01*
X114194685Y-89941823D01*
X114211319Y-89921181D01*
X114237500Y-89895000D01*
X114237500Y-89450000D01*
X113475001Y-89450000D01*
X113475001Y-89699986D01*
X113485494Y-89802697D01*
X113540641Y-89969119D01*
X113540643Y-89969124D01*
X113632684Y-90118346D01*
X113637161Y-90124007D01*
X113635924Y-90124984D01*
X113665321Y-90178820D01*
X113660337Y-90248512D01*
X113631836Y-90292859D01*
X113627427Y-90297267D01*
X113627424Y-90297271D01*
X113538457Y-90441507D01*
X113538452Y-90441518D01*
X113485144Y-90602393D01*
X113475000Y-90701677D01*
X100640354Y-90701677D01*
X100611874Y-90663276D01*
X100563057Y-90597454D01*
X100556300Y-90587342D01*
X100521930Y-90530000D01*
X100395231Y-90318617D01*
X100389510Y-90307914D01*
X100255549Y-90024681D01*
X100250898Y-90013449D01*
X100202018Y-89876841D01*
X100145349Y-89718463D01*
X100141824Y-89706843D01*
X100086412Y-89485624D01*
X100065698Y-89402930D01*
X100063324Y-89390996D01*
X100017355Y-89081104D01*
X100016162Y-89068993D01*
X100015155Y-89048504D01*
X100000649Y-88753215D01*
X100000500Y-88747131D01*
X100000500Y-88298322D01*
X102675001Y-88298322D01*
X102685144Y-88397607D01*
X102738452Y-88558481D01*
X102738457Y-88558492D01*
X102827424Y-88702728D01*
X102827427Y-88702732D01*
X102947267Y-88822572D01*
X102947271Y-88822575D01*
X103091507Y-88911542D01*
X103091518Y-88911547D01*
X103252393Y-88964855D01*
X103351683Y-88974999D01*
X103375000Y-88974998D01*
X103375000Y-88250000D01*
X102675001Y-88250000D01*
X102675001Y-88298322D01*
X100000500Y-88298322D01*
X100000500Y-88209479D01*
X100020185Y-88142440D01*
X100072989Y-88096685D01*
X100079416Y-88094022D01*
X100079825Y-88093797D01*
X100079831Y-88093796D01*
X100195046Y-88007546D01*
X100281296Y-87892331D01*
X100331591Y-87757483D01*
X100338000Y-87697873D01*
X100337999Y-86968396D01*
X100357683Y-86901358D01*
X100410487Y-86855603D01*
X100479646Y-86845659D01*
X100543202Y-86874684D01*
X100549680Y-86880716D01*
X100595185Y-86926221D01*
X100595206Y-86926244D01*
X100600673Y-86931710D01*
X100601380Y-86933004D01*
X100602763Y-86934519D01*
X100602773Y-86934531D01*
X100602388Y-86934851D01*
X100634164Y-86993030D01*
X100637000Y-87019399D01*
X100637000Y-87697870D01*
X100637001Y-87697876D01*
X100643408Y-87757483D01*
X100693702Y-87892328D01*
X100693706Y-87892335D01*
X100779952Y-88007544D01*
X100779955Y-88007547D01*
X100895164Y-88093793D01*
X100895171Y-88093797D01*
X100940118Y-88110561D01*
X101030017Y-88144091D01*
X101089627Y-88150500D01*
X101710372Y-88150499D01*
X101769983Y-88144091D01*
X101904831Y-88093796D01*
X102020046Y-88007546D01*
X102106296Y-87892331D01*
X102156591Y-87757483D01*
X102163000Y-87697873D01*
X102162999Y-87636164D01*
X102182683Y-87569127D01*
X102235486Y-87523371D01*
X102254899Y-87516391D01*
X102309827Y-87501672D01*
X102485046Y-87429085D01*
X102521288Y-87408158D01*
X102589187Y-87391683D01*
X102655215Y-87414532D01*
X102698408Y-87469452D01*
X102705052Y-87539005D01*
X102700998Y-87554546D01*
X102685144Y-87602390D01*
X102685144Y-87602391D01*
X102675000Y-87701677D01*
X102675000Y-87750000D01*
X103501000Y-87750000D01*
X103568039Y-87769685D01*
X103613794Y-87822489D01*
X103625000Y-87874000D01*
X103625000Y-88000000D01*
X103751000Y-88000000D01*
X103818039Y-88019685D01*
X103863794Y-88072489D01*
X103875000Y-88124000D01*
X103875000Y-88974999D01*
X103898308Y-88974999D01*
X103898322Y-88974998D01*
X103997607Y-88964855D01*
X104158481Y-88911547D01*
X104158492Y-88911542D01*
X104302728Y-88822575D01*
X104302732Y-88822572D01*
X104422573Y-88702731D01*
X104458348Y-88644731D01*
X104510296Y-88598006D01*
X104579258Y-88586783D01*
X104638194Y-88610558D01*
X104703153Y-88659186D01*
X104717843Y-88670183D01*
X104719774Y-88671628D01*
X104847886Y-88719412D01*
X104904515Y-88725500D01*
X105445484Y-88725499D01*
X105502114Y-88719412D01*
X105630226Y-88671628D01*
X105739687Y-88589687D01*
X105821628Y-88480226D01*
X105869412Y-88352114D01*
X105873448Y-88314572D01*
X105875499Y-88295501D01*
X105875499Y-88295494D01*
X105875500Y-88295485D01*
X105875499Y-87704516D01*
X105869412Y-87647886D01*
X105865741Y-87638045D01*
X105839667Y-87568139D01*
X105839502Y-87567697D01*
X111445000Y-87567697D01*
X111459800Y-87680104D01*
X111459801Y-87680108D01*
X111517736Y-87819978D01*
X111609905Y-87940094D01*
X111730021Y-88032263D01*
X111869891Y-88090198D01*
X111869895Y-88090199D01*
X111982302Y-88104999D01*
X111982317Y-88105000D01*
X112680000Y-88105000D01*
X113180000Y-88105000D01*
X113519471Y-88105000D01*
X113586510Y-88124685D01*
X113632265Y-88177489D01*
X113642209Y-88246647D01*
X113625010Y-88294097D01*
X113540643Y-88430875D01*
X113540641Y-88430880D01*
X113485494Y-88597302D01*
X113485493Y-88597309D01*
X113475000Y-88700013D01*
X113475000Y-88950000D01*
X114237500Y-88950000D01*
X114237500Y-87979843D01*
X114257185Y-87912804D01*
X114301176Y-87873523D01*
X114342263Y-87819978D01*
X114400198Y-87680108D01*
X114400199Y-87680104D01*
X114414999Y-87567697D01*
X114415000Y-87567683D01*
X114415000Y-87555000D01*
X113180000Y-87555000D01*
X113180000Y-88105000D01*
X112680000Y-88105000D01*
X112680000Y-87555000D01*
X111445000Y-87555000D01*
X111445000Y-87567697D01*
X105839502Y-87567697D01*
X105821628Y-87519774D01*
X105739687Y-87410313D01*
X105630226Y-87328372D01*
X105622444Y-87324123D01*
X105623191Y-87322753D01*
X105575232Y-87286850D01*
X105550816Y-87221385D01*
X105550500Y-87212541D01*
X105550500Y-87069663D01*
X105570185Y-87002624D01*
X105622989Y-86956869D01*
X105661248Y-86946373D01*
X105682483Y-86944091D01*
X105817331Y-86893796D01*
X105932546Y-86807546D01*
X106018796Y-86692331D01*
X106069091Y-86557483D01*
X106075500Y-86497873D01*
X106075500Y-86497845D01*
X106075678Y-86494548D01*
X106077100Y-86494624D01*
X106095185Y-86433037D01*
X106147989Y-86387282D01*
X106199500Y-86376076D01*
X107043676Y-86376076D01*
X107110715Y-86395761D01*
X107131357Y-86412395D01*
X107153789Y-86434827D01*
X107252308Y-86482989D01*
X107266375Y-86489866D01*
X107339364Y-86500500D01*
X107339370Y-86500500D01*
X107660630Y-86500500D01*
X107660636Y-86500500D01*
X107733625Y-86489866D01*
X107792759Y-86460957D01*
X107846210Y-86434827D01*
X107934827Y-86346210D01*
X107972924Y-86268280D01*
X107989866Y-86233625D01*
X108000500Y-86160636D01*
X108000500Y-85839364D01*
X107989866Y-85766375D01*
X107969371Y-85724451D01*
X107934827Y-85653789D01*
X107846210Y-85565172D01*
X107733628Y-85510135D01*
X107733626Y-85510134D01*
X107733625Y-85510134D01*
X107660636Y-85499500D01*
X107339364Y-85499500D01*
X107266375Y-85510134D01*
X107266373Y-85510134D01*
X107266371Y-85510135D01*
X107153789Y-85565172D01*
X107153787Y-85565174D01*
X107130205Y-85588757D01*
X107068882Y-85622242D01*
X107042524Y-85625076D01*
X106199499Y-85625076D01*
X106132460Y-85605391D01*
X106086705Y-85552587D01*
X106076438Y-85505395D01*
X106075900Y-85505423D01*
X106075854Y-85505429D01*
X106075853Y-85505426D01*
X106075676Y-85505436D01*
X106075499Y-85502135D01*
X106075499Y-85502128D01*
X106069091Y-85442517D01*
X106067744Y-85438906D01*
X106018797Y-85307671D01*
X106018793Y-85307664D01*
X105932547Y-85192455D01*
X105932544Y-85192452D01*
X105817335Y-85106206D01*
X105817328Y-85106202D01*
X105682486Y-85055910D01*
X105682485Y-85055909D01*
X105682483Y-85055909D01*
X105622873Y-85049500D01*
X105622863Y-85049500D01*
X105002129Y-85049500D01*
X105002123Y-85049501D01*
X104942516Y-85055908D01*
X104807671Y-85106202D01*
X104807664Y-85106206D01*
X104692455Y-85192452D01*
X104692452Y-85192455D01*
X104606206Y-85307664D01*
X104606202Y-85307671D01*
X104555908Y-85442517D01*
X104550175Y-85495846D01*
X104549501Y-85502123D01*
X104549500Y-85502135D01*
X104549500Y-86497870D01*
X104549501Y-86497876D01*
X104555908Y-86557483D01*
X104606202Y-86692328D01*
X104606203Y-86692329D01*
X104606204Y-86692331D01*
X104657416Y-86760741D01*
X104692452Y-86807543D01*
X104692455Y-86807547D01*
X104692618Y-86807669D01*
X104746857Y-86848272D01*
X104749810Y-86850482D01*
X104791682Y-86906415D01*
X104799500Y-86949749D01*
X104799500Y-87212541D01*
X104779815Y-87279580D01*
X104727011Y-87325335D01*
X104720071Y-87328209D01*
X104719769Y-87328374D01*
X104638195Y-87389439D01*
X104572730Y-87413855D01*
X104504458Y-87399002D01*
X104458347Y-87355268D01*
X104422571Y-87297266D01*
X104302732Y-87177427D01*
X104302728Y-87177424D01*
X104158492Y-87088457D01*
X104158483Y-87088453D01*
X104088447Y-87065245D01*
X104031002Y-87025472D01*
X104004180Y-86960955D01*
X104016495Y-86892180D01*
X104053140Y-86848274D01*
X104107546Y-86807546D01*
X104193796Y-86692331D01*
X104244091Y-86557483D01*
X104250500Y-86497873D01*
X104250499Y-85502128D01*
X104244091Y-85442517D01*
X104242744Y-85438906D01*
X104193797Y-85307671D01*
X104193793Y-85307664D01*
X104107547Y-85192455D01*
X104107544Y-85192452D01*
X103992334Y-85106205D01*
X103992332Y-85106204D01*
X103943665Y-85088052D01*
X103887732Y-85046180D01*
X103863316Y-84980716D01*
X103863000Y-84971871D01*
X103863000Y-84628128D01*
X103882685Y-84561089D01*
X103935489Y-84515334D01*
X103943653Y-84511951D01*
X103992331Y-84493796D01*
X104107546Y-84407546D01*
X104193796Y-84292331D01*
X104244091Y-84157483D01*
X104250500Y-84097873D01*
X104250499Y-83102128D01*
X104244091Y-83042517D01*
X104244067Y-83042453D01*
X104193797Y-82907671D01*
X104193796Y-82907670D01*
X104193796Y-82907669D01*
X104146967Y-82845114D01*
X104122551Y-82779651D01*
X104137402Y-82711378D01*
X104181139Y-82665265D01*
X104218343Y-82642317D01*
X104342315Y-82518345D01*
X104434354Y-82369126D01*
X104434842Y-82368081D01*
X104435368Y-82367482D01*
X104438149Y-82362975D01*
X104438918Y-82363449D01*
X104481007Y-82315635D01*
X104548198Y-82296473D01*
X104615082Y-82316679D01*
X104646498Y-82346157D01*
X104689219Y-82403225D01*
X104692455Y-82407547D01*
X104814769Y-82499112D01*
X104813070Y-82501381D01*
X104852264Y-82540580D01*
X104867111Y-82608854D01*
X104842690Y-82674317D01*
X104813689Y-82699445D01*
X104814769Y-82700888D01*
X104692455Y-82792452D01*
X104692452Y-82792455D01*
X104606206Y-82907664D01*
X104606202Y-82907671D01*
X104555908Y-83042517D01*
X104549782Y-83099500D01*
X104549501Y-83102123D01*
X104549500Y-83102135D01*
X104549500Y-84097870D01*
X104549501Y-84097876D01*
X104555908Y-84157483D01*
X104606202Y-84292328D01*
X104606206Y-84292335D01*
X104692452Y-84407544D01*
X104692455Y-84407547D01*
X104807664Y-84493793D01*
X104807671Y-84493797D01*
X104829292Y-84501861D01*
X104942517Y-84544091D01*
X105002127Y-84550500D01*
X105622872Y-84550499D01*
X105682483Y-84544091D01*
X105817331Y-84493796D01*
X105932546Y-84407546D01*
X106018796Y-84292331D01*
X106069091Y-84157483D01*
X106075500Y-84097873D01*
X106075500Y-84097845D01*
X106075678Y-84094548D01*
X106076934Y-84094615D01*
X106095185Y-84032461D01*
X106147989Y-83986706D01*
X106199500Y-83975500D01*
X106943100Y-83975500D01*
X107010139Y-83995185D01*
X107030781Y-84011819D01*
X107053789Y-84034827D01*
X107161572Y-84087518D01*
X107166375Y-84089866D01*
X107239364Y-84100500D01*
X107239370Y-84100500D01*
X107560630Y-84100500D01*
X107560636Y-84100500D01*
X107633625Y-84089866D01*
X107716866Y-84049172D01*
X107746210Y-84034827D01*
X107834827Y-83946210D01*
X107876568Y-83860826D01*
X107889866Y-83833625D01*
X107900500Y-83760636D01*
X107900500Y-83439364D01*
X107889866Y-83366375D01*
X107860714Y-83306743D01*
X107834827Y-83253789D01*
X107746210Y-83165172D01*
X107633628Y-83110135D01*
X107633626Y-83110134D01*
X107633625Y-83110134D01*
X107560636Y-83099500D01*
X107239364Y-83099500D01*
X107166375Y-83110134D01*
X107166373Y-83110134D01*
X107166371Y-83110135D01*
X107053789Y-83165172D01*
X107053787Y-83165174D01*
X107030781Y-83188181D01*
X106969458Y-83221666D01*
X106943100Y-83224500D01*
X106199499Y-83224500D01*
X106132460Y-83204815D01*
X106086705Y-83152011D01*
X106076562Y-83105388D01*
X106075900Y-83105423D01*
X106075854Y-83105429D01*
X106075853Y-83105426D01*
X106075676Y-83105436D01*
X106075499Y-83102135D01*
X106075499Y-83102128D01*
X106069091Y-83042517D01*
X106069067Y-83042453D01*
X106018797Y-82907671D01*
X106018793Y-82907664D01*
X105932547Y-82792455D01*
X105932544Y-82792452D01*
X105810231Y-82700888D01*
X105811930Y-82698617D01*
X105772743Y-82659435D01*
X105757886Y-82591163D01*
X105782298Y-82525697D01*
X105811311Y-82500556D01*
X105810231Y-82499112D01*
X105906754Y-82426854D01*
X105932546Y-82407546D01*
X106018796Y-82292331D01*
X106069091Y-82157483D01*
X106075500Y-82097873D01*
X106075499Y-81847020D01*
X106095183Y-81779983D01*
X106147987Y-81734228D01*
X106217146Y-81724284D01*
X106246950Y-81732460D01*
X106256291Y-81736330D01*
X106383280Y-81753048D01*
X106399999Y-81755250D01*
X106400000Y-81755250D01*
X106400001Y-81755250D01*
X106414977Y-81753278D01*
X106543709Y-81736330D01*
X106677625Y-81680861D01*
X106728825Y-81641573D01*
X106793990Y-81616380D01*
X106862435Y-81630417D01*
X106912425Y-81679231D01*
X106927599Y-81726695D01*
X106930909Y-81757483D01*
X106981202Y-81892328D01*
X106981206Y-81892335D01*
X107067452Y-82007544D01*
X107067455Y-82007547D01*
X107182664Y-82093793D01*
X107182671Y-82093797D01*
X107215942Y-82106206D01*
X107317517Y-82144091D01*
X107377127Y-82150500D01*
X107997872Y-82150499D01*
X108057483Y-82144091D01*
X108192331Y-82093796D01*
X108307546Y-82007546D01*
X108393796Y-81892331D01*
X108444091Y-81757483D01*
X108450500Y-81697873D01*
X108450499Y-80702128D01*
X108444091Y-80642517D01*
X108442474Y-80638181D01*
X108406912Y-80542833D01*
X108401928Y-80473141D01*
X108435414Y-80411818D01*
X108496737Y-80378334D01*
X108523094Y-80375500D01*
X108676906Y-80375500D01*
X108743945Y-80395185D01*
X108789700Y-80447989D01*
X108799644Y-80517147D01*
X108793088Y-80542833D01*
X108755908Y-80642517D01*
X108749875Y-80698635D01*
X108749501Y-80702123D01*
X108749500Y-80702135D01*
X108749500Y-81697870D01*
X108749501Y-81697876D01*
X108755908Y-81757483D01*
X108806202Y-81892328D01*
X108806206Y-81892335D01*
X108892452Y-82007544D01*
X108892455Y-82007547D01*
X109007664Y-82093793D01*
X109007669Y-82093796D01*
X109056332Y-82111946D01*
X109112266Y-82153816D01*
X109136684Y-82219280D01*
X109137000Y-82228128D01*
X109137000Y-82702632D01*
X109136999Y-82702650D01*
X109136999Y-82712865D01*
X109136981Y-82712926D01*
X109136989Y-82764232D01*
X109137000Y-82831694D01*
X109137001Y-82838053D01*
X109154505Y-82984629D01*
X109154506Y-82984633D01*
X109187181Y-83119507D01*
X109189267Y-83128115D01*
X109190347Y-83131643D01*
X109189348Y-83131948D01*
X109193988Y-83197174D01*
X109168617Y-83243625D01*
X109171143Y-83245429D01*
X109165171Y-83253792D01*
X109110135Y-83366371D01*
X109110134Y-83366373D01*
X109110134Y-83366375D01*
X109099500Y-83439364D01*
X109099500Y-83760636D01*
X109110134Y-83833625D01*
X109110134Y-83833626D01*
X109110135Y-83833628D01*
X109165172Y-83946210D01*
X109253789Y-84034827D01*
X109361572Y-84087518D01*
X109366375Y-84089866D01*
X109439364Y-84100500D01*
X109439370Y-84100500D01*
X109760630Y-84100500D01*
X109760636Y-84100500D01*
X109833625Y-84089866D01*
X109916866Y-84049172D01*
X109946210Y-84034827D01*
X109946210Y-84034826D01*
X109946211Y-84034826D01*
X109981194Y-83999843D01*
X110036784Y-83967748D01*
X110055596Y-83962707D01*
X110055597Y-83962706D01*
X110055603Y-83962705D01*
X110103355Y-83949910D01*
X110146813Y-83924819D01*
X110163339Y-83916845D01*
X110167934Y-83915033D01*
X110209189Y-83898771D01*
X110217652Y-83892856D01*
X110283879Y-83870593D01*
X110288678Y-83870500D01*
X111658812Y-83870500D01*
X111725851Y-83890185D01*
X111746493Y-83906819D01*
X111749253Y-83909579D01*
X111830421Y-83990747D01*
X111888048Y-84017619D01*
X111940484Y-84063788D01*
X111959637Y-84130982D01*
X111939422Y-84197863D01*
X111888047Y-84242380D01*
X111830422Y-84269251D01*
X111749253Y-84350420D01*
X111700740Y-84454456D01*
X111694500Y-84501860D01*
X111694500Y-85028132D01*
X111694501Y-85028138D01*
X111700741Y-85075545D01*
X111700742Y-85075547D01*
X111700742Y-85075548D01*
X111719263Y-85115266D01*
X111749253Y-85179579D01*
X111830421Y-85260747D01*
X111888048Y-85287619D01*
X111940484Y-85333788D01*
X111959637Y-85400982D01*
X111939422Y-85467863D01*
X111888047Y-85512380D01*
X111830422Y-85539251D01*
X111830421Y-85539252D01*
X111746493Y-85623181D01*
X111685170Y-85656666D01*
X111658812Y-85659500D01*
X110191899Y-85659500D01*
X110124860Y-85639815D01*
X110104222Y-85623185D01*
X110046211Y-85565174D01*
X110046210Y-85565173D01*
X110046209Y-85565172D01*
X109933628Y-85510135D01*
X109933626Y-85510134D01*
X109933625Y-85510134D01*
X109860636Y-85499500D01*
X109539364Y-85499500D01*
X109466375Y-85510134D01*
X109466373Y-85510134D01*
X109466371Y-85510135D01*
X109353789Y-85565172D01*
X109265172Y-85653789D01*
X109210135Y-85766371D01*
X109210134Y-85766373D01*
X109210134Y-85766375D01*
X109199500Y-85839364D01*
X109199500Y-86160636D01*
X109210134Y-86233625D01*
X109210134Y-86233626D01*
X109210135Y-86233628D01*
X109265172Y-86346210D01*
X109353789Y-86434827D01*
X109452308Y-86482989D01*
X109466375Y-86489866D01*
X109539364Y-86500500D01*
X109539370Y-86500500D01*
X109860630Y-86500500D01*
X109860636Y-86500500D01*
X109933625Y-86489866D01*
X110046211Y-86434826D01*
X110046217Y-86434819D01*
X110047949Y-86433584D01*
X110050723Y-86432619D01*
X110055442Y-86430313D01*
X110055720Y-86430883D01*
X110113947Y-86410648D01*
X110120005Y-86410500D01*
X111582676Y-86410500D01*
X111649715Y-86430185D01*
X111695470Y-86482989D01*
X111705414Y-86552147D01*
X111676389Y-86615703D01*
X111658163Y-86632875D01*
X111609907Y-86669903D01*
X111517736Y-86790021D01*
X111459801Y-86929891D01*
X111459800Y-86929895D01*
X111445000Y-87042302D01*
X111445000Y-87055000D01*
X114415000Y-87055000D01*
X114415000Y-87042316D01*
X114414999Y-87042302D01*
X114400199Y-86929895D01*
X114400198Y-86929891D01*
X114342263Y-86790021D01*
X114250094Y-86669905D01*
X114150756Y-86593680D01*
X114109554Y-86537252D01*
X114105399Y-86467506D01*
X114113858Y-86442906D01*
X114159259Y-86345545D01*
X114165500Y-86298139D01*
X114165499Y-85771862D01*
X114159259Y-85724455D01*
X114110747Y-85620421D01*
X114029579Y-85539253D01*
X114029578Y-85539252D01*
X113971954Y-85512382D01*
X113919514Y-85466210D01*
X113900362Y-85399017D01*
X113920578Y-85332135D01*
X113971954Y-85287618D01*
X114005498Y-85271976D01*
X114029579Y-85260747D01*
X114110747Y-85179579D01*
X114159259Y-85075545D01*
X114165500Y-85028139D01*
X114165499Y-85025160D01*
X114165750Y-85024306D01*
X114165765Y-85024088D01*
X114165813Y-85024091D01*
X114185174Y-84958121D01*
X114227496Y-84917761D01*
X114293552Y-84879625D01*
X114456257Y-84754777D01*
X114483596Y-84727436D01*
X114483602Y-84727432D01*
X114493809Y-84717224D01*
X114493811Y-84717224D01*
X114686694Y-84524341D01*
X114686713Y-84524330D01*
X114723021Y-84488021D01*
X114723022Y-84488022D01*
X114811485Y-84399558D01*
X114967490Y-84203934D01*
X115100610Y-83992074D01*
X115209172Y-83766640D01*
X115291811Y-83530468D01*
X115347487Y-83286529D01*
X115348148Y-83280667D01*
X115364491Y-83135609D01*
X115375501Y-83037890D01*
X115375500Y-82912784D01*
X115375500Y-82888164D01*
X115375500Y-81918946D01*
X115395185Y-81851907D01*
X115433525Y-81813954D01*
X115470890Y-81790477D01*
X115590477Y-81670890D01*
X115590695Y-81670543D01*
X115680452Y-81527697D01*
X115680454Y-81527694D01*
X115680454Y-81527692D01*
X115680456Y-81527690D01*
X115736313Y-81368059D01*
X115736313Y-81368058D01*
X115736314Y-81368056D01*
X115755249Y-81200002D01*
X115755249Y-81199997D01*
X115736314Y-81031943D01*
X115694624Y-80912801D01*
X115680456Y-80872310D01*
X115680455Y-80872309D01*
X115680454Y-80872305D01*
X115680452Y-80872302D01*
X115590481Y-80729115D01*
X115590476Y-80729109D01*
X115470890Y-80609523D01*
X115470884Y-80609518D01*
X115327697Y-80519547D01*
X115327694Y-80519545D01*
X115168056Y-80463685D01*
X115000003Y-80444751D01*
X114999996Y-80444751D01*
X114857831Y-80460769D01*
X114789010Y-80448714D01*
X114756267Y-80425230D01*
X114701846Y-80370809D01*
X114701825Y-80370771D01*
X114633094Y-80302041D01*
X114569267Y-80238214D01*
X114480579Y-80167488D01*
X114356403Y-80068461D01*
X114125872Y-79923610D01*
X113974052Y-79850499D01*
X113880570Y-79805481D01*
X113880567Y-79805480D01*
X113880563Y-79805478D01*
X113623591Y-79715562D01*
X113623583Y-79715560D01*
X113358151Y-79654979D01*
X113242197Y-79641916D01*
X113087597Y-79624499D01*
X113087593Y-79624499D01*
X112951466Y-79624500D01*
X103707966Y-79624500D01*
X103707661Y-79624518D01*
X103629102Y-79624518D01*
X103629101Y-79624518D01*
X103629099Y-79624518D01*
X103571791Y-79630161D01*
X103358690Y-79651145D01*
X103092193Y-79704151D01*
X103092187Y-79704152D01*
X102832184Y-79783021D01*
X102832182Y-79783021D01*
X102832178Y-79783023D01*
X102738188Y-79821954D01*
X102581139Y-79887004D01*
X102341517Y-80015083D01*
X102341496Y-80015095D01*
X102115590Y-80166039D01*
X102115587Y-80166042D01*
X101905553Y-80338411D01*
X101905548Y-80338416D01*
X101844439Y-80399524D01*
X101844437Y-80399526D01*
X101809481Y-80434481D01*
X101789635Y-80454328D01*
X101605781Y-80638181D01*
X101544458Y-80671666D01*
X101518100Y-80674500D01*
X101104518Y-80674500D01*
X101104509Y-80674501D01*
X101047885Y-80680587D01*
X100919773Y-80728372D01*
X100810313Y-80810313D01*
X100728372Y-80919773D01*
X100716181Y-80952459D01*
X100674310Y-81008392D01*
X100608845Y-81032808D01*
X100540572Y-81017956D01*
X100491167Y-80968550D01*
X100483819Y-80952459D01*
X100471628Y-80919774D01*
X100389687Y-80810313D01*
X100280226Y-80728372D01*
X100272444Y-80724123D01*
X100273191Y-80722753D01*
X100225232Y-80686850D01*
X100200816Y-80621385D01*
X100200500Y-80612541D01*
X100200500Y-78927880D01*
X100200882Y-78918152D01*
X100204071Y-78877625D01*
X100211400Y-78784500D01*
X100214442Y-78765294D01*
X100219183Y-78745549D01*
X100253975Y-78684958D01*
X100316002Y-78652795D01*
X100339756Y-78650499D01*
X101897871Y-78650499D01*
X101897872Y-78650499D01*
X101957483Y-78644091D01*
X102092331Y-78593796D01*
X102207546Y-78507546D01*
X102293796Y-78392331D01*
X102344091Y-78257483D01*
X102350500Y-78197873D01*
X102350499Y-77002128D01*
X102344091Y-76942517D01*
X102343083Y-76939815D01*
X102293797Y-76807671D01*
X102293793Y-76807664D01*
X102207547Y-76692455D01*
X102207544Y-76692452D01*
X102092335Y-76606206D01*
X102092328Y-76606202D01*
X101957482Y-76555908D01*
X101957483Y-76555908D01*
X101897883Y-76549501D01*
X101897881Y-76549500D01*
X101897873Y-76549500D01*
X101897864Y-76549500D01*
X99302129Y-76549500D01*
X99302123Y-76549501D01*
X99242516Y-76555908D01*
X99107671Y-76606202D01*
X99107664Y-76606206D01*
X98992455Y-76692452D01*
X98992452Y-76692455D01*
X98906206Y-76807664D01*
X98906202Y-76807671D01*
X98879661Y-76878833D01*
X98837790Y-76934767D01*
X98772325Y-76959184D01*
X98763479Y-76959500D01*
X96494185Y-76959500D01*
X96427146Y-76939815D01*
X96383186Y-76890774D01*
X96314673Y-76753179D01*
X96193206Y-76592330D01*
X96191762Y-76590418D01*
X96041041Y-76453019D01*
X96041039Y-76453017D01*
X95867642Y-76345655D01*
X95867635Y-76345651D01*
X95752686Y-76301120D01*
X95677456Y-76271976D01*
X95476976Y-76234500D01*
X95273024Y-76234500D01*
X95072544Y-76271976D01*
X95072541Y-76271976D01*
X95072541Y-76271977D01*
X94882364Y-76345651D01*
X94882357Y-76345655D01*
X94708960Y-76453017D01*
X94704385Y-76456473D01*
X94703171Y-76454865D01*
X94648442Y-76481535D01*
X94579056Y-76473325D01*
X94525124Y-76428906D01*
X94503768Y-76362380D01*
X94504045Y-76350431D01*
X94504387Y-76345651D01*
X94515130Y-76195436D01*
X94517646Y-76177938D01*
X94559356Y-75986199D01*
X94564333Y-75969248D01*
X94632911Y-75785385D01*
X94640259Y-75769298D01*
X94675852Y-75704114D01*
X94734291Y-75597089D01*
X94743845Y-75582221D01*
X94861448Y-75425123D01*
X94873020Y-75411769D01*
X95011769Y-75273020D01*
X95025123Y-75261448D01*
X95182221Y-75143845D01*
X95197089Y-75134291D01*
X95369298Y-75040258D01*
X95385385Y-75032911D01*
X95569248Y-74964333D01*
X95586199Y-74959356D01*
X95777938Y-74917646D01*
X95795436Y-74915130D01*
X95995582Y-74900816D01*
X96004428Y-74900500D01*
X96065892Y-74900500D01*
X120600500Y-74900500D01*
X120667539Y-74920185D01*
G37*
%TD.AperFunction*%
%TA.AperFunction,Conductor*%
G36*
X119093834Y-87779006D02*
G01*
X119149767Y-87820878D01*
X119174184Y-87886342D01*
X119174500Y-87895188D01*
X119174500Y-88306288D01*
X119174497Y-88306334D01*
X119174497Y-88324376D01*
X119174484Y-88324420D01*
X119174488Y-88470769D01*
X119199299Y-88659186D01*
X119199300Y-88659190D01*
X119248493Y-88842763D01*
X119321213Y-89018318D01*
X119321224Y-89018340D01*
X119416235Y-89182898D01*
X119416246Y-89182915D01*
X119523321Y-89322456D01*
X119548516Y-89387625D01*
X119534478Y-89456070D01*
X119512627Y-89485624D01*
X118379885Y-90618367D01*
X118379884Y-90618368D01*
X118338349Y-90659902D01*
X118334840Y-90663276D01*
X118057146Y-90919973D01*
X118049743Y-90926296D01*
X117754678Y-91158907D01*
X117746801Y-91164630D01*
X117434402Y-91373368D01*
X117426100Y-91378456D01*
X117098274Y-91562047D01*
X117089599Y-91566467D01*
X116748386Y-91723768D01*
X116739387Y-91727495D01*
X116714569Y-91736650D01*
X116644860Y-91741384D01*
X116583658Y-91707678D01*
X116550394Y-91646235D01*
X116555629Y-91576561D01*
X116572383Y-91546009D01*
X116621628Y-91480226D01*
X116669412Y-91352114D01*
X116672125Y-91326878D01*
X116675499Y-91295501D01*
X116675499Y-91295494D01*
X116675500Y-91295485D01*
X116675499Y-90704516D01*
X116669412Y-90647886D01*
X116621628Y-90519774D01*
X116539687Y-90410313D01*
X116539685Y-90410311D01*
X116539684Y-90410310D01*
X116520767Y-90396149D01*
X116478896Y-90340215D01*
X116473912Y-90270524D01*
X116494760Y-90223998D01*
X116511027Y-90201608D01*
X116566357Y-90158946D01*
X116611342Y-90150499D01*
X116622871Y-90150499D01*
X116622872Y-90150499D01*
X116682483Y-90144091D01*
X116817331Y-90093796D01*
X116932546Y-90007546D01*
X117018796Y-89892331D01*
X117069091Y-89757483D01*
X117075500Y-89697873D01*
X117075499Y-88702128D01*
X117069091Y-88642517D01*
X117068044Y-88639711D01*
X117018797Y-88507671D01*
X117018793Y-88507664D01*
X116932547Y-88392455D01*
X116932544Y-88392452D01*
X116817334Y-88306205D01*
X116817332Y-88306204D01*
X116768665Y-88288052D01*
X116712732Y-88246180D01*
X116688316Y-88180716D01*
X116688000Y-88171871D01*
X116688000Y-87956954D01*
X116707685Y-87889915D01*
X116760489Y-87844160D01*
X116829647Y-87834216D01*
X116864405Y-87844572D01*
X116874455Y-87849259D01*
X116921861Y-87855500D01*
X118818138Y-87855499D01*
X118865545Y-87849259D01*
X118969579Y-87800747D01*
X118969580Y-87800746D01*
X118978465Y-87794525D01*
X118980713Y-87797735D01*
X119024142Y-87774022D01*
X119093834Y-87779006D01*
G37*
%TD.AperFunction*%
%TA.AperFunction,Conductor*%
G36*
X102394334Y-81014216D02*
G01*
X102450267Y-81056088D01*
X102474684Y-81121552D01*
X102475000Y-81130398D01*
X102475000Y-81350000D01*
X103363500Y-81350000D01*
X103430539Y-81369685D01*
X103476294Y-81422489D01*
X103487500Y-81474000D01*
X103487500Y-81726000D01*
X103467815Y-81793039D01*
X103415011Y-81838794D01*
X103363500Y-81850000D01*
X102475001Y-81850000D01*
X102475001Y-82099986D01*
X102485494Y-82202697D01*
X102540641Y-82369119D01*
X102540643Y-82369124D01*
X102632684Y-82518345D01*
X102756656Y-82642317D01*
X102793861Y-82665265D01*
X102840586Y-82717213D01*
X102851809Y-82786175D01*
X102828032Y-82845114D01*
X102824001Y-82850500D01*
X102781204Y-82907669D01*
X102781202Y-82907671D01*
X102730908Y-83042517D01*
X102724782Y-83099500D01*
X102724501Y-83102123D01*
X102724500Y-83102135D01*
X102724500Y-84097870D01*
X102724501Y-84097876D01*
X102730908Y-84157483D01*
X102781202Y-84292328D01*
X102781206Y-84292335D01*
X102867452Y-84407544D01*
X102867455Y-84407547D01*
X102982664Y-84493793D01*
X102982669Y-84493796D01*
X103031332Y-84511946D01*
X103087266Y-84553816D01*
X103111684Y-84619280D01*
X103112000Y-84628128D01*
X103112000Y-84971871D01*
X103092315Y-85038910D01*
X103039511Y-85084665D01*
X103031335Y-85088052D01*
X102982667Y-85106204D01*
X102982665Y-85106205D01*
X102867455Y-85192452D01*
X102867452Y-85192455D01*
X102781206Y-85307664D01*
X102781202Y-85307671D01*
X102730908Y-85442517D01*
X102725175Y-85495846D01*
X102724501Y-85502123D01*
X102724500Y-85502135D01*
X102724500Y-86180599D01*
X102704815Y-86247638D01*
X102688181Y-86268280D01*
X102378268Y-86578192D01*
X102378236Y-86578221D01*
X102340048Y-86616411D01*
X102331042Y-86624575D01*
X102326548Y-86628264D01*
X102262241Y-86655585D01*
X102193372Y-86643801D01*
X102141807Y-86596655D01*
X102131690Y-86575753D01*
X102106297Y-86507671D01*
X102106293Y-86507664D01*
X102020047Y-86392455D01*
X102020044Y-86392452D01*
X101904835Y-86306206D01*
X101904828Y-86306202D01*
X101769986Y-86255910D01*
X101769985Y-86255909D01*
X101769983Y-86255909D01*
X101710373Y-86249500D01*
X101710363Y-86249500D01*
X101089620Y-86249500D01*
X101087653Y-86249606D01*
X101087209Y-86249500D01*
X101086307Y-86249501D01*
X101086307Y-86249287D01*
X101019659Y-86233523D01*
X100977942Y-86194674D01*
X100958416Y-86165452D01*
X100950308Y-86151410D01*
X100880452Y-86009755D01*
X100874254Y-85994789D01*
X100823485Y-85845229D01*
X100819289Y-85829568D01*
X100788478Y-85674670D01*
X100786363Y-85658611D01*
X100775764Y-85496888D01*
X100775500Y-85488788D01*
X100775500Y-84379754D01*
X100795185Y-84312715D01*
X100811814Y-84292077D01*
X100878050Y-84225842D01*
X100935646Y-84112804D01*
X100935646Y-84112802D01*
X100935647Y-84112801D01*
X100950499Y-84019024D01*
X100950500Y-84019019D01*
X100950499Y-82780982D01*
X100935646Y-82687196D01*
X100878050Y-82574158D01*
X100878046Y-82574154D01*
X100878045Y-82574152D01*
X100788347Y-82484454D01*
X100788344Y-82484452D01*
X100788342Y-82484450D01*
X100706042Y-82442516D01*
X100675301Y-82426852D01*
X100581524Y-82412000D01*
X100218482Y-82412000D01*
X100137519Y-82424823D01*
X100124696Y-82426854D01*
X100011658Y-82484450D01*
X100011657Y-82484451D01*
X100011652Y-82484454D01*
X99921954Y-82574152D01*
X99916217Y-82582050D01*
X99914662Y-82580920D01*
X99875021Y-82622884D01*
X99807198Y-82639672D01*
X99741066Y-82617126D01*
X99697962Y-82563238D01*
X99631683Y-82403225D01*
X99631675Y-82403209D01*
X99578726Y-82311499D01*
X99562253Y-82243599D01*
X99585105Y-82177572D01*
X99640027Y-82134381D01*
X99686109Y-82125499D01*
X100095484Y-82125499D01*
X100152114Y-82119412D01*
X100280226Y-82071628D01*
X100389687Y-81989687D01*
X100471628Y-81880226D01*
X100483819Y-81847538D01*
X100525687Y-81791609D01*
X100591150Y-81767191D01*
X100659424Y-81782042D01*
X100708830Y-81831446D01*
X100716180Y-81847539D01*
X100728372Y-81880227D01*
X100757357Y-81918946D01*
X100810313Y-81989687D01*
X100919774Y-82071628D01*
X101047886Y-82119412D01*
X101104515Y-82125500D01*
X101645484Y-82125499D01*
X101702114Y-82119412D01*
X101830226Y-82071628D01*
X101939687Y-81989687D01*
X102021628Y-81880226D01*
X102069412Y-81752114D01*
X102072145Y-81726695D01*
X102075499Y-81695501D01*
X102075499Y-81695494D01*
X102075500Y-81695485D01*
X102075499Y-81281898D01*
X102095183Y-81214860D01*
X102111818Y-81194218D01*
X102197618Y-81108418D01*
X102263320Y-81042716D01*
X102324642Y-81009232D01*
X102394334Y-81014216D01*
G37*
%TD.AperFunction*%
%TA.AperFunction,Conductor*%
G36*
X133017686Y-74920185D02*
G01*
X133063441Y-74972989D01*
X133073385Y-75042147D01*
X133044360Y-75105703D01*
X133019538Y-75127602D01*
X132994399Y-75144398D01*
X132939033Y-75227260D01*
X132939032Y-75227264D01*
X132924500Y-75300321D01*
X132924500Y-75675500D01*
X132904815Y-75742539D01*
X132852011Y-75788294D01*
X132800500Y-75799500D01*
X129718947Y-75799500D01*
X129651908Y-75779815D01*
X129613953Y-75741471D01*
X129590480Y-75704114D01*
X129590478Y-75704111D01*
X129470890Y-75584523D01*
X129470884Y-75584518D01*
X129327697Y-75494547D01*
X129327694Y-75494545D01*
X129168056Y-75438685D01*
X129000003Y-75419751D01*
X128999997Y-75419751D01*
X128831943Y-75438685D01*
X128672305Y-75494545D01*
X128672302Y-75494547D01*
X128529115Y-75584518D01*
X128529109Y-75584523D01*
X128409523Y-75704109D01*
X128409518Y-75704115D01*
X128319547Y-75847302D01*
X128319545Y-75847305D01*
X128263685Y-76006943D01*
X128244751Y-76174997D01*
X128244751Y-76175002D01*
X128263685Y-76343056D01*
X128319545Y-76502694D01*
X128319547Y-76502697D01*
X128409518Y-76645884D01*
X128409523Y-76645890D01*
X128529109Y-76765476D01*
X128529115Y-76765481D01*
X128672302Y-76855452D01*
X128672305Y-76855454D01*
X128672309Y-76855455D01*
X128672310Y-76855456D01*
X128739118Y-76878833D01*
X128831943Y-76911314D01*
X128999997Y-76930249D01*
X129000000Y-76930249D01*
X129000003Y-76930249D01*
X129168056Y-76911314D01*
X129198875Y-76900530D01*
X129327690Y-76855456D01*
X129327692Y-76855454D01*
X129327694Y-76855454D01*
X129327697Y-76855452D01*
X129470884Y-76765481D01*
X129470885Y-76765480D01*
X129470890Y-76765477D01*
X129590477Y-76645890D01*
X129604867Y-76622989D01*
X129613953Y-76608529D01*
X129666287Y-76562237D01*
X129718947Y-76550500D01*
X131019110Y-76550500D01*
X131086149Y-76570185D01*
X131131904Y-76622989D01*
X131141848Y-76692147D01*
X131112823Y-76755703D01*
X131106791Y-76762181D01*
X131074218Y-76794753D01*
X131074210Y-76794762D01*
X130928658Y-76984445D01*
X130928654Y-76984451D01*
X130809101Y-77191519D01*
X130809098Y-77191524D01*
X130717597Y-77412425D01*
X130655709Y-77643388D01*
X130624500Y-77880439D01*
X130624500Y-77995124D01*
X130624118Y-78004854D01*
X130612054Y-78158130D01*
X130609010Y-78177348D01*
X130574260Y-78322089D01*
X130568247Y-78340593D01*
X130542888Y-78401816D01*
X130499048Y-78456220D01*
X130432754Y-78478285D01*
X130365054Y-78461006D01*
X130317443Y-78409869D01*
X130313766Y-78401816D01*
X130280862Y-78322377D01*
X130280861Y-78322376D01*
X130280861Y-78322375D01*
X130192621Y-78207379D01*
X130077625Y-78119139D01*
X130077624Y-78119138D01*
X130077622Y-78119137D01*
X129943712Y-78063671D01*
X129943710Y-78063670D01*
X129943709Y-78063670D01*
X129929461Y-78061794D01*
X129857147Y-78052273D01*
X129804065Y-78031096D01*
X129803764Y-78031588D01*
X129800901Y-78029833D01*
X129800453Y-78029655D01*
X129799609Y-78029042D01*
X129799610Y-78029042D01*
X129716527Y-77986706D01*
X129674101Y-77965087D01*
X129542677Y-77922376D01*
X129540135Y-77921550D01*
X129540127Y-77921548D01*
X129401016Y-77899506D01*
X129400832Y-77899505D01*
X129393758Y-77899504D01*
X129393671Y-77899500D01*
X129386563Y-77899500D01*
X129330586Y-77899500D01*
X129260414Y-77899493D01*
X129260318Y-77899500D01*
X128211999Y-77899500D01*
X128144960Y-77879815D01*
X128099205Y-77827011D01*
X128087999Y-77775500D01*
X128087999Y-77705982D01*
X128083553Y-77677910D01*
X128073146Y-77612196D01*
X128015550Y-77499158D01*
X128015546Y-77499154D01*
X128015545Y-77499152D01*
X127925847Y-77409454D01*
X127925844Y-77409452D01*
X127925842Y-77409450D01*
X127838059Y-77364722D01*
X127812801Y-77351852D01*
X127719024Y-77337000D01*
X127355982Y-77337000D01*
X127278349Y-77349295D01*
X127262196Y-77351854D01*
X127262195Y-77351854D01*
X127262191Y-77351855D01*
X127252912Y-77354870D01*
X127252517Y-77353655D01*
X127193568Y-77364722D01*
X127128830Y-77338441D01*
X127118271Y-77329023D01*
X125461818Y-75672570D01*
X125428333Y-75611247D01*
X125425499Y-75584898D01*
X125425499Y-75024499D01*
X125445184Y-74957461D01*
X125497988Y-74911706D01*
X125549499Y-74900500D01*
X132950647Y-74900500D01*
X133017686Y-74920185D01*
G37*
%TD.AperFunction*%
%TD*%
M02*
